G04 EAGLE Gerber RS-274X export*
G75*
%MOMM*%
%FSLAX34Y34*%
%LPD*%
%INTop Copper*%
%IPPOS*%
%AMOC8*
5,1,8,0,0,1.08239X$1,22.5*%
G01*
%ADD10C,1.524000*%
%ADD11C,0.198000*%
%ADD12R,0.300000X1.300000*%
%ADD13R,1.800000X2.200000*%
%ADD14C,0.152400*%
%ADD15C,0.756400*%


D10*
X150800Y127620D02*
X150800Y112380D01*
X125400Y112380D02*
X125400Y127620D01*
X100000Y127620D02*
X100000Y112380D01*
X74600Y112380D02*
X74600Y127620D01*
X49200Y127620D02*
X49200Y112380D01*
X274200Y112380D02*
X274200Y127620D01*
X299600Y127620D02*
X299600Y112380D01*
X325000Y112380D02*
X325000Y127620D01*
X350400Y127620D02*
X350400Y112380D01*
X375800Y112380D02*
X375800Y127620D01*
X724200Y127620D02*
X724200Y112380D01*
X749600Y112380D02*
X749600Y127620D01*
X775000Y127620D02*
X775000Y112380D01*
X800400Y112380D02*
X800400Y127620D01*
X825800Y127620D02*
X825800Y112380D01*
X949200Y112380D02*
X949200Y127620D01*
X974600Y127620D02*
X974600Y112380D01*
X1000000Y112380D02*
X1000000Y127620D01*
X1025400Y127620D02*
X1025400Y112380D01*
X1050800Y112380D02*
X1050800Y127620D01*
X577300Y127620D02*
X577300Y112380D01*
X602700Y112380D02*
X602700Y127620D01*
X497300Y127620D02*
X497300Y112380D01*
X522700Y112380D02*
X522700Y127620D01*
D11*
X43010Y168010D02*
X41990Y168010D01*
X43010Y168010D02*
X43010Y153990D01*
X41990Y153990D01*
X41990Y168010D01*
X41990Y155871D02*
X43010Y155871D01*
X43010Y157752D02*
X41990Y157752D01*
X41990Y159633D02*
X43010Y159633D01*
X43010Y161514D02*
X41990Y161514D01*
X41990Y163395D02*
X43010Y163395D01*
X43010Y165276D02*
X41990Y165276D01*
X41990Y167157D02*
X43010Y167157D01*
X43010Y246010D02*
X41990Y246010D01*
X43010Y246010D02*
X43010Y231990D01*
X41990Y231990D01*
X41990Y246010D01*
X41990Y233871D02*
X43010Y233871D01*
X43010Y235752D02*
X41990Y235752D01*
X41990Y237633D02*
X43010Y237633D01*
X43010Y239514D02*
X41990Y239514D01*
X41990Y241395D02*
X43010Y241395D01*
X43010Y243276D02*
X41990Y243276D01*
X41990Y245157D02*
X43010Y245157D01*
X46990Y168010D02*
X48010Y168010D01*
X48010Y153990D01*
X46990Y153990D01*
X46990Y168010D01*
X46990Y155871D02*
X48010Y155871D01*
X48010Y157752D02*
X46990Y157752D01*
X46990Y159633D02*
X48010Y159633D01*
X48010Y161514D02*
X46990Y161514D01*
X46990Y163395D02*
X48010Y163395D01*
X48010Y165276D02*
X46990Y165276D01*
X46990Y167157D02*
X48010Y167157D01*
X51990Y168010D02*
X53010Y168010D01*
X53010Y153990D01*
X51990Y153990D01*
X51990Y168010D01*
X51990Y155871D02*
X53010Y155871D01*
X53010Y157752D02*
X51990Y157752D01*
X51990Y159633D02*
X53010Y159633D01*
X53010Y161514D02*
X51990Y161514D01*
X51990Y163395D02*
X53010Y163395D01*
X53010Y165276D02*
X51990Y165276D01*
X51990Y167157D02*
X53010Y167157D01*
X56990Y168010D02*
X58010Y168010D01*
X58010Y153990D01*
X56990Y153990D01*
X56990Y168010D01*
X56990Y155871D02*
X58010Y155871D01*
X58010Y157752D02*
X56990Y157752D01*
X56990Y159633D02*
X58010Y159633D01*
X58010Y161514D02*
X56990Y161514D01*
X56990Y163395D02*
X58010Y163395D01*
X58010Y165276D02*
X56990Y165276D01*
X56990Y167157D02*
X58010Y167157D01*
X61990Y168010D02*
X63010Y168010D01*
X63010Y153990D01*
X61990Y153990D01*
X61990Y168010D01*
X61990Y155871D02*
X63010Y155871D01*
X63010Y157752D02*
X61990Y157752D01*
X61990Y159633D02*
X63010Y159633D01*
X63010Y161514D02*
X61990Y161514D01*
X61990Y163395D02*
X63010Y163395D01*
X63010Y165276D02*
X61990Y165276D01*
X61990Y167157D02*
X63010Y167157D01*
X66990Y168010D02*
X68010Y168010D01*
X68010Y153990D01*
X66990Y153990D01*
X66990Y168010D01*
X66990Y155871D02*
X68010Y155871D01*
X68010Y157752D02*
X66990Y157752D01*
X66990Y159633D02*
X68010Y159633D01*
X68010Y161514D02*
X66990Y161514D01*
X66990Y163395D02*
X68010Y163395D01*
X68010Y165276D02*
X66990Y165276D01*
X66990Y167157D02*
X68010Y167157D01*
X71990Y168010D02*
X73010Y168010D01*
X73010Y153990D01*
X71990Y153990D01*
X71990Y168010D01*
X71990Y155871D02*
X73010Y155871D01*
X73010Y157752D02*
X71990Y157752D01*
X71990Y159633D02*
X73010Y159633D01*
X73010Y161514D02*
X71990Y161514D01*
X71990Y163395D02*
X73010Y163395D01*
X73010Y165276D02*
X71990Y165276D01*
X71990Y167157D02*
X73010Y167157D01*
X76990Y168010D02*
X78010Y168010D01*
X78010Y153990D01*
X76990Y153990D01*
X76990Y168010D01*
X76990Y155871D02*
X78010Y155871D01*
X78010Y157752D02*
X76990Y157752D01*
X76990Y159633D02*
X78010Y159633D01*
X78010Y161514D02*
X76990Y161514D01*
X76990Y163395D02*
X78010Y163395D01*
X78010Y165276D02*
X76990Y165276D01*
X76990Y167157D02*
X78010Y167157D01*
X81990Y168010D02*
X83010Y168010D01*
X83010Y153990D01*
X81990Y153990D01*
X81990Y168010D01*
X81990Y155871D02*
X83010Y155871D01*
X83010Y157752D02*
X81990Y157752D01*
X81990Y159633D02*
X83010Y159633D01*
X83010Y161514D02*
X81990Y161514D01*
X81990Y163395D02*
X83010Y163395D01*
X83010Y165276D02*
X81990Y165276D01*
X81990Y167157D02*
X83010Y167157D01*
X86990Y168010D02*
X88010Y168010D01*
X88010Y153990D01*
X86990Y153990D01*
X86990Y168010D01*
X86990Y155871D02*
X88010Y155871D01*
X88010Y157752D02*
X86990Y157752D01*
X86990Y159633D02*
X88010Y159633D01*
X88010Y161514D02*
X86990Y161514D01*
X86990Y163395D02*
X88010Y163395D01*
X88010Y165276D02*
X86990Y165276D01*
X86990Y167157D02*
X88010Y167157D01*
X91990Y168010D02*
X93010Y168010D01*
X93010Y153990D01*
X91990Y153990D01*
X91990Y168010D01*
X91990Y155871D02*
X93010Y155871D01*
X93010Y157752D02*
X91990Y157752D01*
X91990Y159633D02*
X93010Y159633D01*
X93010Y161514D02*
X91990Y161514D01*
X91990Y163395D02*
X93010Y163395D01*
X93010Y165276D02*
X91990Y165276D01*
X91990Y167157D02*
X93010Y167157D01*
X96990Y168010D02*
X98010Y168010D01*
X98010Y153990D01*
X96990Y153990D01*
X96990Y168010D01*
X96990Y155871D02*
X98010Y155871D01*
X98010Y157752D02*
X96990Y157752D01*
X96990Y159633D02*
X98010Y159633D01*
X98010Y161514D02*
X96990Y161514D01*
X96990Y163395D02*
X98010Y163395D01*
X98010Y165276D02*
X96990Y165276D01*
X96990Y167157D02*
X98010Y167157D01*
X101990Y168010D02*
X103010Y168010D01*
X103010Y153990D01*
X101990Y153990D01*
X101990Y168010D01*
X101990Y155871D02*
X103010Y155871D01*
X103010Y157752D02*
X101990Y157752D01*
X101990Y159633D02*
X103010Y159633D01*
X103010Y161514D02*
X101990Y161514D01*
X101990Y163395D02*
X103010Y163395D01*
X103010Y165276D02*
X101990Y165276D01*
X101990Y167157D02*
X103010Y167157D01*
X106990Y168010D02*
X108010Y168010D01*
X108010Y153990D01*
X106990Y153990D01*
X106990Y168010D01*
X106990Y155871D02*
X108010Y155871D01*
X108010Y157752D02*
X106990Y157752D01*
X106990Y159633D02*
X108010Y159633D01*
X108010Y161514D02*
X106990Y161514D01*
X106990Y163395D02*
X108010Y163395D01*
X108010Y165276D02*
X106990Y165276D01*
X106990Y167157D02*
X108010Y167157D01*
X111990Y168010D02*
X113010Y168010D01*
X113010Y153990D01*
X111990Y153990D01*
X111990Y168010D01*
X111990Y155871D02*
X113010Y155871D01*
X113010Y157752D02*
X111990Y157752D01*
X111990Y159633D02*
X113010Y159633D01*
X113010Y161514D02*
X111990Y161514D01*
X111990Y163395D02*
X113010Y163395D01*
X113010Y165276D02*
X111990Y165276D01*
X111990Y167157D02*
X113010Y167157D01*
X116990Y168010D02*
X118010Y168010D01*
X118010Y153990D01*
X116990Y153990D01*
X116990Y168010D01*
X116990Y155871D02*
X118010Y155871D01*
X118010Y157752D02*
X116990Y157752D01*
X116990Y159633D02*
X118010Y159633D01*
X118010Y161514D02*
X116990Y161514D01*
X116990Y163395D02*
X118010Y163395D01*
X118010Y165276D02*
X116990Y165276D01*
X116990Y167157D02*
X118010Y167157D01*
X121990Y168010D02*
X123010Y168010D01*
X123010Y153990D01*
X121990Y153990D01*
X121990Y168010D01*
X121990Y155871D02*
X123010Y155871D01*
X123010Y157752D02*
X121990Y157752D01*
X121990Y159633D02*
X123010Y159633D01*
X123010Y161514D02*
X121990Y161514D01*
X121990Y163395D02*
X123010Y163395D01*
X123010Y165276D02*
X121990Y165276D01*
X121990Y167157D02*
X123010Y167157D01*
X126990Y168010D02*
X128010Y168010D01*
X128010Y153990D01*
X126990Y153990D01*
X126990Y168010D01*
X126990Y155871D02*
X128010Y155871D01*
X128010Y157752D02*
X126990Y157752D01*
X126990Y159633D02*
X128010Y159633D01*
X128010Y161514D02*
X126990Y161514D01*
X126990Y163395D02*
X128010Y163395D01*
X128010Y165276D02*
X126990Y165276D01*
X126990Y167157D02*
X128010Y167157D01*
X131990Y168010D02*
X133010Y168010D01*
X133010Y153990D01*
X131990Y153990D01*
X131990Y168010D01*
X131990Y155871D02*
X133010Y155871D01*
X133010Y157752D02*
X131990Y157752D01*
X131990Y159633D02*
X133010Y159633D01*
X133010Y161514D02*
X131990Y161514D01*
X131990Y163395D02*
X133010Y163395D01*
X133010Y165276D02*
X131990Y165276D01*
X131990Y167157D02*
X133010Y167157D01*
X136990Y168010D02*
X138010Y168010D01*
X138010Y153990D01*
X136990Y153990D01*
X136990Y168010D01*
X136990Y155871D02*
X138010Y155871D01*
X138010Y157752D02*
X136990Y157752D01*
X136990Y159633D02*
X138010Y159633D01*
X138010Y161514D02*
X136990Y161514D01*
X136990Y163395D02*
X138010Y163395D01*
X138010Y165276D02*
X136990Y165276D01*
X136990Y167157D02*
X138010Y167157D01*
X141990Y168010D02*
X143010Y168010D01*
X143010Y153990D01*
X141990Y153990D01*
X141990Y168010D01*
X141990Y155871D02*
X143010Y155871D01*
X143010Y157752D02*
X141990Y157752D01*
X141990Y159633D02*
X143010Y159633D01*
X143010Y161514D02*
X141990Y161514D01*
X141990Y163395D02*
X143010Y163395D01*
X143010Y165276D02*
X141990Y165276D01*
X141990Y167157D02*
X143010Y167157D01*
X146990Y168010D02*
X148010Y168010D01*
X148010Y153990D01*
X146990Y153990D01*
X146990Y168010D01*
X146990Y155871D02*
X148010Y155871D01*
X148010Y157752D02*
X146990Y157752D01*
X146990Y159633D02*
X148010Y159633D01*
X148010Y161514D02*
X146990Y161514D01*
X146990Y163395D02*
X148010Y163395D01*
X148010Y165276D02*
X146990Y165276D01*
X146990Y167157D02*
X148010Y167157D01*
X151990Y168010D02*
X153010Y168010D01*
X153010Y153990D01*
X151990Y153990D01*
X151990Y168010D01*
X151990Y155871D02*
X153010Y155871D01*
X153010Y157752D02*
X151990Y157752D01*
X151990Y159633D02*
X153010Y159633D01*
X153010Y161514D02*
X151990Y161514D01*
X151990Y163395D02*
X153010Y163395D01*
X153010Y165276D02*
X151990Y165276D01*
X151990Y167157D02*
X153010Y167157D01*
X156990Y168010D02*
X158010Y168010D01*
X158010Y153990D01*
X156990Y153990D01*
X156990Y168010D01*
X156990Y155871D02*
X158010Y155871D01*
X158010Y157752D02*
X156990Y157752D01*
X156990Y159633D02*
X158010Y159633D01*
X158010Y161514D02*
X156990Y161514D01*
X156990Y163395D02*
X158010Y163395D01*
X158010Y165276D02*
X156990Y165276D01*
X156990Y167157D02*
X158010Y167157D01*
X48010Y246010D02*
X46990Y246010D01*
X48010Y246010D02*
X48010Y231990D01*
X46990Y231990D01*
X46990Y246010D01*
X46990Y233871D02*
X48010Y233871D01*
X48010Y235752D02*
X46990Y235752D01*
X46990Y237633D02*
X48010Y237633D01*
X48010Y239514D02*
X46990Y239514D01*
X46990Y241395D02*
X48010Y241395D01*
X48010Y243276D02*
X46990Y243276D01*
X46990Y245157D02*
X48010Y245157D01*
X51990Y246010D02*
X53010Y246010D01*
X53010Y231990D01*
X51990Y231990D01*
X51990Y246010D01*
X51990Y233871D02*
X53010Y233871D01*
X53010Y235752D02*
X51990Y235752D01*
X51990Y237633D02*
X53010Y237633D01*
X53010Y239514D02*
X51990Y239514D01*
X51990Y241395D02*
X53010Y241395D01*
X53010Y243276D02*
X51990Y243276D01*
X51990Y245157D02*
X53010Y245157D01*
X56990Y246010D02*
X58010Y246010D01*
X58010Y231990D01*
X56990Y231990D01*
X56990Y246010D01*
X56990Y233871D02*
X58010Y233871D01*
X58010Y235752D02*
X56990Y235752D01*
X56990Y237633D02*
X58010Y237633D01*
X58010Y239514D02*
X56990Y239514D01*
X56990Y241395D02*
X58010Y241395D01*
X58010Y243276D02*
X56990Y243276D01*
X56990Y245157D02*
X58010Y245157D01*
X61990Y246010D02*
X63010Y246010D01*
X63010Y231990D01*
X61990Y231990D01*
X61990Y246010D01*
X61990Y233871D02*
X63010Y233871D01*
X63010Y235752D02*
X61990Y235752D01*
X61990Y237633D02*
X63010Y237633D01*
X63010Y239514D02*
X61990Y239514D01*
X61990Y241395D02*
X63010Y241395D01*
X63010Y243276D02*
X61990Y243276D01*
X61990Y245157D02*
X63010Y245157D01*
X66990Y246010D02*
X68010Y246010D01*
X68010Y231990D01*
X66990Y231990D01*
X66990Y246010D01*
X66990Y233871D02*
X68010Y233871D01*
X68010Y235752D02*
X66990Y235752D01*
X66990Y237633D02*
X68010Y237633D01*
X68010Y239514D02*
X66990Y239514D01*
X66990Y241395D02*
X68010Y241395D01*
X68010Y243276D02*
X66990Y243276D01*
X66990Y245157D02*
X68010Y245157D01*
X71990Y246010D02*
X73010Y246010D01*
X73010Y231990D01*
X71990Y231990D01*
X71990Y246010D01*
X71990Y233871D02*
X73010Y233871D01*
X73010Y235752D02*
X71990Y235752D01*
X71990Y237633D02*
X73010Y237633D01*
X73010Y239514D02*
X71990Y239514D01*
X71990Y241395D02*
X73010Y241395D01*
X73010Y243276D02*
X71990Y243276D01*
X71990Y245157D02*
X73010Y245157D01*
X76990Y246010D02*
X78010Y246010D01*
X78010Y231990D01*
X76990Y231990D01*
X76990Y246010D01*
X76990Y233871D02*
X78010Y233871D01*
X78010Y235752D02*
X76990Y235752D01*
X76990Y237633D02*
X78010Y237633D01*
X78010Y239514D02*
X76990Y239514D01*
X76990Y241395D02*
X78010Y241395D01*
X78010Y243276D02*
X76990Y243276D01*
X76990Y245157D02*
X78010Y245157D01*
X81990Y246010D02*
X83010Y246010D01*
X83010Y231990D01*
X81990Y231990D01*
X81990Y246010D01*
X81990Y233871D02*
X83010Y233871D01*
X83010Y235752D02*
X81990Y235752D01*
X81990Y237633D02*
X83010Y237633D01*
X83010Y239514D02*
X81990Y239514D01*
X81990Y241395D02*
X83010Y241395D01*
X83010Y243276D02*
X81990Y243276D01*
X81990Y245157D02*
X83010Y245157D01*
X86990Y246010D02*
X88010Y246010D01*
X88010Y231990D01*
X86990Y231990D01*
X86990Y246010D01*
X86990Y233871D02*
X88010Y233871D01*
X88010Y235752D02*
X86990Y235752D01*
X86990Y237633D02*
X88010Y237633D01*
X88010Y239514D02*
X86990Y239514D01*
X86990Y241395D02*
X88010Y241395D01*
X88010Y243276D02*
X86990Y243276D01*
X86990Y245157D02*
X88010Y245157D01*
X91990Y246010D02*
X93010Y246010D01*
X93010Y231990D01*
X91990Y231990D01*
X91990Y246010D01*
X91990Y233871D02*
X93010Y233871D01*
X93010Y235752D02*
X91990Y235752D01*
X91990Y237633D02*
X93010Y237633D01*
X93010Y239514D02*
X91990Y239514D01*
X91990Y241395D02*
X93010Y241395D01*
X93010Y243276D02*
X91990Y243276D01*
X91990Y245157D02*
X93010Y245157D01*
X96990Y246010D02*
X98010Y246010D01*
X98010Y231990D01*
X96990Y231990D01*
X96990Y246010D01*
X96990Y233871D02*
X98010Y233871D01*
X98010Y235752D02*
X96990Y235752D01*
X96990Y237633D02*
X98010Y237633D01*
X98010Y239514D02*
X96990Y239514D01*
X96990Y241395D02*
X98010Y241395D01*
X98010Y243276D02*
X96990Y243276D01*
X96990Y245157D02*
X98010Y245157D01*
X101990Y246010D02*
X103010Y246010D01*
X103010Y231990D01*
X101990Y231990D01*
X101990Y246010D01*
X101990Y233871D02*
X103010Y233871D01*
X103010Y235752D02*
X101990Y235752D01*
X101990Y237633D02*
X103010Y237633D01*
X103010Y239514D02*
X101990Y239514D01*
X101990Y241395D02*
X103010Y241395D01*
X103010Y243276D02*
X101990Y243276D01*
X101990Y245157D02*
X103010Y245157D01*
X106990Y246010D02*
X108010Y246010D01*
X108010Y231990D01*
X106990Y231990D01*
X106990Y246010D01*
X106990Y233871D02*
X108010Y233871D01*
X108010Y235752D02*
X106990Y235752D01*
X106990Y237633D02*
X108010Y237633D01*
X108010Y239514D02*
X106990Y239514D01*
X106990Y241395D02*
X108010Y241395D01*
X108010Y243276D02*
X106990Y243276D01*
X106990Y245157D02*
X108010Y245157D01*
X111990Y246010D02*
X113010Y246010D01*
X113010Y231990D01*
X111990Y231990D01*
X111990Y246010D01*
X111990Y233871D02*
X113010Y233871D01*
X113010Y235752D02*
X111990Y235752D01*
X111990Y237633D02*
X113010Y237633D01*
X113010Y239514D02*
X111990Y239514D01*
X111990Y241395D02*
X113010Y241395D01*
X113010Y243276D02*
X111990Y243276D01*
X111990Y245157D02*
X113010Y245157D01*
X116990Y246010D02*
X118010Y246010D01*
X118010Y231990D01*
X116990Y231990D01*
X116990Y246010D01*
X116990Y233871D02*
X118010Y233871D01*
X118010Y235752D02*
X116990Y235752D01*
X116990Y237633D02*
X118010Y237633D01*
X118010Y239514D02*
X116990Y239514D01*
X116990Y241395D02*
X118010Y241395D01*
X118010Y243276D02*
X116990Y243276D01*
X116990Y245157D02*
X118010Y245157D01*
X121990Y246010D02*
X123010Y246010D01*
X123010Y231990D01*
X121990Y231990D01*
X121990Y246010D01*
X121990Y233871D02*
X123010Y233871D01*
X123010Y235752D02*
X121990Y235752D01*
X121990Y237633D02*
X123010Y237633D01*
X123010Y239514D02*
X121990Y239514D01*
X121990Y241395D02*
X123010Y241395D01*
X123010Y243276D02*
X121990Y243276D01*
X121990Y245157D02*
X123010Y245157D01*
X126990Y246010D02*
X128010Y246010D01*
X128010Y231990D01*
X126990Y231990D01*
X126990Y246010D01*
X126990Y233871D02*
X128010Y233871D01*
X128010Y235752D02*
X126990Y235752D01*
X126990Y237633D02*
X128010Y237633D01*
X128010Y239514D02*
X126990Y239514D01*
X126990Y241395D02*
X128010Y241395D01*
X128010Y243276D02*
X126990Y243276D01*
X126990Y245157D02*
X128010Y245157D01*
X131990Y246010D02*
X133010Y246010D01*
X133010Y231990D01*
X131990Y231990D01*
X131990Y246010D01*
X131990Y233871D02*
X133010Y233871D01*
X133010Y235752D02*
X131990Y235752D01*
X131990Y237633D02*
X133010Y237633D01*
X133010Y239514D02*
X131990Y239514D01*
X131990Y241395D02*
X133010Y241395D01*
X133010Y243276D02*
X131990Y243276D01*
X131990Y245157D02*
X133010Y245157D01*
X136990Y246010D02*
X138010Y246010D01*
X138010Y231990D01*
X136990Y231990D01*
X136990Y246010D01*
X136990Y233871D02*
X138010Y233871D01*
X138010Y235752D02*
X136990Y235752D01*
X136990Y237633D02*
X138010Y237633D01*
X138010Y239514D02*
X136990Y239514D01*
X136990Y241395D02*
X138010Y241395D01*
X138010Y243276D02*
X136990Y243276D01*
X136990Y245157D02*
X138010Y245157D01*
X141990Y246010D02*
X143010Y246010D01*
X143010Y231990D01*
X141990Y231990D01*
X141990Y246010D01*
X141990Y233871D02*
X143010Y233871D01*
X143010Y235752D02*
X141990Y235752D01*
X141990Y237633D02*
X143010Y237633D01*
X143010Y239514D02*
X141990Y239514D01*
X141990Y241395D02*
X143010Y241395D01*
X143010Y243276D02*
X141990Y243276D01*
X141990Y245157D02*
X143010Y245157D01*
X146990Y246010D02*
X148010Y246010D01*
X148010Y231990D01*
X146990Y231990D01*
X146990Y246010D01*
X146990Y233871D02*
X148010Y233871D01*
X148010Y235752D02*
X146990Y235752D01*
X146990Y237633D02*
X148010Y237633D01*
X148010Y239514D02*
X146990Y239514D01*
X146990Y241395D02*
X148010Y241395D01*
X148010Y243276D02*
X146990Y243276D01*
X146990Y245157D02*
X148010Y245157D01*
X151990Y246010D02*
X153010Y246010D01*
X153010Y231990D01*
X151990Y231990D01*
X151990Y246010D01*
X151990Y233871D02*
X153010Y233871D01*
X153010Y235752D02*
X151990Y235752D01*
X151990Y237633D02*
X153010Y237633D01*
X153010Y239514D02*
X151990Y239514D01*
X151990Y241395D02*
X153010Y241395D01*
X153010Y243276D02*
X151990Y243276D01*
X151990Y245157D02*
X153010Y245157D01*
X156990Y246010D02*
X158010Y246010D01*
X158010Y231990D01*
X156990Y231990D01*
X156990Y246010D01*
X156990Y233871D02*
X158010Y233871D01*
X158010Y235752D02*
X156990Y235752D01*
X156990Y237633D02*
X158010Y237633D01*
X158010Y239514D02*
X156990Y239514D01*
X156990Y241395D02*
X158010Y241395D01*
X158010Y243276D02*
X156990Y243276D01*
X156990Y245157D02*
X158010Y245157D01*
X266990Y168010D02*
X268010Y168010D01*
X268010Y153990D01*
X266990Y153990D01*
X266990Y168010D01*
X266990Y155871D02*
X268010Y155871D01*
X268010Y157752D02*
X266990Y157752D01*
X266990Y159633D02*
X268010Y159633D01*
X268010Y161514D02*
X266990Y161514D01*
X266990Y163395D02*
X268010Y163395D01*
X268010Y165276D02*
X266990Y165276D01*
X266990Y167157D02*
X268010Y167157D01*
X268010Y246010D02*
X266990Y246010D01*
X268010Y246010D02*
X268010Y231990D01*
X266990Y231990D01*
X266990Y246010D01*
X266990Y233871D02*
X268010Y233871D01*
X268010Y235752D02*
X266990Y235752D01*
X266990Y237633D02*
X268010Y237633D01*
X268010Y239514D02*
X266990Y239514D01*
X266990Y241395D02*
X268010Y241395D01*
X268010Y243276D02*
X266990Y243276D01*
X266990Y245157D02*
X268010Y245157D01*
X271990Y168010D02*
X273010Y168010D01*
X273010Y153990D01*
X271990Y153990D01*
X271990Y168010D01*
X271990Y155871D02*
X273010Y155871D01*
X273010Y157752D02*
X271990Y157752D01*
X271990Y159633D02*
X273010Y159633D01*
X273010Y161514D02*
X271990Y161514D01*
X271990Y163395D02*
X273010Y163395D01*
X273010Y165276D02*
X271990Y165276D01*
X271990Y167157D02*
X273010Y167157D01*
X276990Y168010D02*
X278010Y168010D01*
X278010Y153990D01*
X276990Y153990D01*
X276990Y168010D01*
X276990Y155871D02*
X278010Y155871D01*
X278010Y157752D02*
X276990Y157752D01*
X276990Y159633D02*
X278010Y159633D01*
X278010Y161514D02*
X276990Y161514D01*
X276990Y163395D02*
X278010Y163395D01*
X278010Y165276D02*
X276990Y165276D01*
X276990Y167157D02*
X278010Y167157D01*
X281990Y168010D02*
X283010Y168010D01*
X283010Y153990D01*
X281990Y153990D01*
X281990Y168010D01*
X281990Y155871D02*
X283010Y155871D01*
X283010Y157752D02*
X281990Y157752D01*
X281990Y159633D02*
X283010Y159633D01*
X283010Y161514D02*
X281990Y161514D01*
X281990Y163395D02*
X283010Y163395D01*
X283010Y165276D02*
X281990Y165276D01*
X281990Y167157D02*
X283010Y167157D01*
X286990Y168010D02*
X288010Y168010D01*
X288010Y153990D01*
X286990Y153990D01*
X286990Y168010D01*
X286990Y155871D02*
X288010Y155871D01*
X288010Y157752D02*
X286990Y157752D01*
X286990Y159633D02*
X288010Y159633D01*
X288010Y161514D02*
X286990Y161514D01*
X286990Y163395D02*
X288010Y163395D01*
X288010Y165276D02*
X286990Y165276D01*
X286990Y167157D02*
X288010Y167157D01*
X291990Y168010D02*
X293010Y168010D01*
X293010Y153990D01*
X291990Y153990D01*
X291990Y168010D01*
X291990Y155871D02*
X293010Y155871D01*
X293010Y157752D02*
X291990Y157752D01*
X291990Y159633D02*
X293010Y159633D01*
X293010Y161514D02*
X291990Y161514D01*
X291990Y163395D02*
X293010Y163395D01*
X293010Y165276D02*
X291990Y165276D01*
X291990Y167157D02*
X293010Y167157D01*
X296990Y168010D02*
X298010Y168010D01*
X298010Y153990D01*
X296990Y153990D01*
X296990Y168010D01*
X296990Y155871D02*
X298010Y155871D01*
X298010Y157752D02*
X296990Y157752D01*
X296990Y159633D02*
X298010Y159633D01*
X298010Y161514D02*
X296990Y161514D01*
X296990Y163395D02*
X298010Y163395D01*
X298010Y165276D02*
X296990Y165276D01*
X296990Y167157D02*
X298010Y167157D01*
X301990Y168010D02*
X303010Y168010D01*
X303010Y153990D01*
X301990Y153990D01*
X301990Y168010D01*
X301990Y155871D02*
X303010Y155871D01*
X303010Y157752D02*
X301990Y157752D01*
X301990Y159633D02*
X303010Y159633D01*
X303010Y161514D02*
X301990Y161514D01*
X301990Y163395D02*
X303010Y163395D01*
X303010Y165276D02*
X301990Y165276D01*
X301990Y167157D02*
X303010Y167157D01*
X306990Y168010D02*
X308010Y168010D01*
X308010Y153990D01*
X306990Y153990D01*
X306990Y168010D01*
X306990Y155871D02*
X308010Y155871D01*
X308010Y157752D02*
X306990Y157752D01*
X306990Y159633D02*
X308010Y159633D01*
X308010Y161514D02*
X306990Y161514D01*
X306990Y163395D02*
X308010Y163395D01*
X308010Y165276D02*
X306990Y165276D01*
X306990Y167157D02*
X308010Y167157D01*
X311990Y168010D02*
X313010Y168010D01*
X313010Y153990D01*
X311990Y153990D01*
X311990Y168010D01*
X311990Y155871D02*
X313010Y155871D01*
X313010Y157752D02*
X311990Y157752D01*
X311990Y159633D02*
X313010Y159633D01*
X313010Y161514D02*
X311990Y161514D01*
X311990Y163395D02*
X313010Y163395D01*
X313010Y165276D02*
X311990Y165276D01*
X311990Y167157D02*
X313010Y167157D01*
X316990Y168010D02*
X318010Y168010D01*
X318010Y153990D01*
X316990Y153990D01*
X316990Y168010D01*
X316990Y155871D02*
X318010Y155871D01*
X318010Y157752D02*
X316990Y157752D01*
X316990Y159633D02*
X318010Y159633D01*
X318010Y161514D02*
X316990Y161514D01*
X316990Y163395D02*
X318010Y163395D01*
X318010Y165276D02*
X316990Y165276D01*
X316990Y167157D02*
X318010Y167157D01*
X321990Y168010D02*
X323010Y168010D01*
X323010Y153990D01*
X321990Y153990D01*
X321990Y168010D01*
X321990Y155871D02*
X323010Y155871D01*
X323010Y157752D02*
X321990Y157752D01*
X321990Y159633D02*
X323010Y159633D01*
X323010Y161514D02*
X321990Y161514D01*
X321990Y163395D02*
X323010Y163395D01*
X323010Y165276D02*
X321990Y165276D01*
X321990Y167157D02*
X323010Y167157D01*
X326990Y168010D02*
X328010Y168010D01*
X328010Y153990D01*
X326990Y153990D01*
X326990Y168010D01*
X326990Y155871D02*
X328010Y155871D01*
X328010Y157752D02*
X326990Y157752D01*
X326990Y159633D02*
X328010Y159633D01*
X328010Y161514D02*
X326990Y161514D01*
X326990Y163395D02*
X328010Y163395D01*
X328010Y165276D02*
X326990Y165276D01*
X326990Y167157D02*
X328010Y167157D01*
X331990Y168010D02*
X333010Y168010D01*
X333010Y153990D01*
X331990Y153990D01*
X331990Y168010D01*
X331990Y155871D02*
X333010Y155871D01*
X333010Y157752D02*
X331990Y157752D01*
X331990Y159633D02*
X333010Y159633D01*
X333010Y161514D02*
X331990Y161514D01*
X331990Y163395D02*
X333010Y163395D01*
X333010Y165276D02*
X331990Y165276D01*
X331990Y167157D02*
X333010Y167157D01*
X336990Y168010D02*
X338010Y168010D01*
X338010Y153990D01*
X336990Y153990D01*
X336990Y168010D01*
X336990Y155871D02*
X338010Y155871D01*
X338010Y157752D02*
X336990Y157752D01*
X336990Y159633D02*
X338010Y159633D01*
X338010Y161514D02*
X336990Y161514D01*
X336990Y163395D02*
X338010Y163395D01*
X338010Y165276D02*
X336990Y165276D01*
X336990Y167157D02*
X338010Y167157D01*
X341990Y168010D02*
X343010Y168010D01*
X343010Y153990D01*
X341990Y153990D01*
X341990Y168010D01*
X341990Y155871D02*
X343010Y155871D01*
X343010Y157752D02*
X341990Y157752D01*
X341990Y159633D02*
X343010Y159633D01*
X343010Y161514D02*
X341990Y161514D01*
X341990Y163395D02*
X343010Y163395D01*
X343010Y165276D02*
X341990Y165276D01*
X341990Y167157D02*
X343010Y167157D01*
X346990Y168010D02*
X348010Y168010D01*
X348010Y153990D01*
X346990Y153990D01*
X346990Y168010D01*
X346990Y155871D02*
X348010Y155871D01*
X348010Y157752D02*
X346990Y157752D01*
X346990Y159633D02*
X348010Y159633D01*
X348010Y161514D02*
X346990Y161514D01*
X346990Y163395D02*
X348010Y163395D01*
X348010Y165276D02*
X346990Y165276D01*
X346990Y167157D02*
X348010Y167157D01*
X351990Y168010D02*
X353010Y168010D01*
X353010Y153990D01*
X351990Y153990D01*
X351990Y168010D01*
X351990Y155871D02*
X353010Y155871D01*
X353010Y157752D02*
X351990Y157752D01*
X351990Y159633D02*
X353010Y159633D01*
X353010Y161514D02*
X351990Y161514D01*
X351990Y163395D02*
X353010Y163395D01*
X353010Y165276D02*
X351990Y165276D01*
X351990Y167157D02*
X353010Y167157D01*
X356990Y168010D02*
X358010Y168010D01*
X358010Y153990D01*
X356990Y153990D01*
X356990Y168010D01*
X356990Y155871D02*
X358010Y155871D01*
X358010Y157752D02*
X356990Y157752D01*
X356990Y159633D02*
X358010Y159633D01*
X358010Y161514D02*
X356990Y161514D01*
X356990Y163395D02*
X358010Y163395D01*
X358010Y165276D02*
X356990Y165276D01*
X356990Y167157D02*
X358010Y167157D01*
X361990Y168010D02*
X363010Y168010D01*
X363010Y153990D01*
X361990Y153990D01*
X361990Y168010D01*
X361990Y155871D02*
X363010Y155871D01*
X363010Y157752D02*
X361990Y157752D01*
X361990Y159633D02*
X363010Y159633D01*
X363010Y161514D02*
X361990Y161514D01*
X361990Y163395D02*
X363010Y163395D01*
X363010Y165276D02*
X361990Y165276D01*
X361990Y167157D02*
X363010Y167157D01*
X366990Y168010D02*
X368010Y168010D01*
X368010Y153990D01*
X366990Y153990D01*
X366990Y168010D01*
X366990Y155871D02*
X368010Y155871D01*
X368010Y157752D02*
X366990Y157752D01*
X366990Y159633D02*
X368010Y159633D01*
X368010Y161514D02*
X366990Y161514D01*
X366990Y163395D02*
X368010Y163395D01*
X368010Y165276D02*
X366990Y165276D01*
X366990Y167157D02*
X368010Y167157D01*
X371990Y168010D02*
X373010Y168010D01*
X373010Y153990D01*
X371990Y153990D01*
X371990Y168010D01*
X371990Y155871D02*
X373010Y155871D01*
X373010Y157752D02*
X371990Y157752D01*
X371990Y159633D02*
X373010Y159633D01*
X373010Y161514D02*
X371990Y161514D01*
X371990Y163395D02*
X373010Y163395D01*
X373010Y165276D02*
X371990Y165276D01*
X371990Y167157D02*
X373010Y167157D01*
X376990Y168010D02*
X378010Y168010D01*
X378010Y153990D01*
X376990Y153990D01*
X376990Y168010D01*
X376990Y155871D02*
X378010Y155871D01*
X378010Y157752D02*
X376990Y157752D01*
X376990Y159633D02*
X378010Y159633D01*
X378010Y161514D02*
X376990Y161514D01*
X376990Y163395D02*
X378010Y163395D01*
X378010Y165276D02*
X376990Y165276D01*
X376990Y167157D02*
X378010Y167157D01*
X381990Y168010D02*
X383010Y168010D01*
X383010Y153990D01*
X381990Y153990D01*
X381990Y168010D01*
X381990Y155871D02*
X383010Y155871D01*
X383010Y157752D02*
X381990Y157752D01*
X381990Y159633D02*
X383010Y159633D01*
X383010Y161514D02*
X381990Y161514D01*
X381990Y163395D02*
X383010Y163395D01*
X383010Y165276D02*
X381990Y165276D01*
X381990Y167157D02*
X383010Y167157D01*
X273010Y246010D02*
X271990Y246010D01*
X273010Y246010D02*
X273010Y231990D01*
X271990Y231990D01*
X271990Y246010D01*
X271990Y233871D02*
X273010Y233871D01*
X273010Y235752D02*
X271990Y235752D01*
X271990Y237633D02*
X273010Y237633D01*
X273010Y239514D02*
X271990Y239514D01*
X271990Y241395D02*
X273010Y241395D01*
X273010Y243276D02*
X271990Y243276D01*
X271990Y245157D02*
X273010Y245157D01*
X276990Y246010D02*
X278010Y246010D01*
X278010Y231990D01*
X276990Y231990D01*
X276990Y246010D01*
X276990Y233871D02*
X278010Y233871D01*
X278010Y235752D02*
X276990Y235752D01*
X276990Y237633D02*
X278010Y237633D01*
X278010Y239514D02*
X276990Y239514D01*
X276990Y241395D02*
X278010Y241395D01*
X278010Y243276D02*
X276990Y243276D01*
X276990Y245157D02*
X278010Y245157D01*
X281990Y246010D02*
X283010Y246010D01*
X283010Y231990D01*
X281990Y231990D01*
X281990Y246010D01*
X281990Y233871D02*
X283010Y233871D01*
X283010Y235752D02*
X281990Y235752D01*
X281990Y237633D02*
X283010Y237633D01*
X283010Y239514D02*
X281990Y239514D01*
X281990Y241395D02*
X283010Y241395D01*
X283010Y243276D02*
X281990Y243276D01*
X281990Y245157D02*
X283010Y245157D01*
X286990Y246010D02*
X288010Y246010D01*
X288010Y231990D01*
X286990Y231990D01*
X286990Y246010D01*
X286990Y233871D02*
X288010Y233871D01*
X288010Y235752D02*
X286990Y235752D01*
X286990Y237633D02*
X288010Y237633D01*
X288010Y239514D02*
X286990Y239514D01*
X286990Y241395D02*
X288010Y241395D01*
X288010Y243276D02*
X286990Y243276D01*
X286990Y245157D02*
X288010Y245157D01*
X291990Y246010D02*
X293010Y246010D01*
X293010Y231990D01*
X291990Y231990D01*
X291990Y246010D01*
X291990Y233871D02*
X293010Y233871D01*
X293010Y235752D02*
X291990Y235752D01*
X291990Y237633D02*
X293010Y237633D01*
X293010Y239514D02*
X291990Y239514D01*
X291990Y241395D02*
X293010Y241395D01*
X293010Y243276D02*
X291990Y243276D01*
X291990Y245157D02*
X293010Y245157D01*
X296990Y246010D02*
X298010Y246010D01*
X298010Y231990D01*
X296990Y231990D01*
X296990Y246010D01*
X296990Y233871D02*
X298010Y233871D01*
X298010Y235752D02*
X296990Y235752D01*
X296990Y237633D02*
X298010Y237633D01*
X298010Y239514D02*
X296990Y239514D01*
X296990Y241395D02*
X298010Y241395D01*
X298010Y243276D02*
X296990Y243276D01*
X296990Y245157D02*
X298010Y245157D01*
X301990Y246010D02*
X303010Y246010D01*
X303010Y231990D01*
X301990Y231990D01*
X301990Y246010D01*
X301990Y233871D02*
X303010Y233871D01*
X303010Y235752D02*
X301990Y235752D01*
X301990Y237633D02*
X303010Y237633D01*
X303010Y239514D02*
X301990Y239514D01*
X301990Y241395D02*
X303010Y241395D01*
X303010Y243276D02*
X301990Y243276D01*
X301990Y245157D02*
X303010Y245157D01*
X306990Y246010D02*
X308010Y246010D01*
X308010Y231990D01*
X306990Y231990D01*
X306990Y246010D01*
X306990Y233871D02*
X308010Y233871D01*
X308010Y235752D02*
X306990Y235752D01*
X306990Y237633D02*
X308010Y237633D01*
X308010Y239514D02*
X306990Y239514D01*
X306990Y241395D02*
X308010Y241395D01*
X308010Y243276D02*
X306990Y243276D01*
X306990Y245157D02*
X308010Y245157D01*
X311990Y246010D02*
X313010Y246010D01*
X313010Y231990D01*
X311990Y231990D01*
X311990Y246010D01*
X311990Y233871D02*
X313010Y233871D01*
X313010Y235752D02*
X311990Y235752D01*
X311990Y237633D02*
X313010Y237633D01*
X313010Y239514D02*
X311990Y239514D01*
X311990Y241395D02*
X313010Y241395D01*
X313010Y243276D02*
X311990Y243276D01*
X311990Y245157D02*
X313010Y245157D01*
X316990Y246010D02*
X318010Y246010D01*
X318010Y231990D01*
X316990Y231990D01*
X316990Y246010D01*
X316990Y233871D02*
X318010Y233871D01*
X318010Y235752D02*
X316990Y235752D01*
X316990Y237633D02*
X318010Y237633D01*
X318010Y239514D02*
X316990Y239514D01*
X316990Y241395D02*
X318010Y241395D01*
X318010Y243276D02*
X316990Y243276D01*
X316990Y245157D02*
X318010Y245157D01*
X321990Y246010D02*
X323010Y246010D01*
X323010Y231990D01*
X321990Y231990D01*
X321990Y246010D01*
X321990Y233871D02*
X323010Y233871D01*
X323010Y235752D02*
X321990Y235752D01*
X321990Y237633D02*
X323010Y237633D01*
X323010Y239514D02*
X321990Y239514D01*
X321990Y241395D02*
X323010Y241395D01*
X323010Y243276D02*
X321990Y243276D01*
X321990Y245157D02*
X323010Y245157D01*
X326990Y246010D02*
X328010Y246010D01*
X328010Y231990D01*
X326990Y231990D01*
X326990Y246010D01*
X326990Y233871D02*
X328010Y233871D01*
X328010Y235752D02*
X326990Y235752D01*
X326990Y237633D02*
X328010Y237633D01*
X328010Y239514D02*
X326990Y239514D01*
X326990Y241395D02*
X328010Y241395D01*
X328010Y243276D02*
X326990Y243276D01*
X326990Y245157D02*
X328010Y245157D01*
X331990Y246010D02*
X333010Y246010D01*
X333010Y231990D01*
X331990Y231990D01*
X331990Y246010D01*
X331990Y233871D02*
X333010Y233871D01*
X333010Y235752D02*
X331990Y235752D01*
X331990Y237633D02*
X333010Y237633D01*
X333010Y239514D02*
X331990Y239514D01*
X331990Y241395D02*
X333010Y241395D01*
X333010Y243276D02*
X331990Y243276D01*
X331990Y245157D02*
X333010Y245157D01*
X336990Y246010D02*
X338010Y246010D01*
X338010Y231990D01*
X336990Y231990D01*
X336990Y246010D01*
X336990Y233871D02*
X338010Y233871D01*
X338010Y235752D02*
X336990Y235752D01*
X336990Y237633D02*
X338010Y237633D01*
X338010Y239514D02*
X336990Y239514D01*
X336990Y241395D02*
X338010Y241395D01*
X338010Y243276D02*
X336990Y243276D01*
X336990Y245157D02*
X338010Y245157D01*
X341990Y246010D02*
X343010Y246010D01*
X343010Y231990D01*
X341990Y231990D01*
X341990Y246010D01*
X341990Y233871D02*
X343010Y233871D01*
X343010Y235752D02*
X341990Y235752D01*
X341990Y237633D02*
X343010Y237633D01*
X343010Y239514D02*
X341990Y239514D01*
X341990Y241395D02*
X343010Y241395D01*
X343010Y243276D02*
X341990Y243276D01*
X341990Y245157D02*
X343010Y245157D01*
X346990Y246010D02*
X348010Y246010D01*
X348010Y231990D01*
X346990Y231990D01*
X346990Y246010D01*
X346990Y233871D02*
X348010Y233871D01*
X348010Y235752D02*
X346990Y235752D01*
X346990Y237633D02*
X348010Y237633D01*
X348010Y239514D02*
X346990Y239514D01*
X346990Y241395D02*
X348010Y241395D01*
X348010Y243276D02*
X346990Y243276D01*
X346990Y245157D02*
X348010Y245157D01*
X351990Y246010D02*
X353010Y246010D01*
X353010Y231990D01*
X351990Y231990D01*
X351990Y246010D01*
X351990Y233871D02*
X353010Y233871D01*
X353010Y235752D02*
X351990Y235752D01*
X351990Y237633D02*
X353010Y237633D01*
X353010Y239514D02*
X351990Y239514D01*
X351990Y241395D02*
X353010Y241395D01*
X353010Y243276D02*
X351990Y243276D01*
X351990Y245157D02*
X353010Y245157D01*
X356990Y246010D02*
X358010Y246010D01*
X358010Y231990D01*
X356990Y231990D01*
X356990Y246010D01*
X356990Y233871D02*
X358010Y233871D01*
X358010Y235752D02*
X356990Y235752D01*
X356990Y237633D02*
X358010Y237633D01*
X358010Y239514D02*
X356990Y239514D01*
X356990Y241395D02*
X358010Y241395D01*
X358010Y243276D02*
X356990Y243276D01*
X356990Y245157D02*
X358010Y245157D01*
X361990Y246010D02*
X363010Y246010D01*
X363010Y231990D01*
X361990Y231990D01*
X361990Y246010D01*
X361990Y233871D02*
X363010Y233871D01*
X363010Y235752D02*
X361990Y235752D01*
X361990Y237633D02*
X363010Y237633D01*
X363010Y239514D02*
X361990Y239514D01*
X361990Y241395D02*
X363010Y241395D01*
X363010Y243276D02*
X361990Y243276D01*
X361990Y245157D02*
X363010Y245157D01*
X366990Y246010D02*
X368010Y246010D01*
X368010Y231990D01*
X366990Y231990D01*
X366990Y246010D01*
X366990Y233871D02*
X368010Y233871D01*
X368010Y235752D02*
X366990Y235752D01*
X366990Y237633D02*
X368010Y237633D01*
X368010Y239514D02*
X366990Y239514D01*
X366990Y241395D02*
X368010Y241395D01*
X368010Y243276D02*
X366990Y243276D01*
X366990Y245157D02*
X368010Y245157D01*
X371990Y246010D02*
X373010Y246010D01*
X373010Y231990D01*
X371990Y231990D01*
X371990Y246010D01*
X371990Y233871D02*
X373010Y233871D01*
X373010Y235752D02*
X371990Y235752D01*
X371990Y237633D02*
X373010Y237633D01*
X373010Y239514D02*
X371990Y239514D01*
X371990Y241395D02*
X373010Y241395D01*
X373010Y243276D02*
X371990Y243276D01*
X371990Y245157D02*
X373010Y245157D01*
X376990Y246010D02*
X378010Y246010D01*
X378010Y231990D01*
X376990Y231990D01*
X376990Y246010D01*
X376990Y233871D02*
X378010Y233871D01*
X378010Y235752D02*
X376990Y235752D01*
X376990Y237633D02*
X378010Y237633D01*
X378010Y239514D02*
X376990Y239514D01*
X376990Y241395D02*
X378010Y241395D01*
X378010Y243276D02*
X376990Y243276D01*
X376990Y245157D02*
X378010Y245157D01*
X381990Y246010D02*
X383010Y246010D01*
X383010Y231990D01*
X381990Y231990D01*
X381990Y246010D01*
X381990Y233871D02*
X383010Y233871D01*
X383010Y235752D02*
X381990Y235752D01*
X381990Y237633D02*
X383010Y237633D01*
X383010Y239514D02*
X381990Y239514D01*
X381990Y241395D02*
X383010Y241395D01*
X383010Y243276D02*
X381990Y243276D01*
X381990Y245157D02*
X383010Y245157D01*
X491990Y168010D02*
X493010Y168010D01*
X493010Y153990D01*
X491990Y153990D01*
X491990Y168010D01*
X491990Y155871D02*
X493010Y155871D01*
X493010Y157752D02*
X491990Y157752D01*
X491990Y159633D02*
X493010Y159633D01*
X493010Y161514D02*
X491990Y161514D01*
X491990Y163395D02*
X493010Y163395D01*
X493010Y165276D02*
X491990Y165276D01*
X491990Y167157D02*
X493010Y167157D01*
X493010Y246010D02*
X491990Y246010D01*
X493010Y246010D02*
X493010Y231990D01*
X491990Y231990D01*
X491990Y246010D01*
X491990Y233871D02*
X493010Y233871D01*
X493010Y235752D02*
X491990Y235752D01*
X491990Y237633D02*
X493010Y237633D01*
X493010Y239514D02*
X491990Y239514D01*
X491990Y241395D02*
X493010Y241395D01*
X493010Y243276D02*
X491990Y243276D01*
X491990Y245157D02*
X493010Y245157D01*
X496990Y168010D02*
X498010Y168010D01*
X498010Y153990D01*
X496990Y153990D01*
X496990Y168010D01*
X496990Y155871D02*
X498010Y155871D01*
X498010Y157752D02*
X496990Y157752D01*
X496990Y159633D02*
X498010Y159633D01*
X498010Y161514D02*
X496990Y161514D01*
X496990Y163395D02*
X498010Y163395D01*
X498010Y165276D02*
X496990Y165276D01*
X496990Y167157D02*
X498010Y167157D01*
X501990Y168010D02*
X503010Y168010D01*
X503010Y153990D01*
X501990Y153990D01*
X501990Y168010D01*
X501990Y155871D02*
X503010Y155871D01*
X503010Y157752D02*
X501990Y157752D01*
X501990Y159633D02*
X503010Y159633D01*
X503010Y161514D02*
X501990Y161514D01*
X501990Y163395D02*
X503010Y163395D01*
X503010Y165276D02*
X501990Y165276D01*
X501990Y167157D02*
X503010Y167157D01*
X506990Y168010D02*
X508010Y168010D01*
X508010Y153990D01*
X506990Y153990D01*
X506990Y168010D01*
X506990Y155871D02*
X508010Y155871D01*
X508010Y157752D02*
X506990Y157752D01*
X506990Y159633D02*
X508010Y159633D01*
X508010Y161514D02*
X506990Y161514D01*
X506990Y163395D02*
X508010Y163395D01*
X508010Y165276D02*
X506990Y165276D01*
X506990Y167157D02*
X508010Y167157D01*
X511990Y168010D02*
X513010Y168010D01*
X513010Y153990D01*
X511990Y153990D01*
X511990Y168010D01*
X511990Y155871D02*
X513010Y155871D01*
X513010Y157752D02*
X511990Y157752D01*
X511990Y159633D02*
X513010Y159633D01*
X513010Y161514D02*
X511990Y161514D01*
X511990Y163395D02*
X513010Y163395D01*
X513010Y165276D02*
X511990Y165276D01*
X511990Y167157D02*
X513010Y167157D01*
X516990Y168010D02*
X518010Y168010D01*
X518010Y153990D01*
X516990Y153990D01*
X516990Y168010D01*
X516990Y155871D02*
X518010Y155871D01*
X518010Y157752D02*
X516990Y157752D01*
X516990Y159633D02*
X518010Y159633D01*
X518010Y161514D02*
X516990Y161514D01*
X516990Y163395D02*
X518010Y163395D01*
X518010Y165276D02*
X516990Y165276D01*
X516990Y167157D02*
X518010Y167157D01*
X521990Y168010D02*
X523010Y168010D01*
X523010Y153990D01*
X521990Y153990D01*
X521990Y168010D01*
X521990Y155871D02*
X523010Y155871D01*
X523010Y157752D02*
X521990Y157752D01*
X521990Y159633D02*
X523010Y159633D01*
X523010Y161514D02*
X521990Y161514D01*
X521990Y163395D02*
X523010Y163395D01*
X523010Y165276D02*
X521990Y165276D01*
X521990Y167157D02*
X523010Y167157D01*
X526990Y168010D02*
X528010Y168010D01*
X528010Y153990D01*
X526990Y153990D01*
X526990Y168010D01*
X526990Y155871D02*
X528010Y155871D01*
X528010Y157752D02*
X526990Y157752D01*
X526990Y159633D02*
X528010Y159633D01*
X528010Y161514D02*
X526990Y161514D01*
X526990Y163395D02*
X528010Y163395D01*
X528010Y165276D02*
X526990Y165276D01*
X526990Y167157D02*
X528010Y167157D01*
X531990Y168010D02*
X533010Y168010D01*
X533010Y153990D01*
X531990Y153990D01*
X531990Y168010D01*
X531990Y155871D02*
X533010Y155871D01*
X533010Y157752D02*
X531990Y157752D01*
X531990Y159633D02*
X533010Y159633D01*
X533010Y161514D02*
X531990Y161514D01*
X531990Y163395D02*
X533010Y163395D01*
X533010Y165276D02*
X531990Y165276D01*
X531990Y167157D02*
X533010Y167157D01*
X536990Y168010D02*
X538010Y168010D01*
X538010Y153990D01*
X536990Y153990D01*
X536990Y168010D01*
X536990Y155871D02*
X538010Y155871D01*
X538010Y157752D02*
X536990Y157752D01*
X536990Y159633D02*
X538010Y159633D01*
X538010Y161514D02*
X536990Y161514D01*
X536990Y163395D02*
X538010Y163395D01*
X538010Y165276D02*
X536990Y165276D01*
X536990Y167157D02*
X538010Y167157D01*
X541990Y168010D02*
X543010Y168010D01*
X543010Y153990D01*
X541990Y153990D01*
X541990Y168010D01*
X541990Y155871D02*
X543010Y155871D01*
X543010Y157752D02*
X541990Y157752D01*
X541990Y159633D02*
X543010Y159633D01*
X543010Y161514D02*
X541990Y161514D01*
X541990Y163395D02*
X543010Y163395D01*
X543010Y165276D02*
X541990Y165276D01*
X541990Y167157D02*
X543010Y167157D01*
X546990Y168010D02*
X548010Y168010D01*
X548010Y153990D01*
X546990Y153990D01*
X546990Y168010D01*
X546990Y155871D02*
X548010Y155871D01*
X548010Y157752D02*
X546990Y157752D01*
X546990Y159633D02*
X548010Y159633D01*
X548010Y161514D02*
X546990Y161514D01*
X546990Y163395D02*
X548010Y163395D01*
X548010Y165276D02*
X546990Y165276D01*
X546990Y167157D02*
X548010Y167157D01*
X551990Y168010D02*
X553010Y168010D01*
X553010Y153990D01*
X551990Y153990D01*
X551990Y168010D01*
X551990Y155871D02*
X553010Y155871D01*
X553010Y157752D02*
X551990Y157752D01*
X551990Y159633D02*
X553010Y159633D01*
X553010Y161514D02*
X551990Y161514D01*
X551990Y163395D02*
X553010Y163395D01*
X553010Y165276D02*
X551990Y165276D01*
X551990Y167157D02*
X553010Y167157D01*
X556990Y168010D02*
X558010Y168010D01*
X558010Y153990D01*
X556990Y153990D01*
X556990Y168010D01*
X556990Y155871D02*
X558010Y155871D01*
X558010Y157752D02*
X556990Y157752D01*
X556990Y159633D02*
X558010Y159633D01*
X558010Y161514D02*
X556990Y161514D01*
X556990Y163395D02*
X558010Y163395D01*
X558010Y165276D02*
X556990Y165276D01*
X556990Y167157D02*
X558010Y167157D01*
X561990Y168010D02*
X563010Y168010D01*
X563010Y153990D01*
X561990Y153990D01*
X561990Y168010D01*
X561990Y155871D02*
X563010Y155871D01*
X563010Y157752D02*
X561990Y157752D01*
X561990Y159633D02*
X563010Y159633D01*
X563010Y161514D02*
X561990Y161514D01*
X561990Y163395D02*
X563010Y163395D01*
X563010Y165276D02*
X561990Y165276D01*
X561990Y167157D02*
X563010Y167157D01*
X566990Y168010D02*
X568010Y168010D01*
X568010Y153990D01*
X566990Y153990D01*
X566990Y168010D01*
X566990Y155871D02*
X568010Y155871D01*
X568010Y157752D02*
X566990Y157752D01*
X566990Y159633D02*
X568010Y159633D01*
X568010Y161514D02*
X566990Y161514D01*
X566990Y163395D02*
X568010Y163395D01*
X568010Y165276D02*
X566990Y165276D01*
X566990Y167157D02*
X568010Y167157D01*
X571990Y168010D02*
X573010Y168010D01*
X573010Y153990D01*
X571990Y153990D01*
X571990Y168010D01*
X571990Y155871D02*
X573010Y155871D01*
X573010Y157752D02*
X571990Y157752D01*
X571990Y159633D02*
X573010Y159633D01*
X573010Y161514D02*
X571990Y161514D01*
X571990Y163395D02*
X573010Y163395D01*
X573010Y165276D02*
X571990Y165276D01*
X571990Y167157D02*
X573010Y167157D01*
X576990Y168010D02*
X578010Y168010D01*
X578010Y153990D01*
X576990Y153990D01*
X576990Y168010D01*
X576990Y155871D02*
X578010Y155871D01*
X578010Y157752D02*
X576990Y157752D01*
X576990Y159633D02*
X578010Y159633D01*
X578010Y161514D02*
X576990Y161514D01*
X576990Y163395D02*
X578010Y163395D01*
X578010Y165276D02*
X576990Y165276D01*
X576990Y167157D02*
X578010Y167157D01*
X581990Y168010D02*
X583010Y168010D01*
X583010Y153990D01*
X581990Y153990D01*
X581990Y168010D01*
X581990Y155871D02*
X583010Y155871D01*
X583010Y157752D02*
X581990Y157752D01*
X581990Y159633D02*
X583010Y159633D01*
X583010Y161514D02*
X581990Y161514D01*
X581990Y163395D02*
X583010Y163395D01*
X583010Y165276D02*
X581990Y165276D01*
X581990Y167157D02*
X583010Y167157D01*
X586990Y168010D02*
X588010Y168010D01*
X588010Y153990D01*
X586990Y153990D01*
X586990Y168010D01*
X586990Y155871D02*
X588010Y155871D01*
X588010Y157752D02*
X586990Y157752D01*
X586990Y159633D02*
X588010Y159633D01*
X588010Y161514D02*
X586990Y161514D01*
X586990Y163395D02*
X588010Y163395D01*
X588010Y165276D02*
X586990Y165276D01*
X586990Y167157D02*
X588010Y167157D01*
X591990Y168010D02*
X593010Y168010D01*
X593010Y153990D01*
X591990Y153990D01*
X591990Y168010D01*
X591990Y155871D02*
X593010Y155871D01*
X593010Y157752D02*
X591990Y157752D01*
X591990Y159633D02*
X593010Y159633D01*
X593010Y161514D02*
X591990Y161514D01*
X591990Y163395D02*
X593010Y163395D01*
X593010Y165276D02*
X591990Y165276D01*
X591990Y167157D02*
X593010Y167157D01*
X596990Y168010D02*
X598010Y168010D01*
X598010Y153990D01*
X596990Y153990D01*
X596990Y168010D01*
X596990Y155871D02*
X598010Y155871D01*
X598010Y157752D02*
X596990Y157752D01*
X596990Y159633D02*
X598010Y159633D01*
X598010Y161514D02*
X596990Y161514D01*
X596990Y163395D02*
X598010Y163395D01*
X598010Y165276D02*
X596990Y165276D01*
X596990Y167157D02*
X598010Y167157D01*
X601990Y168010D02*
X603010Y168010D01*
X603010Y153990D01*
X601990Y153990D01*
X601990Y168010D01*
X601990Y155871D02*
X603010Y155871D01*
X603010Y157752D02*
X601990Y157752D01*
X601990Y159633D02*
X603010Y159633D01*
X603010Y161514D02*
X601990Y161514D01*
X601990Y163395D02*
X603010Y163395D01*
X603010Y165276D02*
X601990Y165276D01*
X601990Y167157D02*
X603010Y167157D01*
X606990Y168010D02*
X608010Y168010D01*
X608010Y153990D01*
X606990Y153990D01*
X606990Y168010D01*
X606990Y155871D02*
X608010Y155871D01*
X608010Y157752D02*
X606990Y157752D01*
X606990Y159633D02*
X608010Y159633D01*
X608010Y161514D02*
X606990Y161514D01*
X606990Y163395D02*
X608010Y163395D01*
X608010Y165276D02*
X606990Y165276D01*
X606990Y167157D02*
X608010Y167157D01*
X498010Y246010D02*
X496990Y246010D01*
X498010Y246010D02*
X498010Y231990D01*
X496990Y231990D01*
X496990Y246010D01*
X496990Y233871D02*
X498010Y233871D01*
X498010Y235752D02*
X496990Y235752D01*
X496990Y237633D02*
X498010Y237633D01*
X498010Y239514D02*
X496990Y239514D01*
X496990Y241395D02*
X498010Y241395D01*
X498010Y243276D02*
X496990Y243276D01*
X496990Y245157D02*
X498010Y245157D01*
X501990Y246010D02*
X503010Y246010D01*
X503010Y231990D01*
X501990Y231990D01*
X501990Y246010D01*
X501990Y233871D02*
X503010Y233871D01*
X503010Y235752D02*
X501990Y235752D01*
X501990Y237633D02*
X503010Y237633D01*
X503010Y239514D02*
X501990Y239514D01*
X501990Y241395D02*
X503010Y241395D01*
X503010Y243276D02*
X501990Y243276D01*
X501990Y245157D02*
X503010Y245157D01*
X506990Y246010D02*
X508010Y246010D01*
X508010Y231990D01*
X506990Y231990D01*
X506990Y246010D01*
X506990Y233871D02*
X508010Y233871D01*
X508010Y235752D02*
X506990Y235752D01*
X506990Y237633D02*
X508010Y237633D01*
X508010Y239514D02*
X506990Y239514D01*
X506990Y241395D02*
X508010Y241395D01*
X508010Y243276D02*
X506990Y243276D01*
X506990Y245157D02*
X508010Y245157D01*
X511990Y246010D02*
X513010Y246010D01*
X513010Y231990D01*
X511990Y231990D01*
X511990Y246010D01*
X511990Y233871D02*
X513010Y233871D01*
X513010Y235752D02*
X511990Y235752D01*
X511990Y237633D02*
X513010Y237633D01*
X513010Y239514D02*
X511990Y239514D01*
X511990Y241395D02*
X513010Y241395D01*
X513010Y243276D02*
X511990Y243276D01*
X511990Y245157D02*
X513010Y245157D01*
X516990Y246010D02*
X518010Y246010D01*
X518010Y231990D01*
X516990Y231990D01*
X516990Y246010D01*
X516990Y233871D02*
X518010Y233871D01*
X518010Y235752D02*
X516990Y235752D01*
X516990Y237633D02*
X518010Y237633D01*
X518010Y239514D02*
X516990Y239514D01*
X516990Y241395D02*
X518010Y241395D01*
X518010Y243276D02*
X516990Y243276D01*
X516990Y245157D02*
X518010Y245157D01*
X521990Y246010D02*
X523010Y246010D01*
X523010Y231990D01*
X521990Y231990D01*
X521990Y246010D01*
X521990Y233871D02*
X523010Y233871D01*
X523010Y235752D02*
X521990Y235752D01*
X521990Y237633D02*
X523010Y237633D01*
X523010Y239514D02*
X521990Y239514D01*
X521990Y241395D02*
X523010Y241395D01*
X523010Y243276D02*
X521990Y243276D01*
X521990Y245157D02*
X523010Y245157D01*
X526990Y246010D02*
X528010Y246010D01*
X528010Y231990D01*
X526990Y231990D01*
X526990Y246010D01*
X526990Y233871D02*
X528010Y233871D01*
X528010Y235752D02*
X526990Y235752D01*
X526990Y237633D02*
X528010Y237633D01*
X528010Y239514D02*
X526990Y239514D01*
X526990Y241395D02*
X528010Y241395D01*
X528010Y243276D02*
X526990Y243276D01*
X526990Y245157D02*
X528010Y245157D01*
X531990Y246010D02*
X533010Y246010D01*
X533010Y231990D01*
X531990Y231990D01*
X531990Y246010D01*
X531990Y233871D02*
X533010Y233871D01*
X533010Y235752D02*
X531990Y235752D01*
X531990Y237633D02*
X533010Y237633D01*
X533010Y239514D02*
X531990Y239514D01*
X531990Y241395D02*
X533010Y241395D01*
X533010Y243276D02*
X531990Y243276D01*
X531990Y245157D02*
X533010Y245157D01*
X536990Y246010D02*
X538010Y246010D01*
X538010Y231990D01*
X536990Y231990D01*
X536990Y246010D01*
X536990Y233871D02*
X538010Y233871D01*
X538010Y235752D02*
X536990Y235752D01*
X536990Y237633D02*
X538010Y237633D01*
X538010Y239514D02*
X536990Y239514D01*
X536990Y241395D02*
X538010Y241395D01*
X538010Y243276D02*
X536990Y243276D01*
X536990Y245157D02*
X538010Y245157D01*
X541990Y246010D02*
X543010Y246010D01*
X543010Y231990D01*
X541990Y231990D01*
X541990Y246010D01*
X541990Y233871D02*
X543010Y233871D01*
X543010Y235752D02*
X541990Y235752D01*
X541990Y237633D02*
X543010Y237633D01*
X543010Y239514D02*
X541990Y239514D01*
X541990Y241395D02*
X543010Y241395D01*
X543010Y243276D02*
X541990Y243276D01*
X541990Y245157D02*
X543010Y245157D01*
X546990Y246010D02*
X548010Y246010D01*
X548010Y231990D01*
X546990Y231990D01*
X546990Y246010D01*
X546990Y233871D02*
X548010Y233871D01*
X548010Y235752D02*
X546990Y235752D01*
X546990Y237633D02*
X548010Y237633D01*
X548010Y239514D02*
X546990Y239514D01*
X546990Y241395D02*
X548010Y241395D01*
X548010Y243276D02*
X546990Y243276D01*
X546990Y245157D02*
X548010Y245157D01*
X551990Y246010D02*
X553010Y246010D01*
X553010Y231990D01*
X551990Y231990D01*
X551990Y246010D01*
X551990Y233871D02*
X553010Y233871D01*
X553010Y235752D02*
X551990Y235752D01*
X551990Y237633D02*
X553010Y237633D01*
X553010Y239514D02*
X551990Y239514D01*
X551990Y241395D02*
X553010Y241395D01*
X553010Y243276D02*
X551990Y243276D01*
X551990Y245157D02*
X553010Y245157D01*
X556990Y246010D02*
X558010Y246010D01*
X558010Y231990D01*
X556990Y231990D01*
X556990Y246010D01*
X556990Y233871D02*
X558010Y233871D01*
X558010Y235752D02*
X556990Y235752D01*
X556990Y237633D02*
X558010Y237633D01*
X558010Y239514D02*
X556990Y239514D01*
X556990Y241395D02*
X558010Y241395D01*
X558010Y243276D02*
X556990Y243276D01*
X556990Y245157D02*
X558010Y245157D01*
X561990Y246010D02*
X563010Y246010D01*
X563010Y231990D01*
X561990Y231990D01*
X561990Y246010D01*
X561990Y233871D02*
X563010Y233871D01*
X563010Y235752D02*
X561990Y235752D01*
X561990Y237633D02*
X563010Y237633D01*
X563010Y239514D02*
X561990Y239514D01*
X561990Y241395D02*
X563010Y241395D01*
X563010Y243276D02*
X561990Y243276D01*
X561990Y245157D02*
X563010Y245157D01*
X566990Y246010D02*
X568010Y246010D01*
X568010Y231990D01*
X566990Y231990D01*
X566990Y246010D01*
X566990Y233871D02*
X568010Y233871D01*
X568010Y235752D02*
X566990Y235752D01*
X566990Y237633D02*
X568010Y237633D01*
X568010Y239514D02*
X566990Y239514D01*
X566990Y241395D02*
X568010Y241395D01*
X568010Y243276D02*
X566990Y243276D01*
X566990Y245157D02*
X568010Y245157D01*
X571990Y246010D02*
X573010Y246010D01*
X573010Y231990D01*
X571990Y231990D01*
X571990Y246010D01*
X571990Y233871D02*
X573010Y233871D01*
X573010Y235752D02*
X571990Y235752D01*
X571990Y237633D02*
X573010Y237633D01*
X573010Y239514D02*
X571990Y239514D01*
X571990Y241395D02*
X573010Y241395D01*
X573010Y243276D02*
X571990Y243276D01*
X571990Y245157D02*
X573010Y245157D01*
X576990Y246010D02*
X578010Y246010D01*
X578010Y231990D01*
X576990Y231990D01*
X576990Y246010D01*
X576990Y233871D02*
X578010Y233871D01*
X578010Y235752D02*
X576990Y235752D01*
X576990Y237633D02*
X578010Y237633D01*
X578010Y239514D02*
X576990Y239514D01*
X576990Y241395D02*
X578010Y241395D01*
X578010Y243276D02*
X576990Y243276D01*
X576990Y245157D02*
X578010Y245157D01*
X581990Y246010D02*
X583010Y246010D01*
X583010Y231990D01*
X581990Y231990D01*
X581990Y246010D01*
X581990Y233871D02*
X583010Y233871D01*
X583010Y235752D02*
X581990Y235752D01*
X581990Y237633D02*
X583010Y237633D01*
X583010Y239514D02*
X581990Y239514D01*
X581990Y241395D02*
X583010Y241395D01*
X583010Y243276D02*
X581990Y243276D01*
X581990Y245157D02*
X583010Y245157D01*
X586990Y246010D02*
X588010Y246010D01*
X588010Y231990D01*
X586990Y231990D01*
X586990Y246010D01*
X586990Y233871D02*
X588010Y233871D01*
X588010Y235752D02*
X586990Y235752D01*
X586990Y237633D02*
X588010Y237633D01*
X588010Y239514D02*
X586990Y239514D01*
X586990Y241395D02*
X588010Y241395D01*
X588010Y243276D02*
X586990Y243276D01*
X586990Y245157D02*
X588010Y245157D01*
X591990Y246010D02*
X593010Y246010D01*
X593010Y231990D01*
X591990Y231990D01*
X591990Y246010D01*
X591990Y233871D02*
X593010Y233871D01*
X593010Y235752D02*
X591990Y235752D01*
X591990Y237633D02*
X593010Y237633D01*
X593010Y239514D02*
X591990Y239514D01*
X591990Y241395D02*
X593010Y241395D01*
X593010Y243276D02*
X591990Y243276D01*
X591990Y245157D02*
X593010Y245157D01*
X596990Y246010D02*
X598010Y246010D01*
X598010Y231990D01*
X596990Y231990D01*
X596990Y246010D01*
X596990Y233871D02*
X598010Y233871D01*
X598010Y235752D02*
X596990Y235752D01*
X596990Y237633D02*
X598010Y237633D01*
X598010Y239514D02*
X596990Y239514D01*
X596990Y241395D02*
X598010Y241395D01*
X598010Y243276D02*
X596990Y243276D01*
X596990Y245157D02*
X598010Y245157D01*
X601990Y246010D02*
X603010Y246010D01*
X603010Y231990D01*
X601990Y231990D01*
X601990Y246010D01*
X601990Y233871D02*
X603010Y233871D01*
X603010Y235752D02*
X601990Y235752D01*
X601990Y237633D02*
X603010Y237633D01*
X603010Y239514D02*
X601990Y239514D01*
X601990Y241395D02*
X603010Y241395D01*
X603010Y243276D02*
X601990Y243276D01*
X601990Y245157D02*
X603010Y245157D01*
X606990Y246010D02*
X608010Y246010D01*
X608010Y231990D01*
X606990Y231990D01*
X606990Y246010D01*
X606990Y233871D02*
X608010Y233871D01*
X608010Y235752D02*
X606990Y235752D01*
X606990Y237633D02*
X608010Y237633D01*
X608010Y239514D02*
X606990Y239514D01*
X606990Y241395D02*
X608010Y241395D01*
X608010Y243276D02*
X606990Y243276D01*
X606990Y245157D02*
X608010Y245157D01*
X716990Y168010D02*
X718010Y168010D01*
X718010Y153990D01*
X716990Y153990D01*
X716990Y168010D01*
X716990Y155871D02*
X718010Y155871D01*
X718010Y157752D02*
X716990Y157752D01*
X716990Y159633D02*
X718010Y159633D01*
X718010Y161514D02*
X716990Y161514D01*
X716990Y163395D02*
X718010Y163395D01*
X718010Y165276D02*
X716990Y165276D01*
X716990Y167157D02*
X718010Y167157D01*
X718010Y246010D02*
X716990Y246010D01*
X718010Y246010D02*
X718010Y231990D01*
X716990Y231990D01*
X716990Y246010D01*
X716990Y233871D02*
X718010Y233871D01*
X718010Y235752D02*
X716990Y235752D01*
X716990Y237633D02*
X718010Y237633D01*
X718010Y239514D02*
X716990Y239514D01*
X716990Y241395D02*
X718010Y241395D01*
X718010Y243276D02*
X716990Y243276D01*
X716990Y245157D02*
X718010Y245157D01*
X721990Y168010D02*
X723010Y168010D01*
X723010Y153990D01*
X721990Y153990D01*
X721990Y168010D01*
X721990Y155871D02*
X723010Y155871D01*
X723010Y157752D02*
X721990Y157752D01*
X721990Y159633D02*
X723010Y159633D01*
X723010Y161514D02*
X721990Y161514D01*
X721990Y163395D02*
X723010Y163395D01*
X723010Y165276D02*
X721990Y165276D01*
X721990Y167157D02*
X723010Y167157D01*
X726990Y168010D02*
X728010Y168010D01*
X728010Y153990D01*
X726990Y153990D01*
X726990Y168010D01*
X726990Y155871D02*
X728010Y155871D01*
X728010Y157752D02*
X726990Y157752D01*
X726990Y159633D02*
X728010Y159633D01*
X728010Y161514D02*
X726990Y161514D01*
X726990Y163395D02*
X728010Y163395D01*
X728010Y165276D02*
X726990Y165276D01*
X726990Y167157D02*
X728010Y167157D01*
X731990Y168010D02*
X733010Y168010D01*
X733010Y153990D01*
X731990Y153990D01*
X731990Y168010D01*
X731990Y155871D02*
X733010Y155871D01*
X733010Y157752D02*
X731990Y157752D01*
X731990Y159633D02*
X733010Y159633D01*
X733010Y161514D02*
X731990Y161514D01*
X731990Y163395D02*
X733010Y163395D01*
X733010Y165276D02*
X731990Y165276D01*
X731990Y167157D02*
X733010Y167157D01*
X736990Y168010D02*
X738010Y168010D01*
X738010Y153990D01*
X736990Y153990D01*
X736990Y168010D01*
X736990Y155871D02*
X738010Y155871D01*
X738010Y157752D02*
X736990Y157752D01*
X736990Y159633D02*
X738010Y159633D01*
X738010Y161514D02*
X736990Y161514D01*
X736990Y163395D02*
X738010Y163395D01*
X738010Y165276D02*
X736990Y165276D01*
X736990Y167157D02*
X738010Y167157D01*
X741990Y168010D02*
X743010Y168010D01*
X743010Y153990D01*
X741990Y153990D01*
X741990Y168010D01*
X741990Y155871D02*
X743010Y155871D01*
X743010Y157752D02*
X741990Y157752D01*
X741990Y159633D02*
X743010Y159633D01*
X743010Y161514D02*
X741990Y161514D01*
X741990Y163395D02*
X743010Y163395D01*
X743010Y165276D02*
X741990Y165276D01*
X741990Y167157D02*
X743010Y167157D01*
X746990Y168010D02*
X748010Y168010D01*
X748010Y153990D01*
X746990Y153990D01*
X746990Y168010D01*
X746990Y155871D02*
X748010Y155871D01*
X748010Y157752D02*
X746990Y157752D01*
X746990Y159633D02*
X748010Y159633D01*
X748010Y161514D02*
X746990Y161514D01*
X746990Y163395D02*
X748010Y163395D01*
X748010Y165276D02*
X746990Y165276D01*
X746990Y167157D02*
X748010Y167157D01*
X751990Y168010D02*
X753010Y168010D01*
X753010Y153990D01*
X751990Y153990D01*
X751990Y168010D01*
X751990Y155871D02*
X753010Y155871D01*
X753010Y157752D02*
X751990Y157752D01*
X751990Y159633D02*
X753010Y159633D01*
X753010Y161514D02*
X751990Y161514D01*
X751990Y163395D02*
X753010Y163395D01*
X753010Y165276D02*
X751990Y165276D01*
X751990Y167157D02*
X753010Y167157D01*
X756990Y168010D02*
X758010Y168010D01*
X758010Y153990D01*
X756990Y153990D01*
X756990Y168010D01*
X756990Y155871D02*
X758010Y155871D01*
X758010Y157752D02*
X756990Y157752D01*
X756990Y159633D02*
X758010Y159633D01*
X758010Y161514D02*
X756990Y161514D01*
X756990Y163395D02*
X758010Y163395D01*
X758010Y165276D02*
X756990Y165276D01*
X756990Y167157D02*
X758010Y167157D01*
X761990Y168010D02*
X763010Y168010D01*
X763010Y153990D01*
X761990Y153990D01*
X761990Y168010D01*
X761990Y155871D02*
X763010Y155871D01*
X763010Y157752D02*
X761990Y157752D01*
X761990Y159633D02*
X763010Y159633D01*
X763010Y161514D02*
X761990Y161514D01*
X761990Y163395D02*
X763010Y163395D01*
X763010Y165276D02*
X761990Y165276D01*
X761990Y167157D02*
X763010Y167157D01*
X766990Y168010D02*
X768010Y168010D01*
X768010Y153990D01*
X766990Y153990D01*
X766990Y168010D01*
X766990Y155871D02*
X768010Y155871D01*
X768010Y157752D02*
X766990Y157752D01*
X766990Y159633D02*
X768010Y159633D01*
X768010Y161514D02*
X766990Y161514D01*
X766990Y163395D02*
X768010Y163395D01*
X768010Y165276D02*
X766990Y165276D01*
X766990Y167157D02*
X768010Y167157D01*
X771990Y168010D02*
X773010Y168010D01*
X773010Y153990D01*
X771990Y153990D01*
X771990Y168010D01*
X771990Y155871D02*
X773010Y155871D01*
X773010Y157752D02*
X771990Y157752D01*
X771990Y159633D02*
X773010Y159633D01*
X773010Y161514D02*
X771990Y161514D01*
X771990Y163395D02*
X773010Y163395D01*
X773010Y165276D02*
X771990Y165276D01*
X771990Y167157D02*
X773010Y167157D01*
X776990Y168010D02*
X778010Y168010D01*
X778010Y153990D01*
X776990Y153990D01*
X776990Y168010D01*
X776990Y155871D02*
X778010Y155871D01*
X778010Y157752D02*
X776990Y157752D01*
X776990Y159633D02*
X778010Y159633D01*
X778010Y161514D02*
X776990Y161514D01*
X776990Y163395D02*
X778010Y163395D01*
X778010Y165276D02*
X776990Y165276D01*
X776990Y167157D02*
X778010Y167157D01*
X781990Y168010D02*
X783010Y168010D01*
X783010Y153990D01*
X781990Y153990D01*
X781990Y168010D01*
X781990Y155871D02*
X783010Y155871D01*
X783010Y157752D02*
X781990Y157752D01*
X781990Y159633D02*
X783010Y159633D01*
X783010Y161514D02*
X781990Y161514D01*
X781990Y163395D02*
X783010Y163395D01*
X783010Y165276D02*
X781990Y165276D01*
X781990Y167157D02*
X783010Y167157D01*
X786990Y168010D02*
X788010Y168010D01*
X788010Y153990D01*
X786990Y153990D01*
X786990Y168010D01*
X786990Y155871D02*
X788010Y155871D01*
X788010Y157752D02*
X786990Y157752D01*
X786990Y159633D02*
X788010Y159633D01*
X788010Y161514D02*
X786990Y161514D01*
X786990Y163395D02*
X788010Y163395D01*
X788010Y165276D02*
X786990Y165276D01*
X786990Y167157D02*
X788010Y167157D01*
X791990Y168010D02*
X793010Y168010D01*
X793010Y153990D01*
X791990Y153990D01*
X791990Y168010D01*
X791990Y155871D02*
X793010Y155871D01*
X793010Y157752D02*
X791990Y157752D01*
X791990Y159633D02*
X793010Y159633D01*
X793010Y161514D02*
X791990Y161514D01*
X791990Y163395D02*
X793010Y163395D01*
X793010Y165276D02*
X791990Y165276D01*
X791990Y167157D02*
X793010Y167157D01*
X796990Y168010D02*
X798010Y168010D01*
X798010Y153990D01*
X796990Y153990D01*
X796990Y168010D01*
X796990Y155871D02*
X798010Y155871D01*
X798010Y157752D02*
X796990Y157752D01*
X796990Y159633D02*
X798010Y159633D01*
X798010Y161514D02*
X796990Y161514D01*
X796990Y163395D02*
X798010Y163395D01*
X798010Y165276D02*
X796990Y165276D01*
X796990Y167157D02*
X798010Y167157D01*
X801990Y168010D02*
X803010Y168010D01*
X803010Y153990D01*
X801990Y153990D01*
X801990Y168010D01*
X801990Y155871D02*
X803010Y155871D01*
X803010Y157752D02*
X801990Y157752D01*
X801990Y159633D02*
X803010Y159633D01*
X803010Y161514D02*
X801990Y161514D01*
X801990Y163395D02*
X803010Y163395D01*
X803010Y165276D02*
X801990Y165276D01*
X801990Y167157D02*
X803010Y167157D01*
X806990Y168010D02*
X808010Y168010D01*
X808010Y153990D01*
X806990Y153990D01*
X806990Y168010D01*
X806990Y155871D02*
X808010Y155871D01*
X808010Y157752D02*
X806990Y157752D01*
X806990Y159633D02*
X808010Y159633D01*
X808010Y161514D02*
X806990Y161514D01*
X806990Y163395D02*
X808010Y163395D01*
X808010Y165276D02*
X806990Y165276D01*
X806990Y167157D02*
X808010Y167157D01*
X811990Y168010D02*
X813010Y168010D01*
X813010Y153990D01*
X811990Y153990D01*
X811990Y168010D01*
X811990Y155871D02*
X813010Y155871D01*
X813010Y157752D02*
X811990Y157752D01*
X811990Y159633D02*
X813010Y159633D01*
X813010Y161514D02*
X811990Y161514D01*
X811990Y163395D02*
X813010Y163395D01*
X813010Y165276D02*
X811990Y165276D01*
X811990Y167157D02*
X813010Y167157D01*
X816990Y168010D02*
X818010Y168010D01*
X818010Y153990D01*
X816990Y153990D01*
X816990Y168010D01*
X816990Y155871D02*
X818010Y155871D01*
X818010Y157752D02*
X816990Y157752D01*
X816990Y159633D02*
X818010Y159633D01*
X818010Y161514D02*
X816990Y161514D01*
X816990Y163395D02*
X818010Y163395D01*
X818010Y165276D02*
X816990Y165276D01*
X816990Y167157D02*
X818010Y167157D01*
X821990Y168010D02*
X823010Y168010D01*
X823010Y153990D01*
X821990Y153990D01*
X821990Y168010D01*
X821990Y155871D02*
X823010Y155871D01*
X823010Y157752D02*
X821990Y157752D01*
X821990Y159633D02*
X823010Y159633D01*
X823010Y161514D02*
X821990Y161514D01*
X821990Y163395D02*
X823010Y163395D01*
X823010Y165276D02*
X821990Y165276D01*
X821990Y167157D02*
X823010Y167157D01*
X826990Y168010D02*
X828010Y168010D01*
X828010Y153990D01*
X826990Y153990D01*
X826990Y168010D01*
X826990Y155871D02*
X828010Y155871D01*
X828010Y157752D02*
X826990Y157752D01*
X826990Y159633D02*
X828010Y159633D01*
X828010Y161514D02*
X826990Y161514D01*
X826990Y163395D02*
X828010Y163395D01*
X828010Y165276D02*
X826990Y165276D01*
X826990Y167157D02*
X828010Y167157D01*
X831990Y168010D02*
X833010Y168010D01*
X833010Y153990D01*
X831990Y153990D01*
X831990Y168010D01*
X831990Y155871D02*
X833010Y155871D01*
X833010Y157752D02*
X831990Y157752D01*
X831990Y159633D02*
X833010Y159633D01*
X833010Y161514D02*
X831990Y161514D01*
X831990Y163395D02*
X833010Y163395D01*
X833010Y165276D02*
X831990Y165276D01*
X831990Y167157D02*
X833010Y167157D01*
X723010Y246010D02*
X721990Y246010D01*
X723010Y246010D02*
X723010Y231990D01*
X721990Y231990D01*
X721990Y246010D01*
X721990Y233871D02*
X723010Y233871D01*
X723010Y235752D02*
X721990Y235752D01*
X721990Y237633D02*
X723010Y237633D01*
X723010Y239514D02*
X721990Y239514D01*
X721990Y241395D02*
X723010Y241395D01*
X723010Y243276D02*
X721990Y243276D01*
X721990Y245157D02*
X723010Y245157D01*
X726990Y246010D02*
X728010Y246010D01*
X728010Y231990D01*
X726990Y231990D01*
X726990Y246010D01*
X726990Y233871D02*
X728010Y233871D01*
X728010Y235752D02*
X726990Y235752D01*
X726990Y237633D02*
X728010Y237633D01*
X728010Y239514D02*
X726990Y239514D01*
X726990Y241395D02*
X728010Y241395D01*
X728010Y243276D02*
X726990Y243276D01*
X726990Y245157D02*
X728010Y245157D01*
X731990Y246010D02*
X733010Y246010D01*
X733010Y231990D01*
X731990Y231990D01*
X731990Y246010D01*
X731990Y233871D02*
X733010Y233871D01*
X733010Y235752D02*
X731990Y235752D01*
X731990Y237633D02*
X733010Y237633D01*
X733010Y239514D02*
X731990Y239514D01*
X731990Y241395D02*
X733010Y241395D01*
X733010Y243276D02*
X731990Y243276D01*
X731990Y245157D02*
X733010Y245157D01*
X736990Y246010D02*
X738010Y246010D01*
X738010Y231990D01*
X736990Y231990D01*
X736990Y246010D01*
X736990Y233871D02*
X738010Y233871D01*
X738010Y235752D02*
X736990Y235752D01*
X736990Y237633D02*
X738010Y237633D01*
X738010Y239514D02*
X736990Y239514D01*
X736990Y241395D02*
X738010Y241395D01*
X738010Y243276D02*
X736990Y243276D01*
X736990Y245157D02*
X738010Y245157D01*
X741990Y246010D02*
X743010Y246010D01*
X743010Y231990D01*
X741990Y231990D01*
X741990Y246010D01*
X741990Y233871D02*
X743010Y233871D01*
X743010Y235752D02*
X741990Y235752D01*
X741990Y237633D02*
X743010Y237633D01*
X743010Y239514D02*
X741990Y239514D01*
X741990Y241395D02*
X743010Y241395D01*
X743010Y243276D02*
X741990Y243276D01*
X741990Y245157D02*
X743010Y245157D01*
X746990Y246010D02*
X748010Y246010D01*
X748010Y231990D01*
X746990Y231990D01*
X746990Y246010D01*
X746990Y233871D02*
X748010Y233871D01*
X748010Y235752D02*
X746990Y235752D01*
X746990Y237633D02*
X748010Y237633D01*
X748010Y239514D02*
X746990Y239514D01*
X746990Y241395D02*
X748010Y241395D01*
X748010Y243276D02*
X746990Y243276D01*
X746990Y245157D02*
X748010Y245157D01*
X751990Y246010D02*
X753010Y246010D01*
X753010Y231990D01*
X751990Y231990D01*
X751990Y246010D01*
X751990Y233871D02*
X753010Y233871D01*
X753010Y235752D02*
X751990Y235752D01*
X751990Y237633D02*
X753010Y237633D01*
X753010Y239514D02*
X751990Y239514D01*
X751990Y241395D02*
X753010Y241395D01*
X753010Y243276D02*
X751990Y243276D01*
X751990Y245157D02*
X753010Y245157D01*
X756990Y246010D02*
X758010Y246010D01*
X758010Y231990D01*
X756990Y231990D01*
X756990Y246010D01*
X756990Y233871D02*
X758010Y233871D01*
X758010Y235752D02*
X756990Y235752D01*
X756990Y237633D02*
X758010Y237633D01*
X758010Y239514D02*
X756990Y239514D01*
X756990Y241395D02*
X758010Y241395D01*
X758010Y243276D02*
X756990Y243276D01*
X756990Y245157D02*
X758010Y245157D01*
X761990Y246010D02*
X763010Y246010D01*
X763010Y231990D01*
X761990Y231990D01*
X761990Y246010D01*
X761990Y233871D02*
X763010Y233871D01*
X763010Y235752D02*
X761990Y235752D01*
X761990Y237633D02*
X763010Y237633D01*
X763010Y239514D02*
X761990Y239514D01*
X761990Y241395D02*
X763010Y241395D01*
X763010Y243276D02*
X761990Y243276D01*
X761990Y245157D02*
X763010Y245157D01*
X766990Y246010D02*
X768010Y246010D01*
X768010Y231990D01*
X766990Y231990D01*
X766990Y246010D01*
X766990Y233871D02*
X768010Y233871D01*
X768010Y235752D02*
X766990Y235752D01*
X766990Y237633D02*
X768010Y237633D01*
X768010Y239514D02*
X766990Y239514D01*
X766990Y241395D02*
X768010Y241395D01*
X768010Y243276D02*
X766990Y243276D01*
X766990Y245157D02*
X768010Y245157D01*
X771990Y246010D02*
X773010Y246010D01*
X773010Y231990D01*
X771990Y231990D01*
X771990Y246010D01*
X771990Y233871D02*
X773010Y233871D01*
X773010Y235752D02*
X771990Y235752D01*
X771990Y237633D02*
X773010Y237633D01*
X773010Y239514D02*
X771990Y239514D01*
X771990Y241395D02*
X773010Y241395D01*
X773010Y243276D02*
X771990Y243276D01*
X771990Y245157D02*
X773010Y245157D01*
X776990Y246010D02*
X778010Y246010D01*
X778010Y231990D01*
X776990Y231990D01*
X776990Y246010D01*
X776990Y233871D02*
X778010Y233871D01*
X778010Y235752D02*
X776990Y235752D01*
X776990Y237633D02*
X778010Y237633D01*
X778010Y239514D02*
X776990Y239514D01*
X776990Y241395D02*
X778010Y241395D01*
X778010Y243276D02*
X776990Y243276D01*
X776990Y245157D02*
X778010Y245157D01*
X781990Y246010D02*
X783010Y246010D01*
X783010Y231990D01*
X781990Y231990D01*
X781990Y246010D01*
X781990Y233871D02*
X783010Y233871D01*
X783010Y235752D02*
X781990Y235752D01*
X781990Y237633D02*
X783010Y237633D01*
X783010Y239514D02*
X781990Y239514D01*
X781990Y241395D02*
X783010Y241395D01*
X783010Y243276D02*
X781990Y243276D01*
X781990Y245157D02*
X783010Y245157D01*
X786990Y246010D02*
X788010Y246010D01*
X788010Y231990D01*
X786990Y231990D01*
X786990Y246010D01*
X786990Y233871D02*
X788010Y233871D01*
X788010Y235752D02*
X786990Y235752D01*
X786990Y237633D02*
X788010Y237633D01*
X788010Y239514D02*
X786990Y239514D01*
X786990Y241395D02*
X788010Y241395D01*
X788010Y243276D02*
X786990Y243276D01*
X786990Y245157D02*
X788010Y245157D01*
X791990Y246010D02*
X793010Y246010D01*
X793010Y231990D01*
X791990Y231990D01*
X791990Y246010D01*
X791990Y233871D02*
X793010Y233871D01*
X793010Y235752D02*
X791990Y235752D01*
X791990Y237633D02*
X793010Y237633D01*
X793010Y239514D02*
X791990Y239514D01*
X791990Y241395D02*
X793010Y241395D01*
X793010Y243276D02*
X791990Y243276D01*
X791990Y245157D02*
X793010Y245157D01*
X796990Y246010D02*
X798010Y246010D01*
X798010Y231990D01*
X796990Y231990D01*
X796990Y246010D01*
X796990Y233871D02*
X798010Y233871D01*
X798010Y235752D02*
X796990Y235752D01*
X796990Y237633D02*
X798010Y237633D01*
X798010Y239514D02*
X796990Y239514D01*
X796990Y241395D02*
X798010Y241395D01*
X798010Y243276D02*
X796990Y243276D01*
X796990Y245157D02*
X798010Y245157D01*
X801990Y246010D02*
X803010Y246010D01*
X803010Y231990D01*
X801990Y231990D01*
X801990Y246010D01*
X801990Y233871D02*
X803010Y233871D01*
X803010Y235752D02*
X801990Y235752D01*
X801990Y237633D02*
X803010Y237633D01*
X803010Y239514D02*
X801990Y239514D01*
X801990Y241395D02*
X803010Y241395D01*
X803010Y243276D02*
X801990Y243276D01*
X801990Y245157D02*
X803010Y245157D01*
X806990Y246010D02*
X808010Y246010D01*
X808010Y231990D01*
X806990Y231990D01*
X806990Y246010D01*
X806990Y233871D02*
X808010Y233871D01*
X808010Y235752D02*
X806990Y235752D01*
X806990Y237633D02*
X808010Y237633D01*
X808010Y239514D02*
X806990Y239514D01*
X806990Y241395D02*
X808010Y241395D01*
X808010Y243276D02*
X806990Y243276D01*
X806990Y245157D02*
X808010Y245157D01*
X811990Y246010D02*
X813010Y246010D01*
X813010Y231990D01*
X811990Y231990D01*
X811990Y246010D01*
X811990Y233871D02*
X813010Y233871D01*
X813010Y235752D02*
X811990Y235752D01*
X811990Y237633D02*
X813010Y237633D01*
X813010Y239514D02*
X811990Y239514D01*
X811990Y241395D02*
X813010Y241395D01*
X813010Y243276D02*
X811990Y243276D01*
X811990Y245157D02*
X813010Y245157D01*
X816990Y246010D02*
X818010Y246010D01*
X818010Y231990D01*
X816990Y231990D01*
X816990Y246010D01*
X816990Y233871D02*
X818010Y233871D01*
X818010Y235752D02*
X816990Y235752D01*
X816990Y237633D02*
X818010Y237633D01*
X818010Y239514D02*
X816990Y239514D01*
X816990Y241395D02*
X818010Y241395D01*
X818010Y243276D02*
X816990Y243276D01*
X816990Y245157D02*
X818010Y245157D01*
X821990Y246010D02*
X823010Y246010D01*
X823010Y231990D01*
X821990Y231990D01*
X821990Y246010D01*
X821990Y233871D02*
X823010Y233871D01*
X823010Y235752D02*
X821990Y235752D01*
X821990Y237633D02*
X823010Y237633D01*
X823010Y239514D02*
X821990Y239514D01*
X821990Y241395D02*
X823010Y241395D01*
X823010Y243276D02*
X821990Y243276D01*
X821990Y245157D02*
X823010Y245157D01*
X826990Y246010D02*
X828010Y246010D01*
X828010Y231990D01*
X826990Y231990D01*
X826990Y246010D01*
X826990Y233871D02*
X828010Y233871D01*
X828010Y235752D02*
X826990Y235752D01*
X826990Y237633D02*
X828010Y237633D01*
X828010Y239514D02*
X826990Y239514D01*
X826990Y241395D02*
X828010Y241395D01*
X828010Y243276D02*
X826990Y243276D01*
X826990Y245157D02*
X828010Y245157D01*
X831990Y246010D02*
X833010Y246010D01*
X833010Y231990D01*
X831990Y231990D01*
X831990Y246010D01*
X831990Y233871D02*
X833010Y233871D01*
X833010Y235752D02*
X831990Y235752D01*
X831990Y237633D02*
X833010Y237633D01*
X833010Y239514D02*
X831990Y239514D01*
X831990Y241395D02*
X833010Y241395D01*
X833010Y243276D02*
X831990Y243276D01*
X831990Y245157D02*
X833010Y245157D01*
X941990Y168010D02*
X943010Y168010D01*
X943010Y153990D01*
X941990Y153990D01*
X941990Y168010D01*
X941990Y155871D02*
X943010Y155871D01*
X943010Y157752D02*
X941990Y157752D01*
X941990Y159633D02*
X943010Y159633D01*
X943010Y161514D02*
X941990Y161514D01*
X941990Y163395D02*
X943010Y163395D01*
X943010Y165276D02*
X941990Y165276D01*
X941990Y167157D02*
X943010Y167157D01*
X943010Y246010D02*
X941990Y246010D01*
X943010Y246010D02*
X943010Y231990D01*
X941990Y231990D01*
X941990Y246010D01*
X941990Y233871D02*
X943010Y233871D01*
X943010Y235752D02*
X941990Y235752D01*
X941990Y237633D02*
X943010Y237633D01*
X943010Y239514D02*
X941990Y239514D01*
X941990Y241395D02*
X943010Y241395D01*
X943010Y243276D02*
X941990Y243276D01*
X941990Y245157D02*
X943010Y245157D01*
X946990Y168010D02*
X948010Y168010D01*
X948010Y153990D01*
X946990Y153990D01*
X946990Y168010D01*
X946990Y155871D02*
X948010Y155871D01*
X948010Y157752D02*
X946990Y157752D01*
X946990Y159633D02*
X948010Y159633D01*
X948010Y161514D02*
X946990Y161514D01*
X946990Y163395D02*
X948010Y163395D01*
X948010Y165276D02*
X946990Y165276D01*
X946990Y167157D02*
X948010Y167157D01*
X951990Y168010D02*
X953010Y168010D01*
X953010Y153990D01*
X951990Y153990D01*
X951990Y168010D01*
X951990Y155871D02*
X953010Y155871D01*
X953010Y157752D02*
X951990Y157752D01*
X951990Y159633D02*
X953010Y159633D01*
X953010Y161514D02*
X951990Y161514D01*
X951990Y163395D02*
X953010Y163395D01*
X953010Y165276D02*
X951990Y165276D01*
X951990Y167157D02*
X953010Y167157D01*
X956990Y168010D02*
X958010Y168010D01*
X958010Y153990D01*
X956990Y153990D01*
X956990Y168010D01*
X956990Y155871D02*
X958010Y155871D01*
X958010Y157752D02*
X956990Y157752D01*
X956990Y159633D02*
X958010Y159633D01*
X958010Y161514D02*
X956990Y161514D01*
X956990Y163395D02*
X958010Y163395D01*
X958010Y165276D02*
X956990Y165276D01*
X956990Y167157D02*
X958010Y167157D01*
X961990Y168010D02*
X963010Y168010D01*
X963010Y153990D01*
X961990Y153990D01*
X961990Y168010D01*
X961990Y155871D02*
X963010Y155871D01*
X963010Y157752D02*
X961990Y157752D01*
X961990Y159633D02*
X963010Y159633D01*
X963010Y161514D02*
X961990Y161514D01*
X961990Y163395D02*
X963010Y163395D01*
X963010Y165276D02*
X961990Y165276D01*
X961990Y167157D02*
X963010Y167157D01*
X966990Y168010D02*
X968010Y168010D01*
X968010Y153990D01*
X966990Y153990D01*
X966990Y168010D01*
X966990Y155871D02*
X968010Y155871D01*
X968010Y157752D02*
X966990Y157752D01*
X966990Y159633D02*
X968010Y159633D01*
X968010Y161514D02*
X966990Y161514D01*
X966990Y163395D02*
X968010Y163395D01*
X968010Y165276D02*
X966990Y165276D01*
X966990Y167157D02*
X968010Y167157D01*
X971990Y168010D02*
X973010Y168010D01*
X973010Y153990D01*
X971990Y153990D01*
X971990Y168010D01*
X971990Y155871D02*
X973010Y155871D01*
X973010Y157752D02*
X971990Y157752D01*
X971990Y159633D02*
X973010Y159633D01*
X973010Y161514D02*
X971990Y161514D01*
X971990Y163395D02*
X973010Y163395D01*
X973010Y165276D02*
X971990Y165276D01*
X971990Y167157D02*
X973010Y167157D01*
X976990Y168010D02*
X978010Y168010D01*
X978010Y153990D01*
X976990Y153990D01*
X976990Y168010D01*
X976990Y155871D02*
X978010Y155871D01*
X978010Y157752D02*
X976990Y157752D01*
X976990Y159633D02*
X978010Y159633D01*
X978010Y161514D02*
X976990Y161514D01*
X976990Y163395D02*
X978010Y163395D01*
X978010Y165276D02*
X976990Y165276D01*
X976990Y167157D02*
X978010Y167157D01*
X981990Y168010D02*
X983010Y168010D01*
X983010Y153990D01*
X981990Y153990D01*
X981990Y168010D01*
X981990Y155871D02*
X983010Y155871D01*
X983010Y157752D02*
X981990Y157752D01*
X981990Y159633D02*
X983010Y159633D01*
X983010Y161514D02*
X981990Y161514D01*
X981990Y163395D02*
X983010Y163395D01*
X983010Y165276D02*
X981990Y165276D01*
X981990Y167157D02*
X983010Y167157D01*
X986990Y168010D02*
X988010Y168010D01*
X988010Y153990D01*
X986990Y153990D01*
X986990Y168010D01*
X986990Y155871D02*
X988010Y155871D01*
X988010Y157752D02*
X986990Y157752D01*
X986990Y159633D02*
X988010Y159633D01*
X988010Y161514D02*
X986990Y161514D01*
X986990Y163395D02*
X988010Y163395D01*
X988010Y165276D02*
X986990Y165276D01*
X986990Y167157D02*
X988010Y167157D01*
X991990Y168010D02*
X993010Y168010D01*
X993010Y153990D01*
X991990Y153990D01*
X991990Y168010D01*
X991990Y155871D02*
X993010Y155871D01*
X993010Y157752D02*
X991990Y157752D01*
X991990Y159633D02*
X993010Y159633D01*
X993010Y161514D02*
X991990Y161514D01*
X991990Y163395D02*
X993010Y163395D01*
X993010Y165276D02*
X991990Y165276D01*
X991990Y167157D02*
X993010Y167157D01*
X996990Y168010D02*
X998010Y168010D01*
X998010Y153990D01*
X996990Y153990D01*
X996990Y168010D01*
X996990Y155871D02*
X998010Y155871D01*
X998010Y157752D02*
X996990Y157752D01*
X996990Y159633D02*
X998010Y159633D01*
X998010Y161514D02*
X996990Y161514D01*
X996990Y163395D02*
X998010Y163395D01*
X998010Y165276D02*
X996990Y165276D01*
X996990Y167157D02*
X998010Y167157D01*
X1001990Y168010D02*
X1003010Y168010D01*
X1003010Y153990D01*
X1001990Y153990D01*
X1001990Y168010D01*
X1001990Y155871D02*
X1003010Y155871D01*
X1003010Y157752D02*
X1001990Y157752D01*
X1001990Y159633D02*
X1003010Y159633D01*
X1003010Y161514D02*
X1001990Y161514D01*
X1001990Y163395D02*
X1003010Y163395D01*
X1003010Y165276D02*
X1001990Y165276D01*
X1001990Y167157D02*
X1003010Y167157D01*
X1006990Y168010D02*
X1008010Y168010D01*
X1008010Y153990D01*
X1006990Y153990D01*
X1006990Y168010D01*
X1006990Y155871D02*
X1008010Y155871D01*
X1008010Y157752D02*
X1006990Y157752D01*
X1006990Y159633D02*
X1008010Y159633D01*
X1008010Y161514D02*
X1006990Y161514D01*
X1006990Y163395D02*
X1008010Y163395D01*
X1008010Y165276D02*
X1006990Y165276D01*
X1006990Y167157D02*
X1008010Y167157D01*
X1011990Y168010D02*
X1013010Y168010D01*
X1013010Y153990D01*
X1011990Y153990D01*
X1011990Y168010D01*
X1011990Y155871D02*
X1013010Y155871D01*
X1013010Y157752D02*
X1011990Y157752D01*
X1011990Y159633D02*
X1013010Y159633D01*
X1013010Y161514D02*
X1011990Y161514D01*
X1011990Y163395D02*
X1013010Y163395D01*
X1013010Y165276D02*
X1011990Y165276D01*
X1011990Y167157D02*
X1013010Y167157D01*
X1016990Y168010D02*
X1018010Y168010D01*
X1018010Y153990D01*
X1016990Y153990D01*
X1016990Y168010D01*
X1016990Y155871D02*
X1018010Y155871D01*
X1018010Y157752D02*
X1016990Y157752D01*
X1016990Y159633D02*
X1018010Y159633D01*
X1018010Y161514D02*
X1016990Y161514D01*
X1016990Y163395D02*
X1018010Y163395D01*
X1018010Y165276D02*
X1016990Y165276D01*
X1016990Y167157D02*
X1018010Y167157D01*
X1021990Y168010D02*
X1023010Y168010D01*
X1023010Y153990D01*
X1021990Y153990D01*
X1021990Y168010D01*
X1021990Y155871D02*
X1023010Y155871D01*
X1023010Y157752D02*
X1021990Y157752D01*
X1021990Y159633D02*
X1023010Y159633D01*
X1023010Y161514D02*
X1021990Y161514D01*
X1021990Y163395D02*
X1023010Y163395D01*
X1023010Y165276D02*
X1021990Y165276D01*
X1021990Y167157D02*
X1023010Y167157D01*
X1026990Y168010D02*
X1028010Y168010D01*
X1028010Y153990D01*
X1026990Y153990D01*
X1026990Y168010D01*
X1026990Y155871D02*
X1028010Y155871D01*
X1028010Y157752D02*
X1026990Y157752D01*
X1026990Y159633D02*
X1028010Y159633D01*
X1028010Y161514D02*
X1026990Y161514D01*
X1026990Y163395D02*
X1028010Y163395D01*
X1028010Y165276D02*
X1026990Y165276D01*
X1026990Y167157D02*
X1028010Y167157D01*
X1031990Y168010D02*
X1033010Y168010D01*
X1033010Y153990D01*
X1031990Y153990D01*
X1031990Y168010D01*
X1031990Y155871D02*
X1033010Y155871D01*
X1033010Y157752D02*
X1031990Y157752D01*
X1031990Y159633D02*
X1033010Y159633D01*
X1033010Y161514D02*
X1031990Y161514D01*
X1031990Y163395D02*
X1033010Y163395D01*
X1033010Y165276D02*
X1031990Y165276D01*
X1031990Y167157D02*
X1033010Y167157D01*
X1036990Y168010D02*
X1038010Y168010D01*
X1038010Y153990D01*
X1036990Y153990D01*
X1036990Y168010D01*
X1036990Y155871D02*
X1038010Y155871D01*
X1038010Y157752D02*
X1036990Y157752D01*
X1036990Y159633D02*
X1038010Y159633D01*
X1038010Y161514D02*
X1036990Y161514D01*
X1036990Y163395D02*
X1038010Y163395D01*
X1038010Y165276D02*
X1036990Y165276D01*
X1036990Y167157D02*
X1038010Y167157D01*
X1041990Y168010D02*
X1043010Y168010D01*
X1043010Y153990D01*
X1041990Y153990D01*
X1041990Y168010D01*
X1041990Y155871D02*
X1043010Y155871D01*
X1043010Y157752D02*
X1041990Y157752D01*
X1041990Y159633D02*
X1043010Y159633D01*
X1043010Y161514D02*
X1041990Y161514D01*
X1041990Y163395D02*
X1043010Y163395D01*
X1043010Y165276D02*
X1041990Y165276D01*
X1041990Y167157D02*
X1043010Y167157D01*
X1046990Y168010D02*
X1048010Y168010D01*
X1048010Y153990D01*
X1046990Y153990D01*
X1046990Y168010D01*
X1046990Y155871D02*
X1048010Y155871D01*
X1048010Y157752D02*
X1046990Y157752D01*
X1046990Y159633D02*
X1048010Y159633D01*
X1048010Y161514D02*
X1046990Y161514D01*
X1046990Y163395D02*
X1048010Y163395D01*
X1048010Y165276D02*
X1046990Y165276D01*
X1046990Y167157D02*
X1048010Y167157D01*
X1051990Y168010D02*
X1053010Y168010D01*
X1053010Y153990D01*
X1051990Y153990D01*
X1051990Y168010D01*
X1051990Y155871D02*
X1053010Y155871D01*
X1053010Y157752D02*
X1051990Y157752D01*
X1051990Y159633D02*
X1053010Y159633D01*
X1053010Y161514D02*
X1051990Y161514D01*
X1051990Y163395D02*
X1053010Y163395D01*
X1053010Y165276D02*
X1051990Y165276D01*
X1051990Y167157D02*
X1053010Y167157D01*
X1056990Y168010D02*
X1058010Y168010D01*
X1058010Y153990D01*
X1056990Y153990D01*
X1056990Y168010D01*
X1056990Y155871D02*
X1058010Y155871D01*
X1058010Y157752D02*
X1056990Y157752D01*
X1056990Y159633D02*
X1058010Y159633D01*
X1058010Y161514D02*
X1056990Y161514D01*
X1056990Y163395D02*
X1058010Y163395D01*
X1058010Y165276D02*
X1056990Y165276D01*
X1056990Y167157D02*
X1058010Y167157D01*
X948010Y246010D02*
X946990Y246010D01*
X948010Y246010D02*
X948010Y231990D01*
X946990Y231990D01*
X946990Y246010D01*
X946990Y233871D02*
X948010Y233871D01*
X948010Y235752D02*
X946990Y235752D01*
X946990Y237633D02*
X948010Y237633D01*
X948010Y239514D02*
X946990Y239514D01*
X946990Y241395D02*
X948010Y241395D01*
X948010Y243276D02*
X946990Y243276D01*
X946990Y245157D02*
X948010Y245157D01*
X951990Y246010D02*
X953010Y246010D01*
X953010Y231990D01*
X951990Y231990D01*
X951990Y246010D01*
X951990Y233871D02*
X953010Y233871D01*
X953010Y235752D02*
X951990Y235752D01*
X951990Y237633D02*
X953010Y237633D01*
X953010Y239514D02*
X951990Y239514D01*
X951990Y241395D02*
X953010Y241395D01*
X953010Y243276D02*
X951990Y243276D01*
X951990Y245157D02*
X953010Y245157D01*
X956990Y246010D02*
X958010Y246010D01*
X958010Y231990D01*
X956990Y231990D01*
X956990Y246010D01*
X956990Y233871D02*
X958010Y233871D01*
X958010Y235752D02*
X956990Y235752D01*
X956990Y237633D02*
X958010Y237633D01*
X958010Y239514D02*
X956990Y239514D01*
X956990Y241395D02*
X958010Y241395D01*
X958010Y243276D02*
X956990Y243276D01*
X956990Y245157D02*
X958010Y245157D01*
X961990Y246010D02*
X963010Y246010D01*
X963010Y231990D01*
X961990Y231990D01*
X961990Y246010D01*
X961990Y233871D02*
X963010Y233871D01*
X963010Y235752D02*
X961990Y235752D01*
X961990Y237633D02*
X963010Y237633D01*
X963010Y239514D02*
X961990Y239514D01*
X961990Y241395D02*
X963010Y241395D01*
X963010Y243276D02*
X961990Y243276D01*
X961990Y245157D02*
X963010Y245157D01*
X966990Y246010D02*
X968010Y246010D01*
X968010Y231990D01*
X966990Y231990D01*
X966990Y246010D01*
X966990Y233871D02*
X968010Y233871D01*
X968010Y235752D02*
X966990Y235752D01*
X966990Y237633D02*
X968010Y237633D01*
X968010Y239514D02*
X966990Y239514D01*
X966990Y241395D02*
X968010Y241395D01*
X968010Y243276D02*
X966990Y243276D01*
X966990Y245157D02*
X968010Y245157D01*
X971990Y246010D02*
X973010Y246010D01*
X973010Y231990D01*
X971990Y231990D01*
X971990Y246010D01*
X971990Y233871D02*
X973010Y233871D01*
X973010Y235752D02*
X971990Y235752D01*
X971990Y237633D02*
X973010Y237633D01*
X973010Y239514D02*
X971990Y239514D01*
X971990Y241395D02*
X973010Y241395D01*
X973010Y243276D02*
X971990Y243276D01*
X971990Y245157D02*
X973010Y245157D01*
X976990Y246010D02*
X978010Y246010D01*
X978010Y231990D01*
X976990Y231990D01*
X976990Y246010D01*
X976990Y233871D02*
X978010Y233871D01*
X978010Y235752D02*
X976990Y235752D01*
X976990Y237633D02*
X978010Y237633D01*
X978010Y239514D02*
X976990Y239514D01*
X976990Y241395D02*
X978010Y241395D01*
X978010Y243276D02*
X976990Y243276D01*
X976990Y245157D02*
X978010Y245157D01*
X981990Y246010D02*
X983010Y246010D01*
X983010Y231990D01*
X981990Y231990D01*
X981990Y246010D01*
X981990Y233871D02*
X983010Y233871D01*
X983010Y235752D02*
X981990Y235752D01*
X981990Y237633D02*
X983010Y237633D01*
X983010Y239514D02*
X981990Y239514D01*
X981990Y241395D02*
X983010Y241395D01*
X983010Y243276D02*
X981990Y243276D01*
X981990Y245157D02*
X983010Y245157D01*
X986990Y246010D02*
X988010Y246010D01*
X988010Y231990D01*
X986990Y231990D01*
X986990Y246010D01*
X986990Y233871D02*
X988010Y233871D01*
X988010Y235752D02*
X986990Y235752D01*
X986990Y237633D02*
X988010Y237633D01*
X988010Y239514D02*
X986990Y239514D01*
X986990Y241395D02*
X988010Y241395D01*
X988010Y243276D02*
X986990Y243276D01*
X986990Y245157D02*
X988010Y245157D01*
X991990Y246010D02*
X993010Y246010D01*
X993010Y231990D01*
X991990Y231990D01*
X991990Y246010D01*
X991990Y233871D02*
X993010Y233871D01*
X993010Y235752D02*
X991990Y235752D01*
X991990Y237633D02*
X993010Y237633D01*
X993010Y239514D02*
X991990Y239514D01*
X991990Y241395D02*
X993010Y241395D01*
X993010Y243276D02*
X991990Y243276D01*
X991990Y245157D02*
X993010Y245157D01*
X996990Y246010D02*
X998010Y246010D01*
X998010Y231990D01*
X996990Y231990D01*
X996990Y246010D01*
X996990Y233871D02*
X998010Y233871D01*
X998010Y235752D02*
X996990Y235752D01*
X996990Y237633D02*
X998010Y237633D01*
X998010Y239514D02*
X996990Y239514D01*
X996990Y241395D02*
X998010Y241395D01*
X998010Y243276D02*
X996990Y243276D01*
X996990Y245157D02*
X998010Y245157D01*
X1001990Y246010D02*
X1003010Y246010D01*
X1003010Y231990D01*
X1001990Y231990D01*
X1001990Y246010D01*
X1001990Y233871D02*
X1003010Y233871D01*
X1003010Y235752D02*
X1001990Y235752D01*
X1001990Y237633D02*
X1003010Y237633D01*
X1003010Y239514D02*
X1001990Y239514D01*
X1001990Y241395D02*
X1003010Y241395D01*
X1003010Y243276D02*
X1001990Y243276D01*
X1001990Y245157D02*
X1003010Y245157D01*
X1006990Y246010D02*
X1008010Y246010D01*
X1008010Y231990D01*
X1006990Y231990D01*
X1006990Y246010D01*
X1006990Y233871D02*
X1008010Y233871D01*
X1008010Y235752D02*
X1006990Y235752D01*
X1006990Y237633D02*
X1008010Y237633D01*
X1008010Y239514D02*
X1006990Y239514D01*
X1006990Y241395D02*
X1008010Y241395D01*
X1008010Y243276D02*
X1006990Y243276D01*
X1006990Y245157D02*
X1008010Y245157D01*
X1011990Y246010D02*
X1013010Y246010D01*
X1013010Y231990D01*
X1011990Y231990D01*
X1011990Y246010D01*
X1011990Y233871D02*
X1013010Y233871D01*
X1013010Y235752D02*
X1011990Y235752D01*
X1011990Y237633D02*
X1013010Y237633D01*
X1013010Y239514D02*
X1011990Y239514D01*
X1011990Y241395D02*
X1013010Y241395D01*
X1013010Y243276D02*
X1011990Y243276D01*
X1011990Y245157D02*
X1013010Y245157D01*
X1016990Y246010D02*
X1018010Y246010D01*
X1018010Y231990D01*
X1016990Y231990D01*
X1016990Y246010D01*
X1016990Y233871D02*
X1018010Y233871D01*
X1018010Y235752D02*
X1016990Y235752D01*
X1016990Y237633D02*
X1018010Y237633D01*
X1018010Y239514D02*
X1016990Y239514D01*
X1016990Y241395D02*
X1018010Y241395D01*
X1018010Y243276D02*
X1016990Y243276D01*
X1016990Y245157D02*
X1018010Y245157D01*
X1021990Y246010D02*
X1023010Y246010D01*
X1023010Y231990D01*
X1021990Y231990D01*
X1021990Y246010D01*
X1021990Y233871D02*
X1023010Y233871D01*
X1023010Y235752D02*
X1021990Y235752D01*
X1021990Y237633D02*
X1023010Y237633D01*
X1023010Y239514D02*
X1021990Y239514D01*
X1021990Y241395D02*
X1023010Y241395D01*
X1023010Y243276D02*
X1021990Y243276D01*
X1021990Y245157D02*
X1023010Y245157D01*
X1026990Y246010D02*
X1028010Y246010D01*
X1028010Y231990D01*
X1026990Y231990D01*
X1026990Y246010D01*
X1026990Y233871D02*
X1028010Y233871D01*
X1028010Y235752D02*
X1026990Y235752D01*
X1026990Y237633D02*
X1028010Y237633D01*
X1028010Y239514D02*
X1026990Y239514D01*
X1026990Y241395D02*
X1028010Y241395D01*
X1028010Y243276D02*
X1026990Y243276D01*
X1026990Y245157D02*
X1028010Y245157D01*
X1031990Y246010D02*
X1033010Y246010D01*
X1033010Y231990D01*
X1031990Y231990D01*
X1031990Y246010D01*
X1031990Y233871D02*
X1033010Y233871D01*
X1033010Y235752D02*
X1031990Y235752D01*
X1031990Y237633D02*
X1033010Y237633D01*
X1033010Y239514D02*
X1031990Y239514D01*
X1031990Y241395D02*
X1033010Y241395D01*
X1033010Y243276D02*
X1031990Y243276D01*
X1031990Y245157D02*
X1033010Y245157D01*
X1036990Y246010D02*
X1038010Y246010D01*
X1038010Y231990D01*
X1036990Y231990D01*
X1036990Y246010D01*
X1036990Y233871D02*
X1038010Y233871D01*
X1038010Y235752D02*
X1036990Y235752D01*
X1036990Y237633D02*
X1038010Y237633D01*
X1038010Y239514D02*
X1036990Y239514D01*
X1036990Y241395D02*
X1038010Y241395D01*
X1038010Y243276D02*
X1036990Y243276D01*
X1036990Y245157D02*
X1038010Y245157D01*
X1041990Y246010D02*
X1043010Y246010D01*
X1043010Y231990D01*
X1041990Y231990D01*
X1041990Y246010D01*
X1041990Y233871D02*
X1043010Y233871D01*
X1043010Y235752D02*
X1041990Y235752D01*
X1041990Y237633D02*
X1043010Y237633D01*
X1043010Y239514D02*
X1041990Y239514D01*
X1041990Y241395D02*
X1043010Y241395D01*
X1043010Y243276D02*
X1041990Y243276D01*
X1041990Y245157D02*
X1043010Y245157D01*
X1046990Y246010D02*
X1048010Y246010D01*
X1048010Y231990D01*
X1046990Y231990D01*
X1046990Y246010D01*
X1046990Y233871D02*
X1048010Y233871D01*
X1048010Y235752D02*
X1046990Y235752D01*
X1046990Y237633D02*
X1048010Y237633D01*
X1048010Y239514D02*
X1046990Y239514D01*
X1046990Y241395D02*
X1048010Y241395D01*
X1048010Y243276D02*
X1046990Y243276D01*
X1046990Y245157D02*
X1048010Y245157D01*
X1051990Y246010D02*
X1053010Y246010D01*
X1053010Y231990D01*
X1051990Y231990D01*
X1051990Y246010D01*
X1051990Y233871D02*
X1053010Y233871D01*
X1053010Y235752D02*
X1051990Y235752D01*
X1051990Y237633D02*
X1053010Y237633D01*
X1053010Y239514D02*
X1051990Y239514D01*
X1051990Y241395D02*
X1053010Y241395D01*
X1053010Y243276D02*
X1051990Y243276D01*
X1051990Y245157D02*
X1053010Y245157D01*
X1056990Y246010D02*
X1058010Y246010D01*
X1058010Y231990D01*
X1056990Y231990D01*
X1056990Y246010D01*
X1056990Y233871D02*
X1058010Y233871D01*
X1058010Y235752D02*
X1056990Y235752D01*
X1056990Y237633D02*
X1058010Y237633D01*
X1058010Y239514D02*
X1056990Y239514D01*
X1056990Y241395D02*
X1058010Y241395D01*
X1058010Y243276D02*
X1056990Y243276D01*
X1056990Y245157D02*
X1058010Y245157D01*
D12*
X52500Y332500D03*
X57500Y332500D03*
X62500Y332500D03*
X67500Y332500D03*
X72500Y332500D03*
X77500Y332500D03*
X82500Y332500D03*
X87500Y332500D03*
X92500Y332500D03*
X97500Y332500D03*
X102500Y332500D03*
X107500Y332500D03*
X112500Y332500D03*
X117500Y332500D03*
X122500Y332500D03*
X127500Y332500D03*
X132500Y332500D03*
X137500Y332500D03*
X142500Y332500D03*
X147500Y332500D03*
D13*
X166500Y300000D03*
X33500Y300000D03*
D12*
X352500Y332500D03*
X357500Y332500D03*
X362500Y332500D03*
X367500Y332500D03*
X372500Y332500D03*
X377500Y332500D03*
X382500Y332500D03*
X387500Y332500D03*
X392500Y332500D03*
X397500Y332500D03*
X402500Y332500D03*
X407500Y332500D03*
X412500Y332500D03*
X417500Y332500D03*
X422500Y332500D03*
X427500Y332500D03*
X432500Y332500D03*
X437500Y332500D03*
X442500Y332500D03*
X447500Y332500D03*
D13*
X466500Y300000D03*
X333500Y300000D03*
D12*
X652500Y332500D03*
X657500Y332500D03*
X662500Y332500D03*
X667500Y332500D03*
X672500Y332500D03*
X677500Y332500D03*
X682500Y332500D03*
X687500Y332500D03*
X692500Y332500D03*
X697500Y332500D03*
X702500Y332500D03*
X707500Y332500D03*
X712500Y332500D03*
X717500Y332500D03*
X722500Y332500D03*
X727500Y332500D03*
X732500Y332500D03*
X737500Y332500D03*
X742500Y332500D03*
X747500Y332500D03*
D13*
X766500Y300000D03*
X633500Y300000D03*
D12*
X952500Y332500D03*
X957500Y332500D03*
X962500Y332500D03*
X967500Y332500D03*
X972500Y332500D03*
X977500Y332500D03*
X982500Y332500D03*
X987500Y332500D03*
X992500Y332500D03*
X997500Y332500D03*
X1002500Y332500D03*
X1007500Y332500D03*
X1012500Y332500D03*
X1017500Y332500D03*
X1022500Y332500D03*
X1027500Y332500D03*
X1032500Y332500D03*
X1037500Y332500D03*
X1042500Y332500D03*
X1047500Y332500D03*
D13*
X1066500Y300000D03*
X933500Y300000D03*
D14*
X800000Y147500D02*
X825000Y122500D01*
X825000Y120000D01*
X825800Y120000D01*
X1042500Y145000D02*
X1050000Y137500D01*
X1050000Y120000D01*
X1050800Y120000D01*
X492500Y93750D02*
X376250Y93750D01*
X376250Y120000D01*
X375800Y120000D01*
D15*
X800000Y147500D03*
X1042500Y145000D03*
X492500Y93750D03*
D14*
X171250Y155000D02*
X167500Y151250D01*
X167500Y113750D01*
D15*
X171250Y155000D03*
X167500Y113750D03*
X383750Y140000D03*
D14*
X762500Y161000D02*
X762500Y178750D01*
X770000Y186250D02*
X772500Y188750D01*
X770000Y186250D02*
X762500Y178750D01*
X772500Y188750D02*
X787500Y188750D01*
X787500Y161000D01*
X762500Y228750D02*
X762500Y239000D01*
X762500Y228750D02*
X772500Y218750D01*
X772500Y208750D01*
X770000Y206250D01*
X770000Y186250D01*
X787500Y188750D02*
X787500Y210000D01*
X787500Y239000D01*
X715000Y163750D02*
X717500Y161250D01*
X715000Y163750D02*
X715000Y177500D01*
X718750Y181250D01*
X732500Y181250D01*
X732500Y161000D01*
X717500Y161000D02*
X717500Y161250D01*
X732500Y181250D02*
X732500Y239000D01*
X732500Y148750D02*
X731250Y147500D01*
X732500Y148750D02*
X732500Y161000D01*
X787500Y161000D02*
X787500Y147500D01*
X987500Y239000D02*
X987500Y246250D01*
X993750Y252500D01*
X993750Y255000D01*
X997500Y258750D01*
X1011250Y258750D01*
X1011250Y247500D01*
X1012500Y246250D01*
X1012500Y239000D01*
X1042500Y168750D02*
X1042500Y161000D01*
X1042500Y168750D02*
X1046250Y172500D01*
X1057500Y172500D01*
X1057500Y161000D01*
X1042500Y226250D02*
X1042500Y239000D01*
X1042500Y226250D02*
X1058750Y210000D01*
X1058750Y173750D01*
X1057500Y172500D01*
X1012500Y226250D02*
X1012500Y239000D01*
X1012500Y226250D02*
X1020000Y218750D01*
X1020000Y193750D01*
X1023750Y190000D01*
X1042500Y190000D01*
X1042500Y208750D02*
X1042500Y226250D01*
X1042500Y208750D02*
X1042500Y190000D01*
X987500Y173750D02*
X987500Y161000D01*
X976250Y185000D02*
X957500Y203750D01*
X976250Y185000D02*
X987500Y173750D01*
X957500Y203750D02*
X957500Y239000D01*
X942500Y161000D02*
X942500Y151250D01*
X948750Y145000D02*
X973750Y120000D01*
X948750Y145000D02*
X942500Y151250D01*
X973750Y120000D02*
X974600Y120000D01*
X957500Y153750D02*
X957500Y161000D01*
X957500Y153750D02*
X948750Y145000D01*
X817500Y161000D02*
X817500Y181250D01*
X821250Y185000D01*
X821250Y218750D02*
X821250Y227500D01*
X821250Y218750D02*
X821250Y185000D01*
X821250Y227500D02*
X817500Y231250D01*
X817500Y239000D01*
X836250Y165000D02*
X832500Y161250D01*
X836250Y165000D02*
X836250Y186250D01*
X832500Y161250D02*
X832500Y161000D01*
X1012500Y161000D02*
X1012500Y176250D01*
X1005000Y183750D01*
X827500Y218750D02*
X821250Y218750D01*
X940000Y163750D02*
X942500Y161250D01*
X940000Y163750D02*
X940000Y186250D01*
X942500Y161250D02*
X942500Y161000D01*
X1040000Y208750D02*
X1042500Y208750D01*
X797500Y210000D02*
X787500Y210000D01*
X112500Y210000D02*
X112500Y239000D01*
X112500Y210000D02*
X112500Y161000D01*
X87500Y227500D02*
X87500Y239000D01*
X87500Y227500D02*
X87500Y210000D01*
X87500Y161000D01*
X57500Y231250D02*
X57500Y239000D01*
X57500Y231250D02*
X61250Y227500D01*
X87500Y227500D01*
X87500Y210000D02*
X112500Y210000D01*
X142500Y161000D02*
X142500Y136250D01*
X127500Y121250D02*
X126250Y120000D01*
X127500Y121250D02*
X130000Y123750D01*
X142500Y136250D01*
X126250Y120000D02*
X125400Y120000D01*
X157500Y161000D02*
X157500Y168750D01*
X153750Y172500D01*
X142500Y172500D01*
X142500Y161000D01*
X142500Y239000D02*
X142500Y250000D01*
X145000Y252500D01*
X112500Y161000D02*
X112500Y148750D01*
X111250Y147500D01*
X111250Y142500D01*
X130000Y123750D01*
X125400Y120000D01*
X312500Y132500D02*
X312500Y161000D01*
X312500Y132500D02*
X300000Y120000D01*
X382500Y147500D02*
X382500Y161000D01*
X382500Y147500D02*
X373750Y138750D01*
X370000Y138750D01*
X370000Y136250D01*
X361250Y127500D01*
X361250Y108750D01*
X353750Y101250D01*
X300000Y101250D01*
X300000Y120000D01*
X299600Y120000D01*
X312500Y161000D02*
X312500Y185000D01*
X312500Y239000D01*
X592500Y217500D02*
X593750Y216250D01*
X592500Y217500D02*
X592500Y239000D01*
X592500Y168750D02*
X592500Y161000D01*
X592500Y168750D02*
X596250Y172500D01*
X607500Y172500D01*
X607500Y161000D01*
X596250Y213750D02*
X593750Y216250D01*
X596250Y213750D02*
X596250Y172500D01*
X542500Y183750D02*
X537500Y178750D01*
X537500Y172500D02*
X537500Y161000D01*
X537500Y172500D02*
X537500Y178750D01*
X562500Y168750D02*
X562500Y161000D01*
X562500Y168750D02*
X558750Y172500D01*
X537500Y172500D01*
X537500Y178750D02*
X537500Y239000D01*
X562500Y216250D02*
X562500Y168750D01*
X562500Y216250D02*
X562500Y239000D01*
X490000Y163750D02*
X492500Y161250D01*
X490000Y163750D02*
X490000Y177500D01*
X493750Y181250D01*
X507500Y181250D01*
X507500Y161000D01*
X492500Y161000D02*
X492500Y161250D01*
X507500Y181250D02*
X507500Y200000D01*
X507500Y239000D01*
X267500Y161000D02*
X267500Y153750D01*
X271250Y150000D01*
X282500Y150000D01*
X282500Y161000D01*
X282500Y208750D02*
X282500Y239000D01*
X282500Y208750D02*
X280000Y206250D01*
X280000Y187500D02*
X280000Y171250D01*
X280000Y187500D02*
X280000Y206250D01*
X280000Y171250D02*
X282500Y168750D01*
X282500Y161000D01*
X367500Y218750D02*
X367500Y239000D01*
X367500Y218750D02*
X367500Y161000D01*
X370000Y216250D02*
X367500Y218750D01*
X337500Y239000D02*
X337500Y185000D01*
X337500Y161000D01*
X42500Y160000D02*
X35000Y160000D01*
X42500Y160000D02*
X42500Y161000D01*
X57500Y161000D02*
X57500Y147500D01*
X333750Y185000D02*
X337500Y185000D01*
X151250Y97500D02*
X127500Y121250D01*
X151250Y97500D02*
X300000Y97500D01*
X300000Y101250D01*
X127500Y121250D02*
X125400Y120000D01*
X607500Y148750D02*
X608750Y147500D01*
X607500Y148750D02*
X607500Y161000D01*
D15*
X731250Y147500D03*
X787500Y147500D03*
X836250Y186250D03*
X1005000Y183750D03*
X827500Y218750D03*
X940000Y186250D03*
X976250Y185000D03*
X1040000Y208750D03*
X797500Y210000D03*
X145000Y252500D03*
X593750Y216250D03*
X542500Y183750D03*
X562500Y216250D03*
X370000Y216250D03*
X35000Y160000D03*
X57500Y147500D03*
X333750Y185000D03*
X280000Y187500D03*
X507500Y200000D03*
X312500Y185000D03*
X608750Y147500D03*
D14*
X972500Y151250D02*
X972500Y161000D01*
X972500Y151250D02*
X971250Y150000D01*
X971250Y145000D01*
X975000Y141250D01*
X985000Y141250D02*
X1027500Y141250D01*
X985000Y141250D02*
X975000Y141250D01*
X1027500Y141250D02*
X1027500Y161000D01*
X968750Y101250D02*
X950000Y120000D01*
X968750Y101250D02*
X985000Y101250D01*
X985000Y141250D01*
X950000Y120000D02*
X949200Y120000D01*
X802500Y183750D02*
X802500Y195000D01*
X802500Y183750D02*
X802500Y161000D01*
X802500Y195000D02*
X805000Y197500D01*
X805000Y228750D01*
X802500Y231250D01*
X802500Y239000D01*
X1026250Y196250D02*
X1027500Y197500D01*
X1027500Y239000D01*
X972500Y239000D02*
X972500Y252500D01*
X956250Y268750D01*
X913750Y268750D01*
X913750Y173750D01*
X803750Y183750D02*
X802500Y183750D01*
X935000Y133750D02*
X948750Y120000D01*
X935000Y133750D02*
X935000Y160000D01*
X948750Y120000D02*
X949200Y120000D01*
X72500Y147500D02*
X72500Y161000D01*
X297500Y161000D02*
X297500Y145000D01*
X297500Y239000D02*
X297500Y250000D01*
X300000Y252500D01*
X127500Y201250D02*
X127500Y161000D01*
X127500Y201250D02*
X135000Y208750D01*
X135000Y223750D01*
X127500Y231250D01*
X127500Y239000D01*
X72500Y239000D02*
X72500Y248750D01*
X73750Y250000D01*
X73750Y256250D01*
X53750Y276250D01*
X52500Y276250D01*
X127500Y161000D02*
X127500Y145000D01*
X747500Y145000D02*
X747500Y161000D01*
X747500Y145000D02*
X725000Y122500D01*
X725000Y120000D01*
X724200Y120000D01*
X747500Y161000D02*
X747500Y187500D01*
X747500Y239000D01*
X522500Y239000D02*
X522500Y193750D01*
X522500Y161000D01*
X352500Y183750D02*
X352500Y239000D01*
X352500Y183750D02*
X352500Y161000D01*
X577500Y161000D02*
X577500Y147500D01*
X577500Y201250D02*
X577500Y239000D01*
X523750Y193750D02*
X522500Y193750D01*
D15*
X1026250Y196250D03*
X913750Y173750D03*
X803750Y183750D03*
X935000Y160000D03*
X72500Y147500D03*
X297500Y145000D03*
X300000Y252500D03*
X46250Y182500D03*
X52500Y276250D03*
X127500Y145000D03*
X577500Y147500D03*
X577500Y201250D03*
X352500Y183750D03*
X523750Y193750D03*
X747500Y187500D03*
D14*
X40000Y175000D02*
X37500Y177500D01*
X37500Y246250D01*
X41250Y250000D01*
X46250Y250000D02*
X47500Y250000D01*
X46250Y250000D02*
X41250Y250000D01*
X47500Y250000D02*
X47500Y239000D01*
X102500Y239000D02*
X102500Y267500D01*
X103750Y268750D01*
X46250Y268750D02*
X46250Y250000D01*
D15*
X40000Y175000D03*
X103750Y268750D03*
X46250Y268750D03*
D14*
X58750Y262500D02*
X51250Y255000D01*
X51250Y247500D01*
X52500Y246250D01*
X52500Y239000D01*
X107500Y239000D02*
X107500Y246250D01*
X120000Y258750D01*
D15*
X58750Y262500D03*
X120000Y258750D03*
D14*
X62500Y247500D02*
X57500Y252500D01*
X62500Y247500D02*
X62500Y239000D01*
X117500Y239000D02*
X117500Y246250D01*
X123750Y252500D01*
X127500Y252500D01*
D15*
X57500Y252500D03*
X127500Y252500D03*
D14*
X67500Y252500D02*
X67500Y239000D01*
X122500Y239000D02*
X122500Y222500D01*
X128750Y216250D01*
D15*
X45000Y216250D03*
X67500Y252500D03*
X128750Y216250D03*
D14*
X87500Y287500D02*
X68750Y287500D01*
X68750Y266250D01*
X77500Y257500D01*
X77500Y239000D01*
X132500Y239000D02*
X132500Y248750D01*
X133750Y250000D01*
X133750Y260000D01*
X126250Y267500D01*
D15*
X87500Y287500D03*
X126250Y267500D03*
D14*
X137500Y253750D02*
X142500Y258750D01*
X146250Y262500D01*
X137500Y253750D02*
X137500Y239000D01*
X82500Y239000D02*
X82500Y270000D01*
X87500Y275000D01*
X120000Y282500D02*
X142500Y260000D01*
X142500Y258750D01*
D15*
X146250Y262500D03*
X87500Y275000D03*
X120000Y282500D03*
D14*
X92500Y227500D02*
X103750Y216250D01*
X92500Y227500D02*
X92500Y239000D01*
X147500Y239000D02*
X147500Y221250D01*
X142500Y216250D01*
D15*
X103750Y216250D03*
X142500Y216250D03*
D14*
X152500Y248750D02*
X156250Y252500D01*
X152500Y248750D02*
X152500Y239000D01*
X97500Y239000D02*
X97500Y276250D01*
D15*
X156250Y252500D03*
X97500Y276250D03*
D14*
X260000Y200000D02*
X272500Y212500D01*
X272500Y239000D01*
X327500Y239000D02*
X327500Y228750D01*
X318750Y220000D01*
X318750Y205000D01*
D15*
X260000Y165000D03*
X260000Y200000D03*
X318750Y205000D03*
D14*
X277500Y239000D02*
X277500Y252500D01*
X332500Y239000D02*
X332500Y270000D01*
X328750Y273750D01*
X301250Y273750D01*
X301250Y272500D01*
D15*
X277500Y252500D03*
X301250Y272500D03*
D14*
X287500Y252500D02*
X287500Y239000D01*
X342500Y239000D02*
X342500Y250000D01*
X336250Y256250D01*
X336250Y271250D01*
X328750Y278750D01*
X287500Y278750D01*
X287500Y252500D01*
D15*
X287500Y252500D03*
D14*
X293750Y260000D02*
X306250Y260000D01*
X293750Y260000D02*
X293750Y247500D01*
X292500Y246250D01*
X292500Y239000D01*
X347500Y239000D02*
X347500Y250000D01*
X343750Y253750D01*
X343750Y271250D01*
D15*
X306250Y260000D03*
X343750Y271250D03*
D14*
X312500Y252500D02*
X306250Y252500D01*
X306250Y250000D01*
X302500Y246250D01*
X302500Y239000D01*
X357500Y239000D02*
X357500Y247500D01*
X351250Y253750D01*
X351250Y255000D01*
D15*
X312500Y252500D03*
X351250Y255000D03*
D14*
X361250Y252500D02*
X362500Y251250D01*
X362500Y239000D01*
X307500Y239000D02*
X307500Y211250D01*
X306250Y210000D01*
D15*
X361250Y252500D03*
X306250Y210000D03*
D14*
X371250Y252500D02*
X372500Y251250D01*
X372500Y239000D01*
X317500Y239000D02*
X317500Y248750D01*
X320000Y251250D01*
X320000Y258750D01*
D15*
X371250Y252500D03*
X320000Y258750D03*
D14*
X377500Y248750D02*
X381250Y252500D01*
X377500Y248750D02*
X377500Y239000D01*
X322500Y239000D02*
X322500Y248750D01*
X326250Y252500D01*
X326250Y267500D01*
D15*
X381250Y252500D03*
X326250Y267500D03*
D14*
X497500Y191250D02*
X501250Y187500D01*
X497500Y191250D02*
X497500Y239000D01*
X552500Y239000D02*
X552500Y228750D01*
X543750Y220000D01*
X543750Y203750D01*
D15*
X501250Y187500D03*
X543750Y203750D03*
D14*
X502500Y239000D02*
X502500Y252500D01*
X557500Y239000D02*
X557500Y225000D01*
X550000Y217500D01*
D15*
X502500Y252500D03*
X550000Y217500D03*
D14*
X512500Y239000D02*
X512500Y252500D01*
X567500Y250000D02*
X567500Y239000D01*
X567500Y250000D02*
X565000Y252500D01*
X565000Y273750D01*
D15*
X512500Y252500D03*
X565000Y273750D03*
D14*
X525000Y252500D02*
X518750Y252500D01*
X518750Y247500D01*
X517500Y246250D01*
X517500Y239000D01*
X572500Y239000D02*
X572500Y250000D01*
X570000Y252500D01*
X570000Y265000D01*
X572500Y267500D01*
D15*
X525000Y252500D03*
X572500Y267500D03*
D14*
X540000Y252500D02*
X531250Y252500D01*
X531250Y250000D01*
X527500Y246250D01*
X527500Y239000D01*
X582500Y239000D02*
X582500Y247500D01*
X576250Y253750D01*
X576250Y255000D01*
D15*
X540000Y252500D03*
X576250Y255000D03*
D14*
X586250Y252500D02*
X587500Y251250D01*
X587500Y239000D01*
X532500Y239000D02*
X532500Y213750D01*
X531250Y212500D01*
D15*
X586250Y252500D03*
X531250Y212500D03*
D14*
X596250Y252500D02*
X597500Y251250D01*
X597500Y239000D01*
X542500Y239000D02*
X542500Y246250D01*
X551250Y255000D01*
X551250Y258750D01*
D15*
X596250Y252500D03*
X551250Y258750D03*
D14*
X602500Y248750D02*
X606250Y252500D01*
X602500Y248750D02*
X602500Y239000D01*
X547500Y239000D02*
X547500Y246250D01*
X558750Y257500D01*
X558750Y276250D01*
X562500Y280000D01*
X606250Y280000D01*
X606250Y252500D01*
D15*
X606250Y252500D03*
D14*
X715000Y186250D02*
X722500Y193750D01*
X722500Y239000D01*
X777500Y239000D02*
X777500Y208750D01*
X775000Y206250D01*
X775000Y196250D01*
X776250Y195000D01*
D15*
X715000Y186250D03*
X776250Y195000D03*
D14*
X727500Y239000D02*
X727500Y252500D01*
X782500Y239000D02*
X782500Y205000D01*
X781250Y203750D01*
D15*
X727500Y252500D03*
X781250Y203750D03*
D14*
X737500Y239000D02*
X737500Y252500D01*
X792500Y239000D02*
X792500Y267500D01*
X790000Y270000D01*
D15*
X737500Y252500D03*
X790000Y270000D03*
D14*
X755000Y252500D02*
X743750Y252500D01*
X743750Y247500D01*
X742500Y246250D01*
X742500Y239000D01*
X797500Y239000D02*
X797500Y263750D01*
X798750Y265000D01*
D15*
X755000Y252500D03*
X798750Y265000D03*
D14*
X803750Y252500D02*
X807500Y248750D01*
X807500Y239000D01*
X752500Y239000D02*
X752500Y220000D01*
X756250Y216250D01*
D15*
X803750Y252500D03*
X756250Y216250D03*
D14*
X757500Y225000D02*
X766250Y216250D01*
X757500Y225000D02*
X757500Y239000D01*
X812500Y239000D02*
X812500Y216250D01*
D15*
X766250Y216250D03*
X812500Y216250D03*
D14*
X822500Y248750D02*
X818750Y252500D01*
X822500Y248750D02*
X822500Y239000D01*
X767500Y239000D02*
X767500Y250000D01*
X771250Y253750D01*
D15*
X818750Y252500D03*
X771250Y253750D03*
D14*
X827500Y248750D02*
X831250Y252500D01*
X827500Y248750D02*
X827500Y239000D01*
X772500Y239000D02*
X772500Y246250D01*
X783750Y257500D01*
X783750Y272500D01*
X787500Y276250D01*
X831250Y276250D01*
X831250Y252500D01*
D15*
X831250Y252500D03*
D14*
X100000Y98750D02*
X96250Y95000D01*
X100000Y98750D02*
X100000Y120000D01*
D15*
X96250Y95000D03*
D14*
X775000Y120000D02*
X797500Y97500D01*
X1000000Y97500D01*
X1000000Y120000D01*
D15*
X1052500Y181250D03*
D14*
X1052500Y270000D02*
X1051250Y271250D01*
X1052500Y270000D02*
X1052500Y239000D01*
X997500Y239000D02*
X997500Y250000D01*
X1000000Y252500D01*
D15*
X1051250Y271250D03*
X1000000Y252500D03*
D14*
X1046250Y252500D02*
X1047500Y251250D01*
X1047500Y239000D01*
X992500Y239000D02*
X992500Y196250D01*
X996250Y192500D01*
X996250Y190000D01*
D15*
X1046250Y252500D03*
X996250Y190000D03*
D14*
X980000Y212500D02*
X982500Y215000D01*
X982500Y239000D01*
X1037500Y239000D02*
X1037500Y220000D01*
X1033750Y216250D01*
D15*
X980000Y212500D03*
X1033750Y216250D03*
D14*
X985000Y252500D02*
X977500Y252500D01*
X977500Y239000D01*
X1032500Y239000D02*
X1032500Y258750D01*
D15*
X985000Y252500D03*
X1032500Y258750D03*
D14*
X967500Y239000D02*
X967500Y216250D01*
X1022500Y239000D02*
X1022500Y261250D01*
X1018750Y265000D01*
D15*
X967500Y216250D03*
X1018750Y265000D03*
D14*
X962500Y253750D02*
X953750Y262500D01*
X962500Y253750D02*
X962500Y239000D01*
X1017500Y239000D02*
X1017500Y257500D01*
X1012500Y262500D01*
X1012500Y272500D01*
D15*
X953750Y262500D03*
X1012500Y272500D03*
D14*
X952500Y252500D02*
X952500Y239000D01*
X1007500Y239000D02*
X1007500Y222500D01*
X1012500Y217500D01*
D15*
X952500Y252500D03*
X1012500Y217500D03*
D14*
X922500Y156250D02*
X920000Y153750D01*
X922500Y197500D02*
X922500Y215000D01*
X922500Y197500D02*
X922500Y156250D01*
X922500Y215000D02*
X935000Y227500D01*
X947500Y227500D01*
X947500Y239000D01*
X1002500Y239000D02*
X1002500Y197500D01*
X922500Y197500D02*
X920000Y197500D01*
D15*
X920000Y153750D03*
X1002500Y197500D03*
X920000Y197500D03*
D14*
X52500Y332500D02*
X20000Y332500D01*
X20000Y113750D01*
X33750Y126250D02*
X47500Y140000D01*
X47500Y161000D01*
D15*
X20000Y113750D03*
X33750Y126250D03*
D14*
X57500Y318750D02*
X57500Y332500D01*
X57500Y318750D02*
X48750Y310000D01*
X48750Y296250D01*
X52500Y210000D02*
X52500Y161000D01*
D15*
X48750Y296250D03*
X52500Y210000D03*
D14*
X62500Y315000D02*
X62500Y332500D01*
X62500Y315000D02*
X61250Y313750D01*
X58750Y197500D02*
X62500Y193750D01*
X62500Y161000D01*
D15*
X61250Y313750D03*
X58750Y197500D03*
D14*
X67500Y306250D02*
X67500Y332500D01*
X67500Y306250D02*
X27500Y266250D01*
X27500Y120000D01*
X46250Y101250D01*
X63750Y101250D01*
X63750Y150000D01*
X67500Y153750D01*
X67500Y161000D01*
X72500Y306250D02*
X72500Y332500D01*
X72500Y306250D02*
X62500Y296250D01*
X62500Y276250D01*
X73750Y203750D02*
X77500Y200000D01*
X77500Y161000D01*
D15*
X62500Y276250D03*
X73750Y203750D03*
D14*
X77500Y325000D02*
X77500Y332500D01*
X77500Y325000D02*
X76250Y323750D01*
X76250Y305000D01*
X68750Y297500D01*
X68750Y293750D01*
X66250Y210000D02*
X82500Y210000D01*
X82500Y161000D01*
D15*
X68750Y293750D03*
X66250Y210000D03*
D14*
X82500Y325000D02*
X82500Y332500D01*
X82500Y325000D02*
X80000Y322500D01*
X80000Y300000D01*
X93750Y197500D02*
X92500Y196250D01*
X92500Y161000D01*
D15*
X80000Y300000D03*
X93750Y197500D03*
D14*
X87500Y321250D02*
X87500Y332500D01*
X87500Y321250D02*
X86250Y320000D01*
X30000Y282500D02*
X23750Y276250D01*
X23750Y118750D01*
X45000Y97500D01*
X90000Y97500D01*
X90000Y146250D01*
X97500Y153750D01*
X97500Y161000D01*
D15*
X86250Y320000D03*
X30000Y282500D03*
D14*
X92500Y303750D02*
X92500Y332500D01*
X92500Y303750D02*
X90000Y301250D01*
X102500Y191250D02*
X102500Y161000D01*
D15*
X90000Y301250D03*
X102500Y191250D03*
D14*
X97500Y295000D02*
X97500Y332500D01*
X106250Y203750D02*
X108750Y201250D01*
X108750Y170000D01*
X107500Y168750D01*
X107500Y161000D01*
D15*
X97500Y295000D03*
X106250Y203750D03*
D14*
X102500Y325000D02*
X102500Y332500D01*
X102500Y325000D02*
X101250Y323750D01*
X101250Y300000D01*
X103750Y297500D01*
X103750Y292500D01*
X92500Y281250D01*
X75000Y281250D01*
X75000Y275000D01*
X117500Y161000D02*
X117500Y145000D01*
D15*
X75000Y275000D03*
X117500Y145000D03*
D14*
X107500Y325000D02*
X107500Y332500D01*
X107500Y325000D02*
X105000Y322500D01*
X105000Y301250D01*
X112500Y293750D01*
X112500Y272500D01*
X116250Y268750D01*
X122500Y205000D02*
X122500Y161000D01*
D15*
X116250Y268750D03*
X122500Y205000D03*
D14*
X112500Y321250D02*
X112500Y332500D01*
X112500Y321250D02*
X111250Y320000D01*
X158750Y225000D02*
X148750Y215000D01*
X148750Y213750D01*
X131250Y196250D01*
X131250Y170000D01*
X132500Y168750D01*
X132500Y161000D01*
D15*
X111250Y320000D03*
X158750Y225000D03*
D14*
X117500Y317500D02*
X117500Y332500D01*
X117500Y317500D02*
X115000Y315000D01*
X115000Y296250D01*
X118750Y292500D01*
X137500Y193750D02*
X137500Y161000D01*
D15*
X118750Y292500D03*
X137500Y193750D03*
D14*
X122500Y313750D02*
X122500Y332500D01*
X122500Y313750D02*
X121250Y312500D01*
X167500Y282500D02*
X177500Y272500D01*
X177500Y115000D01*
X170000Y107500D01*
X161250Y107500D01*
X161250Y137500D01*
X147500Y151250D01*
X147500Y161000D01*
D15*
X121250Y312500D03*
X167500Y282500D03*
D14*
X127500Y290000D02*
X127500Y332500D01*
X127500Y290000D02*
X171250Y246250D01*
X171250Y163750D01*
X162500Y155000D01*
X162500Y153750D01*
X158750Y150000D01*
X153750Y150000D01*
X153750Y152500D01*
X152500Y153750D01*
X152500Y161000D01*
X132500Y308750D02*
X132500Y332500D01*
X132500Y308750D02*
X135000Y306250D01*
X198750Y242500D02*
X272500Y168750D01*
X272500Y161000D01*
D15*
X135000Y306250D03*
X198750Y242500D03*
D14*
X137500Y321250D02*
X137500Y332500D01*
X137500Y321250D02*
X138750Y320000D01*
X221250Y228750D02*
X276250Y173750D01*
X276250Y170000D01*
X277500Y168750D01*
X277500Y161000D01*
D15*
X138750Y320000D03*
X221250Y228750D03*
D14*
X142500Y326250D02*
X142500Y332500D01*
X142500Y326250D02*
X155000Y313750D01*
X192500Y313750D01*
X192500Y180000D01*
X271250Y101250D01*
X287500Y101250D01*
X287500Y161000D01*
X198750Y332500D02*
X147500Y332500D01*
X198750Y332500D02*
X198750Y287500D01*
X286250Y203750D02*
X288750Y201250D01*
X288750Y172500D01*
X292500Y168750D01*
X292500Y161000D01*
D15*
X198750Y287500D03*
X286250Y203750D03*
D14*
X348750Y328750D02*
X352500Y332500D01*
X348750Y328750D02*
X348750Y311250D01*
X293750Y216250D02*
X292500Y215000D01*
X292500Y178750D01*
X302500Y168750D01*
X302500Y161000D01*
D15*
X348750Y311250D03*
X293750Y216250D03*
D14*
X357500Y301250D02*
X357500Y332500D01*
X357500Y301250D02*
X345000Y288750D01*
X345000Y286250D01*
X338750Y280000D01*
X298750Y203750D02*
X306250Y196250D01*
X306250Y170000D01*
X307500Y168750D01*
X307500Y161000D01*
D15*
X338750Y280000D03*
X298750Y203750D03*
D14*
X362500Y298750D02*
X362500Y332500D01*
X362500Y298750D02*
X351250Y287500D01*
X351250Y286250D01*
X317500Y150000D02*
X320000Y147500D01*
X317500Y150000D02*
X317500Y161000D01*
D15*
X351250Y286250D03*
X320000Y147500D03*
D14*
X367500Y298750D02*
X367500Y332500D01*
X367500Y298750D02*
X357500Y288750D01*
X357500Y278750D01*
X325000Y217500D02*
X325000Y171250D01*
X322500Y168750D01*
X322500Y161000D01*
D15*
X357500Y278750D03*
X325000Y217500D03*
D14*
X372500Y298750D02*
X372500Y332500D01*
X372500Y298750D02*
X367500Y293750D01*
X367500Y290000D01*
X327500Y161000D02*
X327500Y141250D01*
D15*
X367500Y290000D03*
X327500Y141250D03*
D14*
X377500Y298750D02*
X377500Y332500D01*
X377500Y298750D02*
X373750Y295000D01*
X373750Y283750D01*
X378750Y278750D01*
X373750Y147500D02*
X367500Y141250D01*
X333750Y141250D01*
X333750Y152500D01*
X332500Y153750D01*
X332500Y161000D01*
D15*
X378750Y278750D03*
X373750Y147500D03*
D14*
X382500Y295000D02*
X382500Y332500D01*
X382500Y295000D02*
X380000Y292500D01*
X345000Y216250D02*
X342500Y213750D01*
X342500Y161000D01*
D15*
X380000Y292500D03*
X345000Y216250D03*
D14*
X387500Y263750D02*
X387500Y332500D01*
X387500Y263750D02*
X386250Y262500D01*
X347500Y147500D02*
X340000Y147500D01*
X347500Y147500D02*
X347500Y161000D01*
D15*
X386250Y262500D03*
X340000Y147500D03*
D14*
X392500Y221250D02*
X392500Y332500D01*
X392500Y221250D02*
X388750Y217500D01*
X357500Y153750D02*
X363750Y147500D01*
X357500Y153750D02*
X357500Y161000D01*
D15*
X388750Y217500D03*
X363750Y147500D03*
D14*
X397500Y207500D02*
X397500Y332500D01*
X397500Y207500D02*
X386250Y196250D01*
X362500Y187500D02*
X361250Y188750D01*
X362500Y187500D02*
X362500Y161000D01*
D15*
X386250Y196250D03*
X361250Y188750D03*
D14*
X402500Y198750D02*
X402500Y332500D01*
X402500Y198750D02*
X372500Y168750D01*
X372500Y161000D01*
X407500Y198750D02*
X407500Y332500D01*
X407500Y198750D02*
X377500Y168750D01*
X377500Y161000D01*
X412500Y195000D02*
X412500Y332500D01*
X412500Y195000D02*
X458750Y148750D01*
X497500Y143750D02*
X500000Y141250D01*
X497500Y143750D02*
X497500Y161000D01*
D15*
X458750Y148750D03*
X500000Y141250D03*
D14*
X417500Y206250D02*
X417500Y332500D01*
X417500Y206250D02*
X427500Y196250D01*
X496250Y175000D02*
X502500Y168750D01*
X502500Y161000D01*
D15*
X427500Y196250D03*
X496250Y175000D03*
D14*
X422500Y221250D02*
X422500Y332500D01*
X422500Y221250D02*
X421250Y220000D01*
X421250Y212500D01*
X437500Y196250D01*
X507500Y147500D02*
X512500Y152500D01*
X512500Y161000D01*
D15*
X437500Y196250D03*
X507500Y147500D03*
D14*
X427500Y217500D02*
X427500Y332500D01*
X515000Y206250D02*
X517500Y203750D01*
X517500Y161000D01*
D15*
X427500Y217500D03*
X515000Y206250D03*
D14*
X432500Y230000D02*
X432500Y332500D01*
X432500Y230000D02*
X431250Y228750D01*
X431250Y222500D01*
X437500Y216250D01*
X527500Y152500D02*
X532500Y147500D01*
X527500Y152500D02*
X527500Y161000D01*
D15*
X437500Y216250D03*
X532500Y147500D03*
D14*
X437500Y226250D02*
X437500Y332500D01*
X531250Y200000D02*
X532500Y198750D01*
X532500Y161000D01*
D15*
X437500Y226250D03*
X531250Y200000D03*
D14*
X442500Y230000D02*
X442500Y332500D01*
X442500Y230000D02*
X443750Y228750D01*
X443750Y172500D01*
X476250Y140000D01*
X531250Y137500D02*
X542500Y148750D01*
X542500Y161000D01*
D15*
X476250Y140000D03*
X531250Y137500D03*
D14*
X447500Y177500D02*
X447500Y332500D01*
X447500Y177500D02*
X482500Y142500D01*
X482500Y112500D01*
X493750Y101250D01*
X545000Y101250D01*
X545000Y138750D01*
X547500Y141250D01*
X547500Y161000D01*
X646250Y326250D02*
X652500Y332500D01*
X646250Y326250D02*
X646250Y227500D01*
X621250Y202500D01*
X552500Y133750D02*
X551250Y132500D01*
X552500Y133750D02*
X552500Y161000D01*
D15*
X621250Y202500D03*
X551250Y132500D03*
D14*
X657500Y321250D02*
X657500Y332500D01*
X657500Y321250D02*
X656250Y320000D01*
X687500Y290000D02*
X685000Y287500D01*
X685000Y177500D01*
X621250Y113750D01*
X621250Y106250D01*
X608750Y93750D01*
X557500Y93750D01*
X557500Y161000D01*
D15*
X656250Y320000D03*
X687500Y290000D03*
D14*
X662500Y270000D02*
X662500Y332500D01*
X662500Y270000D02*
X660000Y267500D01*
X568750Y206250D02*
X567500Y205000D01*
X567500Y161000D01*
D15*
X660000Y267500D03*
X568750Y206250D03*
D14*
X667500Y307500D02*
X667500Y332500D01*
X667500Y307500D02*
X666250Y306250D01*
X666250Y265000D01*
X652500Y251250D01*
X576250Y183750D02*
X572500Y180000D01*
X572500Y161000D01*
D15*
X652500Y251250D03*
X576250Y183750D03*
D14*
X672500Y307500D02*
X672500Y332500D01*
X672500Y307500D02*
X670000Y305000D01*
X670000Y260000D01*
X662500Y252500D01*
X590000Y203750D02*
X582500Y196250D01*
X582500Y161000D01*
D15*
X662500Y252500D03*
X590000Y203750D03*
D14*
X677500Y307500D02*
X677500Y332500D01*
X677500Y307500D02*
X673750Y303750D01*
X673750Y246250D01*
X665000Y237500D01*
X588750Y193750D02*
X587500Y192500D01*
X587500Y161000D01*
D15*
X665000Y237500D03*
X588750Y193750D03*
D14*
X682500Y307500D02*
X682500Y332500D01*
X682500Y307500D02*
X677500Y302500D01*
X677500Y232500D01*
X621250Y176250D01*
X597500Y152500D02*
X592500Y147500D01*
X597500Y152500D02*
X597500Y161000D01*
D15*
X621250Y176250D03*
X592500Y147500D03*
D14*
X687500Y307500D02*
X687500Y332500D01*
X687500Y307500D02*
X681250Y301250D01*
X681250Y200000D01*
X613750Y132500D01*
X613750Y108750D01*
X606250Y101250D01*
X592500Y101250D01*
X592500Y138750D01*
X602500Y148750D01*
X602500Y161000D01*
X692500Y303750D02*
X692500Y332500D01*
X692500Y303750D02*
X691250Y302500D01*
X703750Y290000D02*
X701250Y287500D01*
X701250Y181250D01*
X711250Y171250D01*
X711250Y155000D01*
X716250Y150000D01*
X722500Y150000D01*
X722500Y161000D01*
D15*
X691250Y302500D03*
X703750Y290000D03*
D14*
X697500Y300000D02*
X697500Y332500D01*
X697500Y300000D02*
X693750Y296250D01*
X693750Y175000D01*
X721250Y175000D02*
X727500Y168750D01*
X727500Y161000D01*
D15*
X693750Y175000D03*
X721250Y175000D03*
D14*
X702500Y300000D02*
X702500Y332500D01*
X702500Y300000D02*
X697500Y295000D01*
X697500Y180000D01*
X707500Y170000D01*
X707500Y153750D01*
X720000Y141250D01*
X737500Y141250D01*
X737500Y161000D01*
X707500Y297500D02*
X707500Y332500D01*
X707500Y297500D02*
X710000Y295000D01*
X710000Y266250D01*
X707500Y263750D01*
X738750Y215000D02*
X741250Y212500D01*
X741250Y170000D01*
X742500Y168750D01*
X742500Y161000D01*
D15*
X707500Y263750D03*
X738750Y215000D03*
D14*
X712500Y297500D02*
X712500Y332500D01*
X712500Y297500D02*
X713750Y296250D01*
X713750Y256250D01*
X711250Y253750D01*
X753750Y198750D02*
X753750Y170000D01*
X752500Y168750D01*
X752500Y161000D01*
D15*
X711250Y253750D03*
X753750Y198750D03*
D14*
X717500Y251250D02*
X717500Y332500D01*
X717500Y251250D02*
X707500Y241250D01*
X707500Y208750D01*
X683750Y167500D02*
X713750Y137500D01*
X713750Y108750D01*
X721250Y101250D01*
X738750Y101250D01*
X738750Y131250D01*
X757500Y150000D01*
X757500Y161000D01*
D15*
X707500Y208750D03*
X683750Y167500D03*
D14*
X722500Y275000D02*
X722500Y332500D01*
X722500Y275000D02*
X721250Y273750D01*
X721250Y268750D01*
X726250Y263750D01*
X743750Y263750D01*
X767500Y151250D02*
X763750Y147500D01*
X767500Y151250D02*
X767500Y161000D01*
D15*
X743750Y263750D03*
X763750Y147500D03*
D14*
X727500Y271250D02*
X727500Y332500D01*
X772500Y148750D02*
X775000Y146250D01*
X772500Y148750D02*
X772500Y161000D01*
D15*
X727500Y271250D03*
X775000Y146250D03*
D14*
X732500Y311250D02*
X732500Y332500D01*
X732500Y311250D02*
X733750Y310000D01*
X775000Y182500D02*
X777500Y180000D01*
X777500Y161000D01*
D15*
X733750Y310000D03*
X775000Y182500D03*
D14*
X737500Y315000D02*
X737500Y332500D01*
X737500Y315000D02*
X751250Y301250D01*
X751250Y270000D01*
X781250Y145000D02*
X788750Y137500D01*
X781250Y145000D02*
X781250Y152500D01*
X782500Y153750D01*
X782500Y161000D01*
D15*
X751250Y270000D03*
X788750Y137500D03*
D14*
X742500Y326250D02*
X742500Y332500D01*
X742500Y326250D02*
X748750Y320000D01*
X855000Y288750D02*
X857500Y291250D01*
X855000Y288750D02*
X855000Y127500D01*
X828750Y101250D01*
X811250Y101250D01*
X811250Y131250D01*
X801250Y141250D01*
X793750Y141250D01*
X793750Y152500D01*
X792500Y153750D01*
X792500Y161000D01*
D15*
X748750Y320000D03*
X857500Y291250D03*
D14*
X778750Y332500D02*
X747500Y332500D01*
X778750Y332500D02*
X778750Y273750D01*
X777500Y272500D01*
X798750Y200000D02*
X797500Y198750D01*
X797500Y161000D01*
D15*
X777500Y272500D03*
X798750Y200000D03*
D14*
X851250Y332500D02*
X952500Y332500D01*
X851250Y332500D02*
X851250Y162500D01*
X835000Y146250D01*
X807500Y146250D01*
X807500Y161000D01*
X957500Y326250D02*
X957500Y332500D01*
X957500Y326250D02*
X945000Y313750D01*
X918750Y313750D01*
X918750Y291250D01*
X815000Y187500D02*
X812500Y185000D01*
X812500Y161000D01*
D15*
X918750Y291250D03*
X815000Y187500D03*
D14*
X962500Y322500D02*
X962500Y332500D01*
X962500Y322500D02*
X945000Y305000D01*
X945000Y287500D01*
X933750Y276250D01*
X868750Y276250D01*
X868750Y193750D01*
X843750Y168750D02*
X840000Y165000D01*
X840000Y156250D01*
X833750Y150000D01*
X822500Y150000D01*
X822500Y161000D01*
D15*
X868750Y193750D03*
X843750Y168750D03*
D14*
X967500Y320000D02*
X967500Y332500D01*
X967500Y320000D02*
X960000Y312500D01*
X960000Y311250D01*
X845000Y285000D02*
X843750Y283750D01*
X843750Y202500D01*
X827500Y186250D01*
X827500Y161000D01*
D15*
X960000Y311250D03*
X845000Y285000D03*
D14*
X972500Y320000D02*
X972500Y332500D01*
X972500Y320000D02*
X966250Y313750D01*
X966250Y308750D01*
X951250Y293750D01*
X932500Y211250D02*
X946250Y197500D01*
X946250Y170000D01*
X947500Y168750D01*
X947500Y161000D01*
D15*
X951250Y293750D03*
X932500Y211250D03*
D14*
X977500Y320000D02*
X977500Y332500D01*
X977500Y320000D02*
X970000Y312500D01*
X970000Y303750D01*
X950000Y283750D01*
X940000Y217500D02*
X950000Y207500D01*
X950000Y171250D01*
X952500Y168750D01*
X952500Y161000D01*
D15*
X950000Y283750D03*
X940000Y217500D03*
D14*
X982500Y316250D02*
X982500Y332500D01*
X982500Y316250D02*
X976250Y310000D01*
X962500Y150000D02*
X960000Y147500D01*
X962500Y150000D02*
X962500Y161000D01*
D15*
X976250Y310000D03*
X960000Y147500D03*
D14*
X987500Y312500D02*
X987500Y332500D01*
X987500Y312500D02*
X947500Y272500D01*
X907500Y272500D01*
X907500Y157500D01*
X917500Y147500D01*
X926250Y147500D01*
X926250Y213750D01*
X936250Y223750D01*
X953750Y223750D01*
X953750Y182500D01*
X967500Y168750D01*
X967500Y161000D01*
X992500Y298750D02*
X992500Y332500D01*
X992500Y298750D02*
X963750Y270000D01*
X977500Y161000D02*
X977500Y147500D01*
D15*
X963750Y270000D03*
X977500Y147500D03*
D14*
X997500Y283750D02*
X997500Y332500D01*
X982500Y153750D02*
X988750Y147500D01*
X982500Y153750D02*
X982500Y161000D01*
D15*
X997500Y283750D03*
X988750Y147500D03*
D14*
X1002500Y302500D02*
X1002500Y332500D01*
X1002500Y302500D02*
X1003750Y301250D01*
X992500Y153750D02*
X998750Y147500D01*
X992500Y153750D02*
X992500Y161000D01*
D15*
X1003750Y301250D03*
X998750Y147500D03*
D14*
X1007500Y306250D02*
X1007500Y332500D01*
X1007500Y306250D02*
X1010000Y303750D01*
X1010000Y287500D01*
X982500Y260000D01*
X973750Y260000D01*
X973750Y205000D02*
X986250Y192500D01*
X986250Y180000D01*
X997500Y168750D01*
X997500Y161000D01*
D15*
X973750Y260000D03*
X973750Y205000D03*
D14*
X1055000Y325000D02*
X1047500Y332500D01*
X1055000Y325000D02*
X1055000Y287500D01*
X1057500Y285000D01*
X1063750Y285000D01*
X1063750Y155000D01*
X1058750Y150000D01*
X1056250Y150000D01*
X1052500Y153750D01*
X1052500Y161000D01*
X1042500Y311250D02*
X1042500Y332500D01*
X1071250Y282500D02*
X1067500Y278750D01*
X1067500Y153750D01*
X1060000Y146250D01*
X1052500Y146250D01*
X1052500Y148750D01*
X1047500Y153750D01*
X1047500Y161000D01*
D15*
X1042500Y311250D03*
X1071250Y282500D03*
D14*
X1037500Y315000D02*
X1037500Y332500D01*
X1037500Y315000D02*
X1036250Y313750D01*
X1036250Y288750D01*
X1040000Y285000D01*
X1040000Y265000D01*
X1050000Y210000D02*
X1046250Y206250D01*
X1046250Y177500D01*
X1037500Y168750D01*
X1037500Y161000D01*
D15*
X1040000Y265000D03*
X1050000Y210000D03*
D14*
X1032500Y315000D02*
X1032500Y332500D01*
X1032500Y315000D02*
X1031250Y313750D01*
X1031250Y285000D01*
X1036250Y107500D02*
X1042500Y101250D01*
X1036250Y107500D02*
X1036250Y150000D01*
X1032500Y153750D01*
X1032500Y161000D01*
D15*
X1031250Y285000D03*
X1042500Y101250D03*
D14*
X1027500Y290000D02*
X1027500Y332500D01*
X1027500Y290000D02*
X1025000Y287500D01*
X1025000Y272500D01*
X1032500Y183750D02*
X1022500Y173750D01*
X1022500Y161000D01*
D15*
X1025000Y272500D03*
X1032500Y183750D03*
D14*
X1022500Y325000D02*
X1022500Y332500D01*
X1022500Y325000D02*
X1023750Y323750D01*
X1023750Y292500D01*
X1016250Y285000D01*
X1008750Y205000D02*
X1016250Y197500D01*
X1016250Y170000D01*
X1017500Y168750D01*
X1017500Y161000D01*
D15*
X1016250Y285000D03*
X1008750Y205000D03*
D14*
X1017500Y325000D02*
X1017500Y332500D01*
X1017500Y325000D02*
X1020000Y322500D01*
X1020000Y310000D01*
X1017500Y307500D01*
X1007500Y153750D02*
X1013750Y147500D01*
X1007500Y153750D02*
X1007500Y161000D01*
D15*
X1017500Y307500D03*
X1013750Y147500D03*
D14*
X1012500Y321250D02*
X1012500Y332500D01*
X1012500Y321250D02*
X1013750Y320000D01*
X986250Y205000D02*
X988750Y202500D01*
X988750Y195000D01*
X990000Y193750D01*
X990000Y181250D01*
X1002500Y168750D01*
X1002500Y161000D01*
D15*
X1013750Y320000D03*
X986250Y205000D03*
D14*
X165000Y238750D02*
X157500Y238750D01*
X376250Y196250D02*
X382500Y202500D01*
X382500Y239000D01*
X157500Y238750D02*
X157500Y239000D01*
X607500Y238750D02*
X615000Y231250D01*
X615000Y138750D01*
X603750Y127500D01*
X603750Y120000D01*
X607500Y238750D02*
X607500Y239000D01*
X603750Y120000D02*
X602700Y120000D01*
X832500Y240000D02*
X837500Y245000D01*
X837500Y278750D01*
X640000Y256250D02*
X615000Y231250D01*
X832500Y239000D02*
X832500Y240000D01*
X1057500Y239000D02*
X1057500Y278750D01*
D15*
X165000Y238750D03*
X376250Y196250D03*
X837500Y278750D03*
X640000Y256250D03*
X1057500Y278750D03*
D14*
X42500Y239000D02*
X42500Y228750D01*
X60000Y211250D01*
X60000Y205000D01*
X70000Y195000D01*
X70000Y191250D01*
X222500Y240000D02*
X267500Y240000D01*
X267500Y239000D01*
X486250Y232500D02*
X490000Y236250D01*
X492500Y238750D01*
X486250Y232500D02*
X486250Y130000D01*
X496250Y120000D01*
X492500Y238750D02*
X492500Y239000D01*
X496250Y120000D02*
X497300Y120000D01*
X715000Y236250D02*
X717500Y238750D01*
X715000Y236250D02*
X715000Y225000D01*
X676250Y186250D02*
X617500Y127500D01*
X617500Y107500D01*
X607500Y97500D01*
X577500Y97500D01*
X577500Y120000D01*
X717500Y238750D02*
X717500Y239000D01*
X577500Y120000D02*
X577300Y120000D01*
X933750Y240000D02*
X942500Y240000D01*
X942500Y239000D01*
X490000Y236250D02*
X453750Y272500D01*
D15*
X70000Y191250D03*
X222500Y240000D03*
X715000Y225000D03*
X676250Y186250D03*
X933750Y240000D03*
X453750Y272500D03*
M02*
