G04 EAGLE Gerber RS-274X export*
G75*
%MOMM*%
%FSLAX34Y34*%
%LPD*%
%INSilkscreen Bottom*%
%IPPOS*%
%AMOC8*
5,1,8,0,0,1.08239X$1,22.5*%
G01*
%ADD10C,0.152400*%
%ADD11C,0.076200*%
%ADD12R,0.060000X0.020000*%
%ADD13R,1.180000X0.020000*%
%ADD14R,0.320000X0.020000*%
%ADD15R,0.020000X0.020000*%
%ADD16R,0.100000X0.020000*%
%ADD17R,0.140000X0.020000*%
%ADD18R,0.120000X0.020000*%
%ADD19R,0.040000X0.020000*%
%ADD20R,1.540000X0.020000*%
%ADD21R,0.080000X0.020000*%
%ADD22R,1.200000X0.020000*%
%ADD23R,0.200000X0.020000*%
%ADD24R,0.160000X0.020000*%
%ADD25R,1.520000X0.020000*%
%ADD26R,1.220000X0.020000*%
%ADD27R,0.300000X0.020000*%
%ADD28R,1.500000X0.020000*%
%ADD29R,1.260000X0.020000*%
%ADD30R,0.220000X0.020000*%
%ADD31R,1.480000X0.020000*%
%ADD32R,1.280000X0.020000*%
%ADD33R,0.920000X0.020000*%
%ADD34R,1.300000X0.020000*%
%ADD35R,0.180000X0.020000*%
%ADD36R,0.820000X0.020000*%
%ADD37R,1.320000X0.020000*%
%ADD38R,0.800000X0.020000*%
%ADD39R,1.360000X0.020000*%
%ADD40R,0.760000X0.020000*%
%ADD41R,1.380000X0.020000*%
%ADD42R,0.240000X0.020000*%
%ADD43R,0.340000X0.020000*%
%ADD44R,0.720000X0.020000*%
%ADD45R,1.400000X0.020000*%
%ADD46R,0.440000X0.020000*%
%ADD47R,0.660000X0.020000*%
%ADD48R,1.420000X0.020000*%
%ADD49R,0.500000X0.020000*%
%ADD50R,0.620000X0.020000*%
%ADD51R,1.440000X0.020000*%
%ADD52R,0.560000X0.020000*%
%ADD53R,0.600000X0.020000*%
%ADD54R,1.460000X0.020000*%
%ADD55R,0.580000X0.020000*%
%ADD56R,0.540000X0.020000*%
%ADD57R,0.260000X0.020000*%
%ADD58R,0.520000X0.020000*%
%ADD59R,1.120000X0.020000*%
%ADD60R,0.640000X0.020000*%
%ADD61R,1.080000X0.020000*%
%ADD62R,0.480000X0.020000*%
%ADD63R,1.060000X0.020000*%
%ADD64R,1.040000X0.020000*%
%ADD65R,0.680000X0.020000*%
%ADD66R,0.400000X0.020000*%
%ADD67R,0.980000X0.020000*%
%ADD68R,0.460000X0.020000*%
%ADD69R,0.360000X0.020000*%
%ADD70R,0.960000X0.020000*%
%ADD71R,0.940000X0.020000*%
%ADD72R,0.880000X0.020000*%
%ADD73R,0.900000X0.020000*%
%ADD74R,1.020000X0.020000*%
%ADD75R,0.840000X0.020000*%
%ADD76R,1.000000X0.020000*%
%ADD77R,0.380000X0.020000*%
%ADD78R,0.280000X0.020000*%
%ADD79R,0.740000X0.020000*%
%ADD80R,0.860000X0.020000*%
%ADD81R,0.780000X0.020000*%
%ADD82R,1.800000X0.020000*%
%ADD83R,1.780000X0.020000*%
%ADD84R,2.580000X0.020000*%
%ADD85R,1.720000X0.020000*%
%ADD86R,2.040000X0.020000*%
%ADD87R,0.420000X0.020000*%
%ADD88R,1.740000X0.020000*%
%ADD89R,1.940000X0.020000*%
%ADD90R,1.840000X0.020000*%
%ADD91R,1.660000X0.020000*%
%ADD92R,1.620000X0.020000*%
%ADD93R,1.560000X0.020000*%
%ADD94R,1.760000X0.020000*%
%ADD95R,1.820000X0.020000*%
%ADD96R,1.860000X0.020000*%
%ADD97R,2.860000X0.020000*%
%ADD98R,1.340000X0.020000*%
%ADD99R,2.900000X0.020000*%
%ADD100R,2.920000X0.020000*%
%ADD101R,2.940000X0.020000*%
%ADD102R,1.240000X0.020000*%
%ADD103R,2.960000X0.020000*%
%ADD104R,2.980000X0.020000*%
%ADD105R,3.000000X0.020000*%
%ADD106R,1.140000X0.020000*%
%ADD107R,3.020000X0.020000*%
%ADD108R,3.040000X0.020000*%
%ADD109R,2.180000X0.020000*%
%ADD110R,2.140000X0.020000*%
%ADD111R,2.120000X0.020000*%
%ADD112R,2.100000X0.020000*%
%ADD113R,2.080000X0.020000*%
%ADD114R,2.060000X0.020000*%
%ADD115R,2.020000X0.020000*%
%ADD116R,0.700000X0.020000*%
%ADD117R,2.000000X0.020000*%
%ADD118R,1.980000X0.020000*%
%ADD119R,1.960000X0.020000*%
%ADD120R,1.920000X0.020000*%
%ADD121R,1.900000X0.020000*%
%ADD122R,1.880000X0.020000*%
%ADD123R,2.420000X0.020000*%
%ADD124R,2.440000X0.020000*%
%ADD125R,2.360000X0.020000*%
%ADD126R,2.320000X0.020000*%
%ADD127R,2.300000X0.020000*%
%ADD128R,2.280000X0.020000*%
%ADD129R,2.240000X0.020000*%
%ADD130R,2.220000X0.020000*%
%ADD131R,2.200000X0.020000*%
%ADD132R,1.700000X0.020000*%
%ADD133R,1.100000X0.020000*%
%ADD134R,1.160000X0.020000*%
%ADD135R,2.160000X0.020000*%
%ADD136R,2.340000X0.020000*%
%ADD137R,2.540000X0.020000*%
%ADD138R,2.620000X0.020000*%
%ADD139R,2.760000X0.020000*%
%ADD140R,4.800000X0.020000*%
%ADD141C,0.000000*%
%ADD142C,0.050800*%
%ADD143R,20.320000X0.050800*%
%ADD144R,0.762000X0.050800*%
%ADD145R,1.727200X0.050800*%
%ADD146R,0.660400X0.050800*%
%ADD147R,1.574800X0.050800*%
%ADD148R,0.609600X0.050800*%
%ADD149R,1.524000X0.050800*%
%ADD150R,0.558800X0.050800*%
%ADD151R,1.473200X0.050800*%
%ADD152R,0.508000X0.050800*%
%ADD153R,0.101600X0.050800*%
%ADD154R,0.050800X0.050800*%
%ADD155R,0.304800X0.050800*%
%ADD156R,1.422400X0.050800*%
%ADD157R,0.203200X0.050800*%
%ADD158R,0.152400X0.050800*%
%ADD159R,1.219200X0.050800*%
%ADD160R,0.254000X0.050800*%
%ADD161R,0.355600X0.050800*%
%ADD162R,0.711200X0.050800*%
%ADD163R,1.066800X0.050800*%
%ADD164R,0.406400X0.050800*%
%ADD165R,1.117600X0.050800*%
%ADD166R,0.457200X0.050800*%
%ADD167R,1.168400X0.050800*%
%ADD168R,0.812800X0.050800*%
%ADD169R,1.625600X0.050800*%
%ADD170R,1.930400X0.050800*%
%ADD171R,17.627600X0.050800*%
%ADD172R,17.424400X0.050800*%
%ADD173R,17.272000X0.050800*%
%ADD174R,17.170400X0.050800*%
%ADD175R,1.371600X0.050800*%
%ADD176R,17.068800X0.050800*%
%ADD177R,1.270000X0.050800*%
%ADD178R,16.967200X0.050800*%
%ADD179R,13.665200X0.050800*%
%ADD180R,2.946400X0.050800*%
%ADD181R,13.462000X0.050800*%
%ADD182R,2.844800X0.050800*%
%ADD183R,13.411200X0.050800*%
%ADD184R,2.794000X0.050800*%
%ADD185R,1.016000X0.050800*%
%ADD186R,13.360400X0.050800*%
%ADD187R,2.743200X0.050800*%
%ADD188R,0.965200X0.050800*%
%ADD189R,13.258800X0.050800*%
%ADD190R,2.692400X0.050800*%
%ADD191R,0.914400X0.050800*%
%ADD192R,13.157200X0.050800*%
%ADD193R,0.863600X0.050800*%
%ADD194R,2.641600X0.050800*%
%ADD195R,4.165600X0.050800*%
%ADD196R,1.676400X0.050800*%
%ADD197R,1.778000X0.050800*%
%ADD198R,2.590800X0.050800*%
%ADD199R,1.879600X0.050800*%
%ADD200R,1.981200X0.050800*%
%ADD201R,2.540000X0.050800*%
%ADD202R,2.082800X0.050800*%
%ADD203R,2.184400X0.050800*%
%ADD204R,2.489200X0.050800*%
%ADD205R,2.336800X0.050800*%
%ADD206R,2.438400X0.050800*%
%ADD207R,2.387600X0.050800*%
%ADD208R,2.286000X0.050800*%
%ADD209R,2.235200X0.050800*%
%ADD210R,4.521200X0.050800*%
%ADD211R,5.892800X0.050800*%
%ADD212R,2.032000X0.050800*%
%ADD213R,4.622800X0.050800*%
%ADD214R,10.668000X0.050800*%
%ADD215R,2.133600X0.050800*%
%ADD216R,15.595600X0.050800*%
%ADD217R,15.544800X0.050800*%
%ADD218R,15.494000X0.050800*%
%ADD219R,1.320800X0.050800*%
%ADD220R,1.828800X0.050800*%
%ADD221R,12.395200X0.050800*%
%ADD222R,12.446000X0.050800*%
%ADD223R,12.344400X0.050800*%
%ADD224R,12.293600X0.050800*%
%ADD225R,12.242800X0.050800*%
%ADD226R,14.630400X0.050800*%
%ADD227R,16.103600X0.050800*%
%ADD228R,15.443200X0.050800*%
%ADD229R,15.392400X0.050800*%
%ADD230R,15.341600X0.050800*%
%ADD231R,15.240000X0.050800*%
%ADD232R,5.080000X0.050800*%
%ADD233R,8.280400X0.050800*%
%ADD234R,8.991600X0.050800*%
%ADD235R,4.318000X0.050800*%
%ADD236R,9.042400X0.050800*%
%ADD237R,9.144000X0.050800*%
%ADD238R,16.662400X0.050800*%
%ADD239R,16.713200X0.050800*%
%ADD240R,16.764000X0.050800*%
%ADD241R,17.221200X0.050800*%
%ADD242R,16.916400X0.050800*%
%ADD243R,2.895600X0.050800*%
%ADD244R,16.865600X0.050800*%
%ADD245R,2.997200X0.050800*%
%ADD246R,3.048000X0.050800*%
%ADD247R,3.149600X0.050800*%


D10*
X7762Y255132D02*
X12894Y259238D01*
X12894Y240762D01*
X7762Y240762D02*
X18026Y240762D01*
X247407Y265238D02*
X247541Y265236D01*
X247676Y265230D01*
X247810Y265220D01*
X247943Y265207D01*
X248076Y265189D01*
X248209Y265168D01*
X248341Y265143D01*
X248472Y265113D01*
X248602Y265081D01*
X248732Y265044D01*
X248860Y265004D01*
X248987Y264959D01*
X249112Y264912D01*
X249236Y264860D01*
X249359Y264805D01*
X249480Y264747D01*
X249599Y264685D01*
X249717Y264619D01*
X249832Y264550D01*
X249945Y264478D01*
X250056Y264403D01*
X250165Y264324D01*
X250272Y264242D01*
X250376Y264157D01*
X250478Y264070D01*
X250577Y263979D01*
X250673Y263885D01*
X250767Y263789D01*
X250858Y263690D01*
X250945Y263588D01*
X251030Y263484D01*
X251112Y263377D01*
X251191Y263268D01*
X251266Y263157D01*
X251338Y263044D01*
X251407Y262929D01*
X251473Y262811D01*
X251535Y262692D01*
X251593Y262571D01*
X251648Y262448D01*
X251700Y262324D01*
X251747Y262199D01*
X251792Y262072D01*
X251832Y261944D01*
X251869Y261814D01*
X251901Y261684D01*
X251931Y261553D01*
X251956Y261421D01*
X251977Y261288D01*
X251995Y261155D01*
X252008Y261022D01*
X252018Y260888D01*
X252024Y260753D01*
X252026Y260619D01*
X247407Y265238D02*
X247255Y265236D01*
X247103Y265230D01*
X246951Y265220D01*
X246799Y265207D01*
X246648Y265189D01*
X246497Y265168D01*
X246347Y265142D01*
X246197Y265113D01*
X246048Y265080D01*
X245901Y265044D01*
X245754Y265003D01*
X245608Y264959D01*
X245464Y264911D01*
X245320Y264859D01*
X245179Y264804D01*
X245038Y264745D01*
X244899Y264682D01*
X244762Y264616D01*
X244627Y264546D01*
X244493Y264473D01*
X244361Y264397D01*
X244232Y264317D01*
X244104Y264234D01*
X243979Y264147D01*
X243855Y264058D01*
X243735Y263965D01*
X243616Y263869D01*
X243500Y263771D01*
X243387Y263669D01*
X243276Y263564D01*
X243168Y263457D01*
X243063Y263347D01*
X242961Y263234D01*
X242861Y263119D01*
X242765Y263001D01*
X242672Y262880D01*
X242582Y262758D01*
X242494Y262633D01*
X242411Y262505D01*
X242330Y262376D01*
X242253Y262245D01*
X242179Y262112D01*
X242109Y261977D01*
X242042Y261840D01*
X241979Y261701D01*
X241919Y261561D01*
X241863Y261420D01*
X241810Y261277D01*
X241762Y261132D01*
X250486Y257027D02*
X250585Y257123D01*
X250682Y257223D01*
X250775Y257325D01*
X250865Y257430D01*
X250953Y257538D01*
X251038Y257647D01*
X251119Y257759D01*
X251197Y257874D01*
X251272Y257990D01*
X251344Y258109D01*
X251412Y258229D01*
X251477Y258351D01*
X251539Y258476D01*
X251597Y258601D01*
X251652Y258729D01*
X251703Y258857D01*
X251750Y258988D01*
X251794Y259119D01*
X251834Y259252D01*
X251870Y259385D01*
X251903Y259520D01*
X251932Y259655D01*
X251957Y259792D01*
X251978Y259929D01*
X251995Y260066D01*
X252009Y260204D01*
X252018Y260342D01*
X252024Y260480D01*
X252026Y260619D01*
X250487Y257026D02*
X241762Y246762D01*
X252026Y246762D01*
X466762Y236762D02*
X471894Y236762D01*
X472035Y236764D01*
X472177Y236770D01*
X472318Y236780D01*
X472459Y236793D01*
X472599Y236811D01*
X472739Y236832D01*
X472878Y236857D01*
X473016Y236886D01*
X473154Y236919D01*
X473290Y236956D01*
X473426Y236996D01*
X473560Y237040D01*
X473693Y237088D01*
X473825Y237139D01*
X473956Y237194D01*
X474084Y237253D01*
X474211Y237315D01*
X474337Y237381D01*
X474460Y237450D01*
X474581Y237522D01*
X474701Y237598D01*
X474818Y237677D01*
X474933Y237759D01*
X475046Y237844D01*
X475157Y237933D01*
X475264Y238024D01*
X475370Y238118D01*
X475473Y238215D01*
X475573Y238315D01*
X475670Y238418D01*
X475764Y238524D01*
X475855Y238631D01*
X475944Y238742D01*
X476029Y238855D01*
X476111Y238970D01*
X476190Y239087D01*
X476266Y239207D01*
X476338Y239328D01*
X476407Y239451D01*
X476473Y239577D01*
X476535Y239704D01*
X476594Y239832D01*
X476649Y239963D01*
X476700Y240095D01*
X476748Y240228D01*
X476792Y240362D01*
X476832Y240498D01*
X476869Y240634D01*
X476902Y240772D01*
X476931Y240910D01*
X476956Y241049D01*
X476977Y241189D01*
X476995Y241329D01*
X477008Y241470D01*
X477018Y241611D01*
X477024Y241753D01*
X477026Y241894D01*
X477024Y242035D01*
X477018Y242177D01*
X477008Y242318D01*
X476995Y242459D01*
X476977Y242599D01*
X476956Y242739D01*
X476931Y242878D01*
X476902Y243016D01*
X476869Y243154D01*
X476832Y243290D01*
X476792Y243426D01*
X476748Y243560D01*
X476700Y243693D01*
X476649Y243825D01*
X476594Y243956D01*
X476535Y244084D01*
X476473Y244211D01*
X476407Y244337D01*
X476338Y244460D01*
X476266Y244581D01*
X476190Y244701D01*
X476111Y244818D01*
X476029Y244933D01*
X475944Y245046D01*
X475855Y245157D01*
X475764Y245264D01*
X475670Y245370D01*
X475573Y245473D01*
X475473Y245573D01*
X475370Y245670D01*
X475264Y245764D01*
X475157Y245855D01*
X475046Y245944D01*
X474933Y246029D01*
X474818Y246111D01*
X474701Y246190D01*
X474581Y246266D01*
X474460Y246338D01*
X474337Y246407D01*
X474211Y246473D01*
X474084Y246535D01*
X473956Y246594D01*
X473825Y246649D01*
X473693Y246700D01*
X473560Y246748D01*
X473426Y246792D01*
X473290Y246832D01*
X473154Y246869D01*
X473016Y246902D01*
X472878Y246931D01*
X472739Y246956D01*
X472599Y246977D01*
X472459Y246995D01*
X472318Y247008D01*
X472177Y247018D01*
X472035Y247024D01*
X471894Y247026D01*
X472921Y255238D02*
X466762Y255238D01*
X472921Y255238D02*
X473047Y255236D01*
X473174Y255230D01*
X473300Y255220D01*
X473426Y255207D01*
X473551Y255189D01*
X473675Y255168D01*
X473799Y255143D01*
X473923Y255114D01*
X474045Y255081D01*
X474166Y255045D01*
X474286Y255005D01*
X474404Y254961D01*
X474521Y254913D01*
X474637Y254862D01*
X474751Y254808D01*
X474864Y254749D01*
X474974Y254688D01*
X475083Y254623D01*
X475189Y254555D01*
X475293Y254483D01*
X475395Y254409D01*
X475495Y254331D01*
X475592Y254250D01*
X475687Y254166D01*
X475779Y254080D01*
X475869Y253990D01*
X475955Y253898D01*
X476039Y253803D01*
X476120Y253706D01*
X476198Y253606D01*
X476272Y253504D01*
X476344Y253400D01*
X476412Y253294D01*
X476477Y253185D01*
X476538Y253075D01*
X476597Y252962D01*
X476651Y252848D01*
X476702Y252732D01*
X476750Y252615D01*
X476794Y252497D01*
X476834Y252377D01*
X476870Y252256D01*
X476903Y252134D01*
X476932Y252010D01*
X476957Y251886D01*
X476978Y251762D01*
X476996Y251637D01*
X477009Y251511D01*
X477019Y251385D01*
X477025Y251258D01*
X477027Y251132D01*
X477025Y251006D01*
X477019Y250879D01*
X477009Y250753D01*
X476996Y250627D01*
X476978Y250502D01*
X476957Y250378D01*
X476932Y250254D01*
X476903Y250130D01*
X476870Y250008D01*
X476834Y249887D01*
X476794Y249767D01*
X476750Y249649D01*
X476702Y249532D01*
X476651Y249416D01*
X476597Y249302D01*
X476538Y249189D01*
X476477Y249079D01*
X476412Y248970D01*
X476344Y248864D01*
X476272Y248760D01*
X476198Y248658D01*
X476120Y248558D01*
X476039Y248461D01*
X475955Y248366D01*
X475869Y248274D01*
X475779Y248184D01*
X475687Y248098D01*
X475592Y248014D01*
X475495Y247933D01*
X475395Y247855D01*
X475293Y247781D01*
X475189Y247709D01*
X475083Y247641D01*
X474974Y247576D01*
X474864Y247515D01*
X474751Y247456D01*
X474637Y247402D01*
X474521Y247351D01*
X474404Y247303D01*
X474286Y247259D01*
X474166Y247219D01*
X474045Y247183D01*
X473923Y247150D01*
X473799Y247121D01*
X473675Y247096D01*
X473551Y247075D01*
X473426Y247057D01*
X473300Y247044D01*
X473174Y247034D01*
X473047Y247028D01*
X472921Y247026D01*
X468815Y247026D01*
X686762Y235868D02*
X690868Y250238D01*
X686762Y235868D02*
X697026Y235868D01*
X693947Y239974D02*
X693947Y231762D01*
X892762Y207762D02*
X898921Y207762D01*
X899047Y207764D01*
X899174Y207770D01*
X899300Y207780D01*
X899426Y207793D01*
X899551Y207811D01*
X899675Y207832D01*
X899799Y207857D01*
X899923Y207886D01*
X900045Y207919D01*
X900166Y207955D01*
X900286Y207995D01*
X900404Y208039D01*
X900521Y208087D01*
X900637Y208138D01*
X900751Y208192D01*
X900864Y208251D01*
X900974Y208312D01*
X901083Y208377D01*
X901189Y208445D01*
X901293Y208517D01*
X901395Y208591D01*
X901495Y208669D01*
X901592Y208750D01*
X901687Y208834D01*
X901779Y208920D01*
X901869Y209010D01*
X901955Y209102D01*
X902039Y209197D01*
X902120Y209294D01*
X902198Y209394D01*
X902272Y209496D01*
X902344Y209600D01*
X902412Y209706D01*
X902477Y209815D01*
X902538Y209925D01*
X902597Y210038D01*
X902651Y210152D01*
X902702Y210268D01*
X902750Y210385D01*
X902794Y210503D01*
X902834Y210623D01*
X902870Y210744D01*
X902903Y210866D01*
X902932Y210990D01*
X902957Y211113D01*
X902978Y211238D01*
X902996Y211363D01*
X903009Y211489D01*
X903019Y211615D01*
X903025Y211742D01*
X903027Y211868D01*
X903026Y211868D02*
X903026Y213921D01*
X903027Y213921D02*
X903025Y214047D01*
X903019Y214174D01*
X903009Y214300D01*
X902996Y214426D01*
X902978Y214551D01*
X902957Y214675D01*
X902932Y214799D01*
X902903Y214923D01*
X902870Y215045D01*
X902834Y215166D01*
X902794Y215286D01*
X902750Y215404D01*
X902702Y215521D01*
X902651Y215637D01*
X902597Y215751D01*
X902538Y215864D01*
X902477Y215974D01*
X902412Y216083D01*
X902344Y216189D01*
X902272Y216293D01*
X902198Y216395D01*
X902120Y216495D01*
X902039Y216592D01*
X901955Y216687D01*
X901869Y216779D01*
X901779Y216869D01*
X901687Y216955D01*
X901592Y217039D01*
X901495Y217120D01*
X901395Y217198D01*
X901293Y217272D01*
X901189Y217344D01*
X901083Y217412D01*
X900974Y217477D01*
X900864Y217538D01*
X900751Y217597D01*
X900637Y217651D01*
X900521Y217702D01*
X900404Y217750D01*
X900286Y217794D01*
X900166Y217834D01*
X900045Y217870D01*
X899923Y217903D01*
X899799Y217932D01*
X899675Y217957D01*
X899551Y217978D01*
X899426Y217996D01*
X899300Y218009D01*
X899174Y218019D01*
X899047Y218025D01*
X898921Y218027D01*
X898921Y218026D02*
X892762Y218026D01*
X892762Y226238D01*
X903026Y226238D01*
D11*
X773381Y306381D02*
X773381Y315619D01*
X773381Y310487D02*
X778513Y310487D01*
X778513Y306381D02*
X778513Y315619D01*
X783364Y312026D02*
X785930Y313053D01*
X783364Y312027D02*
X783297Y311998D01*
X783232Y311966D01*
X783169Y311930D01*
X783108Y311891D01*
X783050Y311848D01*
X782993Y311803D01*
X782940Y311754D01*
X782889Y311703D01*
X782840Y311649D01*
X782795Y311592D01*
X782753Y311533D01*
X782715Y311472D01*
X782679Y311409D01*
X782647Y311344D01*
X782619Y311277D01*
X782594Y311209D01*
X782574Y311140D01*
X782556Y311069D01*
X782543Y310998D01*
X782534Y310926D01*
X782529Y310854D01*
X782527Y310782D01*
X782530Y310709D01*
X782536Y310637D01*
X782546Y310566D01*
X782560Y310495D01*
X782578Y310424D01*
X782600Y310355D01*
X782626Y310288D01*
X782655Y310221D01*
X782688Y310157D01*
X782724Y310094D01*
X782764Y310033D01*
X782806Y309975D01*
X782852Y309919D01*
X782901Y309866D01*
X782953Y309815D01*
X783008Y309767D01*
X783064Y309722D01*
X783124Y309681D01*
X783185Y309643D01*
X783249Y309608D01*
X783314Y309576D01*
X783381Y309548D01*
X783449Y309524D01*
X783519Y309504D01*
X783589Y309487D01*
X783660Y309475D01*
X783732Y309466D01*
X783805Y309461D01*
X783877Y309460D01*
X783877Y309461D02*
X784026Y309465D01*
X784175Y309472D01*
X784323Y309484D01*
X784471Y309499D01*
X784619Y309519D01*
X784766Y309542D01*
X784913Y309568D01*
X785058Y309599D01*
X785203Y309633D01*
X785347Y309671D01*
X785490Y309712D01*
X785632Y309757D01*
X785773Y309806D01*
X785912Y309859D01*
X786050Y309914D01*
X786187Y309974D01*
X785930Y313052D02*
X785997Y313081D01*
X786062Y313113D01*
X786125Y313149D01*
X786186Y313188D01*
X786244Y313231D01*
X786301Y313276D01*
X786354Y313325D01*
X786405Y313376D01*
X786454Y313430D01*
X786499Y313487D01*
X786541Y313546D01*
X786579Y313607D01*
X786615Y313670D01*
X786647Y313735D01*
X786675Y313802D01*
X786700Y313870D01*
X786720Y313939D01*
X786738Y314010D01*
X786751Y314081D01*
X786760Y314153D01*
X786765Y314225D01*
X786767Y314297D01*
X786764Y314370D01*
X786758Y314442D01*
X786748Y314513D01*
X786734Y314584D01*
X786716Y314655D01*
X786694Y314724D01*
X786668Y314791D01*
X786639Y314858D01*
X786606Y314922D01*
X786570Y314985D01*
X786530Y315046D01*
X786488Y315104D01*
X786442Y315160D01*
X786393Y315213D01*
X786341Y315264D01*
X786286Y315312D01*
X786230Y315357D01*
X786170Y315398D01*
X786109Y315436D01*
X786045Y315471D01*
X785980Y315503D01*
X785913Y315531D01*
X785845Y315555D01*
X785775Y315575D01*
X785705Y315592D01*
X785634Y315604D01*
X785562Y315613D01*
X785489Y315618D01*
X785417Y315619D01*
X785211Y315614D01*
X785005Y315603D01*
X784800Y315588D01*
X784595Y315568D01*
X784391Y315544D01*
X784187Y315514D01*
X783984Y315480D01*
X783782Y315440D01*
X783581Y315396D01*
X783381Y315348D01*
X783182Y315294D01*
X782984Y315236D01*
X782788Y315173D01*
X782594Y315106D01*
X790347Y315619D02*
X790347Y309460D01*
X790090Y306894D02*
X790090Y306381D01*
X790604Y306381D01*
X790604Y306894D01*
X790090Y306894D01*
X795745Y312026D02*
X798055Y312026D01*
X795745Y312027D02*
X795662Y312029D01*
X795579Y312035D01*
X795497Y312044D01*
X795415Y312058D01*
X795334Y312075D01*
X795254Y312096D01*
X795174Y312120D01*
X795096Y312148D01*
X795020Y312180D01*
X794944Y312215D01*
X794871Y312254D01*
X794800Y312296D01*
X794730Y312341D01*
X794663Y312390D01*
X794598Y312441D01*
X794535Y312496D01*
X794475Y312553D01*
X794418Y312613D01*
X794363Y312676D01*
X794312Y312741D01*
X794263Y312808D01*
X794218Y312878D01*
X794176Y312949D01*
X794137Y313022D01*
X794102Y313098D01*
X794070Y313174D01*
X794042Y313252D01*
X794018Y313332D01*
X793997Y313412D01*
X793980Y313493D01*
X793966Y313575D01*
X793957Y313657D01*
X793951Y313740D01*
X793949Y313823D01*
X793951Y313906D01*
X793957Y313989D01*
X793966Y314071D01*
X793980Y314153D01*
X793997Y314234D01*
X794018Y314314D01*
X794042Y314394D01*
X794070Y314472D01*
X794102Y314548D01*
X794137Y314624D01*
X794176Y314697D01*
X794218Y314768D01*
X794263Y314838D01*
X794312Y314905D01*
X794363Y314970D01*
X794418Y315033D01*
X794475Y315093D01*
X794535Y315150D01*
X794598Y315205D01*
X794663Y315256D01*
X794730Y315305D01*
X794800Y315350D01*
X794871Y315392D01*
X794944Y315431D01*
X795020Y315466D01*
X795096Y315498D01*
X795174Y315526D01*
X795254Y315550D01*
X795334Y315571D01*
X795415Y315588D01*
X795497Y315602D01*
X795579Y315611D01*
X795662Y315617D01*
X795745Y315619D01*
X798055Y315619D01*
X798055Y311000D01*
X798053Y310922D01*
X798047Y310844D01*
X798037Y310767D01*
X798023Y310690D01*
X798006Y310614D01*
X797984Y310539D01*
X797959Y310465D01*
X797930Y310393D01*
X797898Y310322D01*
X797861Y310253D01*
X797822Y310185D01*
X797779Y310120D01*
X797733Y310057D01*
X797683Y309997D01*
X797631Y309939D01*
X797576Y309884D01*
X797518Y309832D01*
X797458Y309782D01*
X797395Y309736D01*
X797330Y309693D01*
X797262Y309654D01*
X797193Y309617D01*
X797122Y309585D01*
X797050Y309556D01*
X796976Y309531D01*
X796901Y309509D01*
X796825Y309492D01*
X796748Y309478D01*
X796671Y309468D01*
X796593Y309462D01*
X796515Y309460D01*
X794462Y309460D01*
X807928Y308690D02*
X807889Y308624D01*
X807854Y308556D01*
X807822Y308487D01*
X807794Y308416D01*
X807769Y308343D01*
X807748Y308270D01*
X807731Y308195D01*
X807717Y308120D01*
X807708Y308044D01*
X807702Y307968D01*
X807700Y307891D01*
X807702Y307815D01*
X807708Y307738D01*
X807718Y307662D01*
X807731Y307587D01*
X807748Y307513D01*
X807770Y307439D01*
X807794Y307367D01*
X807823Y307296D01*
X807855Y307226D01*
X807890Y307158D01*
X807929Y307092D01*
X807971Y307028D01*
X808016Y306967D01*
X808065Y306907D01*
X808116Y306851D01*
X808170Y306797D01*
X808227Y306745D01*
X808286Y306697D01*
X808348Y306652D01*
X808412Y306610D01*
X808478Y306571D01*
X808546Y306535D01*
X808615Y306503D01*
X808686Y306475D01*
X808759Y306450D01*
X808832Y306429D01*
X808907Y306412D01*
X808982Y306398D01*
X809058Y306389D01*
X809134Y306383D01*
X809211Y306381D01*
X807928Y308691D02*
X812290Y315619D01*
X810494Y308690D02*
X810533Y308624D01*
X810568Y308556D01*
X810600Y308487D01*
X810628Y308416D01*
X810653Y308343D01*
X810674Y308270D01*
X810691Y308195D01*
X810705Y308120D01*
X810714Y308044D01*
X810720Y307968D01*
X810722Y307891D01*
X810720Y307815D01*
X810714Y307738D01*
X810704Y307662D01*
X810691Y307587D01*
X810674Y307513D01*
X810652Y307439D01*
X810628Y307367D01*
X810599Y307296D01*
X810567Y307226D01*
X810532Y307158D01*
X810493Y307092D01*
X810451Y307028D01*
X810406Y306967D01*
X810357Y306907D01*
X810306Y306851D01*
X810252Y306797D01*
X810195Y306745D01*
X810136Y306697D01*
X810074Y306652D01*
X810010Y306610D01*
X809944Y306571D01*
X809876Y306535D01*
X809807Y306503D01*
X809736Y306475D01*
X809663Y306450D01*
X809590Y306429D01*
X809515Y306412D01*
X809440Y306398D01*
X809364Y306389D01*
X809288Y306383D01*
X809211Y306381D01*
X807158Y314079D02*
X807160Y314157D01*
X807166Y314235D01*
X807176Y314312D01*
X807190Y314389D01*
X807207Y314465D01*
X807229Y314540D01*
X807254Y314614D01*
X807283Y314686D01*
X807315Y314757D01*
X807352Y314826D01*
X807391Y314894D01*
X807434Y314959D01*
X807480Y315022D01*
X807530Y315082D01*
X807582Y315140D01*
X807637Y315195D01*
X807695Y315247D01*
X807755Y315297D01*
X807818Y315343D01*
X807883Y315386D01*
X807951Y315425D01*
X808020Y315462D01*
X808091Y315494D01*
X808163Y315523D01*
X808237Y315548D01*
X808312Y315570D01*
X808388Y315587D01*
X808465Y315601D01*
X808542Y315611D01*
X808620Y315617D01*
X808698Y315619D01*
X807158Y314079D02*
X807160Y314010D01*
X807165Y313942D01*
X807175Y313874D01*
X807187Y313806D01*
X807204Y313739D01*
X807224Y313673D01*
X807247Y313609D01*
X807274Y313545D01*
X807305Y313484D01*
X807338Y313424D01*
X807375Y313365D01*
X807415Y313309D01*
X807415Y313310D02*
X810494Y308691D01*
X809468Y315362D02*
X809412Y315402D01*
X809353Y315439D01*
X809293Y315472D01*
X809232Y315503D01*
X809168Y315530D01*
X809104Y315553D01*
X809038Y315573D01*
X808971Y315590D01*
X808904Y315602D01*
X808835Y315612D01*
X808767Y315617D01*
X808698Y315619D01*
X809468Y315362D02*
X813317Y312540D01*
X820441Y306381D02*
X822494Y315619D01*
X824547Y309460D01*
X826600Y315619D01*
X828653Y306381D01*
X833845Y312026D02*
X836155Y312026D01*
X833845Y312027D02*
X833762Y312029D01*
X833679Y312035D01*
X833597Y312044D01*
X833515Y312058D01*
X833434Y312075D01*
X833354Y312096D01*
X833274Y312120D01*
X833196Y312148D01*
X833120Y312180D01*
X833044Y312215D01*
X832971Y312254D01*
X832900Y312296D01*
X832830Y312341D01*
X832763Y312390D01*
X832698Y312441D01*
X832635Y312496D01*
X832575Y312553D01*
X832518Y312613D01*
X832463Y312676D01*
X832412Y312741D01*
X832363Y312808D01*
X832318Y312878D01*
X832276Y312949D01*
X832237Y313022D01*
X832202Y313098D01*
X832170Y313174D01*
X832142Y313252D01*
X832118Y313332D01*
X832097Y313412D01*
X832080Y313493D01*
X832066Y313575D01*
X832057Y313657D01*
X832051Y313740D01*
X832049Y313823D01*
X832051Y313906D01*
X832057Y313989D01*
X832066Y314071D01*
X832080Y314153D01*
X832097Y314234D01*
X832118Y314314D01*
X832142Y314394D01*
X832170Y314472D01*
X832202Y314548D01*
X832237Y314624D01*
X832276Y314697D01*
X832318Y314768D01*
X832363Y314838D01*
X832412Y314905D01*
X832463Y314970D01*
X832518Y315033D01*
X832575Y315093D01*
X832635Y315150D01*
X832698Y315205D01*
X832763Y315256D01*
X832830Y315305D01*
X832900Y315350D01*
X832971Y315392D01*
X833044Y315431D01*
X833120Y315466D01*
X833196Y315498D01*
X833274Y315526D01*
X833354Y315550D01*
X833434Y315571D01*
X833515Y315588D01*
X833597Y315602D01*
X833679Y315611D01*
X833762Y315617D01*
X833845Y315619D01*
X836155Y315619D01*
X836155Y311000D01*
X836153Y310922D01*
X836147Y310844D01*
X836137Y310767D01*
X836123Y310690D01*
X836106Y310614D01*
X836084Y310539D01*
X836059Y310465D01*
X836030Y310393D01*
X835998Y310322D01*
X835961Y310253D01*
X835922Y310185D01*
X835879Y310120D01*
X835833Y310057D01*
X835783Y309997D01*
X835731Y309939D01*
X835676Y309884D01*
X835618Y309832D01*
X835558Y309782D01*
X835495Y309736D01*
X835430Y309693D01*
X835362Y309654D01*
X835293Y309617D01*
X835222Y309585D01*
X835150Y309556D01*
X835076Y309531D01*
X835001Y309509D01*
X834925Y309492D01*
X834848Y309478D01*
X834771Y309468D01*
X834693Y309462D01*
X834615Y309460D01*
X832562Y309460D01*
X840545Y309460D02*
X840545Y315619D01*
X840545Y309460D02*
X843624Y309460D01*
X843624Y310487D01*
X846845Y309460D02*
X846845Y315619D01*
X846845Y309460D02*
X849924Y309460D01*
X849924Y310487D01*
X854334Y315619D02*
X856900Y315619D01*
X854334Y315619D02*
X854256Y315617D01*
X854178Y315611D01*
X854101Y315601D01*
X854024Y315587D01*
X853948Y315570D01*
X853873Y315548D01*
X853799Y315523D01*
X853727Y315494D01*
X853656Y315462D01*
X853587Y315425D01*
X853519Y315386D01*
X853454Y315343D01*
X853391Y315297D01*
X853331Y315247D01*
X853273Y315195D01*
X853218Y315140D01*
X853166Y315082D01*
X853116Y315022D01*
X853070Y314959D01*
X853027Y314894D01*
X852988Y314826D01*
X852951Y314757D01*
X852919Y314686D01*
X852890Y314614D01*
X852865Y314540D01*
X852843Y314465D01*
X852826Y314389D01*
X852812Y314312D01*
X852802Y314235D01*
X852796Y314157D01*
X852794Y314079D01*
X852794Y311513D01*
X852796Y311423D01*
X852802Y311334D01*
X852812Y311245D01*
X852825Y311157D01*
X852843Y311069D01*
X852864Y310982D01*
X852889Y310896D01*
X852918Y310811D01*
X852950Y310727D01*
X852986Y310645D01*
X853026Y310565D01*
X853069Y310487D01*
X853116Y310410D01*
X853165Y310335D01*
X853218Y310263D01*
X853274Y310193D01*
X853333Y310126D01*
X853395Y310061D01*
X853460Y309999D01*
X853527Y309940D01*
X853597Y309884D01*
X853669Y309831D01*
X853744Y309782D01*
X853821Y309735D01*
X853899Y309692D01*
X853979Y309652D01*
X854061Y309616D01*
X854145Y309584D01*
X854230Y309555D01*
X854316Y309530D01*
X854403Y309509D01*
X854491Y309491D01*
X854579Y309478D01*
X854668Y309468D01*
X854757Y309462D01*
X854847Y309460D01*
X854937Y309462D01*
X855026Y309468D01*
X855115Y309478D01*
X855203Y309491D01*
X855291Y309509D01*
X855378Y309530D01*
X855464Y309555D01*
X855549Y309584D01*
X855633Y309616D01*
X855715Y309652D01*
X855795Y309692D01*
X855874Y309735D01*
X855950Y309782D01*
X856025Y309831D01*
X856097Y309884D01*
X856167Y309940D01*
X856234Y309999D01*
X856299Y310061D01*
X856361Y310126D01*
X856420Y310193D01*
X856476Y310263D01*
X856529Y310335D01*
X856578Y310410D01*
X856625Y310487D01*
X856668Y310565D01*
X856708Y310645D01*
X856744Y310727D01*
X856776Y310811D01*
X856805Y310896D01*
X856830Y310982D01*
X856851Y311069D01*
X856869Y311157D01*
X856882Y311245D01*
X856892Y311334D01*
X856898Y311423D01*
X856900Y311513D01*
X856900Y312540D01*
X852794Y312540D01*
X860894Y315619D02*
X860894Y309460D01*
X863460Y309460D01*
X863536Y309462D01*
X863611Y309467D01*
X863686Y309477D01*
X863760Y309490D01*
X863834Y309506D01*
X863907Y309526D01*
X863979Y309550D01*
X864049Y309577D01*
X864118Y309608D01*
X864186Y309642D01*
X864252Y309679D01*
X864316Y309720D01*
X864377Y309763D01*
X864437Y309810D01*
X864494Y309859D01*
X864549Y309911D01*
X864601Y309966D01*
X864650Y310023D01*
X864697Y310083D01*
X864740Y310144D01*
X864781Y310208D01*
X864818Y310274D01*
X864852Y310342D01*
X864883Y310411D01*
X864910Y310481D01*
X864934Y310553D01*
X864954Y310626D01*
X864970Y310700D01*
X864983Y310774D01*
X864993Y310849D01*
X864998Y310924D01*
X865000Y311000D01*
X865000Y315619D01*
X778514Y323691D02*
X778512Y323596D01*
X778506Y323500D01*
X778496Y323405D01*
X778482Y323311D01*
X778465Y323217D01*
X778443Y323124D01*
X778418Y323032D01*
X778389Y322941D01*
X778356Y322851D01*
X778319Y322763D01*
X778279Y322676D01*
X778236Y322592D01*
X778188Y322509D01*
X778138Y322428D01*
X778084Y322349D01*
X778027Y322272D01*
X777967Y322198D01*
X777904Y322127D01*
X777837Y322058D01*
X777769Y321992D01*
X777697Y321928D01*
X777623Y321868D01*
X777546Y321811D01*
X777467Y321757D01*
X777386Y321707D01*
X777303Y321659D01*
X777219Y321616D01*
X777132Y321576D01*
X777044Y321539D01*
X776954Y321506D01*
X776863Y321477D01*
X776771Y321452D01*
X776678Y321430D01*
X776584Y321413D01*
X776490Y321399D01*
X776395Y321389D01*
X776300Y321383D01*
X776204Y321381D01*
X776098Y321383D01*
X775991Y321389D01*
X775885Y321398D01*
X775779Y321412D01*
X775674Y321429D01*
X775569Y321450D01*
X775466Y321474D01*
X775363Y321503D01*
X775261Y321535D01*
X775161Y321570D01*
X775062Y321610D01*
X774964Y321653D01*
X774868Y321699D01*
X774774Y321749D01*
X774681Y321802D01*
X774591Y321858D01*
X774502Y321918D01*
X774416Y321980D01*
X774332Y322046D01*
X774251Y322115D01*
X774172Y322186D01*
X774095Y322261D01*
X774022Y322338D01*
X773951Y322418D01*
X773883Y322500D01*
X773818Y322584D01*
X773756Y322671D01*
X773698Y322760D01*
X773642Y322851D01*
X773590Y322944D01*
X773541Y323039D01*
X773496Y323136D01*
X773454Y323234D01*
X773416Y323333D01*
X773381Y323434D01*
X777744Y325488D02*
X777812Y325420D01*
X777877Y325350D01*
X777940Y325278D01*
X778000Y325203D01*
X778057Y325126D01*
X778110Y325047D01*
X778161Y324966D01*
X778209Y324883D01*
X778253Y324799D01*
X778294Y324712D01*
X778332Y324624D01*
X778366Y324535D01*
X778397Y324444D01*
X778424Y324353D01*
X778448Y324260D01*
X778468Y324166D01*
X778485Y324072D01*
X778497Y323977D01*
X778507Y323882D01*
X778512Y323787D01*
X778514Y323691D01*
X777743Y325487D02*
X773381Y330619D01*
X778513Y330619D01*
X782381Y326000D02*
X782383Y325818D01*
X782390Y325637D01*
X782401Y325455D01*
X782416Y325274D01*
X782435Y325093D01*
X782459Y324913D01*
X782487Y324734D01*
X782519Y324555D01*
X782556Y324377D01*
X782597Y324200D01*
X782642Y324024D01*
X782691Y323849D01*
X782745Y323675D01*
X782802Y323503D01*
X782864Y323332D01*
X782930Y323162D01*
X782999Y322994D01*
X783073Y322828D01*
X783151Y322664D01*
X783180Y322585D01*
X783212Y322508D01*
X783248Y322431D01*
X783287Y322357D01*
X783330Y322284D01*
X783376Y322214D01*
X783424Y322145D01*
X783476Y322079D01*
X783531Y322015D01*
X783588Y321953D01*
X783648Y321895D01*
X783711Y321838D01*
X783776Y321785D01*
X783843Y321735D01*
X783913Y321687D01*
X783984Y321643D01*
X784058Y321602D01*
X784133Y321564D01*
X784210Y321530D01*
X784288Y321499D01*
X784367Y321472D01*
X784448Y321448D01*
X784530Y321427D01*
X784612Y321411D01*
X784695Y321398D01*
X784779Y321388D01*
X784863Y321383D01*
X784947Y321381D01*
X785031Y321383D01*
X785115Y321388D01*
X785199Y321398D01*
X785282Y321411D01*
X785364Y321427D01*
X785446Y321448D01*
X785527Y321472D01*
X785606Y321499D01*
X785684Y321530D01*
X785761Y321564D01*
X785836Y321602D01*
X785910Y321643D01*
X785981Y321687D01*
X786051Y321735D01*
X786118Y321785D01*
X786183Y321838D01*
X786246Y321895D01*
X786306Y321954D01*
X786363Y322015D01*
X786418Y322079D01*
X786470Y322145D01*
X786518Y322214D01*
X786564Y322284D01*
X786607Y322357D01*
X786646Y322432D01*
X786682Y322508D01*
X786714Y322585D01*
X786743Y322664D01*
X786744Y322664D02*
X786822Y322828D01*
X786896Y322994D01*
X786965Y323162D01*
X787031Y323332D01*
X787093Y323503D01*
X787150Y323675D01*
X787204Y323849D01*
X787253Y324024D01*
X787298Y324200D01*
X787339Y324377D01*
X787376Y324555D01*
X787408Y324734D01*
X787436Y324913D01*
X787460Y325093D01*
X787479Y325274D01*
X787494Y325455D01*
X787505Y325637D01*
X787512Y325818D01*
X787514Y326000D01*
X782381Y326000D02*
X782383Y326182D01*
X782390Y326363D01*
X782401Y326545D01*
X782416Y326726D01*
X782435Y326907D01*
X782459Y327087D01*
X782487Y327266D01*
X782519Y327445D01*
X782556Y327623D01*
X782597Y327800D01*
X782642Y327976D01*
X782691Y328151D01*
X782745Y328325D01*
X782802Y328497D01*
X782864Y328668D01*
X782930Y328838D01*
X782999Y329006D01*
X783073Y329172D01*
X783151Y329336D01*
X783180Y329415D01*
X783212Y329492D01*
X783248Y329569D01*
X783287Y329643D01*
X783330Y329716D01*
X783376Y329786D01*
X783424Y329855D01*
X783476Y329921D01*
X783531Y329985D01*
X783588Y330047D01*
X783648Y330105D01*
X783711Y330162D01*
X783776Y330215D01*
X783843Y330265D01*
X783913Y330313D01*
X783984Y330357D01*
X784058Y330398D01*
X784133Y330436D01*
X784210Y330470D01*
X784288Y330501D01*
X784367Y330528D01*
X784448Y330552D01*
X784530Y330573D01*
X784612Y330589D01*
X784695Y330602D01*
X784779Y330612D01*
X784863Y330617D01*
X784947Y330619D01*
X786743Y329336D02*
X786821Y329172D01*
X786895Y329006D01*
X786964Y328838D01*
X787030Y328668D01*
X787092Y328497D01*
X787149Y328325D01*
X787203Y328151D01*
X787252Y327976D01*
X787297Y327800D01*
X787338Y327623D01*
X787375Y327445D01*
X787407Y327266D01*
X787435Y327087D01*
X787459Y326907D01*
X787478Y326726D01*
X787493Y326545D01*
X787504Y326363D01*
X787511Y326182D01*
X787513Y326000D01*
X786743Y329336D02*
X786714Y329415D01*
X786682Y329492D01*
X786646Y329569D01*
X786607Y329643D01*
X786564Y329716D01*
X786518Y329786D01*
X786470Y329855D01*
X786418Y329921D01*
X786363Y329985D01*
X786306Y330047D01*
X786246Y330105D01*
X786183Y330162D01*
X786118Y330215D01*
X786051Y330265D01*
X785981Y330313D01*
X785910Y330357D01*
X785836Y330398D01*
X785761Y330436D01*
X785684Y330470D01*
X785606Y330501D01*
X785527Y330528D01*
X785446Y330552D01*
X785364Y330573D01*
X785282Y330589D01*
X785199Y330602D01*
X785115Y330612D01*
X785031Y330617D01*
X784947Y330619D01*
X782894Y328566D02*
X787000Y323434D01*
X794204Y321381D02*
X794300Y321383D01*
X794395Y321389D01*
X794490Y321399D01*
X794584Y321413D01*
X794678Y321430D01*
X794771Y321452D01*
X794863Y321477D01*
X794954Y321506D01*
X795044Y321539D01*
X795132Y321576D01*
X795219Y321616D01*
X795303Y321659D01*
X795386Y321707D01*
X795467Y321757D01*
X795546Y321811D01*
X795623Y321868D01*
X795697Y321928D01*
X795769Y321992D01*
X795837Y322058D01*
X795904Y322127D01*
X795967Y322198D01*
X796027Y322272D01*
X796084Y322349D01*
X796138Y322428D01*
X796188Y322509D01*
X796236Y322592D01*
X796279Y322676D01*
X796319Y322763D01*
X796356Y322851D01*
X796389Y322941D01*
X796418Y323032D01*
X796443Y323124D01*
X796465Y323217D01*
X796482Y323311D01*
X796496Y323405D01*
X796506Y323500D01*
X796512Y323596D01*
X796514Y323691D01*
X794204Y321381D02*
X794098Y321383D01*
X793991Y321389D01*
X793885Y321398D01*
X793779Y321412D01*
X793674Y321429D01*
X793569Y321450D01*
X793466Y321474D01*
X793363Y321503D01*
X793261Y321535D01*
X793161Y321570D01*
X793062Y321610D01*
X792964Y321653D01*
X792868Y321699D01*
X792774Y321749D01*
X792681Y321802D01*
X792591Y321858D01*
X792502Y321918D01*
X792416Y321980D01*
X792332Y322046D01*
X792251Y322115D01*
X792172Y322186D01*
X792095Y322261D01*
X792022Y322338D01*
X791951Y322418D01*
X791883Y322500D01*
X791818Y322584D01*
X791756Y322671D01*
X791698Y322760D01*
X791642Y322851D01*
X791590Y322944D01*
X791541Y323039D01*
X791496Y323136D01*
X791454Y323234D01*
X791416Y323333D01*
X791381Y323434D01*
X795744Y325488D02*
X795812Y325420D01*
X795877Y325350D01*
X795940Y325278D01*
X796000Y325203D01*
X796057Y325126D01*
X796110Y325047D01*
X796161Y324966D01*
X796209Y324883D01*
X796253Y324799D01*
X796294Y324712D01*
X796332Y324624D01*
X796366Y324535D01*
X796397Y324444D01*
X796424Y324353D01*
X796448Y324260D01*
X796468Y324166D01*
X796485Y324072D01*
X796497Y323977D01*
X796507Y323882D01*
X796512Y323787D01*
X796514Y323691D01*
X795743Y325487D02*
X791381Y330619D01*
X796513Y330619D01*
X800381Y330619D02*
X802947Y330619D01*
X803046Y330617D01*
X803146Y330611D01*
X803245Y330602D01*
X803343Y330588D01*
X803441Y330571D01*
X803539Y330550D01*
X803635Y330525D01*
X803730Y330496D01*
X803825Y330464D01*
X803917Y330428D01*
X804009Y330389D01*
X804099Y330346D01*
X804187Y330300D01*
X804273Y330250D01*
X804357Y330197D01*
X804439Y330141D01*
X804519Y330081D01*
X804596Y330019D01*
X804671Y329953D01*
X804744Y329885D01*
X804813Y329814D01*
X804880Y329740D01*
X804944Y329664D01*
X805005Y329585D01*
X805063Y329504D01*
X805118Y329421D01*
X805169Y329336D01*
X805217Y329249D01*
X805262Y329160D01*
X805303Y329069D01*
X805341Y328977D01*
X805375Y328884D01*
X805405Y328789D01*
X805432Y328693D01*
X805455Y328596D01*
X805474Y328499D01*
X805489Y328400D01*
X805501Y328301D01*
X805509Y328202D01*
X805513Y328103D01*
X805513Y328003D01*
X805509Y327904D01*
X805501Y327805D01*
X805489Y327706D01*
X805474Y327607D01*
X805455Y327510D01*
X805432Y327413D01*
X805405Y327317D01*
X805375Y327222D01*
X805341Y327129D01*
X805303Y327037D01*
X805262Y326946D01*
X805217Y326857D01*
X805169Y326770D01*
X805118Y326685D01*
X805063Y326602D01*
X805005Y326521D01*
X804944Y326442D01*
X804880Y326366D01*
X804813Y326292D01*
X804744Y326221D01*
X804671Y326153D01*
X804596Y326087D01*
X804519Y326025D01*
X804439Y325965D01*
X804357Y325909D01*
X804273Y325856D01*
X804187Y325806D01*
X804099Y325760D01*
X804009Y325717D01*
X803917Y325678D01*
X803825Y325642D01*
X803730Y325610D01*
X803635Y325581D01*
X803539Y325556D01*
X803441Y325535D01*
X803343Y325518D01*
X803245Y325504D01*
X803146Y325495D01*
X803046Y325489D01*
X802947Y325487D01*
X803460Y321381D02*
X800381Y321381D01*
X803460Y321381D02*
X803550Y321383D01*
X803639Y321389D01*
X803728Y321399D01*
X803816Y321412D01*
X803904Y321430D01*
X803991Y321451D01*
X804077Y321476D01*
X804162Y321505D01*
X804246Y321537D01*
X804328Y321573D01*
X804408Y321613D01*
X804487Y321656D01*
X804563Y321703D01*
X804638Y321752D01*
X804710Y321805D01*
X804780Y321861D01*
X804847Y321920D01*
X804912Y321982D01*
X804974Y322047D01*
X805033Y322114D01*
X805089Y322184D01*
X805142Y322256D01*
X805191Y322331D01*
X805238Y322408D01*
X805281Y322486D01*
X805321Y322566D01*
X805357Y322648D01*
X805389Y322732D01*
X805418Y322817D01*
X805443Y322903D01*
X805464Y322990D01*
X805482Y323078D01*
X805495Y323166D01*
X805505Y323255D01*
X805511Y323344D01*
X805513Y323434D01*
X805511Y323524D01*
X805505Y323613D01*
X805495Y323702D01*
X805482Y323790D01*
X805464Y323878D01*
X805443Y323965D01*
X805418Y324051D01*
X805389Y324136D01*
X805357Y324220D01*
X805321Y324302D01*
X805281Y324382D01*
X805238Y324461D01*
X805191Y324537D01*
X805142Y324612D01*
X805089Y324684D01*
X805033Y324754D01*
X804974Y324821D01*
X804912Y324886D01*
X804847Y324948D01*
X804780Y325007D01*
X804710Y325063D01*
X804638Y325116D01*
X804563Y325165D01*
X804487Y325212D01*
X804408Y325255D01*
X804328Y325295D01*
X804246Y325331D01*
X804162Y325363D01*
X804077Y325392D01*
X803991Y325417D01*
X803904Y325438D01*
X803816Y325456D01*
X803728Y325469D01*
X803639Y325479D01*
X803550Y325485D01*
X803460Y325487D01*
X801407Y325487D01*
X809381Y326000D02*
X809383Y325818D01*
X809390Y325637D01*
X809401Y325455D01*
X809416Y325274D01*
X809435Y325093D01*
X809459Y324913D01*
X809487Y324734D01*
X809519Y324555D01*
X809556Y324377D01*
X809597Y324200D01*
X809642Y324024D01*
X809691Y323849D01*
X809745Y323675D01*
X809802Y323503D01*
X809864Y323332D01*
X809930Y323162D01*
X809999Y322994D01*
X810073Y322828D01*
X810151Y322664D01*
X810180Y322585D01*
X810212Y322508D01*
X810248Y322431D01*
X810287Y322357D01*
X810330Y322284D01*
X810376Y322214D01*
X810424Y322145D01*
X810476Y322079D01*
X810531Y322015D01*
X810588Y321953D01*
X810648Y321895D01*
X810711Y321838D01*
X810776Y321785D01*
X810843Y321735D01*
X810913Y321687D01*
X810984Y321643D01*
X811058Y321602D01*
X811133Y321564D01*
X811210Y321530D01*
X811288Y321499D01*
X811367Y321472D01*
X811448Y321448D01*
X811530Y321427D01*
X811612Y321411D01*
X811695Y321398D01*
X811779Y321388D01*
X811863Y321383D01*
X811947Y321381D01*
X812031Y321383D01*
X812115Y321388D01*
X812199Y321398D01*
X812282Y321411D01*
X812364Y321427D01*
X812446Y321448D01*
X812527Y321472D01*
X812606Y321499D01*
X812684Y321530D01*
X812761Y321564D01*
X812836Y321602D01*
X812910Y321643D01*
X812981Y321687D01*
X813051Y321735D01*
X813118Y321785D01*
X813183Y321838D01*
X813246Y321895D01*
X813306Y321954D01*
X813363Y322015D01*
X813418Y322079D01*
X813470Y322145D01*
X813518Y322214D01*
X813564Y322284D01*
X813607Y322357D01*
X813646Y322432D01*
X813682Y322508D01*
X813714Y322585D01*
X813743Y322664D01*
X813821Y322828D01*
X813895Y322994D01*
X813964Y323162D01*
X814030Y323332D01*
X814092Y323503D01*
X814149Y323675D01*
X814203Y323849D01*
X814252Y324024D01*
X814297Y324200D01*
X814338Y324377D01*
X814375Y324555D01*
X814407Y324734D01*
X814435Y324913D01*
X814459Y325093D01*
X814478Y325274D01*
X814493Y325455D01*
X814504Y325637D01*
X814511Y325818D01*
X814513Y326000D01*
X809381Y326000D02*
X809383Y326182D01*
X809390Y326363D01*
X809401Y326545D01*
X809416Y326726D01*
X809435Y326907D01*
X809459Y327087D01*
X809487Y327266D01*
X809519Y327445D01*
X809556Y327623D01*
X809597Y327800D01*
X809642Y327976D01*
X809691Y328151D01*
X809745Y328325D01*
X809802Y328497D01*
X809864Y328668D01*
X809930Y328838D01*
X809999Y329006D01*
X810073Y329172D01*
X810151Y329336D01*
X810180Y329415D01*
X810212Y329492D01*
X810248Y329569D01*
X810287Y329643D01*
X810330Y329716D01*
X810376Y329786D01*
X810424Y329855D01*
X810476Y329921D01*
X810531Y329985D01*
X810588Y330047D01*
X810648Y330105D01*
X810711Y330162D01*
X810776Y330215D01*
X810843Y330265D01*
X810913Y330313D01*
X810984Y330357D01*
X811058Y330398D01*
X811133Y330436D01*
X811210Y330470D01*
X811288Y330501D01*
X811367Y330528D01*
X811448Y330552D01*
X811530Y330573D01*
X811612Y330589D01*
X811695Y330602D01*
X811779Y330612D01*
X811863Y330617D01*
X811947Y330619D01*
X813743Y329336D02*
X813821Y329172D01*
X813895Y329006D01*
X813964Y328838D01*
X814030Y328668D01*
X814092Y328497D01*
X814149Y328325D01*
X814203Y328151D01*
X814252Y327976D01*
X814297Y327800D01*
X814338Y327623D01*
X814375Y327445D01*
X814407Y327266D01*
X814435Y327087D01*
X814459Y326907D01*
X814478Y326726D01*
X814493Y326545D01*
X814504Y326363D01*
X814511Y326182D01*
X814513Y326000D01*
X813743Y329336D02*
X813714Y329415D01*
X813682Y329492D01*
X813646Y329569D01*
X813607Y329643D01*
X813564Y329716D01*
X813518Y329786D01*
X813470Y329855D01*
X813418Y329921D01*
X813363Y329985D01*
X813306Y330047D01*
X813246Y330105D01*
X813183Y330162D01*
X813118Y330215D01*
X813051Y330265D01*
X812981Y330313D01*
X812910Y330357D01*
X812836Y330398D01*
X812761Y330436D01*
X812684Y330470D01*
X812606Y330501D01*
X812527Y330528D01*
X812446Y330552D01*
X812364Y330573D01*
X812282Y330589D01*
X812199Y330602D01*
X812115Y330612D01*
X812031Y330617D01*
X811947Y330619D01*
X809894Y328566D02*
X814000Y323434D01*
X818381Y322407D02*
X818381Y321381D01*
X823513Y321381D01*
X820947Y330619D01*
X827381Y323434D02*
X829947Y321381D01*
X829947Y330619D01*
X827381Y330619D02*
X832513Y330619D01*
X836381Y328566D02*
X838434Y321381D01*
X836381Y328566D02*
X841513Y328566D01*
X839973Y326513D02*
X839973Y330619D01*
X778513Y343566D02*
X778511Y343656D01*
X778505Y343745D01*
X778495Y343834D01*
X778482Y343922D01*
X778464Y344010D01*
X778443Y344097D01*
X778418Y344183D01*
X778389Y344268D01*
X778357Y344352D01*
X778321Y344434D01*
X778281Y344514D01*
X778238Y344593D01*
X778191Y344669D01*
X778142Y344744D01*
X778089Y344816D01*
X778033Y344886D01*
X777974Y344953D01*
X777912Y345018D01*
X777847Y345080D01*
X777780Y345139D01*
X777710Y345195D01*
X777638Y345248D01*
X777563Y345297D01*
X777487Y345344D01*
X777408Y345387D01*
X777328Y345427D01*
X777246Y345463D01*
X777162Y345495D01*
X777077Y345524D01*
X776991Y345549D01*
X776904Y345570D01*
X776816Y345588D01*
X776728Y345601D01*
X776639Y345611D01*
X776550Y345617D01*
X776460Y345619D01*
X776333Y345617D01*
X776206Y345612D01*
X776080Y345602D01*
X775954Y345589D01*
X775828Y345573D01*
X775703Y345552D01*
X775578Y345528D01*
X775455Y345501D01*
X775332Y345470D01*
X775210Y345435D01*
X775089Y345397D01*
X774969Y345355D01*
X774851Y345309D01*
X774734Y345261D01*
X774618Y345208D01*
X774504Y345153D01*
X774392Y345094D01*
X774281Y345032D01*
X774172Y344967D01*
X774066Y344898D01*
X773961Y344827D01*
X773858Y344752D01*
X773758Y344674D01*
X773660Y344594D01*
X773564Y344511D01*
X773471Y344425D01*
X773381Y344336D01*
X773638Y338434D02*
X773640Y338344D01*
X773646Y338255D01*
X773656Y338166D01*
X773669Y338078D01*
X773687Y337990D01*
X773708Y337903D01*
X773733Y337817D01*
X773762Y337732D01*
X773794Y337648D01*
X773830Y337566D01*
X773870Y337486D01*
X773913Y337408D01*
X773960Y337331D01*
X774009Y337256D01*
X774062Y337184D01*
X774118Y337114D01*
X774177Y337047D01*
X774239Y336982D01*
X774304Y336920D01*
X774371Y336861D01*
X774441Y336805D01*
X774513Y336752D01*
X774588Y336703D01*
X774665Y336656D01*
X774743Y336613D01*
X774823Y336573D01*
X774905Y336537D01*
X774989Y336505D01*
X775074Y336476D01*
X775160Y336451D01*
X775247Y336430D01*
X775335Y336412D01*
X775423Y336399D01*
X775512Y336389D01*
X775601Y336383D01*
X775691Y336381D01*
X775815Y336383D01*
X775939Y336389D01*
X776062Y336399D01*
X776185Y336413D01*
X776308Y336431D01*
X776429Y336453D01*
X776551Y336478D01*
X776671Y336508D01*
X776790Y336541D01*
X776908Y336579D01*
X777025Y336620D01*
X777140Y336664D01*
X777254Y336713D01*
X777367Y336765D01*
X777477Y336821D01*
X777586Y336880D01*
X777693Y336943D01*
X777798Y337009D01*
X777900Y337078D01*
X778000Y337151D01*
X774664Y340230D02*
X774588Y340183D01*
X774513Y340132D01*
X774441Y340078D01*
X774371Y340021D01*
X774304Y339961D01*
X774239Y339898D01*
X774177Y339833D01*
X774118Y339765D01*
X774062Y339694D01*
X774009Y339621D01*
X773959Y339546D01*
X773913Y339468D01*
X773870Y339389D01*
X773830Y339308D01*
X773794Y339225D01*
X773762Y339141D01*
X773733Y339056D01*
X773708Y338969D01*
X773687Y338882D01*
X773669Y338793D01*
X773656Y338704D01*
X773646Y338614D01*
X773640Y338524D01*
X773638Y338434D01*
X777487Y341770D02*
X777563Y341817D01*
X777638Y341868D01*
X777710Y341922D01*
X777780Y341979D01*
X777847Y342039D01*
X777912Y342102D01*
X777974Y342167D01*
X778033Y342235D01*
X778089Y342306D01*
X778142Y342379D01*
X778192Y342454D01*
X778238Y342532D01*
X778281Y342611D01*
X778321Y342692D01*
X778357Y342775D01*
X778389Y342859D01*
X778418Y342944D01*
X778443Y343031D01*
X778464Y343119D01*
X778482Y343207D01*
X778495Y343296D01*
X778505Y343386D01*
X778511Y343476D01*
X778513Y343566D01*
X777487Y341770D02*
X774664Y340230D01*
X782438Y336381D02*
X782438Y345619D01*
X782438Y336381D02*
X785004Y336381D01*
X785103Y336383D01*
X785203Y336389D01*
X785302Y336398D01*
X785400Y336412D01*
X785498Y336429D01*
X785596Y336450D01*
X785692Y336475D01*
X785787Y336504D01*
X785882Y336536D01*
X785974Y336572D01*
X786066Y336611D01*
X786156Y336654D01*
X786244Y336700D01*
X786330Y336750D01*
X786414Y336803D01*
X786496Y336859D01*
X786576Y336919D01*
X786653Y336981D01*
X786728Y337047D01*
X786801Y337115D01*
X786870Y337186D01*
X786937Y337260D01*
X787001Y337336D01*
X787062Y337415D01*
X787120Y337496D01*
X787175Y337579D01*
X787226Y337664D01*
X787274Y337751D01*
X787319Y337840D01*
X787360Y337931D01*
X787398Y338023D01*
X787432Y338116D01*
X787462Y338211D01*
X787489Y338307D01*
X787512Y338404D01*
X787531Y338501D01*
X787546Y338600D01*
X787558Y338699D01*
X787566Y338798D01*
X787570Y338897D01*
X787570Y338997D01*
X787566Y339096D01*
X787558Y339195D01*
X787546Y339294D01*
X787531Y339393D01*
X787512Y339490D01*
X787489Y339587D01*
X787462Y339683D01*
X787432Y339778D01*
X787398Y339871D01*
X787360Y339963D01*
X787319Y340054D01*
X787274Y340143D01*
X787226Y340230D01*
X787175Y340315D01*
X787120Y340398D01*
X787062Y340479D01*
X787001Y340558D01*
X786937Y340634D01*
X786870Y340708D01*
X786801Y340779D01*
X786728Y340847D01*
X786653Y340913D01*
X786576Y340975D01*
X786496Y341035D01*
X786414Y341091D01*
X786330Y341144D01*
X786244Y341194D01*
X786156Y341240D01*
X786066Y341283D01*
X785974Y341322D01*
X785882Y341358D01*
X785787Y341390D01*
X785692Y341419D01*
X785596Y341444D01*
X785498Y341465D01*
X785400Y341482D01*
X785302Y341496D01*
X785203Y341505D01*
X785103Y341511D01*
X785004Y341513D01*
X782438Y341513D01*
X785517Y341513D02*
X787570Y345619D01*
X791468Y342026D02*
X797626Y342026D01*
X794547Y338947D02*
X794547Y345106D01*
X801898Y345619D02*
X801898Y336381D01*
X801898Y345619D02*
X806004Y345619D01*
X811045Y342026D02*
X813355Y342026D01*
X811045Y342027D02*
X810962Y342029D01*
X810879Y342035D01*
X810797Y342044D01*
X810715Y342058D01*
X810634Y342075D01*
X810554Y342096D01*
X810474Y342120D01*
X810396Y342148D01*
X810320Y342180D01*
X810244Y342215D01*
X810171Y342254D01*
X810100Y342296D01*
X810030Y342341D01*
X809963Y342390D01*
X809898Y342441D01*
X809835Y342496D01*
X809775Y342553D01*
X809718Y342613D01*
X809663Y342676D01*
X809612Y342741D01*
X809563Y342808D01*
X809518Y342878D01*
X809476Y342949D01*
X809437Y343022D01*
X809402Y343098D01*
X809370Y343174D01*
X809342Y343252D01*
X809318Y343332D01*
X809297Y343412D01*
X809280Y343493D01*
X809266Y343575D01*
X809257Y343657D01*
X809251Y343740D01*
X809249Y343823D01*
X809251Y343906D01*
X809257Y343989D01*
X809266Y344071D01*
X809280Y344153D01*
X809297Y344234D01*
X809318Y344314D01*
X809342Y344394D01*
X809370Y344472D01*
X809402Y344548D01*
X809437Y344624D01*
X809476Y344697D01*
X809518Y344768D01*
X809563Y344838D01*
X809612Y344905D01*
X809663Y344970D01*
X809718Y345033D01*
X809775Y345093D01*
X809835Y345150D01*
X809898Y345205D01*
X809963Y345256D01*
X810030Y345305D01*
X810100Y345350D01*
X810171Y345392D01*
X810244Y345431D01*
X810320Y345466D01*
X810396Y345498D01*
X810474Y345526D01*
X810554Y345550D01*
X810634Y345571D01*
X810715Y345588D01*
X810797Y345602D01*
X810879Y345611D01*
X810962Y345617D01*
X811045Y345619D01*
X813355Y345619D01*
X813355Y341000D01*
X813353Y340922D01*
X813347Y340844D01*
X813337Y340767D01*
X813323Y340690D01*
X813306Y340614D01*
X813284Y340539D01*
X813259Y340465D01*
X813230Y340393D01*
X813198Y340322D01*
X813161Y340253D01*
X813122Y340185D01*
X813079Y340120D01*
X813033Y340057D01*
X812983Y339997D01*
X812931Y339939D01*
X812876Y339884D01*
X812818Y339832D01*
X812758Y339782D01*
X812695Y339736D01*
X812630Y339693D01*
X812562Y339654D01*
X812493Y339617D01*
X812422Y339585D01*
X812350Y339556D01*
X812276Y339531D01*
X812201Y339509D01*
X812125Y339492D01*
X812048Y339478D01*
X811971Y339468D01*
X811893Y339462D01*
X811815Y339460D01*
X809762Y339460D01*
X816636Y339460D02*
X819716Y339460D01*
X817663Y336381D02*
X817663Y344079D01*
X817662Y344079D02*
X817664Y344155D01*
X817669Y344230D01*
X817679Y344305D01*
X817692Y344379D01*
X817708Y344453D01*
X817728Y344526D01*
X817752Y344598D01*
X817779Y344668D01*
X817810Y344737D01*
X817844Y344805D01*
X817881Y344871D01*
X817922Y344935D01*
X817965Y344996D01*
X818012Y345056D01*
X818061Y345113D01*
X818113Y345168D01*
X818168Y345220D01*
X818225Y345269D01*
X818285Y345316D01*
X818346Y345359D01*
X818410Y345400D01*
X818476Y345437D01*
X818544Y345471D01*
X818613Y345502D01*
X818683Y345529D01*
X818755Y345553D01*
X818828Y345573D01*
X818902Y345589D01*
X818976Y345602D01*
X819051Y345612D01*
X819126Y345617D01*
X819202Y345619D01*
X819716Y345619D01*
X824644Y345619D02*
X826697Y345619D01*
X824644Y345619D02*
X824566Y345617D01*
X824488Y345611D01*
X824411Y345601D01*
X824334Y345587D01*
X824258Y345570D01*
X824183Y345548D01*
X824109Y345523D01*
X824037Y345494D01*
X823966Y345462D01*
X823897Y345425D01*
X823829Y345386D01*
X823764Y345343D01*
X823701Y345297D01*
X823641Y345247D01*
X823583Y345195D01*
X823528Y345140D01*
X823476Y345082D01*
X823426Y345022D01*
X823380Y344959D01*
X823337Y344894D01*
X823298Y344826D01*
X823261Y344757D01*
X823229Y344686D01*
X823200Y344614D01*
X823175Y344540D01*
X823153Y344465D01*
X823136Y344389D01*
X823122Y344312D01*
X823112Y344235D01*
X823106Y344157D01*
X823104Y344079D01*
X823104Y341000D01*
X823106Y340924D01*
X823111Y340849D01*
X823121Y340774D01*
X823134Y340700D01*
X823150Y340626D01*
X823170Y340553D01*
X823194Y340481D01*
X823221Y340411D01*
X823252Y340342D01*
X823286Y340274D01*
X823323Y340208D01*
X823364Y340144D01*
X823407Y340083D01*
X823454Y340023D01*
X823503Y339966D01*
X823555Y339911D01*
X823610Y339859D01*
X823667Y339810D01*
X823727Y339763D01*
X823788Y339720D01*
X823852Y339679D01*
X823918Y339642D01*
X823986Y339608D01*
X824055Y339577D01*
X824125Y339550D01*
X824197Y339526D01*
X824270Y339506D01*
X824344Y339490D01*
X824418Y339477D01*
X824493Y339467D01*
X824568Y339462D01*
X824644Y339460D01*
X826697Y339460D01*
X830294Y336381D02*
X830294Y345619D01*
X830294Y339460D02*
X832860Y339460D01*
X832936Y339462D01*
X833011Y339467D01*
X833086Y339477D01*
X833160Y339490D01*
X833234Y339506D01*
X833307Y339526D01*
X833379Y339550D01*
X833449Y339577D01*
X833518Y339608D01*
X833586Y339642D01*
X833652Y339679D01*
X833716Y339720D01*
X833777Y339763D01*
X833837Y339810D01*
X833894Y339859D01*
X833949Y339911D01*
X834001Y339966D01*
X834050Y340023D01*
X834097Y340083D01*
X834140Y340144D01*
X834181Y340208D01*
X834218Y340274D01*
X834252Y340342D01*
X834283Y340411D01*
X834310Y340481D01*
X834334Y340553D01*
X834354Y340626D01*
X834370Y340700D01*
X834383Y340774D01*
X834393Y340849D01*
X834398Y340924D01*
X834400Y341000D01*
X834400Y345619D01*
X843598Y345619D02*
X843598Y336381D01*
X847704Y336381D01*
X847704Y340487D02*
X843598Y340487D01*
X850994Y341513D02*
X850994Y343566D01*
X850994Y341513D02*
X850996Y341423D01*
X851002Y341334D01*
X851012Y341245D01*
X851025Y341157D01*
X851043Y341069D01*
X851064Y340982D01*
X851089Y340896D01*
X851118Y340811D01*
X851150Y340727D01*
X851186Y340645D01*
X851226Y340565D01*
X851269Y340487D01*
X851316Y340410D01*
X851365Y340335D01*
X851418Y340263D01*
X851474Y340193D01*
X851533Y340126D01*
X851595Y340061D01*
X851660Y339999D01*
X851727Y339940D01*
X851797Y339884D01*
X851869Y339831D01*
X851944Y339782D01*
X852021Y339735D01*
X852099Y339692D01*
X852179Y339652D01*
X852261Y339616D01*
X852345Y339584D01*
X852430Y339555D01*
X852516Y339530D01*
X852603Y339509D01*
X852691Y339491D01*
X852779Y339478D01*
X852868Y339468D01*
X852957Y339462D01*
X853047Y339460D01*
X853137Y339462D01*
X853226Y339468D01*
X853315Y339478D01*
X853403Y339491D01*
X853491Y339509D01*
X853578Y339530D01*
X853664Y339555D01*
X853749Y339584D01*
X853833Y339616D01*
X853915Y339652D01*
X853995Y339692D01*
X854074Y339735D01*
X854150Y339782D01*
X854225Y339831D01*
X854297Y339884D01*
X854367Y339940D01*
X854434Y339999D01*
X854499Y340061D01*
X854561Y340126D01*
X854620Y340193D01*
X854676Y340263D01*
X854729Y340335D01*
X854778Y340410D01*
X854825Y340487D01*
X854868Y340565D01*
X854908Y340645D01*
X854944Y340727D01*
X854976Y340811D01*
X855005Y340896D01*
X855030Y340982D01*
X855051Y341069D01*
X855069Y341157D01*
X855082Y341245D01*
X855092Y341334D01*
X855098Y341423D01*
X855100Y341513D01*
X855100Y343566D01*
X855098Y343656D01*
X855092Y343745D01*
X855082Y343834D01*
X855069Y343922D01*
X855051Y344010D01*
X855030Y344097D01*
X855005Y344183D01*
X854976Y344268D01*
X854944Y344352D01*
X854908Y344434D01*
X854868Y344514D01*
X854825Y344593D01*
X854778Y344669D01*
X854729Y344744D01*
X854676Y344816D01*
X854620Y344886D01*
X854561Y344953D01*
X854499Y345018D01*
X854434Y345080D01*
X854367Y345139D01*
X854297Y345195D01*
X854225Y345248D01*
X854150Y345297D01*
X854074Y345344D01*
X853995Y345387D01*
X853915Y345427D01*
X853833Y345463D01*
X853749Y345495D01*
X853664Y345524D01*
X853578Y345549D01*
X853491Y345570D01*
X853403Y345588D01*
X853315Y345601D01*
X853226Y345611D01*
X853137Y345617D01*
X853047Y345619D01*
X852957Y345617D01*
X852868Y345611D01*
X852779Y345601D01*
X852691Y345588D01*
X852603Y345570D01*
X852516Y345549D01*
X852430Y345524D01*
X852345Y345495D01*
X852261Y345463D01*
X852179Y345427D01*
X852099Y345387D01*
X852021Y345344D01*
X851944Y345297D01*
X851869Y345248D01*
X851797Y345195D01*
X851727Y345139D01*
X851660Y345080D01*
X851595Y345018D01*
X851533Y344953D01*
X851474Y344886D01*
X851418Y344816D01*
X851365Y344744D01*
X851316Y344669D01*
X851269Y344593D01*
X851226Y344514D01*
X851186Y344434D01*
X851150Y344352D01*
X851118Y344268D01*
X851089Y344183D01*
X851064Y344097D01*
X851043Y344010D01*
X851025Y343922D01*
X851012Y343834D01*
X851002Y343745D01*
X850996Y343656D01*
X850994Y343566D01*
X859145Y345619D02*
X859145Y339460D01*
X862224Y339460D01*
X862224Y340487D01*
X870337Y336381D02*
X870337Y345619D01*
X870337Y336381D02*
X872903Y336381D01*
X873002Y336383D01*
X873102Y336389D01*
X873201Y336398D01*
X873299Y336412D01*
X873397Y336429D01*
X873495Y336450D01*
X873591Y336475D01*
X873686Y336504D01*
X873781Y336536D01*
X873873Y336572D01*
X873965Y336611D01*
X874055Y336654D01*
X874143Y336700D01*
X874229Y336750D01*
X874313Y336803D01*
X874395Y336859D01*
X874475Y336919D01*
X874552Y336981D01*
X874627Y337047D01*
X874700Y337115D01*
X874769Y337186D01*
X874836Y337260D01*
X874900Y337336D01*
X874961Y337415D01*
X875019Y337496D01*
X875074Y337579D01*
X875125Y337664D01*
X875173Y337751D01*
X875218Y337840D01*
X875259Y337931D01*
X875297Y338023D01*
X875331Y338116D01*
X875361Y338211D01*
X875388Y338307D01*
X875411Y338404D01*
X875430Y338501D01*
X875445Y338600D01*
X875457Y338699D01*
X875465Y338798D01*
X875469Y338897D01*
X875469Y338997D01*
X875465Y339096D01*
X875457Y339195D01*
X875445Y339294D01*
X875430Y339393D01*
X875411Y339490D01*
X875388Y339587D01*
X875361Y339683D01*
X875331Y339778D01*
X875297Y339871D01*
X875259Y339963D01*
X875218Y340054D01*
X875173Y340143D01*
X875125Y340230D01*
X875074Y340315D01*
X875019Y340398D01*
X874961Y340479D01*
X874900Y340558D01*
X874836Y340634D01*
X874769Y340708D01*
X874700Y340779D01*
X874627Y340847D01*
X874552Y340913D01*
X874475Y340975D01*
X874395Y341035D01*
X874313Y341091D01*
X874229Y341144D01*
X874143Y341194D01*
X874055Y341240D01*
X873965Y341283D01*
X873873Y341322D01*
X873781Y341358D01*
X873686Y341390D01*
X873591Y341419D01*
X873495Y341444D01*
X873397Y341465D01*
X873299Y341482D01*
X873201Y341496D01*
X873102Y341505D01*
X873002Y341511D01*
X872903Y341513D01*
X870337Y341513D01*
X873417Y341513D02*
X875470Y345619D01*
X880047Y345619D02*
X880047Y336381D01*
X879020Y345619D02*
X881073Y345619D01*
X881073Y336381D02*
X879020Y336381D01*
X887460Y345619D02*
X887550Y345617D01*
X887639Y345611D01*
X887728Y345601D01*
X887816Y345588D01*
X887904Y345570D01*
X887991Y345549D01*
X888077Y345524D01*
X888162Y345495D01*
X888246Y345463D01*
X888328Y345427D01*
X888408Y345387D01*
X888487Y345344D01*
X888563Y345297D01*
X888638Y345248D01*
X888710Y345195D01*
X888780Y345139D01*
X888847Y345080D01*
X888912Y345018D01*
X888974Y344953D01*
X889033Y344886D01*
X889089Y344816D01*
X889142Y344744D01*
X889191Y344669D01*
X889238Y344593D01*
X889281Y344514D01*
X889321Y344434D01*
X889357Y344352D01*
X889389Y344268D01*
X889418Y344183D01*
X889443Y344097D01*
X889464Y344010D01*
X889482Y343922D01*
X889495Y343834D01*
X889505Y343745D01*
X889511Y343656D01*
X889513Y343566D01*
X887460Y345619D02*
X887333Y345617D01*
X887206Y345612D01*
X887080Y345602D01*
X886954Y345589D01*
X886828Y345573D01*
X886703Y345552D01*
X886578Y345528D01*
X886455Y345501D01*
X886332Y345470D01*
X886210Y345435D01*
X886089Y345397D01*
X885969Y345355D01*
X885851Y345309D01*
X885734Y345261D01*
X885618Y345208D01*
X885504Y345153D01*
X885392Y345094D01*
X885281Y345032D01*
X885172Y344967D01*
X885066Y344898D01*
X884961Y344827D01*
X884858Y344752D01*
X884758Y344674D01*
X884660Y344594D01*
X884564Y344511D01*
X884471Y344425D01*
X884381Y344336D01*
X884637Y338434D02*
X884639Y338344D01*
X884645Y338255D01*
X884655Y338166D01*
X884668Y338078D01*
X884686Y337990D01*
X884707Y337903D01*
X884732Y337817D01*
X884761Y337732D01*
X884793Y337648D01*
X884829Y337566D01*
X884869Y337486D01*
X884912Y337408D01*
X884959Y337331D01*
X885008Y337256D01*
X885061Y337184D01*
X885117Y337114D01*
X885176Y337047D01*
X885238Y336982D01*
X885303Y336920D01*
X885370Y336861D01*
X885440Y336805D01*
X885512Y336752D01*
X885587Y336703D01*
X885664Y336656D01*
X885742Y336613D01*
X885822Y336573D01*
X885904Y336537D01*
X885988Y336505D01*
X886073Y336476D01*
X886159Y336451D01*
X886246Y336430D01*
X886334Y336412D01*
X886422Y336399D01*
X886511Y336389D01*
X886600Y336383D01*
X886690Y336381D01*
X886814Y336383D01*
X886938Y336389D01*
X887061Y336399D01*
X887184Y336413D01*
X887307Y336431D01*
X887428Y336453D01*
X887550Y336478D01*
X887670Y336508D01*
X887789Y336541D01*
X887907Y336579D01*
X888024Y336620D01*
X888139Y336664D01*
X888253Y336713D01*
X888366Y336765D01*
X888476Y336821D01*
X888585Y336880D01*
X888692Y336943D01*
X888797Y337009D01*
X888899Y337078D01*
X888999Y337151D01*
X885663Y340230D02*
X885587Y340183D01*
X885512Y340132D01*
X885440Y340078D01*
X885370Y340021D01*
X885303Y339961D01*
X885238Y339898D01*
X885176Y339833D01*
X885117Y339765D01*
X885061Y339694D01*
X885008Y339621D01*
X884958Y339546D01*
X884912Y339468D01*
X884869Y339389D01*
X884829Y339308D01*
X884793Y339225D01*
X884761Y339141D01*
X884732Y339056D01*
X884707Y338969D01*
X884686Y338882D01*
X884668Y338793D01*
X884655Y338704D01*
X884645Y338614D01*
X884639Y338524D01*
X884637Y338434D01*
X888487Y341770D02*
X888563Y341817D01*
X888638Y341868D01*
X888710Y341922D01*
X888780Y341979D01*
X888847Y342039D01*
X888912Y342102D01*
X888974Y342167D01*
X889033Y342235D01*
X889089Y342306D01*
X889142Y342379D01*
X889192Y342454D01*
X889238Y342532D01*
X889281Y342611D01*
X889321Y342692D01*
X889357Y342775D01*
X889389Y342859D01*
X889418Y342944D01*
X889443Y343031D01*
X889464Y343119D01*
X889482Y343207D01*
X889495Y343296D01*
X889505Y343386D01*
X889511Y343476D01*
X889513Y343566D01*
X888486Y341770D02*
X885664Y340230D01*
D12*
X889200Y300400D03*
D13*
X896200Y300400D03*
D14*
X904900Y300400D03*
D15*
X907400Y300400D03*
D16*
X911400Y300400D03*
D17*
X913600Y300400D03*
D16*
X915800Y300400D03*
D18*
X917700Y300400D03*
D19*
X919900Y300400D03*
D20*
X929200Y300400D03*
D21*
X889300Y300600D03*
D22*
X896500Y300600D03*
D14*
X905100Y300600D03*
D23*
X911100Y300600D03*
D17*
X913800Y300600D03*
D16*
X916000Y300600D03*
X918000Y300600D03*
D19*
X920100Y300600D03*
D20*
X929200Y300600D03*
D21*
X889300Y300800D03*
D22*
X896500Y300800D03*
D14*
X905300Y300800D03*
D24*
X908700Y300800D03*
D23*
X911300Y300800D03*
D17*
X914000Y300800D03*
D16*
X916200Y300800D03*
D18*
X918300Y300800D03*
D19*
X920300Y300800D03*
D25*
X929300Y300800D03*
D21*
X889300Y301000D03*
D26*
X896600Y301000D03*
D27*
X905600Y301000D03*
D24*
X908700Y301000D03*
D23*
X911500Y301000D03*
D17*
X914200Y301000D03*
D21*
X916500Y301000D03*
D18*
X918500Y301000D03*
D12*
X920400Y301000D03*
D28*
X929400Y301000D03*
D21*
X889300Y301200D03*
D29*
X896800Y301200D03*
D27*
X905800Y301200D03*
D24*
X908900Y301200D03*
D30*
X911600Y301200D03*
D24*
X914500Y301200D03*
D16*
X916600Y301200D03*
D17*
X918600Y301200D03*
D21*
X920700Y301200D03*
D31*
X929500Y301200D03*
D21*
X889300Y301400D03*
D32*
X896900Y301400D03*
D27*
X906000Y301400D03*
D24*
X909100Y301400D03*
D30*
X911800Y301400D03*
D24*
X914700Y301400D03*
D16*
X916800Y301400D03*
X918800Y301400D03*
D21*
X920900Y301400D03*
D27*
X923800Y301400D03*
D33*
X932300Y301400D03*
D21*
X889300Y301600D03*
D34*
X897000Y301600D03*
D27*
X906200Y301600D03*
D16*
X909600Y301600D03*
D30*
X912000Y301600D03*
D24*
X914900Y301600D03*
D16*
X917200Y301600D03*
X919000Y301600D03*
D21*
X921100Y301600D03*
D35*
X923400Y301600D03*
D36*
X932800Y301600D03*
D21*
X889300Y301800D03*
D37*
X897100Y301800D03*
D27*
X906400Y301800D03*
D12*
X910000Y301800D03*
D30*
X912200Y301800D03*
D35*
X915200Y301800D03*
D17*
X919200Y301800D03*
D21*
X921300Y301800D03*
D24*
X923300Y301800D03*
D38*
X932900Y301800D03*
D21*
X889300Y302000D03*
D39*
X897300Y302000D03*
D30*
X906400Y302000D03*
D12*
X910200Y302000D03*
D30*
X912400Y302000D03*
D18*
X915100Y302000D03*
X919500Y302000D03*
D21*
X921500Y302000D03*
X923300Y302000D03*
D24*
X926300Y302000D03*
D40*
X933100Y302000D03*
D21*
X889300Y302200D03*
D41*
X897400Y302200D03*
D35*
X906400Y302200D03*
D12*
X910400Y302200D03*
D42*
X912700Y302200D03*
D12*
X915000Y302200D03*
D18*
X919500Y302200D03*
D21*
X921700Y302200D03*
D12*
X923200Y302200D03*
D43*
X926200Y302200D03*
D44*
X933300Y302200D03*
D16*
X889400Y302400D03*
D45*
X897500Y302400D03*
D17*
X906400Y302400D03*
D18*
X908500Y302400D03*
D12*
X910600Y302400D03*
D35*
X912600Y302400D03*
D21*
X917900Y302400D03*
D18*
X919700Y302400D03*
D16*
X921800Y302400D03*
D46*
X926300Y302400D03*
D47*
X933600Y302400D03*
D16*
X889400Y302600D03*
D48*
X897600Y302600D03*
D16*
X906400Y302600D03*
D24*
X908500Y302600D03*
D21*
X910700Y302600D03*
D16*
X912400Y302600D03*
D17*
X916200Y302600D03*
D21*
X918100Y302600D03*
D18*
X919900Y302600D03*
D21*
X921900Y302600D03*
D49*
X926200Y302600D03*
D50*
X933800Y302600D03*
D16*
X889400Y302800D03*
D51*
X897700Y302800D03*
D21*
X906500Y302800D03*
D23*
X908500Y302800D03*
D16*
X911000Y302800D03*
D15*
X912200Y302800D03*
D35*
X916200Y302800D03*
D21*
X918300Y302800D03*
D17*
X920000Y302800D03*
D19*
X921900Y302800D03*
D52*
X926300Y302800D03*
D53*
X933900Y302800D03*
D16*
X889400Y303000D03*
D54*
X897800Y303000D03*
D12*
X906600Y303000D03*
D30*
X908600Y303000D03*
D12*
X910800Y303000D03*
D17*
X914000Y303000D03*
D24*
X916300Y303000D03*
D21*
X918500Y303000D03*
D17*
X920200Y303000D03*
D55*
X926600Y303000D03*
X934000Y303000D03*
D16*
X889400Y303200D03*
D32*
X897100Y303200D03*
D15*
X903800Y303200D03*
D21*
X905100Y303200D03*
D15*
X906600Y303200D03*
D42*
X908700Y303200D03*
X913700Y303200D03*
D35*
X916600Y303200D03*
D16*
X918600Y303200D03*
D17*
X920400Y303200D03*
D15*
X922600Y303200D03*
D53*
X926900Y303200D03*
D56*
X934200Y303200D03*
D16*
X889400Y303400D03*
D26*
X896600Y303400D03*
D19*
X905500Y303400D03*
D57*
X908600Y303400D03*
D12*
X911800Y303400D03*
D42*
X913900Y303400D03*
D24*
X916700Y303400D03*
D21*
X918700Y303400D03*
D17*
X920600Y303400D03*
D12*
X922800Y303400D03*
D50*
X927200Y303400D03*
D58*
X934300Y303400D03*
D16*
X889400Y303600D03*
D59*
X896300Y303600D03*
D42*
X908700Y303600D03*
D17*
X911400Y303600D03*
D42*
X914100Y303600D03*
D24*
X916900Y303600D03*
D21*
X918900Y303600D03*
D17*
X920800Y303600D03*
D12*
X923000Y303600D03*
D60*
X927500Y303600D03*
D49*
X934400Y303600D03*
D16*
X889400Y303800D03*
D61*
X896100Y303800D03*
D15*
X903800Y303800D03*
D57*
X908800Y303800D03*
D24*
X911500Y303800D03*
D57*
X914200Y303800D03*
D21*
X916700Y303800D03*
D15*
X919200Y303800D03*
D17*
X921000Y303800D03*
D12*
X923200Y303800D03*
D47*
X927600Y303800D03*
D62*
X934500Y303800D03*
D16*
X889400Y304000D03*
D63*
X896000Y304000D03*
D42*
X903700Y304000D03*
X908700Y304000D03*
D23*
X911700Y304000D03*
D57*
X914400Y304000D03*
D17*
X921200Y304000D03*
D21*
X923300Y304000D03*
D47*
X927800Y304000D03*
D46*
X934700Y304000D03*
D18*
X889500Y304200D03*
D64*
X895900Y304200D03*
D43*
X903800Y304200D03*
D30*
X908600Y304200D03*
D23*
X911900Y304200D03*
D17*
X914000Y304200D03*
D24*
X921300Y304200D03*
D21*
X923500Y304200D03*
D65*
X928100Y304200D03*
D66*
X934900Y304200D03*
D18*
X889500Y304400D03*
D67*
X895800Y304400D03*
D68*
X903800Y304400D03*
D23*
X908500Y304400D03*
D18*
X911700Y304400D03*
D15*
X912800Y304400D03*
D24*
X917700Y304400D03*
D16*
X919600Y304400D03*
D24*
X921500Y304400D03*
D21*
X923700Y304400D03*
D65*
X928300Y304400D03*
D69*
X935100Y304400D03*
D18*
X889500Y304600D03*
D70*
X895700Y304600D03*
D36*
X905400Y304600D03*
D16*
X915800Y304600D03*
D35*
X917800Y304600D03*
D16*
X919800Y304600D03*
D24*
X921700Y304600D03*
D21*
X923900Y304600D03*
D65*
X928500Y304600D03*
D43*
X935200Y304600D03*
D18*
X889500Y304800D03*
D71*
X895600Y304800D03*
D72*
X905300Y304800D03*
D19*
X910100Y304800D03*
D30*
X915400Y304800D03*
D24*
X917900Y304800D03*
D16*
X919800Y304800D03*
D24*
X921900Y304800D03*
D21*
X924100Y304800D03*
D65*
X928700Y304800D03*
D27*
X935400Y304800D03*
D17*
X889600Y305000D03*
D73*
X895600Y305000D03*
D67*
X905600Y305000D03*
D18*
X912900Y305000D03*
D42*
X915300Y305000D03*
D24*
X918100Y305000D03*
D16*
X920000Y305000D03*
D24*
X922100Y305000D03*
D21*
X924300Y305000D03*
D44*
X929100Y305000D03*
D42*
X935700Y305000D03*
D17*
X889600Y305200D03*
D73*
X895600Y305200D03*
D74*
X905600Y305200D03*
D35*
X912800Y305200D03*
D42*
X915500Y305200D03*
D24*
X918300Y305200D03*
D16*
X920200Y305200D03*
D17*
X922200Y305200D03*
D21*
X924500Y305200D03*
D44*
X929300Y305200D03*
D35*
X936000Y305200D03*
D24*
X889700Y305400D03*
D72*
X895500Y305400D03*
D64*
X905700Y305400D03*
D23*
X912900Y305400D03*
D42*
X915700Y305400D03*
D24*
X918500Y305400D03*
D21*
X920300Y305400D03*
D24*
X922300Y305400D03*
D21*
X924700Y305400D03*
D40*
X929700Y305400D03*
D17*
X936200Y305400D03*
D24*
X889700Y305600D03*
D75*
X895500Y305600D03*
D61*
X905700Y305600D03*
D30*
X913000Y305600D03*
D42*
X915900Y305600D03*
D24*
X918500Y305600D03*
D17*
X922600Y305600D03*
D12*
X925000Y305600D03*
D40*
X929900Y305600D03*
D24*
X889700Y305800D03*
D36*
X895400Y305800D03*
D59*
X905700Y305800D03*
D30*
X913200Y305800D03*
D42*
X916100Y305800D03*
D19*
X918100Y305800D03*
D35*
X922800Y305800D03*
D21*
X925100Y305800D03*
D38*
X930300Y305800D03*
D24*
X889700Y306000D03*
D36*
X895400Y306000D03*
D49*
X902600Y306000D03*
D19*
X905700Y306000D03*
X906900Y306000D03*
D69*
X909500Y306000D03*
D30*
X913400Y306000D03*
X916200Y306000D03*
D16*
X921000Y306000D03*
D24*
X923100Y306000D03*
D21*
X925300Y306000D03*
D75*
X930700Y306000D03*
D35*
X889800Y306200D03*
D38*
X895300Y306200D03*
D46*
X902100Y306200D03*
D69*
X909500Y306200D03*
D30*
X913600Y306200D03*
D19*
X915500Y306200D03*
D12*
X919600Y306200D03*
D18*
X921100Y306200D03*
D24*
X923300Y306200D03*
D12*
X925400Y306200D03*
D73*
X931200Y306200D03*
D35*
X889800Y306400D03*
D38*
X895300Y306400D03*
D66*
X901700Y306400D03*
D69*
X909500Y306400D03*
D23*
X913700Y306400D03*
D17*
X919200Y306400D03*
D18*
X921300Y306400D03*
D24*
X923500Y306400D03*
D12*
X925600Y306400D03*
D76*
X931900Y306400D03*
D35*
X889800Y306600D03*
D40*
X895300Y306600D03*
D77*
X901600Y306600D03*
D15*
X904600Y306600D03*
X905200Y306600D03*
D23*
X908700Y306600D03*
D17*
X910600Y306600D03*
D15*
X912000Y306600D03*
D19*
X913100Y306600D03*
D15*
X916600Y306600D03*
D21*
X917500Y306600D03*
D17*
X919400Y306600D03*
D18*
X921500Y306600D03*
D35*
X923600Y306600D03*
D21*
X925700Y306600D03*
D76*
X931900Y306600D03*
D35*
X889800Y306800D03*
D40*
X895300Y306800D03*
D43*
X901400Y306800D03*
D78*
X905500Y306800D03*
D24*
X908500Y306800D03*
D16*
X910600Y306800D03*
D19*
X912100Y306800D03*
D21*
X914900Y306800D03*
D35*
X916800Y306800D03*
D17*
X919600Y306800D03*
D18*
X921700Y306800D03*
D17*
X923800Y306800D03*
D12*
X926000Y306800D03*
D67*
X932000Y306800D03*
D23*
X889900Y307000D03*
D44*
X895300Y307000D03*
D14*
X901300Y307000D03*
D43*
X905400Y307000D03*
D17*
X908400Y307000D03*
D15*
X910600Y307000D03*
D21*
X912100Y307000D03*
D35*
X914400Y307000D03*
D16*
X916600Y307000D03*
D17*
X919800Y307000D03*
X921800Y307000D03*
X924000Y307000D03*
D21*
X926100Y307000D03*
D71*
X932200Y307000D03*
D23*
X889900Y307200D03*
D44*
X895300Y307200D03*
D14*
X901100Y307200D03*
D77*
X905200Y307200D03*
D17*
X908400Y307200D03*
D18*
X912100Y307200D03*
D35*
X914600Y307200D03*
D12*
X916600Y307200D03*
D17*
X920000Y307200D03*
D18*
X922100Y307200D03*
D12*
X924600Y307200D03*
D21*
X926300Y307200D03*
D71*
X932200Y307200D03*
D23*
X889900Y307400D03*
D44*
X895300Y307400D03*
D78*
X900900Y307400D03*
D66*
X905100Y307400D03*
D17*
X908400Y307400D03*
D24*
X912100Y307400D03*
D35*
X914800Y307400D03*
D19*
X916700Y307400D03*
D15*
X917800Y307400D03*
D24*
X920300Y307400D03*
D18*
X922300Y307400D03*
D16*
X924600Y307400D03*
D21*
X926500Y307400D03*
D33*
X932300Y307400D03*
D23*
X889900Y307600D03*
D44*
X895300Y307600D03*
D78*
X900700Y307600D03*
D46*
X904900Y307600D03*
D17*
X908600Y307600D03*
D35*
X912400Y307600D03*
D15*
X914400Y307600D03*
X915200Y307600D03*
D17*
X918000Y307600D03*
D21*
X920100Y307600D03*
D16*
X924800Y307600D03*
D12*
X926600Y307600D03*
D33*
X932300Y307600D03*
D30*
X890000Y307800D03*
D76*
X896900Y307800D03*
D62*
X904900Y307800D03*
D17*
X908800Y307800D03*
D16*
X912200Y307800D03*
D24*
X918100Y307800D03*
D12*
X923200Y307800D03*
D16*
X925000Y307800D03*
D19*
X926900Y307800D03*
D33*
X932300Y307800D03*
D30*
X890000Y308000D03*
D67*
X896800Y308000D03*
D49*
X904800Y308000D03*
D16*
X909000Y308000D03*
D23*
X918100Y308000D03*
D19*
X921300Y308000D03*
D24*
X923100Y308000D03*
D21*
X925300Y308000D03*
D19*
X927100Y308000D03*
D73*
X932400Y308000D03*
D42*
X890100Y308200D03*
D70*
X896700Y308200D03*
D58*
X904900Y308200D03*
D15*
X914200Y308200D03*
D19*
X915100Y308200D03*
D57*
X918000Y308200D03*
D23*
X920900Y308200D03*
D17*
X923200Y308200D03*
D12*
X925600Y308200D03*
D19*
X927100Y308200D03*
D73*
X932400Y308200D03*
D42*
X890100Y308400D03*
D33*
X896700Y308400D03*
D56*
X904800Y308400D03*
D53*
X916100Y308400D03*
D12*
X920000Y308400D03*
D19*
X920900Y308400D03*
D15*
X921600Y308400D03*
D12*
X925800Y308400D03*
D73*
X932400Y308400D03*
D42*
X890100Y308600D03*
D33*
X896700Y308600D03*
D53*
X904900Y308600D03*
D65*
X915700Y308600D03*
D21*
X925700Y308600D03*
D73*
X932400Y308600D03*
D57*
X890200Y308800D03*
D72*
X896700Y308800D03*
D65*
X905100Y308800D03*
D79*
X915200Y308800D03*
D15*
X923200Y308800D03*
X924000Y308800D03*
D23*
X925500Y308800D03*
D73*
X932400Y308800D03*
D57*
X890200Y309000D03*
D80*
X896600Y309000D03*
D44*
X905100Y309000D03*
D72*
X914700Y309000D03*
D47*
X923400Y309000D03*
D73*
X932400Y309000D03*
D57*
X890200Y309200D03*
D36*
X896600Y309200D03*
D79*
X905000Y309200D03*
D33*
X914700Y309200D03*
D47*
X923600Y309200D03*
D72*
X932500Y309200D03*
D78*
X890300Y309400D03*
D36*
X896600Y309400D03*
D40*
X905100Y309400D03*
D70*
X914700Y309400D03*
D68*
X922600Y309400D03*
D80*
X932600Y309400D03*
D78*
X890300Y309600D03*
D81*
X896600Y309600D03*
X905200Y309600D03*
D64*
X914500Y309600D03*
D57*
X921600Y309600D03*
D19*
X923700Y309600D03*
D80*
X932600Y309600D03*
D27*
X890400Y309800D03*
D81*
X896600Y309800D03*
D82*
X910100Y309800D03*
D80*
X932600Y309800D03*
D27*
X890400Y310000D03*
D81*
X896600Y310000D03*
D83*
X910000Y310000D03*
D72*
X932500Y310000D03*
D14*
X890500Y310200D03*
D40*
X896700Y310200D03*
D83*
X909800Y310200D03*
D26*
X930800Y310200D03*
D14*
X890500Y310400D03*
D84*
X905800Y310400D03*
D85*
X928300Y310400D03*
D43*
X890600Y310600D03*
D86*
X903300Y310600D03*
D87*
X916800Y310600D03*
D88*
X928200Y310600D03*
D43*
X890600Y310800D03*
D89*
X902800Y310800D03*
D57*
X917800Y310800D03*
D88*
X928200Y310800D03*
D43*
X890600Y311000D03*
D90*
X902300Y311000D03*
D42*
X917900Y311000D03*
D88*
X928200Y311000D03*
D69*
X890700Y311200D03*
D88*
X902000Y311200D03*
D18*
X913500Y311200D03*
D23*
X917900Y311200D03*
D88*
X928200Y311200D03*
D77*
X890800Y311400D03*
D91*
X901600Y311400D03*
D87*
X914000Y311400D03*
D23*
X917900Y311400D03*
D88*
X928200Y311400D03*
D77*
X890800Y311600D03*
D92*
X901400Y311600D03*
D49*
X913800Y311600D03*
D23*
X917900Y311600D03*
D88*
X928200Y311600D03*
D77*
X890800Y311800D03*
D93*
X901300Y311800D03*
D55*
X913400Y311800D03*
D24*
X917900Y311800D03*
D94*
X928100Y311800D03*
D66*
X890900Y312000D03*
D25*
X901100Y312000D03*
D65*
X913100Y312000D03*
D12*
X918000Y312000D03*
D94*
X928100Y312000D03*
D66*
X890900Y312200D03*
D54*
X901000Y312200D03*
D44*
X912900Y312200D03*
D82*
X927900Y312200D03*
D66*
X890900Y312400D03*
D51*
X900900Y312400D03*
D40*
X912700Y312400D03*
D95*
X927800Y312400D03*
D87*
X891000Y312600D03*
D45*
X900700Y312600D03*
D75*
X912700Y312600D03*
D96*
X927600Y312600D03*
D87*
X891000Y312800D03*
D39*
X900700Y312800D03*
D97*
X922600Y312800D03*
D46*
X891100Y313000D03*
D98*
X900600Y313000D03*
D99*
X922400Y313000D03*
D46*
X891100Y313200D03*
D98*
X900600Y313200D03*
D100*
X922300Y313200D03*
D68*
X891200Y313400D03*
D34*
X900600Y313400D03*
D101*
X922200Y313400D03*
D68*
X891200Y313600D03*
D32*
X900500Y313600D03*
D101*
X922200Y313600D03*
D62*
X891300Y313800D03*
D102*
X900500Y313800D03*
D103*
X922100Y313800D03*
D62*
X891300Y314000D03*
D102*
X900500Y314000D03*
D104*
X922000Y314000D03*
D49*
X891400Y314200D03*
D22*
X900500Y314200D03*
D105*
X921900Y314200D03*
D49*
X891400Y314400D03*
D22*
X900500Y314400D03*
D105*
X921900Y314400D03*
D49*
X891400Y314600D03*
D13*
X900600Y314600D03*
D105*
X921900Y314600D03*
D58*
X891500Y314800D03*
D106*
X900600Y314800D03*
D107*
X921800Y314800D03*
D58*
X891500Y315000D03*
D59*
X900500Y315000D03*
D108*
X921700Y315000D03*
D56*
X891600Y315200D03*
D59*
X900500Y315200D03*
D108*
X921700Y315200D03*
D56*
X891600Y315400D03*
D61*
X900500Y315400D03*
D108*
X921700Y315400D03*
D52*
X891700Y315600D03*
D63*
X900600Y315600D03*
D108*
X921700Y315600D03*
D52*
X891700Y315800D03*
D64*
X900500Y315800D03*
D108*
X921700Y315800D03*
D55*
X891800Y316000D03*
D74*
X900600Y316000D03*
D79*
X910000Y316000D03*
D109*
X926000Y316000D03*
D55*
X891800Y316200D03*
D74*
X900600Y316200D03*
D44*
X909900Y316200D03*
D110*
X926200Y316200D03*
D53*
X891900Y316400D03*
D70*
X900900Y316400D03*
D65*
X909700Y316400D03*
D111*
X926300Y316400D03*
D50*
X892000Y316600D03*
D70*
X900900Y316600D03*
D47*
X909600Y316600D03*
D21*
X914300Y316600D03*
D112*
X926400Y316600D03*
D50*
X892000Y316800D03*
D70*
X900900Y316800D03*
D47*
X909600Y316800D03*
D17*
X914200Y316800D03*
D112*
X926400Y316800D03*
D50*
X892000Y317000D03*
D71*
X901000Y317000D03*
D60*
X909500Y317000D03*
D35*
X914200Y317000D03*
D113*
X926500Y317000D03*
D60*
X892100Y317200D03*
D71*
X901000Y317200D03*
D60*
X909500Y317200D03*
D23*
X914300Y317200D03*
D114*
X926600Y317200D03*
D47*
X892200Y317400D03*
D33*
X901100Y317400D03*
D60*
X909500Y317400D03*
D42*
X914300Y317400D03*
D86*
X926700Y317400D03*
D65*
X892300Y317600D03*
D33*
X901100Y317600D03*
D60*
X909500Y317600D03*
D57*
X914400Y317600D03*
D86*
X926700Y317600D03*
D65*
X892300Y317800D03*
D73*
X901200Y317800D03*
D60*
X909500Y317800D03*
D78*
X914500Y317800D03*
D115*
X926800Y317800D03*
D116*
X892400Y318000D03*
D73*
X901200Y318000D03*
D53*
X909500Y318000D03*
D18*
X913700Y318000D03*
D17*
X915200Y318000D03*
D117*
X926900Y318000D03*
D116*
X892400Y318200D03*
D73*
X901200Y318200D03*
D50*
X909400Y318200D03*
D21*
X913700Y318200D03*
D17*
X915400Y318200D03*
D118*
X927000Y318200D03*
D44*
X892500Y318400D03*
D73*
X901400Y318400D03*
D53*
X909500Y318400D03*
D21*
X913700Y318400D03*
D24*
X915500Y318400D03*
D119*
X927100Y318400D03*
D44*
X892500Y318600D03*
D73*
X901400Y318600D03*
D50*
X909600Y318600D03*
D16*
X913800Y318600D03*
D35*
X915600Y318600D03*
D119*
X927100Y318600D03*
D79*
X892600Y318800D03*
D73*
X901400Y318800D03*
D50*
X909600Y318800D03*
D16*
X913800Y318800D03*
D24*
X915700Y318800D03*
D89*
X927200Y318800D03*
D40*
X892700Y319000D03*
D72*
X901500Y319000D03*
D53*
X909700Y319000D03*
D18*
X913900Y319000D03*
D24*
X915900Y319000D03*
D89*
X927200Y319000D03*
D40*
X892700Y319200D03*
D72*
X901700Y319200D03*
D53*
X909700Y319200D03*
D18*
X913900Y319200D03*
D24*
X915900Y319200D03*
D120*
X927300Y319200D03*
D81*
X892800Y319400D03*
D72*
X901700Y319400D03*
D53*
X909700Y319400D03*
D18*
X914100Y319400D03*
D24*
X916100Y319400D03*
D121*
X927400Y319400D03*
D81*
X892800Y319600D03*
D72*
X901900Y319600D03*
D55*
X909800Y319600D03*
D17*
X914200Y319600D03*
D24*
X916300Y319600D03*
D121*
X927400Y319600D03*
D38*
X892900Y319800D03*
D72*
X901900Y319800D03*
D55*
X910000Y319800D03*
D24*
X914300Y319800D03*
D17*
X916400Y319800D03*
D121*
X927400Y319800D03*
D38*
X892900Y320000D03*
D72*
X902100Y320000D03*
D55*
X910000Y320000D03*
D24*
X914500Y320000D03*
X916500Y320000D03*
D122*
X927500Y320000D03*
D38*
X892900Y320200D03*
D27*
X899200Y320200D03*
D68*
X904200Y320200D03*
D55*
X910200Y320200D03*
D24*
X914500Y320200D03*
D17*
X916600Y320200D03*
D122*
X927500Y320200D03*
D36*
X893000Y320400D03*
D42*
X899100Y320400D03*
D68*
X904400Y320400D03*
D52*
X910300Y320400D03*
D24*
X914700Y320400D03*
D15*
X916400Y320400D03*
D94*
X928100Y320400D03*
D75*
X893100Y320600D03*
D30*
X899000Y320600D03*
D46*
X904500Y320600D03*
D87*
X909600Y320600D03*
D39*
X930100Y320600D03*
D75*
X893100Y320800D03*
D23*
X898900Y320800D03*
D15*
X901000Y320800D03*
D68*
X904600Y320800D03*
D57*
X909000Y320800D03*
D102*
X930700Y320800D03*
D80*
X893200Y321000D03*
D35*
X899000Y321000D03*
D21*
X901100Y321000D03*
D68*
X904800Y321000D03*
D16*
X908400Y321000D03*
D15*
X915800Y321000D03*
D78*
X917700Y321000D03*
D15*
X919400Y321000D03*
D106*
X931200Y321000D03*
D80*
X893200Y321200D03*
D24*
X898900Y321200D03*
D18*
X901100Y321200D03*
D68*
X905000Y321200D03*
D15*
X908200Y321200D03*
D13*
X917800Y321200D03*
D63*
X931600Y321200D03*
D80*
X893200Y321400D03*
D17*
X899000Y321400D03*
D24*
X901100Y321400D03*
D46*
X905100Y321400D03*
D45*
X917700Y321400D03*
D74*
X931800Y321400D03*
D72*
X893300Y321600D03*
D18*
X898900Y321600D03*
D23*
X901100Y321600D03*
D46*
X905100Y321600D03*
D92*
X917400Y321600D03*
D71*
X932200Y321600D03*
D72*
X893300Y321800D03*
D16*
X899000Y321800D03*
D30*
X901200Y321800D03*
D66*
X905100Y321800D03*
D94*
X917300Y321800D03*
D73*
X932400Y321800D03*
X893400Y322000D03*
D16*
X899000Y322000D03*
D42*
X901300Y322000D03*
D43*
X905000Y322000D03*
D122*
X917300Y322000D03*
D72*
X932500Y322000D03*
D73*
X893400Y322200D03*
D16*
X899000Y322200D03*
D78*
X901300Y322200D03*
X904900Y322200D03*
D120*
X917300Y322200D03*
D75*
X932700Y322200D03*
D33*
X893500Y322400D03*
D12*
X899000Y322400D03*
D78*
X901300Y322400D03*
D57*
X904800Y322400D03*
D86*
X917300Y322400D03*
D36*
X932800Y322400D03*
D33*
X893500Y322600D03*
D12*
X899000Y322600D03*
D14*
X901500Y322600D03*
D30*
X904800Y322600D03*
D113*
X917300Y322600D03*
D38*
X932900Y322600D03*
D33*
X893500Y322800D03*
D19*
X899100Y322800D03*
D69*
X901500Y322800D03*
D30*
X905000Y322800D03*
D110*
X917400Y322800D03*
D81*
X933000Y322800D03*
D71*
X893600Y323000D03*
D19*
X899100Y323000D03*
D69*
X901500Y323000D03*
D123*
X916200Y323000D03*
D40*
X933100Y323000D03*
D71*
X893600Y323200D03*
D19*
X899100Y323200D03*
D77*
X901600Y323200D03*
D123*
X916400Y323200D03*
D79*
X933200Y323200D03*
D70*
X893700Y323400D03*
D66*
X901700Y323400D03*
D123*
X916600Y323400D03*
D79*
X933200Y323400D03*
D70*
X893700Y323600D03*
D87*
X901800Y323600D03*
D124*
X916700Y323600D03*
D44*
X933300Y323600D03*
D70*
X893700Y323800D03*
D87*
X901800Y323800D03*
D123*
X917000Y323800D03*
D116*
X933400Y323800D03*
D67*
X893800Y324000D03*
D68*
X902000Y324000D03*
D123*
X917000Y324000D03*
D65*
X933500Y324000D03*
D76*
X893900Y324200D03*
D68*
X902000Y324200D03*
D125*
X916900Y324200D03*
D47*
X933600Y324200D03*
D76*
X893900Y324400D03*
D62*
X902100Y324400D03*
D126*
X916900Y324400D03*
D60*
X933700Y324400D03*
D76*
X893900Y324600D03*
D49*
X902200Y324600D03*
D127*
X916800Y324600D03*
D50*
X933800Y324600D03*
D76*
X893900Y324800D03*
D58*
X902300Y324800D03*
D128*
X916900Y324800D03*
D53*
X933900Y324800D03*
D74*
X894000Y325000D03*
D56*
X902400Y325000D03*
D129*
X916900Y325000D03*
D55*
X934000Y325000D03*
D76*
X893900Y325200D03*
D56*
X902400Y325200D03*
D130*
X917000Y325200D03*
D52*
X934100Y325200D03*
D76*
X893900Y325400D03*
D55*
X902400Y325400D03*
D131*
X917100Y325400D03*
D52*
X934100Y325400D03*
D76*
X893900Y325600D03*
D53*
X902500Y325600D03*
D130*
X917200Y325600D03*
D52*
X934100Y325600D03*
D76*
X893900Y325800D03*
D53*
X902500Y325800D03*
D131*
X917300Y325800D03*
D52*
X934100Y325800D03*
D76*
X893900Y326000D03*
D50*
X902600Y326000D03*
D131*
X917500Y326000D03*
D52*
X934100Y326000D03*
D76*
X893900Y326200D03*
D47*
X902600Y326200D03*
D117*
X916500Y326200D03*
D21*
X927100Y326200D03*
D19*
X928100Y326200D03*
D53*
X933900Y326200D03*
D76*
X893900Y326400D03*
D47*
X902600Y326400D03*
D20*
X914400Y326400D03*
D17*
X923000Y326400D03*
D19*
X924700Y326400D03*
D47*
X933600Y326400D03*
D76*
X893900Y326600D03*
D65*
X902700Y326600D03*
D34*
X913400Y326600D03*
D65*
X933500Y326600D03*
D76*
X893900Y326800D03*
D116*
X902800Y326800D03*
D102*
X913100Y326800D03*
D65*
X933500Y326800D03*
D67*
X893800Y327000D03*
D44*
X902900Y327000D03*
D79*
X910800Y327000D03*
D69*
X917100Y327000D03*
D19*
X922900Y327000D03*
D15*
X924400Y327000D03*
D23*
X926300Y327000D03*
D19*
X927700Y327000D03*
D72*
X932500Y327000D03*
D67*
X893800Y327200D03*
D44*
X902900Y327200D03*
X910700Y327200D03*
D43*
X917000Y327200D03*
D91*
X928600Y327200D03*
D67*
X893800Y327400D03*
D79*
X903000Y327400D03*
D116*
X910800Y327400D03*
D18*
X916100Y327400D03*
D17*
X917800Y327400D03*
D88*
X928200Y327400D03*
D76*
X893900Y327600D03*
D79*
X903000Y327600D03*
D65*
X910900Y327600D03*
D16*
X916000Y327600D03*
X917800Y327600D03*
D83*
X928000Y327600D03*
D67*
X893800Y327800D03*
D40*
X903100Y327800D03*
D65*
X910900Y327800D03*
D12*
X916000Y327800D03*
D21*
X917900Y327800D03*
D83*
X928000Y327800D03*
D67*
X893800Y328000D03*
D40*
X903100Y328000D03*
D77*
X909600Y328000D03*
D42*
X913100Y328000D03*
D21*
X916100Y328000D03*
X917900Y328000D03*
D83*
X928000Y328000D03*
D67*
X893800Y328200D03*
D81*
X903200Y328200D03*
D43*
X909600Y328200D03*
D42*
X913300Y328200D03*
D12*
X916200Y328200D03*
X918000Y328200D03*
D83*
X928000Y328200D03*
D67*
X893800Y328400D03*
D38*
X903300Y328400D03*
D14*
X909500Y328400D03*
D23*
X913500Y328400D03*
D12*
X916200Y328400D03*
X918000Y328400D03*
D83*
X928000Y328400D03*
D67*
X893800Y328600D03*
D38*
X903300Y328600D03*
D14*
X909700Y328600D03*
D35*
X913600Y328600D03*
D19*
X916300Y328600D03*
D21*
X918100Y328600D03*
D83*
X928000Y328600D03*
D67*
X893800Y328800D03*
D36*
X903400Y328800D03*
D43*
X910000Y328800D03*
D24*
X913900Y328800D03*
D19*
X916300Y328800D03*
D12*
X918200Y328800D03*
D94*
X928100Y328800D03*
D76*
X893900Y329000D03*
D75*
X903500Y329000D03*
D69*
X910300Y329000D03*
D17*
X914200Y329000D03*
D19*
X916300Y329000D03*
D12*
X918200Y329000D03*
D94*
X928100Y329000D03*
D67*
X893800Y329200D03*
D75*
X903500Y329200D03*
D66*
X910500Y329200D03*
D17*
X914400Y329200D03*
D12*
X916400Y329200D03*
X918200Y329200D03*
D94*
X928100Y329200D03*
D76*
X893900Y329400D03*
D80*
X903600Y329400D03*
D87*
X910800Y329400D03*
D16*
X914800Y329400D03*
D21*
X916500Y329400D03*
X918300Y329400D03*
D88*
X928200Y329400D03*
D76*
X893900Y329600D03*
D80*
X903600Y329600D03*
D46*
X911100Y329600D03*
D16*
X915000Y329600D03*
D18*
X916300Y329600D03*
D21*
X918300Y329600D03*
D88*
X928200Y329600D03*
D76*
X893900Y329800D03*
D72*
X903700Y329800D03*
D49*
X911400Y329800D03*
D42*
X915900Y329800D03*
D16*
X918400Y329800D03*
D85*
X928300Y329800D03*
D76*
X893900Y330000D03*
D80*
X903800Y330000D03*
D49*
X911600Y330000D03*
D30*
X916200Y330000D03*
D17*
X918200Y330000D03*
D132*
X928400Y330000D03*
D76*
X893900Y330200D03*
D72*
X903900Y330200D03*
D56*
X911800Y330200D03*
D69*
X917300Y330200D03*
D132*
X928400Y330200D03*
D76*
X893900Y330400D03*
D73*
X904000Y330400D03*
D52*
X912100Y330400D03*
D43*
X917400Y330400D03*
D132*
X928400Y330400D03*
D76*
X893900Y330600D03*
D33*
X904100Y330600D03*
D55*
X912400Y330600D03*
D14*
X917700Y330600D03*
D132*
X928400Y330600D03*
D76*
X893900Y330800D03*
D33*
X904100Y330800D03*
D53*
X912700Y330800D03*
D27*
X917800Y330800D03*
D132*
X928400Y330800D03*
D76*
X893900Y331000D03*
D71*
X904200Y331000D03*
D53*
X912700Y331000D03*
D78*
X917900Y331000D03*
D132*
X928400Y331000D03*
D76*
X893900Y331200D03*
D71*
X904200Y331200D03*
D50*
X913000Y331200D03*
D42*
X918100Y331200D03*
D132*
X928400Y331200D03*
D74*
X894000Y331400D03*
D70*
X904300Y331400D03*
D60*
X913300Y331400D03*
D42*
X918100Y331400D03*
D132*
X928400Y331400D03*
D74*
X894000Y331600D03*
D67*
X904400Y331600D03*
D47*
X913400Y331600D03*
D42*
X918100Y331600D03*
D132*
X928400Y331600D03*
D74*
X894000Y331800D03*
D70*
X904500Y331800D03*
D73*
X914800Y331800D03*
D132*
X928400Y331800D03*
D74*
X894000Y332000D03*
D67*
X904600Y332000D03*
D73*
X914800Y332000D03*
D132*
X928400Y332000D03*
D74*
X894000Y332200D03*
D67*
X904600Y332200D03*
D72*
X914700Y332200D03*
D85*
X928300Y332200D03*
D74*
X894000Y332400D03*
D76*
X904700Y332400D03*
D80*
X914800Y332400D03*
D85*
X928300Y332400D03*
D64*
X894100Y332600D03*
D76*
X904700Y332600D03*
D80*
X914800Y332600D03*
D85*
X928300Y332600D03*
D64*
X894100Y332800D03*
D67*
X904800Y332800D03*
D75*
X914700Y332800D03*
D88*
X928200Y332800D03*
D64*
X894100Y333000D03*
D67*
X904800Y333000D03*
D38*
X914700Y333000D03*
D88*
X928200Y333000D03*
D64*
X894100Y333200D03*
D76*
X904900Y333200D03*
D38*
X914700Y333200D03*
D94*
X928100Y333200D03*
D63*
X894200Y333400D03*
D76*
X904900Y333400D03*
D79*
X914600Y333400D03*
D83*
X928000Y333400D03*
D63*
X894200Y333600D03*
D76*
X905100Y333600D03*
D116*
X914600Y333600D03*
D82*
X927900Y333600D03*
D63*
X894200Y333800D03*
D76*
X905100Y333800D03*
D47*
X914400Y333800D03*
D95*
X927800Y333800D03*
D63*
X894200Y334000D03*
D76*
X905300Y334000D03*
D50*
X914200Y334000D03*
D96*
X927600Y334000D03*
D61*
X894300Y334200D03*
D67*
X905400Y334200D03*
D52*
X914100Y334200D03*
D122*
X927500Y334200D03*
D61*
X894300Y334400D03*
D67*
X905600Y334400D03*
D58*
X913900Y334400D03*
D89*
X927200Y334400D03*
D133*
X894400Y334600D03*
D67*
X905600Y334600D03*
D62*
X913700Y334600D03*
D118*
X927000Y334600D03*
D133*
X894400Y334800D03*
D70*
X905700Y334800D03*
D46*
X913500Y334800D03*
D117*
X926900Y334800D03*
D59*
X894500Y335000D03*
D70*
X905900Y335000D03*
D77*
X913400Y335000D03*
D114*
X926600Y335000D03*
D106*
X894600Y335200D03*
D71*
X906000Y335200D03*
D27*
X913000Y335200D03*
D111*
X926300Y335200D03*
D134*
X894700Y335400D03*
D71*
X906000Y335400D03*
D23*
X912500Y335400D03*
D135*
X926100Y335400D03*
D13*
X894800Y335600D03*
D73*
X906200Y335600D03*
D16*
X912000Y335600D03*
D129*
X925700Y335600D03*
D26*
X895000Y335800D03*
D80*
X906200Y335800D03*
D136*
X925200Y335800D03*
D26*
X895000Y336000D03*
D53*
X905500Y336000D03*
D124*
X924700Y336000D03*
D32*
X895300Y336200D03*
D43*
X906400Y336200D03*
D137*
X924200Y336200D03*
D34*
X895400Y336400D03*
D138*
X923800Y336400D03*
D51*
X896100Y336600D03*
D21*
X903900Y336600D03*
D12*
X904800Y336600D03*
D139*
X923100Y336600D03*
D83*
X897800Y336800D03*
D97*
X922600Y336800D03*
D140*
X912900Y337000D03*
X912900Y337200D03*
X912900Y337400D03*
X912900Y337600D03*
X912900Y337800D03*
X912900Y338000D03*
X912900Y338200D03*
X912900Y338400D03*
X912900Y338600D03*
X912900Y338800D03*
X912900Y339000D03*
X912900Y339200D03*
X912900Y339400D03*
X912900Y339600D03*
X912900Y339800D03*
X912900Y340000D03*
X912900Y340200D03*
X912900Y340400D03*
X912900Y340600D03*
X912900Y340800D03*
X912900Y341000D03*
X912900Y341200D03*
X912900Y341400D03*
X912900Y341600D03*
X912900Y341800D03*
X912900Y342000D03*
X912900Y342200D03*
X912900Y342400D03*
X912900Y342600D03*
X912900Y342800D03*
X912900Y343000D03*
X912900Y343200D03*
X912900Y343400D03*
X912900Y343600D03*
X912900Y343800D03*
X912900Y344000D03*
X912900Y344200D03*
X912900Y344400D03*
X912900Y344600D03*
X912900Y344800D03*
X912900Y345000D03*
X912900Y345200D03*
X912900Y345400D03*
X912900Y345600D03*
X912900Y345800D03*
X912900Y346000D03*
X912900Y346200D03*
X912900Y346400D03*
X912900Y346600D03*
X912900Y346800D03*
X912900Y347000D03*
X912900Y347200D03*
X912900Y347400D03*
X912900Y347600D03*
X912900Y347800D03*
X912900Y348000D03*
X912900Y348200D03*
D141*
X888911Y299400D02*
X888822Y299400D01*
X888911Y299400D02*
X888928Y299402D01*
X888945Y299407D01*
X888960Y299415D01*
X888974Y299426D01*
X888985Y299440D01*
X888993Y299455D01*
X888998Y299472D01*
X889000Y299489D01*
X889000Y299711D01*
X888998Y299728D01*
X888993Y299745D01*
X888985Y299760D01*
X888974Y299774D01*
X888960Y299785D01*
X888945Y299793D01*
X888928Y299798D01*
X888911Y299800D01*
X888822Y299800D01*
X888696Y299456D02*
X888696Y299433D01*
X888696Y299456D02*
X888673Y299456D01*
X888673Y299433D01*
X888696Y299433D01*
X888696Y299611D02*
X888696Y299633D01*
X888673Y299633D01*
X888673Y299611D01*
X888696Y299611D01*
X888545Y299356D02*
X888368Y299844D01*
X888232Y299800D02*
X888232Y299511D01*
X888231Y299511D02*
X888229Y299492D01*
X888224Y299473D01*
X888216Y299456D01*
X888205Y299440D01*
X888191Y299426D01*
X888176Y299415D01*
X888158Y299407D01*
X888139Y299402D01*
X888120Y299400D01*
X888101Y299402D01*
X888082Y299407D01*
X888065Y299415D01*
X888049Y299426D01*
X888035Y299440D01*
X888024Y299456D01*
X888016Y299473D01*
X888011Y299492D01*
X888009Y299511D01*
X888009Y299800D01*
X887828Y299556D02*
X887717Y299511D01*
X887829Y299555D02*
X887840Y299562D01*
X887850Y299570D01*
X887858Y299581D01*
X887863Y299594D01*
X887865Y299607D01*
X887864Y299620D01*
X887860Y299633D01*
X887853Y299645D01*
X887843Y299654D01*
X887832Y299661D01*
X887819Y299666D01*
X887806Y299667D01*
X887805Y299667D02*
X887780Y299665D01*
X887754Y299661D01*
X887730Y299654D01*
X887706Y299645D01*
X887716Y299512D02*
X887705Y299505D01*
X887695Y299497D01*
X887687Y299486D01*
X887682Y299473D01*
X887680Y299460D01*
X887681Y299447D01*
X887685Y299434D01*
X887692Y299422D01*
X887702Y299413D01*
X887713Y299406D01*
X887726Y299401D01*
X887739Y299400D01*
X887770Y299402D01*
X887801Y299406D01*
X887832Y299413D01*
X887861Y299422D01*
X887483Y299400D02*
X887372Y299400D01*
X887483Y299400D02*
X887498Y299402D01*
X887512Y299407D01*
X887525Y299415D01*
X887535Y299425D01*
X887543Y299438D01*
X887548Y299452D01*
X887550Y299467D01*
X887549Y299467D02*
X887549Y299578D01*
X887547Y299597D01*
X887541Y299614D01*
X887532Y299630D01*
X887520Y299644D01*
X887505Y299655D01*
X887488Y299663D01*
X887469Y299667D01*
X887451Y299667D01*
X887432Y299663D01*
X887416Y299655D01*
X887400Y299644D01*
X887388Y299630D01*
X887379Y299614D01*
X887373Y299597D01*
X887371Y299578D01*
X887372Y299578D02*
X887372Y299533D01*
X887549Y299533D01*
X887224Y299400D02*
X887224Y299667D01*
X887091Y299667D01*
X887091Y299622D01*
X886952Y299556D02*
X886841Y299511D01*
X886953Y299555D02*
X886964Y299562D01*
X886974Y299570D01*
X886982Y299581D01*
X886987Y299594D01*
X886989Y299607D01*
X886988Y299620D01*
X886984Y299633D01*
X886977Y299645D01*
X886967Y299654D01*
X886956Y299661D01*
X886943Y299666D01*
X886930Y299667D01*
X886929Y299667D02*
X886904Y299665D01*
X886878Y299661D01*
X886854Y299654D01*
X886830Y299645D01*
X886840Y299512D02*
X886829Y299505D01*
X886819Y299497D01*
X886811Y299486D01*
X886806Y299473D01*
X886804Y299460D01*
X886805Y299447D01*
X886809Y299434D01*
X886816Y299422D01*
X886826Y299413D01*
X886837Y299406D01*
X886850Y299401D01*
X886863Y299400D01*
X886894Y299402D01*
X886925Y299406D01*
X886956Y299413D01*
X886985Y299422D01*
X886685Y299356D02*
X886508Y299844D01*
X886372Y299667D02*
X886372Y299267D01*
X886372Y299667D02*
X886261Y299667D01*
X886246Y299665D01*
X886232Y299660D01*
X886219Y299652D01*
X886209Y299642D01*
X886201Y299629D01*
X886196Y299615D01*
X886194Y299600D01*
X886195Y299600D02*
X886195Y299467D01*
X886194Y299467D02*
X886196Y299452D01*
X886201Y299438D01*
X886209Y299425D01*
X886219Y299415D01*
X886232Y299407D01*
X886246Y299402D01*
X886261Y299400D01*
X886372Y299400D01*
X886003Y299400D02*
X886070Y299667D01*
X885937Y299578D02*
X886003Y299400D01*
X885870Y299400D02*
X885937Y299578D01*
X885803Y299667D02*
X885870Y299400D01*
X885676Y299600D02*
X885675Y299630D01*
X885671Y299660D01*
X885664Y299689D01*
X885655Y299717D01*
X885643Y299745D01*
X885635Y299760D01*
X885625Y299774D01*
X885613Y299785D01*
X885598Y299793D01*
X885582Y299798D01*
X885565Y299800D01*
X885548Y299798D01*
X885532Y299793D01*
X885517Y299785D01*
X885505Y299774D01*
X885495Y299760D01*
X885487Y299745D01*
X885486Y299745D02*
X885475Y299717D01*
X885465Y299689D01*
X885458Y299660D01*
X885454Y299630D01*
X885453Y299600D01*
X885676Y299600D02*
X885675Y299570D01*
X885671Y299541D01*
X885664Y299511D01*
X885655Y299483D01*
X885643Y299456D01*
X885643Y299455D02*
X885635Y299440D01*
X885625Y299426D01*
X885613Y299415D01*
X885598Y299407D01*
X885582Y299402D01*
X885565Y299400D01*
X885486Y299455D02*
X885474Y299483D01*
X885465Y299511D01*
X885458Y299540D01*
X885454Y299570D01*
X885453Y299600D01*
X885487Y299455D02*
X885495Y299440D01*
X885505Y299426D01*
X885517Y299415D01*
X885532Y299407D01*
X885548Y299402D01*
X885565Y299400D01*
X885653Y299489D02*
X885476Y299711D01*
X885316Y299600D02*
X885315Y299630D01*
X885311Y299660D01*
X885304Y299689D01*
X885295Y299717D01*
X885283Y299745D01*
X885275Y299760D01*
X885265Y299774D01*
X885253Y299785D01*
X885238Y299793D01*
X885222Y299798D01*
X885205Y299800D01*
X885188Y299798D01*
X885172Y299793D01*
X885157Y299785D01*
X885145Y299774D01*
X885135Y299760D01*
X885127Y299745D01*
X885126Y299745D02*
X885115Y299717D01*
X885105Y299689D01*
X885098Y299660D01*
X885094Y299630D01*
X885093Y299600D01*
X885316Y299600D02*
X885315Y299570D01*
X885311Y299541D01*
X885304Y299511D01*
X885295Y299483D01*
X885283Y299456D01*
X885283Y299455D02*
X885275Y299440D01*
X885265Y299426D01*
X885253Y299415D01*
X885238Y299407D01*
X885222Y299402D01*
X885205Y299400D01*
X885126Y299455D02*
X885114Y299483D01*
X885105Y299511D01*
X885098Y299540D01*
X885094Y299570D01*
X885093Y299600D01*
X885127Y299455D02*
X885135Y299440D01*
X885145Y299426D01*
X885157Y299415D01*
X885172Y299407D01*
X885188Y299402D01*
X885205Y299400D01*
X885294Y299489D02*
X885116Y299711D01*
X884956Y299600D02*
X884955Y299630D01*
X884951Y299660D01*
X884944Y299689D01*
X884935Y299717D01*
X884923Y299745D01*
X884915Y299760D01*
X884905Y299774D01*
X884893Y299785D01*
X884878Y299793D01*
X884862Y299798D01*
X884845Y299800D01*
X884828Y299798D01*
X884812Y299793D01*
X884797Y299785D01*
X884785Y299774D01*
X884775Y299760D01*
X884767Y299745D01*
X884766Y299745D02*
X884755Y299717D01*
X884745Y299689D01*
X884738Y299660D01*
X884734Y299630D01*
X884733Y299600D01*
X884956Y299600D02*
X884955Y299570D01*
X884951Y299541D01*
X884944Y299511D01*
X884935Y299483D01*
X884923Y299456D01*
X884923Y299455D02*
X884915Y299440D01*
X884905Y299426D01*
X884893Y299415D01*
X884878Y299407D01*
X884862Y299402D01*
X884845Y299400D01*
X884766Y299455D02*
X884754Y299483D01*
X884745Y299511D01*
X884738Y299540D01*
X884734Y299570D01*
X884733Y299600D01*
X884767Y299455D02*
X884775Y299440D01*
X884785Y299426D01*
X884797Y299415D01*
X884812Y299407D01*
X884828Y299402D01*
X884845Y299400D01*
X884934Y299489D02*
X884756Y299711D01*
X884596Y299600D02*
X884595Y299630D01*
X884591Y299660D01*
X884584Y299689D01*
X884575Y299717D01*
X884563Y299745D01*
X884555Y299760D01*
X884545Y299774D01*
X884533Y299785D01*
X884518Y299793D01*
X884502Y299798D01*
X884485Y299800D01*
X884468Y299798D01*
X884452Y299793D01*
X884437Y299785D01*
X884425Y299774D01*
X884415Y299760D01*
X884407Y299745D01*
X884406Y299745D02*
X884395Y299717D01*
X884385Y299689D01*
X884378Y299660D01*
X884374Y299630D01*
X884373Y299600D01*
X884596Y299600D02*
X884595Y299570D01*
X884591Y299541D01*
X884584Y299511D01*
X884575Y299483D01*
X884563Y299456D01*
X884563Y299455D02*
X884555Y299440D01*
X884545Y299426D01*
X884533Y299415D01*
X884518Y299407D01*
X884502Y299402D01*
X884485Y299400D01*
X884406Y299455D02*
X884394Y299483D01*
X884385Y299511D01*
X884378Y299540D01*
X884374Y299570D01*
X884373Y299600D01*
X884407Y299455D02*
X884415Y299440D01*
X884425Y299426D01*
X884437Y299415D01*
X884452Y299407D01*
X884468Y299402D01*
X884485Y299400D01*
X884574Y299489D02*
X884396Y299711D01*
X884072Y299844D02*
X884250Y299356D01*
X883936Y299400D02*
X883936Y299800D01*
X883825Y299800D01*
X883806Y299798D01*
X883787Y299793D01*
X883770Y299785D01*
X883754Y299774D01*
X883740Y299760D01*
X883729Y299745D01*
X883721Y299727D01*
X883716Y299708D01*
X883714Y299689D01*
X883714Y299511D01*
X883716Y299492D01*
X883721Y299473D01*
X883729Y299456D01*
X883740Y299440D01*
X883754Y299426D01*
X883770Y299415D01*
X883787Y299407D01*
X883806Y299402D01*
X883825Y299400D01*
X883936Y299400D01*
X883566Y299489D02*
X883566Y299578D01*
X883564Y299597D01*
X883558Y299614D01*
X883549Y299630D01*
X883537Y299644D01*
X883522Y299655D01*
X883505Y299663D01*
X883486Y299667D01*
X883468Y299667D01*
X883449Y299663D01*
X883433Y299655D01*
X883417Y299644D01*
X883405Y299630D01*
X883396Y299614D01*
X883390Y299597D01*
X883388Y299578D01*
X883388Y299489D01*
X883390Y299470D01*
X883396Y299453D01*
X883405Y299437D01*
X883417Y299423D01*
X883433Y299412D01*
X883449Y299404D01*
X883468Y299400D01*
X883486Y299400D01*
X883505Y299404D01*
X883522Y299412D01*
X883537Y299423D01*
X883549Y299437D01*
X883558Y299453D01*
X883564Y299470D01*
X883566Y299489D01*
X883262Y299667D02*
X883195Y299400D01*
X883129Y299578D01*
X883062Y299400D01*
X882995Y299667D01*
X882858Y299667D02*
X882858Y299400D01*
X882858Y299667D02*
X882747Y299667D01*
X882732Y299665D01*
X882718Y299660D01*
X882705Y299652D01*
X882695Y299642D01*
X882687Y299629D01*
X882682Y299615D01*
X882680Y299600D01*
X882680Y299400D01*
X882525Y299467D02*
X882525Y299800D01*
X882526Y299467D02*
X882524Y299452D01*
X882519Y299438D01*
X882511Y299425D01*
X882501Y299415D01*
X882488Y299407D01*
X882474Y299402D01*
X882459Y299400D01*
X882342Y299489D02*
X882342Y299578D01*
X882340Y299597D01*
X882334Y299614D01*
X882325Y299630D01*
X882313Y299644D01*
X882298Y299655D01*
X882281Y299663D01*
X882262Y299667D01*
X882244Y299667D01*
X882225Y299663D01*
X882209Y299655D01*
X882193Y299644D01*
X882181Y299630D01*
X882172Y299614D01*
X882166Y299597D01*
X882164Y299578D01*
X882164Y299489D01*
X882166Y299470D01*
X882172Y299453D01*
X882181Y299437D01*
X882193Y299423D01*
X882209Y299412D01*
X882225Y299404D01*
X882244Y299400D01*
X882262Y299400D01*
X882281Y299404D01*
X882298Y299412D01*
X882313Y299423D01*
X882325Y299437D01*
X882334Y299453D01*
X882340Y299470D01*
X882342Y299489D01*
X881953Y299556D02*
X881853Y299556D01*
X881953Y299556D02*
X881969Y299554D01*
X881985Y299549D01*
X881999Y299541D01*
X882011Y299530D01*
X882021Y299517D01*
X882027Y299502D01*
X882031Y299486D01*
X882031Y299470D01*
X882027Y299454D01*
X882021Y299439D01*
X882011Y299426D01*
X881999Y299415D01*
X881985Y299407D01*
X881969Y299402D01*
X881953Y299400D01*
X881853Y299400D01*
X881853Y299600D01*
X881852Y299600D02*
X881854Y299615D01*
X881859Y299629D01*
X881867Y299642D01*
X881877Y299652D01*
X881890Y299660D01*
X881904Y299665D01*
X881919Y299667D01*
X881920Y299667D02*
X882008Y299667D01*
X881529Y299800D02*
X881529Y299400D01*
X881640Y299400D01*
X881655Y299402D01*
X881669Y299407D01*
X881682Y299415D01*
X881692Y299425D01*
X881700Y299438D01*
X881705Y299452D01*
X881707Y299467D01*
X881707Y299600D01*
X881705Y299615D01*
X881700Y299629D01*
X881692Y299642D01*
X881682Y299652D01*
X881669Y299660D01*
X881655Y299665D01*
X881640Y299667D01*
X881529Y299667D01*
X881348Y299556D02*
X881237Y299511D01*
X881349Y299555D02*
X881360Y299562D01*
X881370Y299570D01*
X881378Y299581D01*
X881383Y299594D01*
X881385Y299607D01*
X881384Y299620D01*
X881380Y299633D01*
X881373Y299645D01*
X881363Y299654D01*
X881352Y299661D01*
X881339Y299666D01*
X881326Y299667D01*
X881301Y299665D01*
X881275Y299661D01*
X881251Y299654D01*
X881227Y299645D01*
X881237Y299512D02*
X881226Y299505D01*
X881216Y299497D01*
X881208Y299486D01*
X881203Y299473D01*
X881201Y299460D01*
X881202Y299447D01*
X881206Y299434D01*
X881213Y299422D01*
X881223Y299413D01*
X881234Y299406D01*
X881247Y299401D01*
X881260Y299400D01*
X881259Y299400D02*
X881290Y299402D01*
X881321Y299406D01*
X881352Y299413D01*
X881381Y299422D01*
X881082Y299356D02*
X880904Y299844D01*
X880768Y299800D02*
X880768Y299400D01*
X880590Y299400D01*
X880393Y299556D02*
X880293Y299556D01*
X880393Y299556D02*
X880409Y299554D01*
X880425Y299549D01*
X880439Y299541D01*
X880451Y299530D01*
X880461Y299517D01*
X880467Y299502D01*
X880471Y299486D01*
X880471Y299470D01*
X880467Y299454D01*
X880461Y299439D01*
X880451Y299426D01*
X880439Y299415D01*
X880425Y299407D01*
X880409Y299402D01*
X880393Y299400D01*
X880293Y299400D01*
X880293Y299600D01*
X880295Y299615D01*
X880300Y299629D01*
X880308Y299642D01*
X880318Y299652D01*
X880331Y299660D01*
X880345Y299665D01*
X880360Y299667D01*
X880448Y299667D01*
X880173Y299667D02*
X880040Y299667D01*
X880129Y299800D02*
X880129Y299467D01*
X880127Y299452D01*
X880122Y299438D01*
X880114Y299425D01*
X880104Y299415D01*
X880091Y299407D01*
X880077Y299402D01*
X880062Y299400D01*
X880040Y299400D01*
X879851Y299400D02*
X879762Y299400D01*
X879851Y299400D02*
X879866Y299402D01*
X879880Y299407D01*
X879893Y299415D01*
X879903Y299425D01*
X879911Y299438D01*
X879916Y299452D01*
X879918Y299467D01*
X879918Y299600D01*
X879916Y299615D01*
X879911Y299629D01*
X879903Y299642D01*
X879893Y299652D01*
X879880Y299660D01*
X879866Y299665D01*
X879851Y299667D01*
X879762Y299667D01*
X879630Y299800D02*
X879630Y299400D01*
X879630Y299667D02*
X879519Y299667D01*
X879504Y299665D01*
X879490Y299660D01*
X879477Y299652D01*
X879467Y299642D01*
X879459Y299629D01*
X879454Y299615D01*
X879452Y299600D01*
X879452Y299400D01*
X879272Y299701D02*
X879279Y299715D01*
X879282Y299730D01*
X879281Y299745D01*
X879277Y299760D01*
X879270Y299773D01*
X879259Y299784D01*
X879247Y299793D01*
X879232Y299798D01*
X879217Y299800D01*
X879273Y299700D02*
X879084Y299400D01*
X879162Y299701D02*
X879155Y299715D01*
X879152Y299730D01*
X879153Y299745D01*
X879157Y299760D01*
X879164Y299773D01*
X879175Y299784D01*
X879187Y299793D01*
X879202Y299798D01*
X879217Y299800D01*
X879307Y299467D02*
X879305Y299452D01*
X879300Y299438D01*
X879292Y299425D01*
X879282Y299415D01*
X879269Y299407D01*
X879255Y299402D01*
X879240Y299400D01*
X879307Y299467D02*
X879306Y299479D01*
X879302Y299490D01*
X879296Y299501D01*
X879295Y299500D02*
X879162Y299700D01*
X879206Y299411D02*
X879217Y299405D01*
X879228Y299401D01*
X879240Y299400D01*
X879206Y299411D02*
X879040Y299533D01*
X878823Y299400D02*
X878806Y299402D01*
X878789Y299407D01*
X878774Y299415D01*
X878760Y299426D01*
X878749Y299440D01*
X878741Y299455D01*
X878736Y299472D01*
X878734Y299489D01*
X878823Y299400D02*
X878848Y299402D01*
X878872Y299406D01*
X878895Y299414D01*
X878917Y299425D01*
X878938Y299439D01*
X878956Y299456D01*
X878945Y299711D02*
X878943Y299728D01*
X878938Y299745D01*
X878930Y299760D01*
X878919Y299774D01*
X878905Y299785D01*
X878890Y299793D01*
X878873Y299798D01*
X878856Y299800D01*
X878835Y299799D01*
X878813Y299794D01*
X878793Y299788D01*
X878774Y299778D01*
X878756Y299767D01*
X878901Y299633D02*
X878916Y299645D01*
X878928Y299659D01*
X878937Y299675D01*
X878943Y299692D01*
X878945Y299711D01*
X878778Y299567D02*
X878763Y299555D01*
X878751Y299542D01*
X878742Y299525D01*
X878736Y299508D01*
X878734Y299489D01*
X878778Y299567D02*
X878901Y299633D01*
X878595Y299800D02*
X878595Y299400D01*
X878595Y299800D02*
X878484Y299800D01*
X878465Y299798D01*
X878446Y299793D01*
X878429Y299785D01*
X878413Y299774D01*
X878399Y299760D01*
X878388Y299745D01*
X878380Y299727D01*
X878375Y299708D01*
X878373Y299689D01*
X878375Y299670D01*
X878380Y299651D01*
X878388Y299634D01*
X878399Y299618D01*
X878413Y299604D01*
X878429Y299593D01*
X878446Y299585D01*
X878465Y299580D01*
X878484Y299578D01*
X878595Y299578D01*
X878462Y299578D02*
X878373Y299400D01*
X878250Y299356D02*
X878072Y299356D01*
X877934Y299622D02*
X877822Y299622D01*
X877803Y299620D01*
X877784Y299615D01*
X877767Y299607D01*
X877751Y299596D01*
X877737Y299582D01*
X877726Y299567D01*
X877718Y299549D01*
X877713Y299530D01*
X877711Y299511D01*
X877713Y299492D01*
X877718Y299473D01*
X877726Y299456D01*
X877737Y299440D01*
X877751Y299426D01*
X877767Y299415D01*
X877784Y299407D01*
X877803Y299402D01*
X877822Y299400D01*
X877934Y299400D01*
X877934Y299800D01*
X877822Y299800D01*
X877803Y299798D01*
X877786Y299792D01*
X877770Y299783D01*
X877756Y299771D01*
X877745Y299756D01*
X877737Y299739D01*
X877733Y299720D01*
X877733Y299702D01*
X877737Y299683D01*
X877745Y299667D01*
X877756Y299651D01*
X877770Y299639D01*
X877786Y299630D01*
X877803Y299624D01*
X877822Y299622D01*
X877590Y299578D02*
X877590Y299489D01*
X877590Y299578D02*
X877588Y299597D01*
X877582Y299614D01*
X877573Y299630D01*
X877561Y299644D01*
X877546Y299655D01*
X877529Y299663D01*
X877510Y299667D01*
X877492Y299667D01*
X877473Y299663D01*
X877457Y299655D01*
X877441Y299644D01*
X877429Y299630D01*
X877420Y299614D01*
X877414Y299597D01*
X877412Y299578D01*
X877412Y299489D01*
X877414Y299470D01*
X877420Y299453D01*
X877429Y299437D01*
X877441Y299423D01*
X877457Y299412D01*
X877473Y299404D01*
X877492Y299400D01*
X877510Y299400D01*
X877529Y299404D01*
X877546Y299412D01*
X877561Y299423D01*
X877573Y299437D01*
X877582Y299453D01*
X877588Y299470D01*
X877590Y299489D01*
X877201Y299556D02*
X877101Y299556D01*
X877201Y299556D02*
X877217Y299554D01*
X877233Y299549D01*
X877247Y299541D01*
X877259Y299530D01*
X877269Y299517D01*
X877275Y299502D01*
X877279Y299486D01*
X877279Y299470D01*
X877275Y299454D01*
X877269Y299439D01*
X877259Y299426D01*
X877247Y299415D01*
X877233Y299407D01*
X877217Y299402D01*
X877201Y299400D01*
X877101Y299400D01*
X877101Y299600D01*
X877103Y299615D01*
X877108Y299629D01*
X877116Y299642D01*
X877126Y299652D01*
X877139Y299660D01*
X877153Y299665D01*
X877168Y299667D01*
X877257Y299667D01*
X876941Y299667D02*
X876941Y299400D01*
X876941Y299667D02*
X876808Y299667D01*
X876808Y299622D01*
X876525Y299800D02*
X876525Y299400D01*
X876636Y299400D01*
X876651Y299402D01*
X876665Y299407D01*
X876678Y299415D01*
X876688Y299425D01*
X876696Y299438D01*
X876701Y299452D01*
X876703Y299467D01*
X876703Y299600D01*
X876701Y299615D01*
X876696Y299629D01*
X876688Y299642D01*
X876678Y299652D01*
X876665Y299660D01*
X876651Y299665D01*
X876636Y299667D01*
X876525Y299667D01*
X876390Y299356D02*
X876212Y299844D01*
X876075Y299667D02*
X876075Y299400D01*
X876075Y299667D02*
X875875Y299667D01*
X875860Y299665D01*
X875846Y299660D01*
X875833Y299652D01*
X875823Y299642D01*
X875815Y299629D01*
X875810Y299615D01*
X875808Y299600D01*
X875808Y299400D01*
X875941Y299400D02*
X875941Y299667D01*
X875581Y299556D02*
X875481Y299556D01*
X875581Y299556D02*
X875597Y299554D01*
X875613Y299549D01*
X875627Y299541D01*
X875639Y299530D01*
X875649Y299517D01*
X875655Y299502D01*
X875659Y299486D01*
X875659Y299470D01*
X875655Y299454D01*
X875649Y299439D01*
X875639Y299426D01*
X875627Y299415D01*
X875613Y299407D01*
X875597Y299402D01*
X875581Y299400D01*
X875481Y299400D01*
X875481Y299600D01*
X875483Y299615D01*
X875488Y299629D01*
X875496Y299642D01*
X875506Y299652D01*
X875519Y299660D01*
X875533Y299665D01*
X875548Y299667D01*
X875637Y299667D01*
X875329Y299667D02*
X875329Y299400D01*
X875340Y299778D02*
X875340Y299800D01*
X875318Y299800D01*
X875318Y299778D01*
X875340Y299778D01*
X875178Y299667D02*
X875178Y299400D01*
X875178Y299667D02*
X875067Y299667D01*
X875052Y299665D01*
X875038Y299660D01*
X875025Y299652D01*
X875015Y299642D01*
X875007Y299629D01*
X875002Y299615D01*
X875000Y299600D01*
X875000Y299400D01*
X874860Y299400D02*
X874860Y299422D01*
X874838Y299422D01*
X874838Y299400D01*
X874860Y299400D01*
X874697Y299400D02*
X874697Y299800D01*
X874697Y299400D02*
X874586Y299400D01*
X874571Y299402D01*
X874557Y299407D01*
X874544Y299415D01*
X874534Y299425D01*
X874526Y299438D01*
X874521Y299452D01*
X874519Y299467D01*
X874520Y299467D02*
X874520Y299600D01*
X874519Y299600D02*
X874521Y299615D01*
X874526Y299629D01*
X874534Y299642D01*
X874544Y299652D01*
X874557Y299660D01*
X874571Y299665D01*
X874586Y299667D01*
X874697Y299667D01*
X874371Y299667D02*
X874371Y299400D01*
X874371Y299667D02*
X874171Y299667D01*
X874156Y299665D01*
X874142Y299660D01*
X874129Y299652D01*
X874119Y299642D01*
X874111Y299629D01*
X874106Y299615D01*
X874104Y299600D01*
X874104Y299400D01*
X874237Y299400D02*
X874237Y299667D01*
X873941Y299667D02*
X873941Y299267D01*
X873941Y299667D02*
X873830Y299667D01*
X873815Y299665D01*
X873801Y299660D01*
X873788Y299652D01*
X873778Y299642D01*
X873770Y299629D01*
X873765Y299615D01*
X873763Y299600D01*
X873764Y299600D02*
X873764Y299467D01*
X873763Y299467D02*
X873765Y299452D01*
X873770Y299438D01*
X873778Y299425D01*
X873788Y299415D01*
X873801Y299407D01*
X873815Y299402D01*
X873830Y299400D01*
X873941Y299400D01*
D10*
X150800Y180442D02*
X49200Y180442D01*
X49200Y219558D02*
X150800Y219558D01*
X150800Y180442D01*
X49200Y193650D02*
X49358Y193652D01*
X49517Y193658D01*
X49675Y193668D01*
X49832Y193682D01*
X49990Y193699D01*
X50146Y193721D01*
X50303Y193746D01*
X50458Y193776D01*
X50613Y193809D01*
X50767Y193846D01*
X50920Y193887D01*
X51072Y193932D01*
X51222Y193981D01*
X51372Y194033D01*
X51520Y194089D01*
X51667Y194149D01*
X51812Y194212D01*
X51955Y194279D01*
X52097Y194349D01*
X52237Y194423D01*
X52375Y194501D01*
X52511Y194582D01*
X52645Y194666D01*
X52777Y194753D01*
X52907Y194844D01*
X53034Y194938D01*
X53159Y195035D01*
X53282Y195136D01*
X53402Y195239D01*
X53519Y195345D01*
X53634Y195454D01*
X53746Y195566D01*
X53855Y195681D01*
X53961Y195798D01*
X54064Y195918D01*
X54165Y196041D01*
X54262Y196166D01*
X54356Y196293D01*
X54447Y196423D01*
X54534Y196555D01*
X54618Y196689D01*
X54699Y196825D01*
X54777Y196963D01*
X54851Y197103D01*
X54921Y197245D01*
X54988Y197388D01*
X55051Y197533D01*
X55111Y197680D01*
X55167Y197828D01*
X55219Y197978D01*
X55268Y198128D01*
X55313Y198280D01*
X55354Y198433D01*
X55391Y198587D01*
X55424Y198742D01*
X55454Y198897D01*
X55479Y199054D01*
X55501Y199210D01*
X55518Y199368D01*
X55532Y199525D01*
X55542Y199683D01*
X55548Y199842D01*
X55550Y200000D01*
X55548Y200158D01*
X55542Y200317D01*
X55532Y200475D01*
X55518Y200632D01*
X55501Y200790D01*
X55479Y200946D01*
X55454Y201103D01*
X55424Y201258D01*
X55391Y201413D01*
X55354Y201567D01*
X55313Y201720D01*
X55268Y201872D01*
X55219Y202022D01*
X55167Y202172D01*
X55111Y202320D01*
X55051Y202467D01*
X54988Y202612D01*
X54921Y202755D01*
X54851Y202897D01*
X54777Y203037D01*
X54699Y203175D01*
X54618Y203311D01*
X54534Y203445D01*
X54447Y203577D01*
X54356Y203707D01*
X54262Y203834D01*
X54165Y203959D01*
X54064Y204082D01*
X53961Y204202D01*
X53855Y204319D01*
X53746Y204434D01*
X53634Y204546D01*
X53519Y204655D01*
X53402Y204761D01*
X53282Y204864D01*
X53159Y204965D01*
X53034Y205062D01*
X52907Y205156D01*
X52777Y205247D01*
X52645Y205334D01*
X52511Y205418D01*
X52375Y205499D01*
X52237Y205577D01*
X52097Y205651D01*
X51955Y205721D01*
X51812Y205788D01*
X51667Y205851D01*
X51520Y205911D01*
X51372Y205967D01*
X51222Y206019D01*
X51072Y206068D01*
X50920Y206113D01*
X50767Y206154D01*
X50613Y206191D01*
X50458Y206224D01*
X50303Y206254D01*
X50146Y206279D01*
X49990Y206301D01*
X49832Y206318D01*
X49675Y206332D01*
X49517Y206342D01*
X49358Y206348D01*
X49200Y206350D01*
D142*
X49200Y216002D02*
X150800Y216002D01*
D10*
X49200Y219558D02*
X49200Y206350D01*
X49200Y193650D02*
X49200Y180442D01*
X274200Y180442D02*
X375800Y180442D01*
X375800Y219558D02*
X274200Y219558D01*
X375800Y219558D02*
X375800Y180442D01*
X274200Y193650D02*
X274358Y193652D01*
X274517Y193658D01*
X274675Y193668D01*
X274832Y193682D01*
X274990Y193699D01*
X275146Y193721D01*
X275303Y193746D01*
X275458Y193776D01*
X275613Y193809D01*
X275767Y193846D01*
X275920Y193887D01*
X276072Y193932D01*
X276222Y193981D01*
X276372Y194033D01*
X276520Y194089D01*
X276667Y194149D01*
X276812Y194212D01*
X276955Y194279D01*
X277097Y194349D01*
X277237Y194423D01*
X277375Y194501D01*
X277511Y194582D01*
X277645Y194666D01*
X277777Y194753D01*
X277907Y194844D01*
X278034Y194938D01*
X278159Y195035D01*
X278282Y195136D01*
X278402Y195239D01*
X278519Y195345D01*
X278634Y195454D01*
X278746Y195566D01*
X278855Y195681D01*
X278961Y195798D01*
X279064Y195918D01*
X279165Y196041D01*
X279262Y196166D01*
X279356Y196293D01*
X279447Y196423D01*
X279534Y196555D01*
X279618Y196689D01*
X279699Y196825D01*
X279777Y196963D01*
X279851Y197103D01*
X279921Y197245D01*
X279988Y197388D01*
X280051Y197533D01*
X280111Y197680D01*
X280167Y197828D01*
X280219Y197978D01*
X280268Y198128D01*
X280313Y198280D01*
X280354Y198433D01*
X280391Y198587D01*
X280424Y198742D01*
X280454Y198897D01*
X280479Y199054D01*
X280501Y199210D01*
X280518Y199368D01*
X280532Y199525D01*
X280542Y199683D01*
X280548Y199842D01*
X280550Y200000D01*
X280548Y200158D01*
X280542Y200317D01*
X280532Y200475D01*
X280518Y200632D01*
X280501Y200790D01*
X280479Y200946D01*
X280454Y201103D01*
X280424Y201258D01*
X280391Y201413D01*
X280354Y201567D01*
X280313Y201720D01*
X280268Y201872D01*
X280219Y202022D01*
X280167Y202172D01*
X280111Y202320D01*
X280051Y202467D01*
X279988Y202612D01*
X279921Y202755D01*
X279851Y202897D01*
X279777Y203037D01*
X279699Y203175D01*
X279618Y203311D01*
X279534Y203445D01*
X279447Y203577D01*
X279356Y203707D01*
X279262Y203834D01*
X279165Y203959D01*
X279064Y204082D01*
X278961Y204202D01*
X278855Y204319D01*
X278746Y204434D01*
X278634Y204546D01*
X278519Y204655D01*
X278402Y204761D01*
X278282Y204864D01*
X278159Y204965D01*
X278034Y205062D01*
X277907Y205156D01*
X277777Y205247D01*
X277645Y205334D01*
X277511Y205418D01*
X277375Y205499D01*
X277237Y205577D01*
X277097Y205651D01*
X276955Y205721D01*
X276812Y205788D01*
X276667Y205851D01*
X276520Y205911D01*
X276372Y205967D01*
X276222Y206019D01*
X276072Y206068D01*
X275920Y206113D01*
X275767Y206154D01*
X275613Y206191D01*
X275458Y206224D01*
X275303Y206254D01*
X275146Y206279D01*
X274990Y206301D01*
X274832Y206318D01*
X274675Y206332D01*
X274517Y206342D01*
X274358Y206348D01*
X274200Y206350D01*
D142*
X274200Y216002D02*
X375800Y216002D01*
D10*
X274200Y219558D02*
X274200Y206350D01*
X274200Y193650D02*
X274200Y180442D01*
X499200Y180442D02*
X600800Y180442D01*
X600800Y219558D02*
X499200Y219558D01*
X600800Y219558D02*
X600800Y180442D01*
X499200Y193650D02*
X499358Y193652D01*
X499517Y193658D01*
X499675Y193668D01*
X499832Y193682D01*
X499990Y193699D01*
X500146Y193721D01*
X500303Y193746D01*
X500458Y193776D01*
X500613Y193809D01*
X500767Y193846D01*
X500920Y193887D01*
X501072Y193932D01*
X501222Y193981D01*
X501372Y194033D01*
X501520Y194089D01*
X501667Y194149D01*
X501812Y194212D01*
X501955Y194279D01*
X502097Y194349D01*
X502237Y194423D01*
X502375Y194501D01*
X502511Y194582D01*
X502645Y194666D01*
X502777Y194753D01*
X502907Y194844D01*
X503034Y194938D01*
X503159Y195035D01*
X503282Y195136D01*
X503402Y195239D01*
X503519Y195345D01*
X503634Y195454D01*
X503746Y195566D01*
X503855Y195681D01*
X503961Y195798D01*
X504064Y195918D01*
X504165Y196041D01*
X504262Y196166D01*
X504356Y196293D01*
X504447Y196423D01*
X504534Y196555D01*
X504618Y196689D01*
X504699Y196825D01*
X504777Y196963D01*
X504851Y197103D01*
X504921Y197245D01*
X504988Y197388D01*
X505051Y197533D01*
X505111Y197680D01*
X505167Y197828D01*
X505219Y197978D01*
X505268Y198128D01*
X505313Y198280D01*
X505354Y198433D01*
X505391Y198587D01*
X505424Y198742D01*
X505454Y198897D01*
X505479Y199054D01*
X505501Y199210D01*
X505518Y199368D01*
X505532Y199525D01*
X505542Y199683D01*
X505548Y199842D01*
X505550Y200000D01*
X505548Y200158D01*
X505542Y200317D01*
X505532Y200475D01*
X505518Y200632D01*
X505501Y200790D01*
X505479Y200946D01*
X505454Y201103D01*
X505424Y201258D01*
X505391Y201413D01*
X505354Y201567D01*
X505313Y201720D01*
X505268Y201872D01*
X505219Y202022D01*
X505167Y202172D01*
X505111Y202320D01*
X505051Y202467D01*
X504988Y202612D01*
X504921Y202755D01*
X504851Y202897D01*
X504777Y203037D01*
X504699Y203175D01*
X504618Y203311D01*
X504534Y203445D01*
X504447Y203577D01*
X504356Y203707D01*
X504262Y203834D01*
X504165Y203959D01*
X504064Y204082D01*
X503961Y204202D01*
X503855Y204319D01*
X503746Y204434D01*
X503634Y204546D01*
X503519Y204655D01*
X503402Y204761D01*
X503282Y204864D01*
X503159Y204965D01*
X503034Y205062D01*
X502907Y205156D01*
X502777Y205247D01*
X502645Y205334D01*
X502511Y205418D01*
X502375Y205499D01*
X502237Y205577D01*
X502097Y205651D01*
X501955Y205721D01*
X501812Y205788D01*
X501667Y205851D01*
X501520Y205911D01*
X501372Y205967D01*
X501222Y206019D01*
X501072Y206068D01*
X500920Y206113D01*
X500767Y206154D01*
X500613Y206191D01*
X500458Y206224D01*
X500303Y206254D01*
X500146Y206279D01*
X499990Y206301D01*
X499832Y206318D01*
X499675Y206332D01*
X499517Y206342D01*
X499358Y206348D01*
X499200Y206350D01*
D142*
X499200Y216002D02*
X600800Y216002D01*
D10*
X499200Y219558D02*
X499200Y206350D01*
X499200Y193650D02*
X499200Y180442D01*
X724200Y180442D02*
X825800Y180442D01*
X825800Y219558D02*
X724200Y219558D01*
X825800Y219558D02*
X825800Y180442D01*
X724200Y193650D02*
X724358Y193652D01*
X724517Y193658D01*
X724675Y193668D01*
X724832Y193682D01*
X724990Y193699D01*
X725146Y193721D01*
X725303Y193746D01*
X725458Y193776D01*
X725613Y193809D01*
X725767Y193846D01*
X725920Y193887D01*
X726072Y193932D01*
X726222Y193981D01*
X726372Y194033D01*
X726520Y194089D01*
X726667Y194149D01*
X726812Y194212D01*
X726955Y194279D01*
X727097Y194349D01*
X727237Y194423D01*
X727375Y194501D01*
X727511Y194582D01*
X727645Y194666D01*
X727777Y194753D01*
X727907Y194844D01*
X728034Y194938D01*
X728159Y195035D01*
X728282Y195136D01*
X728402Y195239D01*
X728519Y195345D01*
X728634Y195454D01*
X728746Y195566D01*
X728855Y195681D01*
X728961Y195798D01*
X729064Y195918D01*
X729165Y196041D01*
X729262Y196166D01*
X729356Y196293D01*
X729447Y196423D01*
X729534Y196555D01*
X729618Y196689D01*
X729699Y196825D01*
X729777Y196963D01*
X729851Y197103D01*
X729921Y197245D01*
X729988Y197388D01*
X730051Y197533D01*
X730111Y197680D01*
X730167Y197828D01*
X730219Y197978D01*
X730268Y198128D01*
X730313Y198280D01*
X730354Y198433D01*
X730391Y198587D01*
X730424Y198742D01*
X730454Y198897D01*
X730479Y199054D01*
X730501Y199210D01*
X730518Y199368D01*
X730532Y199525D01*
X730542Y199683D01*
X730548Y199842D01*
X730550Y200000D01*
X730548Y200158D01*
X730542Y200317D01*
X730532Y200475D01*
X730518Y200632D01*
X730501Y200790D01*
X730479Y200946D01*
X730454Y201103D01*
X730424Y201258D01*
X730391Y201413D01*
X730354Y201567D01*
X730313Y201720D01*
X730268Y201872D01*
X730219Y202022D01*
X730167Y202172D01*
X730111Y202320D01*
X730051Y202467D01*
X729988Y202612D01*
X729921Y202755D01*
X729851Y202897D01*
X729777Y203037D01*
X729699Y203175D01*
X729618Y203311D01*
X729534Y203445D01*
X729447Y203577D01*
X729356Y203707D01*
X729262Y203834D01*
X729165Y203959D01*
X729064Y204082D01*
X728961Y204202D01*
X728855Y204319D01*
X728746Y204434D01*
X728634Y204546D01*
X728519Y204655D01*
X728402Y204761D01*
X728282Y204864D01*
X728159Y204965D01*
X728034Y205062D01*
X727907Y205156D01*
X727777Y205247D01*
X727645Y205334D01*
X727511Y205418D01*
X727375Y205499D01*
X727237Y205577D01*
X727097Y205651D01*
X726955Y205721D01*
X726812Y205788D01*
X726667Y205851D01*
X726520Y205911D01*
X726372Y205967D01*
X726222Y206019D01*
X726072Y206068D01*
X725920Y206113D01*
X725767Y206154D01*
X725613Y206191D01*
X725458Y206224D01*
X725303Y206254D01*
X725146Y206279D01*
X724990Y206301D01*
X724832Y206318D01*
X724675Y206332D01*
X724517Y206342D01*
X724358Y206348D01*
X724200Y206350D01*
D142*
X724200Y216002D02*
X825800Y216002D01*
D10*
X724200Y219558D02*
X724200Y206350D01*
X724200Y193650D02*
X724200Y180442D01*
X949200Y180442D02*
X1050800Y180442D01*
X1050800Y219558D02*
X949200Y219558D01*
X1050800Y219558D02*
X1050800Y180442D01*
X949200Y193650D02*
X949358Y193652D01*
X949517Y193658D01*
X949675Y193668D01*
X949832Y193682D01*
X949990Y193699D01*
X950146Y193721D01*
X950303Y193746D01*
X950458Y193776D01*
X950613Y193809D01*
X950767Y193846D01*
X950920Y193887D01*
X951072Y193932D01*
X951222Y193981D01*
X951372Y194033D01*
X951520Y194089D01*
X951667Y194149D01*
X951812Y194212D01*
X951955Y194279D01*
X952097Y194349D01*
X952237Y194423D01*
X952375Y194501D01*
X952511Y194582D01*
X952645Y194666D01*
X952777Y194753D01*
X952907Y194844D01*
X953034Y194938D01*
X953159Y195035D01*
X953282Y195136D01*
X953402Y195239D01*
X953519Y195345D01*
X953634Y195454D01*
X953746Y195566D01*
X953855Y195681D01*
X953961Y195798D01*
X954064Y195918D01*
X954165Y196041D01*
X954262Y196166D01*
X954356Y196293D01*
X954447Y196423D01*
X954534Y196555D01*
X954618Y196689D01*
X954699Y196825D01*
X954777Y196963D01*
X954851Y197103D01*
X954921Y197245D01*
X954988Y197388D01*
X955051Y197533D01*
X955111Y197680D01*
X955167Y197828D01*
X955219Y197978D01*
X955268Y198128D01*
X955313Y198280D01*
X955354Y198433D01*
X955391Y198587D01*
X955424Y198742D01*
X955454Y198897D01*
X955479Y199054D01*
X955501Y199210D01*
X955518Y199368D01*
X955532Y199525D01*
X955542Y199683D01*
X955548Y199842D01*
X955550Y200000D01*
X955548Y200158D01*
X955542Y200317D01*
X955532Y200475D01*
X955518Y200632D01*
X955501Y200790D01*
X955479Y200946D01*
X955454Y201103D01*
X955424Y201258D01*
X955391Y201413D01*
X955354Y201567D01*
X955313Y201720D01*
X955268Y201872D01*
X955219Y202022D01*
X955167Y202172D01*
X955111Y202320D01*
X955051Y202467D01*
X954988Y202612D01*
X954921Y202755D01*
X954851Y202897D01*
X954777Y203037D01*
X954699Y203175D01*
X954618Y203311D01*
X954534Y203445D01*
X954447Y203577D01*
X954356Y203707D01*
X954262Y203834D01*
X954165Y203959D01*
X954064Y204082D01*
X953961Y204202D01*
X953855Y204319D01*
X953746Y204434D01*
X953634Y204546D01*
X953519Y204655D01*
X953402Y204761D01*
X953282Y204864D01*
X953159Y204965D01*
X953034Y205062D01*
X952907Y205156D01*
X952777Y205247D01*
X952645Y205334D01*
X952511Y205418D01*
X952375Y205499D01*
X952237Y205577D01*
X952097Y205651D01*
X951955Y205721D01*
X951812Y205788D01*
X951667Y205851D01*
X951520Y205911D01*
X951372Y205967D01*
X951222Y206019D01*
X951072Y206068D01*
X950920Y206113D01*
X950767Y206154D01*
X950613Y206191D01*
X950458Y206224D01*
X950303Y206254D01*
X950146Y206279D01*
X949990Y206301D01*
X949832Y206318D01*
X949675Y206332D01*
X949517Y206342D01*
X949358Y206348D01*
X949200Y206350D01*
D142*
X949200Y216002D02*
X1050800Y216002D01*
D10*
X949200Y219558D02*
X949200Y206350D01*
X949200Y193650D02*
X949200Y180442D01*
D143*
X988346Y349000D03*
X988346Y348492D03*
X988346Y347984D03*
X988346Y347476D03*
X988346Y346968D03*
X988346Y346460D03*
X988346Y345952D03*
X988346Y345444D03*
X988346Y344936D03*
X988346Y344428D03*
X988346Y343920D03*
X988346Y343412D03*
X988346Y342904D03*
X988346Y342396D03*
X988346Y341888D03*
X988346Y341380D03*
X988346Y340872D03*
X988346Y340364D03*
X988346Y339856D03*
D144*
X890556Y339348D03*
D145*
X1081310Y339348D03*
D146*
X890048Y338840D03*
D147*
X1082072Y338840D03*
D148*
X889794Y338332D03*
D149*
X1082326Y338332D03*
D150*
X889540Y337824D03*
D151*
X1082580Y337824D03*
D150*
X889540Y337316D03*
D151*
X1082580Y337316D03*
D152*
X889286Y336808D03*
D151*
X1082580Y336808D03*
D152*
X889286Y336300D03*
D153*
X1011206Y336300D03*
D154*
X1040924Y336300D03*
X1051592Y336300D03*
D155*
X1062514Y336300D03*
D156*
X1082834Y336300D03*
D152*
X889286Y335792D03*
D157*
X903002Y335792D03*
X913162Y335792D03*
X922814Y335792D03*
X935006Y335792D03*
X955326Y335792D03*
D158*
X983520Y335792D03*
D153*
X1011206Y335792D03*
D159*
X1028478Y335792D03*
D158*
X1040924Y335792D03*
X1051084Y335792D03*
X1061752Y335792D03*
X1063784Y335792D03*
D156*
X1082834Y335792D03*
D152*
X889286Y335284D03*
X903002Y335284D03*
X913162Y335284D03*
D150*
X923068Y335284D03*
D152*
X935006Y335284D03*
D160*
X946944Y335284D03*
D155*
X954818Y335284D03*
D157*
X958374Y335284D03*
D160*
X963708Y335284D03*
D157*
X971074Y335284D03*
D160*
X975900Y335284D03*
D155*
X983266Y335284D03*
D157*
X986822Y335284D03*
D160*
X992156Y335284D03*
X997236Y335284D03*
D153*
X1011206Y335284D03*
D159*
X1028478Y335284D03*
D157*
X1041686Y335284D03*
D158*
X1050576Y335284D03*
D153*
X1064546Y335284D03*
D156*
X1082834Y335284D03*
D152*
X889286Y334776D03*
D148*
X902494Y334776D03*
X912654Y334776D03*
D144*
X923068Y334776D03*
D157*
X932974Y334776D03*
D158*
X937292Y334776D03*
D160*
X946944Y334776D03*
D155*
X954818Y334776D03*
D157*
X958374Y334776D03*
D160*
X963708Y334776D03*
D155*
X971074Y334776D03*
D160*
X975900Y334776D03*
D161*
X983012Y334776D03*
D157*
X986822Y334776D03*
D160*
X992156Y334776D03*
X997236Y334776D03*
D153*
X1011206Y334776D03*
X1024922Y334776D03*
X1028478Y334776D03*
D158*
X1042448Y334776D03*
X1050068Y334776D03*
D153*
X1064546Y334776D03*
D156*
X1082834Y334776D03*
D152*
X889286Y334268D03*
D146*
X902240Y334268D03*
D162*
X912654Y334268D03*
D144*
X923068Y334268D03*
D158*
X932212Y334268D03*
D160*
X946944Y334268D03*
X954056Y334268D03*
D157*
X958374Y334268D03*
D160*
X963708Y334268D03*
D155*
X971074Y334268D03*
D161*
X975900Y334268D03*
D160*
X982504Y334268D03*
D157*
X986822Y334268D03*
D160*
X992156Y334268D03*
X997236Y334268D03*
D153*
X1011206Y334268D03*
X1024922Y334268D03*
X1028478Y334268D03*
D158*
X1042956Y334268D03*
X1049560Y334268D03*
X1064292Y334268D03*
D156*
X1082834Y334268D03*
D152*
X889286Y333760D03*
D155*
X900462Y333760D03*
X910622Y333760D03*
X920274Y333760D03*
D161*
X925608Y333760D03*
D158*
X931704Y333760D03*
D160*
X946944Y333760D03*
X954056Y333760D03*
D157*
X958374Y333760D03*
X963962Y333760D03*
D155*
X971074Y333760D03*
D161*
X975900Y333760D03*
D160*
X982504Y333760D03*
D157*
X986822Y333760D03*
D160*
X992156Y333760D03*
X997236Y333760D03*
D153*
X1011206Y333760D03*
X1024922Y333760D03*
X1028478Y333760D03*
D158*
X1043464Y333760D03*
X1049052Y333760D03*
D163*
X1063276Y333760D03*
D156*
X1082834Y333760D03*
D152*
X889286Y333252D03*
D155*
X899954Y333252D03*
X910114Y333252D03*
X920274Y333252D03*
X925862Y333252D03*
D153*
X931450Y333252D03*
D158*
X934752Y333252D03*
D157*
X937546Y333252D03*
D160*
X946944Y333252D03*
X954056Y333252D03*
D157*
X958374Y333252D03*
X963962Y333252D03*
D164*
X971074Y333252D03*
D161*
X975900Y333252D03*
D160*
X982504Y333252D03*
D157*
X986822Y333252D03*
D160*
X992156Y333252D03*
X997236Y333252D03*
D153*
X1006126Y333252D03*
X1011206Y333252D03*
X1016286Y333252D03*
X1024922Y333252D03*
X1028478Y333252D03*
D158*
X1043972Y333252D03*
X1048544Y333252D03*
D163*
X1063276Y333252D03*
D156*
X1082834Y333252D03*
D152*
X889286Y332744D03*
D160*
X899700Y332744D03*
X909860Y332744D03*
X920020Y332744D03*
X926116Y332744D03*
D153*
X931450Y332744D03*
D148*
X936530Y332744D03*
D160*
X946944Y332744D03*
D155*
X954818Y332744D03*
D160*
X958628Y332744D03*
D157*
X963962Y332744D03*
X970058Y332744D03*
D158*
X972344Y332744D03*
X974884Y332744D03*
D157*
X977170Y332744D03*
D155*
X983266Y332744D03*
D157*
X986822Y332744D03*
D160*
X992156Y332744D03*
X997236Y332744D03*
D165*
X1011206Y332744D03*
D153*
X1024922Y332744D03*
X1028478Y332744D03*
X1044226Y332744D03*
D158*
X1048036Y332744D03*
D153*
X1063530Y332744D03*
D156*
X1082834Y332744D03*
D152*
X889286Y332236D03*
D160*
X899700Y332236D03*
X909860Y332236D03*
X920020Y332236D03*
X926116Y332236D03*
D153*
X930942Y332236D03*
D158*
X934244Y332236D03*
D157*
X937038Y332236D03*
D153*
X939578Y332236D03*
D160*
X946944Y332236D03*
D148*
X956850Y332236D03*
D157*
X963962Y332236D03*
X970058Y332236D03*
D158*
X972344Y332236D03*
D157*
X974630Y332236D03*
D158*
X977424Y332236D03*
D150*
X985044Y332236D03*
D160*
X992156Y332236D03*
X997236Y332236D03*
D165*
X1011206Y332236D03*
D153*
X1024922Y332236D03*
X1028478Y332236D03*
X1044734Y332236D03*
X1047782Y332236D03*
D158*
X1064292Y332236D03*
D156*
X1082834Y332236D03*
D152*
X889286Y331728D03*
D160*
X899700Y331728D03*
X909860Y331728D03*
X920020Y331728D03*
X926116Y331728D03*
D153*
X930942Y331728D03*
X933990Y331728D03*
X937038Y331728D03*
X940086Y331728D03*
D160*
X946944Y331728D03*
D166*
X957612Y331728D03*
D157*
X963962Y331728D03*
X969550Y331728D03*
D164*
X973614Y331728D03*
D157*
X977678Y331728D03*
D166*
X986060Y331728D03*
D160*
X992156Y331728D03*
X997236Y331728D03*
D153*
X1006126Y331728D03*
X1011206Y331728D03*
X1016286Y331728D03*
X1024922Y331728D03*
X1028478Y331728D03*
X1044734Y331728D03*
X1047274Y331728D03*
D157*
X1065562Y331728D03*
D154*
X1068864Y331728D03*
D156*
X1082834Y331728D03*
D152*
X889286Y331220D03*
D160*
X899700Y331220D03*
X909860Y331220D03*
X920020Y331220D03*
X926116Y331220D03*
D154*
X931196Y331220D03*
D158*
X934244Y331220D03*
X937292Y331220D03*
D153*
X940086Y331220D03*
D160*
X946944Y331220D03*
D155*
X958374Y331220D03*
D157*
X963962Y331220D03*
X969550Y331220D03*
D161*
X973868Y331220D03*
D157*
X977678Y331220D03*
D155*
X986822Y331220D03*
X992410Y331220D03*
D160*
X997236Y331220D03*
D153*
X1006126Y331220D03*
X1011206Y331220D03*
X1016286Y331220D03*
X1024922Y331220D03*
X1028478Y331220D03*
X1045242Y331220D03*
X1047274Y331220D03*
X1057942Y331220D03*
D146*
X1063276Y331220D03*
D153*
X1068610Y331220D03*
D156*
X1082834Y331220D03*
D152*
X889286Y330712D03*
D160*
X899700Y330712D03*
X909860Y330712D03*
D155*
X920274Y330712D03*
D160*
X926116Y330712D03*
D153*
X931450Y330712D03*
D158*
X934244Y330712D03*
X937292Y330712D03*
D153*
X940086Y330712D03*
D160*
X946944Y330712D03*
X958628Y330712D03*
X964216Y330712D03*
X969296Y330712D03*
D155*
X973614Y330712D03*
D160*
X977932Y330712D03*
X987076Y330712D03*
D144*
X994696Y330712D03*
D153*
X1006126Y330712D03*
X1011206Y330712D03*
X1016286Y330712D03*
D158*
X1024668Y330712D03*
D150*
X1030764Y330712D03*
D153*
X1045242Y330712D03*
X1046766Y330712D03*
X1057942Y330712D03*
D148*
X1063022Y330712D03*
D158*
X1068864Y330712D03*
D151*
X1082580Y330712D03*
D152*
X889286Y330204D03*
D160*
X899700Y330204D03*
X909860Y330204D03*
D155*
X920274Y330204D03*
X926370Y330204D03*
D153*
X931450Y330204D03*
D164*
X936022Y330204D03*
D158*
X940340Y330204D03*
D160*
X946944Y330204D03*
D148*
X956850Y330204D03*
D160*
X964216Y330204D03*
X969296Y330204D03*
D155*
X973614Y330204D03*
D157*
X978186Y330204D03*
D148*
X985298Y330204D03*
D144*
X994696Y330204D03*
D153*
X1006126Y330204D03*
X1011206Y330204D03*
X1016286Y330204D03*
D158*
X1024668Y330204D03*
D148*
X1031018Y330204D03*
D160*
X1046004Y330204D03*
D153*
X1057942Y330204D03*
X1069118Y330204D03*
D151*
X1082580Y330204D03*
D152*
X889286Y329696D03*
D155*
X899954Y329696D03*
X910114Y329696D03*
X920274Y329696D03*
X926370Y329696D03*
D158*
X931704Y329696D03*
D164*
X936530Y329696D03*
D153*
X940086Y329696D03*
D160*
X946944Y329696D03*
D150*
X956596Y329696D03*
D160*
X964216Y329696D03*
D157*
X969042Y329696D03*
D160*
X973868Y329696D03*
X978440Y329696D03*
D150*
X985044Y329696D03*
D160*
X992156Y329696D03*
D164*
X995966Y329696D03*
D153*
X1006126Y329696D03*
X1011206Y329696D03*
X1016286Y329696D03*
X1024922Y329696D03*
D158*
X1028732Y329696D03*
D157*
X1046258Y329696D03*
D159*
X1063530Y329696D03*
D151*
X1082580Y329696D03*
D152*
X889286Y329188D03*
D155*
X900462Y329188D03*
X910622Y329188D03*
X920274Y329188D03*
X926370Y329188D03*
D153*
X931958Y329188D03*
X940086Y329188D03*
D160*
X946944Y329188D03*
D166*
X956596Y329188D03*
X985044Y329188D03*
D160*
X996220Y329188D03*
D153*
X1006126Y329188D03*
X1011206Y329188D03*
X1016286Y329188D03*
X1024922Y329188D03*
D158*
X1028732Y329188D03*
X1046004Y329188D03*
D167*
X1063276Y329188D03*
D151*
X1082580Y329188D03*
D152*
X889286Y328680D03*
D164*
X900970Y328680D03*
D154*
X905796Y328680D03*
D164*
X911130Y328680D03*
D154*
X915956Y328680D03*
D160*
X920528Y328680D03*
D155*
X926370Y328680D03*
D158*
X932212Y328680D03*
X939832Y328680D03*
D144*
X946944Y328680D03*
D153*
X1006126Y328680D03*
X1011206Y328680D03*
X1016286Y328680D03*
X1024922Y328680D03*
D158*
X1028732Y328680D03*
X1046004Y328680D03*
D153*
X1058450Y328680D03*
D154*
X1062260Y328680D03*
X1064292Y328680D03*
D153*
X1068102Y328680D03*
D151*
X1082580Y328680D03*
D152*
X889286Y328172D03*
D146*
X902748Y328172D03*
X912908Y328172D03*
D160*
X920528Y328172D03*
D155*
X926370Y328172D03*
D157*
X932974Y328172D03*
D158*
X939324Y328172D03*
D168*
X947198Y328172D03*
D153*
X1006126Y328172D03*
X1011206Y328172D03*
X1016286Y328172D03*
D154*
X1024668Y328172D03*
D158*
X1028732Y328172D03*
D165*
X1046258Y328172D03*
D155*
X1059466Y328172D03*
X1063530Y328172D03*
D158*
X1067848Y328172D03*
D151*
X1082580Y328172D03*
D152*
X889286Y327664D03*
D148*
X903002Y327664D03*
X913162Y327664D03*
D160*
X920528Y327664D03*
X926624Y327664D03*
X934244Y327664D03*
D154*
X936276Y327664D03*
D160*
X938308Y327664D03*
D168*
X947198Y327664D03*
D160*
X964216Y327664D03*
D165*
X1011206Y327664D03*
D153*
X1028478Y327664D03*
D167*
X1046004Y327664D03*
D160*
X1059720Y327664D03*
D157*
X1063530Y327664D03*
D155*
X1067086Y327664D03*
D156*
X1082834Y327664D03*
D152*
X889286Y327156D03*
X903510Y327156D03*
X913670Y327156D03*
D160*
X920528Y327156D03*
X926624Y327156D03*
D152*
X936530Y327156D03*
D168*
X947198Y327156D03*
D160*
X964216Y327156D03*
D165*
X1011206Y327156D03*
D153*
X1028478Y327156D03*
X1046258Y327156D03*
D154*
X1058704Y327156D03*
D157*
X1063530Y327156D03*
D153*
X1068102Y327156D03*
D156*
X1082834Y327156D03*
D152*
X889286Y326648D03*
D158*
X1011460Y326648D03*
D153*
X1028478Y326648D03*
X1046258Y326648D03*
D160*
X1059720Y326648D03*
D154*
X1064292Y326648D03*
D155*
X1067086Y326648D03*
D156*
X1082834Y326648D03*
D152*
X889286Y326140D03*
D153*
X1011206Y326140D03*
D158*
X1028732Y326140D03*
D153*
X1046258Y326140D03*
D160*
X1059720Y326140D03*
D153*
X1062514Y326140D03*
D154*
X1064292Y326140D03*
D160*
X1067340Y326140D03*
D156*
X1082834Y326140D03*
D152*
X889286Y325632D03*
D153*
X1011206Y325632D03*
D165*
X1028478Y325632D03*
D153*
X1046258Y325632D03*
D154*
X1058704Y325632D03*
D157*
X1063530Y325632D03*
D153*
X1068102Y325632D03*
D156*
X1082834Y325632D03*
D152*
X889286Y325124D03*
D153*
X1011206Y325124D03*
D165*
X1028478Y325124D03*
D153*
X1046258Y325124D03*
D160*
X1059720Y325124D03*
X1063276Y325124D03*
D155*
X1067086Y325124D03*
D156*
X1082834Y325124D03*
D152*
X889286Y324616D03*
D153*
X1011206Y324616D03*
X1060482Y324616D03*
D154*
X1064292Y324616D03*
D151*
X1082580Y324616D03*
D150*
X889540Y324108D03*
D151*
X1082580Y324108D03*
D150*
X889540Y323600D03*
D149*
X1082326Y323600D03*
D148*
X889794Y323092D03*
D147*
X1082072Y323092D03*
D162*
X890302Y322584D03*
D169*
X1081818Y322584D03*
D143*
X988346Y322076D03*
X988346Y321568D03*
X988346Y321060D03*
X988346Y320552D03*
X988346Y320044D03*
X988346Y319536D03*
X988346Y319028D03*
X988346Y318520D03*
X988346Y318012D03*
D170*
X896398Y317504D03*
D171*
X1001808Y317504D03*
D145*
X895382Y316996D03*
D172*
X1002824Y316996D03*
D147*
X894620Y316488D03*
D173*
X1003586Y316488D03*
D151*
X894112Y315980D03*
D174*
X1004094Y315980D03*
D175*
X893604Y315472D03*
D176*
X1004602Y315472D03*
D177*
X893096Y314964D03*
D178*
X1005110Y314964D03*
D159*
X892842Y314456D03*
D179*
X989616Y314456D03*
D180*
X1075214Y314456D03*
D167*
X892588Y313948D03*
D181*
X989616Y313948D03*
D182*
X1075722Y313948D03*
D163*
X892080Y313440D03*
D183*
X989870Y313440D03*
D184*
X1075976Y313440D03*
D185*
X891826Y312932D03*
D186*
X990124Y312932D03*
D187*
X1076230Y312932D03*
D188*
X891572Y312424D03*
D150*
X909860Y312424D03*
D189*
X990632Y312424D03*
D190*
X1076484Y312424D03*
D191*
X891318Y311916D03*
D188*
X909860Y311916D03*
D192*
X990632Y311916D03*
D190*
X1076484Y311916D03*
D193*
X891064Y311408D03*
D167*
X909860Y311408D03*
D183*
X992410Y311408D03*
D194*
X1076738Y311408D03*
D168*
X890810Y310900D03*
D156*
X910114Y310900D03*
D183*
X992918Y310900D03*
D194*
X1076738Y310900D03*
D144*
X890556Y310392D03*
D147*
X909860Y310392D03*
D195*
X947198Y310392D03*
D177*
X977424Y310392D03*
D193*
X990632Y310392D03*
D196*
X1006888Y310392D03*
D185*
X1023398Y310392D03*
D146*
X1035336Y310392D03*
D197*
X1051084Y310392D03*
D194*
X1076738Y310392D03*
D162*
X890302Y309884D03*
D145*
X910114Y309884D03*
D184*
X940848Y309884D03*
D155*
X965486Y309884D03*
D153*
X971582Y309884D03*
D155*
X977170Y309884D03*
D154*
X982504Y309884D03*
D146*
X990632Y309884D03*
D152*
X1002570Y309884D03*
D150*
X1011460Y309884D03*
D153*
X1018826Y309884D03*
D152*
X1025430Y309884D03*
D166*
X1034828Y309884D03*
X1046004Y309884D03*
D144*
X1056164Y309884D03*
D198*
X1076992Y309884D03*
D162*
X890302Y309376D03*
D199*
X910368Y309376D03*
D187*
X941102Y309376D03*
D155*
X965486Y309376D03*
D154*
X971836Y309376D03*
D161*
X977424Y309376D03*
D152*
X990378Y309376D03*
D166*
X1002824Y309376D03*
D150*
X1011460Y309376D03*
D154*
X1019080Y309376D03*
D166*
X1025176Y309376D03*
D164*
X1034574Y309376D03*
D166*
X1046512Y309376D03*
D162*
X1055910Y309376D03*
D198*
X1076992Y309376D03*
D146*
X890048Y308868D03*
D200*
X910368Y308868D03*
D190*
X941356Y308868D03*
D160*
X965232Y308868D03*
D154*
X971836Y308868D03*
D161*
X977424Y308868D03*
D164*
X990378Y308868D03*
X1003078Y308868D03*
D152*
X1011206Y308868D03*
D154*
X1019080Y308868D03*
D166*
X1025176Y308868D03*
D161*
X1034320Y308868D03*
D164*
X1046766Y308868D03*
D162*
X1055910Y308868D03*
D201*
X1077246Y308868D03*
D148*
X889794Y308360D03*
D202*
X910368Y308360D03*
D194*
X941610Y308360D03*
D160*
X965232Y308360D03*
D157*
X971074Y308360D03*
D161*
X977424Y308360D03*
D164*
X990378Y308360D03*
D161*
X1003332Y308360D03*
D152*
X1011206Y308360D03*
D157*
X1018318Y308360D03*
D166*
X1025176Y308360D03*
D160*
X1034320Y308360D03*
D161*
X1047020Y308360D03*
D162*
X1055910Y308360D03*
D201*
X1077246Y308360D03*
D148*
X889794Y307852D03*
D203*
X910368Y307852D03*
D190*
X941864Y307852D03*
D157*
X965486Y307852D03*
X971074Y307852D03*
D161*
X977424Y307852D03*
D158*
X984028Y307852D03*
D155*
X990378Y307852D03*
D154*
X996728Y307852D03*
D161*
X1003332Y307852D03*
D152*
X1011206Y307852D03*
D157*
X1018318Y307852D03*
D166*
X1025176Y307852D03*
D154*
X1031780Y307852D03*
D160*
X1034320Y307852D03*
D154*
X1040416Y307852D03*
D161*
X1047020Y307852D03*
D146*
X1055656Y307852D03*
D204*
X1077500Y307852D03*
D150*
X889540Y307344D03*
D205*
X910622Y307344D03*
D194*
X942118Y307344D03*
D144*
X962692Y307344D03*
D158*
X971328Y307344D03*
D161*
X977424Y307344D03*
D160*
X984028Y307344D03*
D155*
X990378Y307344D03*
D160*
X996728Y307344D03*
D155*
X1003586Y307344D03*
D152*
X1011206Y307344D03*
D158*
X1018572Y307344D03*
D166*
X1025176Y307344D03*
X1033304Y307344D03*
D160*
X1040416Y307344D03*
D161*
X1047020Y307344D03*
D146*
X1055656Y307344D03*
D204*
X1077500Y307344D03*
D152*
X889286Y306836D03*
D206*
X910622Y306836D03*
D198*
X942372Y306836D03*
D144*
X962692Y306836D03*
D154*
X971836Y306836D03*
D161*
X977424Y306836D03*
D160*
X984028Y306836D03*
D155*
X990378Y306836D03*
X996982Y306836D03*
X1003586Y306836D03*
D152*
X1011206Y306836D03*
D166*
X1025176Y306836D03*
X1033304Y306836D03*
D160*
X1040416Y306836D03*
D155*
X1047274Y306836D03*
D146*
X1055656Y306836D03*
D204*
X1077500Y306836D03*
D152*
X889286Y306328D03*
D201*
X910622Y306328D03*
X942626Y306328D03*
D168*
X962946Y306328D03*
D161*
X977424Y306328D03*
D160*
X984028Y306328D03*
X990632Y306328D03*
D155*
X996982Y306328D03*
X1003586Y306328D03*
D150*
X1011460Y306328D03*
D166*
X1025176Y306328D03*
D164*
X1033050Y306328D03*
D155*
X1040670Y306328D03*
X1047274Y306328D03*
D148*
X1055402Y306328D03*
D154*
X1062260Y306328D03*
D206*
X1077754Y306328D03*
D166*
X889032Y305820D03*
D198*
X910368Y305820D03*
D201*
X942626Y305820D03*
D193*
X963200Y305820D03*
D161*
X977424Y305820D03*
D155*
X984282Y305820D03*
D160*
X990632Y305820D03*
D155*
X996982Y305820D03*
X1003586Y305820D03*
D148*
X1011714Y305820D03*
D166*
X1025176Y305820D03*
D164*
X1033050Y305820D03*
D155*
X1040670Y305820D03*
X1047274Y305820D03*
D148*
X1055402Y305820D03*
D154*
X1062260Y305820D03*
D206*
X1077754Y305820D03*
D166*
X889032Y305312D03*
D149*
X905034Y305312D03*
D188*
X919004Y305312D03*
D204*
X942880Y305312D03*
D188*
X963708Y305312D03*
D161*
X977424Y305312D03*
D160*
X984028Y305312D03*
X990632Y305312D03*
D155*
X996982Y305312D03*
X1003586Y305312D03*
D146*
X1012476Y305312D03*
D166*
X1025176Y305312D03*
X1033304Y305312D03*
D155*
X1040670Y305312D03*
X1047274Y305312D03*
D148*
X1055402Y305312D03*
D153*
X1062006Y305312D03*
D207*
X1078008Y305312D03*
D164*
X888778Y304804D03*
D147*
X904780Y304804D03*
D193*
X920020Y304804D03*
D206*
X943134Y304804D03*
D167*
X965232Y304804D03*
D161*
X977424Y304804D03*
D160*
X984028Y304804D03*
X990632Y304804D03*
D155*
X996982Y304804D03*
X1003586Y304804D03*
D193*
X1014000Y304804D03*
D166*
X1025176Y304804D03*
X1033304Y304804D03*
D160*
X1040416Y304804D03*
D155*
X1047274Y304804D03*
D152*
X1055402Y304804D03*
D158*
X1062260Y304804D03*
D207*
X1078008Y304804D03*
D164*
X888778Y304296D03*
D147*
X904272Y304296D03*
D193*
X920528Y304296D03*
D206*
X943134Y304296D03*
D177*
X965740Y304296D03*
D161*
X977424Y304296D03*
D160*
X984028Y304296D03*
D155*
X990378Y304296D03*
D157*
X996982Y304296D03*
D155*
X1003586Y304296D03*
D144*
X1015524Y304296D03*
D166*
X1025176Y304296D03*
X1033304Y304296D03*
D158*
X1040416Y304296D03*
D161*
X1047020Y304296D03*
D155*
X1056418Y304296D03*
D158*
X1062260Y304296D03*
D205*
X1078262Y304296D03*
D164*
X888778Y303788D03*
D149*
X904018Y303788D03*
D168*
X921290Y303788D03*
D207*
X943388Y303788D03*
D168*
X963454Y303788D03*
D161*
X970312Y303788D03*
X977424Y303788D03*
D154*
X984028Y303788D03*
D161*
X990632Y303788D03*
X1003332Y303788D03*
D155*
X1013238Y303788D03*
D161*
X1017556Y303788D03*
D155*
X1024414Y303788D03*
X1034574Y303788D03*
D161*
X1047020Y303788D03*
D160*
X1056672Y303788D03*
D158*
X1062260Y303788D03*
D205*
X1078262Y303788D03*
D161*
X888524Y303280D03*
D168*
X899954Y303280D03*
D146*
X907828Y303280D03*
X922052Y303280D03*
D205*
X943642Y303280D03*
D168*
X963454Y303280D03*
D153*
X971074Y303280D03*
D161*
X977424Y303280D03*
X990632Y303280D03*
X1003332Y303280D03*
D155*
X1013238Y303280D03*
D153*
X1018318Y303280D03*
D161*
X1024668Y303280D03*
D155*
X1034574Y303280D03*
D164*
X1046766Y303280D03*
D157*
X1056418Y303280D03*
D160*
X1062260Y303280D03*
D208*
X1078516Y303280D03*
D161*
X888524Y302772D03*
D144*
X899700Y302772D03*
D150*
X908336Y302772D03*
D148*
X922814Y302772D03*
D205*
X943642Y302772D03*
D168*
X963454Y302772D03*
D161*
X977424Y302772D03*
D166*
X990632Y302772D03*
D164*
X1003078Y302772D03*
D161*
X1013492Y302772D03*
X1024668Y302772D03*
X1034828Y302772D03*
D164*
X1046766Y302772D03*
D157*
X1056418Y302772D03*
D160*
X1062260Y302772D03*
D208*
X1078516Y302772D03*
D161*
X888524Y302264D03*
D168*
X899446Y302264D03*
D164*
X908590Y302264D03*
D146*
X923068Y302264D03*
D205*
X943642Y302264D03*
D168*
X963454Y302264D03*
D164*
X977170Y302264D03*
D148*
X990886Y302264D03*
D166*
X1002824Y302264D03*
D161*
X1013492Y302264D03*
D164*
X1024414Y302264D03*
X1035082Y302264D03*
D152*
X1046258Y302264D03*
D157*
X1056418Y302264D03*
D160*
X1062260Y302264D03*
D208*
X1078516Y302264D03*
D155*
X888270Y301756D03*
D144*
X899192Y301756D03*
D155*
X908590Y301756D03*
D162*
X922814Y301756D03*
D208*
X943896Y301756D03*
D193*
X963708Y301756D03*
D166*
X976916Y301756D03*
D168*
X990886Y301756D03*
D148*
X1002570Y301756D03*
D154*
X1008920Y301756D03*
D161*
X1013492Y301756D03*
D166*
X1024160Y301756D03*
D152*
X1035590Y301756D03*
D150*
X1046004Y301756D03*
D154*
X1052608Y301756D03*
D157*
X1056418Y301756D03*
D161*
X1062260Y301756D03*
D208*
X1078516Y301756D03*
D155*
X888270Y301248D03*
D162*
X898938Y301248D03*
D158*
X908844Y301248D03*
D144*
X923068Y301248D03*
D209*
X944150Y301248D03*
D200*
X969296Y301248D03*
D210*
X1005364Y301248D03*
D211*
X1060482Y301248D03*
D155*
X888270Y300740D03*
D144*
X898684Y300740D03*
D154*
X908844Y300740D03*
D193*
X923068Y300740D03*
D209*
X944150Y300740D03*
D200*
X969296Y300740D03*
D210*
X1005364Y300740D03*
D211*
X1060482Y300740D03*
D160*
X888016Y300232D03*
D146*
X898684Y300232D03*
D153*
X914686Y300232D03*
D193*
X923068Y300232D03*
D209*
X944150Y300232D03*
D212*
X969550Y300232D03*
D210*
X1005364Y300232D03*
D211*
X1060482Y300232D03*
D160*
X888016Y299724D03*
D152*
X898938Y299724D03*
D160*
X914940Y299724D03*
D188*
X923068Y299724D03*
D203*
X944404Y299724D03*
D212*
X969550Y299724D03*
D213*
X1006380Y299724D03*
D211*
X1060482Y299724D03*
D160*
X888016Y299216D03*
D164*
X899446Y299216D03*
D161*
X915448Y299216D03*
D188*
X923068Y299216D03*
D203*
X944404Y299216D03*
D212*
X969550Y299216D03*
D214*
X1036606Y299216D03*
D160*
X888016Y298708D03*
X899700Y298708D03*
D149*
X920782Y298708D03*
D215*
X944658Y298708D03*
D212*
X969550Y298708D03*
D214*
X1036606Y298708D03*
D157*
X887762Y298200D03*
D153*
X899954Y298200D03*
D147*
X920528Y298200D03*
D216*
X1011968Y298200D03*
D157*
X887762Y297692D03*
D154*
X905796Y297692D03*
D169*
X920274Y297692D03*
D216*
X1011968Y297692D03*
D157*
X887762Y297184D03*
D158*
X905796Y297184D03*
D152*
X914686Y297184D03*
D165*
X923322Y297184D03*
D217*
X1012222Y297184D03*
D157*
X887762Y296676D03*
D155*
X906050Y296676D03*
D152*
X914178Y296676D03*
D163*
X923576Y296676D03*
D217*
X1012222Y296676D03*
D157*
X887762Y296168D03*
D161*
X906304Y296168D03*
D150*
X913924Y296168D03*
D165*
X923830Y296168D03*
D217*
X1012222Y296168D03*
D157*
X887762Y295660D03*
D152*
X906558Y295660D03*
D150*
X913416Y295660D03*
D163*
X924084Y295660D03*
D218*
X1012476Y295660D03*
D157*
X887762Y295152D03*
D146*
X906812Y295152D03*
D152*
X913162Y295152D03*
D163*
X924084Y295152D03*
D218*
X1012476Y295152D03*
D158*
X887508Y294644D03*
D153*
X896906Y294644D03*
D159*
X909606Y294644D03*
D163*
X924592Y294644D03*
D218*
X1012476Y294644D03*
D158*
X887508Y294136D03*
D157*
X897414Y294136D03*
D159*
X909098Y294136D03*
D185*
X924846Y294136D03*
D218*
X1012476Y294136D03*
D158*
X887508Y293628D03*
D155*
X897922Y293628D03*
D177*
X908844Y293628D03*
D185*
X924846Y293628D03*
D169*
X943642Y293628D03*
D181*
X1022636Y293628D03*
D158*
X887508Y293120D03*
D164*
X898430Y293120D03*
D159*
X908590Y293120D03*
D188*
X925100Y293120D03*
D149*
X943134Y293120D03*
D156*
X963454Y293120D03*
D219*
X989362Y293120D03*
D167*
X1018064Y293120D03*
D148*
X1035082Y293120D03*
D191*
X1051846Y293120D03*
D209*
X1078770Y293120D03*
D158*
X887508Y292612D03*
D152*
X898938Y292612D03*
D177*
X908336Y292612D03*
D191*
X925354Y292612D03*
D151*
X942880Y292612D03*
D177*
X963200Y292612D03*
D188*
X989108Y292612D03*
D193*
X1018064Y292612D03*
D161*
X1035336Y292612D03*
D148*
X1051846Y292612D03*
D202*
X1079532Y292612D03*
D158*
X887508Y292104D03*
D220*
X905034Y292104D03*
D188*
X925608Y292104D03*
D156*
X942626Y292104D03*
D165*
X962946Y292104D03*
D168*
X988854Y292104D03*
D146*
X1018064Y292104D03*
D157*
X1035590Y292104D03*
D152*
X1051846Y292104D03*
D200*
X1080040Y292104D03*
D158*
X887508Y291596D03*
D177*
X899700Y291596D03*
D148*
X910622Y291596D03*
D191*
X925862Y291596D03*
D156*
X942626Y291596D03*
D163*
X963200Y291596D03*
D146*
X988600Y291596D03*
D150*
X1018064Y291596D03*
D153*
X1035590Y291596D03*
D164*
X1051846Y291596D03*
D170*
X1080294Y291596D03*
D158*
X887508Y291088D03*
D177*
X899700Y291088D03*
D166*
X911384Y291088D03*
D193*
X926116Y291088D03*
D219*
X942626Y291088D03*
D188*
X963200Y291088D03*
D150*
X988600Y291088D03*
D152*
X1017810Y291088D03*
D155*
X1051846Y291088D03*
D199*
X1080548Y291088D03*
D158*
X887508Y290580D03*
D167*
X899700Y290580D03*
D155*
X911638Y290580D03*
D193*
X926116Y290580D03*
D219*
X942626Y290580D03*
D191*
X962946Y290580D03*
D164*
X988346Y290580D03*
X1017810Y290580D03*
D157*
X1051846Y290580D03*
D199*
X1080548Y290580D03*
D158*
X887508Y290072D03*
D167*
X899700Y290072D03*
D157*
X912146Y290072D03*
D168*
X926370Y290072D03*
D219*
X942626Y290072D03*
D193*
X963200Y290072D03*
D164*
X988346Y290072D03*
D161*
X1017556Y290072D03*
D157*
X1051846Y290072D03*
D220*
X1080802Y290072D03*
D157*
X887762Y289564D03*
D165*
X899446Y289564D03*
D144*
X926624Y289564D03*
D175*
X942880Y289564D03*
D168*
X962946Y289564D03*
D161*
X988092Y289564D03*
X1017556Y289564D03*
D157*
X1051846Y289564D03*
D220*
X1080802Y289564D03*
D157*
X887762Y289056D03*
D165*
X899446Y289056D03*
D154*
X917480Y289056D03*
D193*
X926624Y289056D03*
D175*
X942880Y289056D03*
D144*
X963200Y289056D03*
D155*
X987838Y289056D03*
D160*
X1017556Y289056D03*
D157*
X1051846Y289056D03*
D220*
X1080802Y289056D03*
D157*
X887762Y288548D03*
D161*
X895636Y288548D03*
D152*
X901986Y288548D03*
D153*
X917734Y288548D03*
D191*
X926370Y288548D03*
D175*
X942880Y288548D03*
D144*
X963200Y288548D03*
D160*
X987584Y288548D03*
D157*
X1017302Y288548D03*
X1051846Y288548D03*
D220*
X1080802Y288548D03*
D157*
X887762Y288040D03*
D155*
X895382Y288040D03*
D164*
X902494Y288040D03*
D157*
X917734Y288040D03*
D185*
X925862Y288040D03*
D175*
X942880Y288040D03*
D144*
X963200Y288040D03*
D160*
X987584Y288040D03*
D157*
X1017302Y288040D03*
X1051846Y288040D03*
D220*
X1080802Y288040D03*
D157*
X887762Y287532D03*
D160*
X895128Y287532D03*
D158*
X903256Y287532D03*
D160*
X917480Y287532D03*
D163*
X925608Y287532D03*
D156*
X943134Y287532D03*
D162*
X963454Y287532D03*
D157*
X987330Y287532D03*
X1016794Y287532D03*
X1051846Y287532D03*
D220*
X1080802Y287532D03*
D157*
X887762Y287024D03*
D160*
X895128Y287024D03*
D154*
X903764Y287024D03*
D151*
X923576Y287024D03*
D156*
X943134Y287024D03*
D144*
X963708Y287024D03*
D157*
X987330Y287024D03*
X1016794Y287024D03*
X1051846Y287024D03*
D199*
X1080548Y287024D03*
D157*
X887762Y286516D03*
D158*
X895128Y286516D03*
D154*
X908844Y286516D03*
D149*
X923322Y286516D03*
D151*
X943388Y286516D03*
D162*
X963962Y286516D03*
D160*
X987076Y286516D03*
X1016540Y286516D03*
X1051592Y286516D03*
D199*
X1080548Y286516D03*
D157*
X887762Y286008D03*
D158*
X895128Y286008D03*
D157*
X909098Y286008D03*
D149*
X923322Y286008D03*
D151*
X943388Y286008D03*
D162*
X963962Y286008D03*
D160*
X986568Y286008D03*
D155*
X1016286Y286008D03*
D161*
X1051592Y286008D03*
D170*
X1080294Y286008D03*
D160*
X888016Y285500D03*
D153*
X894874Y285500D03*
D161*
X909352Y285500D03*
D147*
X923068Y285500D03*
D149*
X943642Y285500D03*
D144*
X964216Y285500D03*
D161*
X986060Y285500D03*
X1015524Y285500D03*
D166*
X1051084Y285500D03*
D202*
X1079532Y285500D03*
D160*
X888016Y284992D03*
D154*
X894620Y284992D03*
D152*
X910114Y284992D03*
D147*
X923068Y284992D03*
D149*
X943642Y284992D03*
D162*
X964470Y284992D03*
D185*
X982758Y284992D03*
D199*
X1007904Y284992D03*
D161*
X1029748Y284992D03*
D163*
X1048036Y284992D03*
D190*
X1076484Y284992D03*
D160*
X888016Y284484D03*
D146*
X910876Y284484D03*
D152*
X917226Y284484D03*
D163*
X925608Y284484D03*
D149*
X943642Y284484D03*
D162*
X964470Y284484D03*
D185*
X982758Y284484D03*
D200*
X1007396Y284484D03*
D150*
X1029748Y284484D03*
D165*
X1048290Y284484D03*
D194*
X1076738Y284484D03*
D160*
X888016Y283976D03*
D159*
X913162Y283976D03*
D188*
X926116Y283976D03*
D147*
X943896Y283976D03*
D162*
X964978Y283976D03*
D188*
X983012Y283976D03*
D212*
X1007142Y283976D03*
D148*
X1030002Y283976D03*
D163*
X1048544Y283976D03*
D194*
X1076738Y283976D03*
D155*
X888270Y283468D03*
D157*
X899954Y283468D03*
D167*
X912908Y283468D03*
D193*
X926624Y283468D03*
D147*
X943896Y283468D03*
D162*
X964978Y283468D03*
D191*
X982758Y283468D03*
D212*
X1007142Y283468D03*
D162*
X1030002Y283468D03*
D165*
X1048798Y283468D03*
D194*
X1076738Y283468D03*
D155*
X888270Y282960D03*
D161*
X900716Y282960D03*
D167*
X912400Y282960D03*
D144*
X927132Y282960D03*
D169*
X944150Y282960D03*
D162*
X965486Y282960D03*
D193*
X983012Y282960D03*
D202*
X1006888Y282960D03*
D162*
X1030002Y282960D03*
D165*
X1048798Y282960D03*
D198*
X1076992Y282960D03*
D155*
X888270Y282452D03*
D150*
X901224Y282452D03*
D167*
X912400Y282452D03*
D148*
X927386Y282452D03*
D169*
X944150Y282452D03*
D162*
X965486Y282452D03*
D193*
X983012Y282452D03*
D185*
X1012222Y282452D03*
D144*
X1030256Y282452D03*
D163*
X1049052Y282452D03*
D198*
X1076992Y282452D03*
D155*
X888270Y281944D03*
D146*
X901732Y281944D03*
D166*
X908336Y281944D03*
D146*
X914432Y281944D03*
D152*
X927894Y281944D03*
D169*
X944150Y281944D03*
D162*
X965486Y281944D03*
D193*
X983012Y281944D03*
D168*
X1013238Y281944D03*
D144*
X1030256Y281944D03*
D165*
X1049306Y281944D03*
D201*
X1077246Y281944D03*
D161*
X888524Y281436D03*
D153*
X895890Y281436D03*
D159*
X904018Y281436D03*
D152*
X914686Y281436D03*
D164*
X928402Y281436D03*
D196*
X944404Y281436D03*
D162*
X965994Y281436D03*
D168*
X983266Y281436D03*
D162*
X1013746Y281436D03*
D193*
X1030256Y281436D03*
D163*
X1049560Y281436D03*
D201*
X1077246Y281436D03*
D161*
X888524Y280928D03*
D175*
X902748Y280928D03*
D161*
X914940Y280928D03*
D166*
X928148Y280928D03*
D145*
X944150Y280928D03*
D162*
X965994Y280928D03*
D168*
X983266Y280928D03*
D148*
X1014254Y280928D03*
D168*
X1030510Y280928D03*
D165*
X1049814Y280928D03*
D201*
X1077246Y280928D03*
D161*
X888524Y280420D03*
D160*
X897160Y280420D03*
D185*
X904526Y280420D03*
D155*
X915194Y280420D03*
D166*
X928148Y280420D03*
D197*
X944404Y280420D03*
D162*
X966502Y280420D03*
D168*
X983774Y280420D03*
D150*
X1014508Y280420D03*
D168*
X1030510Y280420D03*
D165*
X1049814Y280420D03*
D204*
X1077500Y280420D03*
D164*
X888778Y279912D03*
D157*
X897414Y279912D03*
D193*
X904780Y279912D03*
D158*
X915448Y279912D03*
D152*
X927894Y279912D03*
D197*
X944404Y279912D03*
D162*
X966502Y279912D03*
D168*
X983774Y279912D03*
D152*
X1014762Y279912D03*
D193*
X1030764Y279912D03*
D163*
X1050068Y279912D03*
D204*
X1077500Y279912D03*
D164*
X888778Y279404D03*
D157*
X897414Y279404D03*
D162*
X905034Y279404D03*
D166*
X927640Y279404D03*
D197*
X944404Y279404D03*
D144*
X966756Y279404D03*
D168*
X983774Y279404D03*
D152*
X1015270Y279404D03*
D193*
X1030764Y279404D03*
D165*
X1050322Y279404D03*
D206*
X1077754Y279404D03*
D164*
X888778Y278896D03*
D157*
X897414Y278896D03*
D148*
X905542Y278896D03*
D153*
X921290Y278896D03*
D152*
X927386Y278896D03*
D220*
X944658Y278896D03*
D162*
X967010Y278896D03*
D144*
X984028Y278896D03*
D166*
X1015524Y278896D03*
D191*
X1031018Y278896D03*
D163*
X1050576Y278896D03*
D206*
X1077754Y278896D03*
D166*
X889032Y278388D03*
D158*
X897668Y278388D03*
D152*
X905542Y278388D03*
D160*
X921544Y278388D03*
D152*
X927386Y278388D03*
D199*
X944404Y278388D03*
D162*
X967010Y278388D03*
D144*
X984028Y278388D03*
D166*
X1015524Y278388D03*
D193*
X1031272Y278388D03*
D165*
X1050830Y278388D03*
D206*
X1077754Y278388D03*
D166*
X889032Y277880D03*
D153*
X897922Y277880D03*
D155*
X906050Y277880D03*
D164*
X921798Y277880D03*
D150*
X927132Y277880D03*
D170*
X944658Y277880D03*
D162*
X967518Y277880D03*
X984282Y277880D03*
D164*
X1015778Y277880D03*
D193*
X1031272Y277880D03*
D165*
X1050830Y277880D03*
D207*
X1078008Y277880D03*
D152*
X889286Y277372D03*
D153*
X897922Y277372D03*
D160*
X906304Y277372D03*
D188*
X924592Y277372D03*
D170*
X944658Y277372D03*
D162*
X967518Y277372D03*
D144*
X984536Y277372D03*
D166*
X1016032Y277372D03*
D193*
X1031780Y277372D03*
D163*
X1051084Y277372D03*
D207*
X1078008Y277372D03*
D152*
X889286Y276864D03*
D154*
X898176Y276864D03*
D153*
X906558Y276864D03*
D185*
X924338Y276864D03*
D170*
X944658Y276864D03*
D162*
X968026Y276864D03*
D144*
X984536Y276864D03*
D164*
X1016286Y276864D03*
D193*
X1031780Y276864D03*
D165*
X1051338Y276864D03*
D205*
X1078262Y276864D03*
D150*
X889540Y276356D03*
D154*
X898176Y276356D03*
D153*
X912146Y276356D03*
D185*
X923830Y276356D03*
D212*
X944658Y276356D03*
D162*
X968026Y276356D03*
X984790Y276356D03*
D164*
X1016286Y276356D03*
D193*
X1032288Y276356D03*
D163*
X1051592Y276356D03*
D205*
X1078262Y276356D03*
D150*
X889540Y275848D03*
D158*
X912400Y275848D03*
D163*
X923576Y275848D03*
D212*
X944658Y275848D03*
D146*
X968280Y275848D03*
D144*
X985044Y275848D03*
D166*
X1000792Y275848D03*
X1016540Y275848D03*
D193*
X1032288Y275848D03*
D165*
X1051846Y275848D03*
D208*
X1078516Y275848D03*
D148*
X889794Y275340D03*
D155*
X912654Y275340D03*
D163*
X923576Y275340D03*
D202*
X944912Y275340D03*
D146*
X968280Y275340D03*
D162*
X985298Y275340D03*
D146*
X1001808Y275340D03*
D166*
X1016540Y275340D03*
D168*
X1032542Y275340D03*
D165*
X1051846Y275340D03*
D208*
X1078516Y275340D03*
D148*
X889794Y274832D03*
D166*
X912908Y274832D03*
D163*
X923068Y274832D03*
D215*
X944658Y274832D03*
D146*
X968788Y274832D03*
D162*
X985298Y274832D03*
D146*
X1002316Y274832D03*
D166*
X1017048Y274832D03*
D144*
X1032796Y274832D03*
D165*
X1052354Y274832D03*
D208*
X1078516Y274832D03*
D146*
X890048Y274324D03*
D152*
X913162Y274324D03*
D165*
X922814Y274324D03*
D215*
X944658Y274324D03*
D148*
X969042Y274324D03*
D144*
X985552Y274324D03*
D148*
X1002570Y274324D03*
D166*
X1017048Y274324D03*
D162*
X1033050Y274324D03*
D165*
X1052354Y274324D03*
D209*
X1078770Y274324D03*
D146*
X890048Y273816D03*
D197*
X919004Y273816D03*
D209*
X944658Y273816D03*
D152*
X969042Y273816D03*
D162*
X985806Y273816D03*
D150*
X1002824Y273816D03*
X1017048Y273816D03*
D146*
X1033304Y273816D03*
D163*
X1052608Y273816D03*
D209*
X1078770Y273816D03*
D162*
X890302Y273308D03*
D153*
X903510Y273308D03*
D197*
X918496Y273308D03*
D209*
X944658Y273308D03*
D161*
X969296Y273308D03*
D144*
X986060Y273308D03*
D152*
X1003078Y273308D03*
D150*
X1017048Y273308D03*
X1033304Y273308D03*
D168*
X1051338Y273308D03*
D196*
X1081564Y273308D03*
D144*
X890556Y272800D03*
D157*
X904018Y272800D03*
D197*
X918496Y272800D03*
D205*
X944658Y272800D03*
D154*
X969296Y272800D03*
D168*
X986314Y272800D03*
D161*
X1003332Y272800D03*
D148*
X1017302Y272800D03*
D164*
X1033558Y272800D03*
D144*
X1051084Y272800D03*
D147*
X1082072Y272800D03*
D144*
X890556Y272292D03*
D155*
X904526Y272292D03*
D197*
X917988Y272292D03*
D205*
X944658Y272292D03*
D168*
X986314Y272292D03*
D146*
X1017556Y272292D03*
D158*
X1033812Y272292D03*
D146*
X1051084Y272292D03*
D151*
X1082580Y272292D03*
D168*
X890810Y271784D03*
D164*
X905034Y271784D03*
D197*
X917480Y271784D03*
D207*
X944404Y271784D03*
D193*
X986568Y271784D03*
D146*
X1017556Y271784D03*
D148*
X1050830Y271784D03*
D156*
X1082834Y271784D03*
D193*
X891064Y271276D03*
D208*
X914432Y271276D03*
D206*
X944658Y271276D03*
D191*
X986822Y271276D03*
D162*
X1017810Y271276D03*
D150*
X1051084Y271276D03*
D156*
X1082834Y271276D03*
D193*
X891064Y270768D03*
D205*
X914178Y270768D03*
D207*
X944912Y270768D03*
D191*
X986822Y270768D03*
D144*
X1018064Y270768D03*
D150*
X1051084Y270768D03*
D175*
X1083088Y270768D03*
D191*
X891318Y270260D03*
D209*
X914178Y270260D03*
D207*
X945420Y270260D03*
D188*
X987076Y270260D03*
D193*
X1018064Y270260D03*
D152*
X1050830Y270260D03*
D175*
X1083088Y270260D03*
D188*
X891572Y269752D03*
D202*
X914432Y269752D03*
D205*
X945674Y269752D03*
D163*
X987076Y269752D03*
D191*
X1018318Y269752D03*
D152*
X1051338Y269752D03*
D219*
X1083342Y269752D03*
D185*
X891826Y269244D03*
D200*
X914432Y269244D03*
D205*
X945674Y269244D03*
D165*
X987330Y269244D03*
D185*
X1018318Y269244D03*
D152*
X1051338Y269244D03*
D219*
X1083342Y269244D03*
D163*
X892080Y268736D03*
D199*
X914432Y268736D03*
D205*
X946182Y268736D03*
D167*
X987584Y268736D03*
D165*
X1018318Y268736D03*
D152*
X1051338Y268736D03*
D219*
X1083342Y268736D03*
D165*
X892334Y268228D03*
D196*
X914432Y268228D03*
D208*
X946436Y268228D03*
D219*
X987838Y268228D03*
D167*
X1018572Y268228D03*
D152*
X1051338Y268228D03*
D219*
X1083342Y268228D03*
D167*
X892588Y267720D03*
D149*
X914686Y267720D03*
D205*
X946690Y267720D03*
D156*
X987838Y267720D03*
D177*
X1018572Y267720D03*
D150*
X1051592Y267720D03*
D219*
X1083342Y267720D03*
D159*
X892842Y267212D03*
D175*
X914432Y267212D03*
D208*
X946944Y267212D03*
D153*
X967010Y267212D03*
D149*
X987838Y267212D03*
D151*
X1018572Y267212D03*
D153*
X1040162Y267212D03*
D148*
X1051338Y267212D03*
D175*
X1083088Y267212D03*
D177*
X893096Y266704D03*
D165*
X914686Y266704D03*
D208*
X947452Y266704D03*
D158*
X967264Y266704D03*
D196*
X988092Y266704D03*
D147*
X1018572Y266704D03*
D158*
X1039908Y266704D03*
D162*
X1051338Y266704D03*
D175*
X1083088Y266704D03*
D219*
X893350Y266196D03*
D168*
X914686Y266196D03*
D208*
X947960Y266196D03*
D155*
X967518Y266196D03*
D220*
X988346Y266196D03*
D197*
X1018572Y266196D03*
D161*
X1039908Y266196D03*
D168*
X1051846Y266196D03*
D156*
X1082834Y266196D03*
D175*
X893604Y265688D03*
D161*
X914940Y265688D03*
D207*
X948468Y265688D03*
D152*
X967518Y265688D03*
D212*
X988346Y265688D03*
D200*
X1018572Y265688D03*
D166*
X1039908Y265688D03*
D188*
X1051592Y265688D03*
D151*
X1082580Y265688D03*
D156*
X893858Y265180D03*
D204*
X949484Y265180D03*
D168*
X967518Y265180D03*
D205*
X988854Y265180D03*
D208*
X1018572Y265180D03*
D144*
X1039908Y265180D03*
D177*
X1052100Y265180D03*
D196*
X1081564Y265180D03*
D149*
X894366Y264672D03*
D221*
X999522Y264672D03*
D199*
X1080548Y264672D03*
D147*
X894620Y264164D03*
D222*
X999776Y264164D03*
D220*
X1080802Y264164D03*
D196*
X895128Y263656D03*
D221*
X1000030Y263656D03*
D220*
X1080802Y263656D03*
D197*
X895636Y263148D03*
D221*
X1000538Y263148D03*
D197*
X1081056Y263148D03*
D220*
X895890Y262640D03*
D221*
X1000538Y262640D03*
D197*
X1081056Y262640D03*
D220*
X895890Y262132D03*
D223*
X1000792Y262132D03*
D197*
X1081056Y262132D03*
D220*
X895890Y261624D03*
D223*
X1001300Y261624D03*
D145*
X1081310Y261624D03*
D220*
X895890Y261116D03*
D224*
X1001554Y261116D03*
D145*
X1081310Y261116D03*
D220*
X895890Y260608D03*
D223*
X1001808Y260608D03*
D145*
X1081310Y260608D03*
D220*
X895890Y260100D03*
D224*
X1002062Y260100D03*
D196*
X1081564Y260100D03*
D220*
X895890Y259592D03*
D224*
X1002570Y259592D03*
D196*
X1081564Y259592D03*
D220*
X895890Y259084D03*
D224*
X1002570Y259084D03*
D196*
X1081564Y259084D03*
D220*
X895890Y258576D03*
D224*
X1003078Y258576D03*
D196*
X1081564Y258576D03*
D220*
X895890Y258068D03*
D153*
X929926Y258068D03*
D225*
X1003332Y258068D03*
D196*
X1081564Y258068D03*
D220*
X895890Y257560D03*
D161*
X931196Y257560D03*
D225*
X1003840Y257560D03*
D145*
X1081310Y257560D03*
D220*
X895890Y257052D03*
D148*
X932466Y257052D03*
D224*
X1004094Y257052D03*
D145*
X1081310Y257052D03*
D220*
X895890Y256544D03*
D191*
X933482Y256544D03*
D224*
X1004602Y256544D03*
D197*
X1081056Y256544D03*
D220*
X895890Y256036D03*
D165*
X934498Y256036D03*
D223*
X1005364Y256036D03*
D220*
X1080802Y256036D03*
X895890Y255528D03*
D175*
X935768Y255528D03*
D226*
X1016794Y255528D03*
D220*
X895890Y255020D03*
D227*
X1009428Y255020D03*
D197*
X895636Y254512D03*
D155*
X929926Y254512D03*
D216*
X1011968Y254512D03*
D197*
X895636Y254004D03*
D154*
X914940Y254004D03*
D160*
X929672Y254004D03*
D218*
X1012476Y254004D03*
D197*
X895636Y253496D03*
D158*
X914940Y253496D03*
D160*
X929672Y253496D03*
D228*
X1012730Y253496D03*
D197*
X895636Y252988D03*
D160*
X914940Y252988D03*
X929672Y252988D03*
D229*
X1012984Y252988D03*
D197*
X895636Y252480D03*
D161*
X914940Y252480D03*
X929672Y252480D03*
D230*
X1013238Y252480D03*
D197*
X895636Y251972D03*
D166*
X914940Y251972D03*
D164*
X929926Y251972D03*
D231*
X1013746Y251972D03*
D197*
X895636Y251464D03*
D150*
X914940Y251464D03*
D152*
X930434Y251464D03*
D185*
X943134Y251464D03*
D161*
X951516Y251464D03*
D152*
X957866Y251464D03*
D155*
X963962Y251464D03*
D150*
X970312Y251464D03*
D161*
X976408Y251464D03*
D150*
X983012Y251464D03*
D161*
X990124Y251464D03*
X995712Y251464D03*
D166*
X1001808Y251464D03*
D150*
X1009936Y251464D03*
D153*
X1017810Y251464D03*
D164*
X1021874Y251464D03*
D166*
X1028224Y251464D03*
D164*
X1034066Y251464D03*
D153*
X1040670Y251464D03*
D157*
X1044226Y251464D03*
D153*
X1046766Y251464D03*
D146*
X1053624Y251464D03*
D150*
X1062768Y251464D03*
X1070388Y251464D03*
D161*
X1076484Y251464D03*
D188*
X1085120Y251464D03*
D197*
X895636Y250956D03*
D146*
X914940Y250956D03*
D148*
X930434Y250956D03*
D188*
X942880Y250956D03*
D160*
X951516Y250956D03*
D166*
X958120Y250956D03*
D160*
X964216Y250956D03*
D166*
X970312Y250956D03*
D160*
X976408Y250956D03*
D166*
X983012Y250956D03*
D155*
X989870Y250956D03*
D161*
X995712Y250956D03*
D160*
X1001300Y250956D03*
D161*
X1010444Y250956D03*
D155*
X1021874Y250956D03*
D164*
X1027970Y250956D03*
D155*
X1034066Y250956D03*
D153*
X1044226Y250956D03*
D150*
X1054132Y250956D03*
X1062768Y250956D03*
D166*
X1070388Y250956D03*
D160*
X1076484Y250956D03*
D191*
X1085374Y250956D03*
D197*
X895636Y250448D03*
D168*
X915194Y250448D03*
D162*
X930942Y250448D03*
D191*
X943134Y250448D03*
D157*
X951770Y250448D03*
D164*
X957866Y250448D03*
D157*
X963962Y250448D03*
D161*
X970312Y250448D03*
D160*
X976408Y250448D03*
D152*
X983266Y250448D03*
D155*
X989870Y250448D03*
X995966Y250448D03*
D157*
X1001046Y250448D03*
D160*
X1010444Y250448D03*
D155*
X1021874Y250448D03*
D164*
X1027970Y250448D03*
D160*
X1033812Y250448D03*
D153*
X1043718Y250448D03*
D166*
X1054640Y250448D03*
D150*
X1062768Y250448D03*
D166*
X1070388Y250448D03*
D157*
X1076738Y250448D03*
D191*
X1085374Y250448D03*
D197*
X895636Y249940D03*
D193*
X914940Y249940D03*
D157*
X928402Y249940D03*
D155*
X933482Y249940D03*
D168*
X943134Y249940D03*
D158*
X951516Y249940D03*
D161*
X958120Y249940D03*
D157*
X963962Y249940D03*
D161*
X970312Y249940D03*
D158*
X976408Y249940D03*
D152*
X983774Y249940D03*
D161*
X989616Y249940D03*
D155*
X995966Y249940D03*
D158*
X1000792Y249940D03*
D157*
X1010698Y249940D03*
D161*
X1021620Y249940D03*
X1028224Y249940D03*
D157*
X1033558Y249940D03*
D158*
X1043972Y249940D03*
D152*
X1055402Y249940D03*
D148*
X1062514Y249940D03*
D164*
X1070134Y249940D03*
D158*
X1076484Y249940D03*
D193*
X1085628Y249940D03*
D197*
X895636Y249432D03*
D185*
X915194Y249432D03*
D157*
X928402Y249432D03*
D160*
X934244Y249432D03*
D168*
X943134Y249432D03*
D158*
X951516Y249432D03*
D155*
X957866Y249432D03*
D158*
X964216Y249432D03*
D155*
X970566Y249432D03*
D158*
X976408Y249432D03*
D185*
X986314Y249432D03*
D160*
X995712Y249432D03*
D153*
X1000538Y249432D03*
X1010698Y249432D03*
D161*
X1021620Y249432D03*
D164*
X1027970Y249432D03*
D157*
X1033558Y249432D03*
D158*
X1043972Y249432D03*
D159*
X1059466Y249432D03*
D164*
X1070134Y249432D03*
D158*
X1076484Y249432D03*
D193*
X1085628Y249432D03*
D197*
X895636Y248924D03*
D167*
X914940Y248924D03*
D157*
X927894Y248924D03*
D160*
X934752Y248924D03*
D144*
X943388Y248924D03*
D153*
X951770Y248924D03*
D160*
X958120Y248924D03*
D153*
X963962Y248924D03*
D155*
X970566Y248924D03*
D153*
X976662Y248924D03*
D185*
X986314Y248924D03*
D160*
X995712Y248924D03*
D153*
X1000538Y248924D03*
D155*
X1005618Y248924D03*
D153*
X1010698Y248924D03*
D160*
X1015524Y248924D03*
D164*
X1021366Y248924D03*
X1027970Y248924D03*
D157*
X1033558Y248924D03*
D155*
X1038638Y248924D03*
D157*
X1043718Y248924D03*
X1048798Y248924D03*
D159*
X1059466Y248924D03*
D164*
X1070134Y248924D03*
D153*
X1076738Y248924D03*
D168*
X1085882Y248924D03*
D197*
X895636Y248416D03*
D177*
X914940Y248416D03*
D157*
X927894Y248416D03*
X935006Y248416D03*
D144*
X943388Y248416D03*
D153*
X951770Y248416D03*
D160*
X958120Y248416D03*
D154*
X964216Y248416D03*
D160*
X970312Y248416D03*
D154*
X976408Y248416D03*
D188*
X986568Y248416D03*
D160*
X995712Y248416D03*
D153*
X1000030Y248416D03*
D166*
X1005872Y248416D03*
D158*
X1010444Y248416D03*
D155*
X1015270Y248416D03*
D164*
X1021366Y248416D03*
X1027970Y248416D03*
D158*
X1033304Y248416D03*
D155*
X1038638Y248416D03*
D157*
X1043718Y248416D03*
D164*
X1048798Y248416D03*
D167*
X1059720Y248416D03*
D164*
X1070134Y248416D03*
D153*
X1076738Y248416D03*
D168*
X1085882Y248416D03*
D197*
X895636Y247908D03*
D166*
X910368Y247908D03*
D162*
X918242Y247908D03*
D160*
X928148Y247908D03*
D157*
X935514Y247908D03*
D146*
X943388Y247908D03*
D153*
X951770Y247908D03*
D160*
X958120Y247908D03*
D154*
X964216Y247908D03*
D157*
X970566Y247908D03*
D154*
X976408Y247908D03*
D188*
X986568Y247908D03*
D160*
X995712Y247908D03*
D153*
X1000030Y247908D03*
D148*
X1008158Y247908D03*
D155*
X1015270Y247908D03*
D164*
X1021366Y247908D03*
X1027970Y247908D03*
D158*
X1033304Y247908D03*
D161*
X1038384Y247908D03*
D157*
X1043718Y247908D03*
D166*
X1049052Y247908D03*
D167*
X1059720Y247908D03*
D161*
X1069880Y247908D03*
D154*
X1076992Y247908D03*
D168*
X1085882Y247908D03*
D197*
X895636Y247400D03*
D166*
X909860Y247400D03*
D162*
X918750Y247400D03*
D155*
X928402Y247400D03*
D157*
X935514Y247400D03*
D146*
X943388Y247400D03*
D157*
X958374Y247400D03*
X970566Y247400D03*
D188*
X986568Y247400D03*
D160*
X995712Y247400D03*
D153*
X1000030Y247400D03*
D166*
X1008412Y247400D03*
D155*
X1015270Y247400D03*
D164*
X1021366Y247400D03*
X1027970Y247400D03*
D158*
X1033304Y247400D03*
D161*
X1038384Y247400D03*
D157*
X1043718Y247400D03*
D166*
X1049052Y247400D03*
D167*
X1059720Y247400D03*
D161*
X1069880Y247400D03*
D144*
X1086136Y247400D03*
D197*
X895636Y246892D03*
D152*
X909606Y246892D03*
D144*
X919004Y246892D03*
D166*
X928656Y246892D03*
D157*
X936022Y246892D03*
D148*
X943642Y246892D03*
D154*
X949484Y246892D03*
X954564Y246892D03*
D158*
X958120Y246892D03*
D154*
X966756Y246892D03*
D157*
X970566Y246892D03*
D191*
X986822Y246892D03*
D160*
X995712Y246892D03*
D153*
X1000030Y246892D03*
D161*
X1008920Y246892D03*
D155*
X1015270Y246892D03*
D164*
X1021366Y246892D03*
X1027970Y246892D03*
D158*
X1033304Y246892D03*
D161*
X1038384Y246892D03*
D157*
X1043718Y246892D03*
D166*
X1049052Y246892D03*
D167*
X1059720Y246892D03*
D161*
X1069880Y246892D03*
D154*
X1079532Y246892D03*
D144*
X1086136Y246892D03*
D197*
X895636Y246384D03*
D152*
X909098Y246384D03*
D168*
X919258Y246384D03*
D152*
X928910Y246384D03*
D157*
X936022Y246384D03*
D148*
X943642Y246384D03*
D154*
X949484Y246384D03*
X954564Y246384D03*
D158*
X958120Y246384D03*
D154*
X961676Y246384D03*
X966756Y246384D03*
D157*
X970566Y246384D03*
D154*
X974376Y246384D03*
D153*
X979202Y246384D03*
D191*
X986822Y246384D03*
D157*
X995966Y246384D03*
D153*
X1000030Y246384D03*
D155*
X1009682Y246384D03*
X1015270Y246384D03*
D164*
X1021366Y246384D03*
X1027970Y246384D03*
D158*
X1033304Y246384D03*
D155*
X1038638Y246384D03*
D157*
X1043718Y246384D03*
D166*
X1049052Y246384D03*
D167*
X1059720Y246384D03*
D161*
X1069880Y246384D03*
D154*
X1074452Y246384D03*
X1079532Y246384D03*
D144*
X1086136Y246384D03*
D197*
X895636Y245876D03*
D150*
X908844Y245876D03*
D157*
X916210Y245876D03*
D166*
X921544Y245876D03*
X929672Y245876D03*
D157*
X936530Y245876D03*
D148*
X943642Y245876D03*
D154*
X949484Y245876D03*
X954564Y245876D03*
D158*
X958120Y245876D03*
D153*
X961930Y245876D03*
X967010Y245876D03*
X970566Y245876D03*
D154*
X974376Y245876D03*
D153*
X979202Y245876D03*
D191*
X986822Y245876D03*
D157*
X995966Y245876D03*
D153*
X1000030Y245876D03*
D154*
X1003840Y245876D03*
D160*
X1009936Y245876D03*
D155*
X1015270Y245876D03*
D164*
X1021366Y245876D03*
X1027970Y245876D03*
D157*
X1033558Y245876D03*
D155*
X1038638Y245876D03*
D157*
X1043718Y245876D03*
D166*
X1049052Y245876D03*
D167*
X1059720Y245876D03*
D161*
X1069880Y245876D03*
D154*
X1074452Y245876D03*
X1079532Y245876D03*
D144*
X1086136Y245876D03*
D197*
X895636Y245368D03*
D148*
X908590Y245368D03*
D157*
X915702Y245368D03*
D164*
X921798Y245368D03*
D161*
X930180Y245368D03*
D157*
X936530Y245368D03*
D148*
X943642Y245368D03*
D153*
X949738Y245368D03*
X954310Y245368D03*
X958374Y245368D03*
X961930Y245368D03*
X967010Y245368D03*
X970566Y245368D03*
X974122Y245368D03*
X979202Y245368D03*
D191*
X986822Y245368D03*
D158*
X996220Y245368D03*
X1000284Y245368D03*
D157*
X1004602Y245368D03*
X1010190Y245368D03*
D160*
X1015524Y245368D03*
D164*
X1021366Y245368D03*
X1027970Y245368D03*
D157*
X1033558Y245368D03*
D160*
X1038892Y245368D03*
D157*
X1043718Y245368D03*
D166*
X1049052Y245368D03*
D167*
X1059720Y245368D03*
D161*
X1069880Y245368D03*
D153*
X1074706Y245368D03*
X1079786Y245368D03*
D162*
X1086390Y245368D03*
D197*
X895636Y244860D03*
D146*
X908336Y244860D03*
D157*
X915702Y244860D03*
D161*
X921544Y244860D03*
X930688Y244860D03*
D157*
X936530Y244860D03*
D150*
X943388Y244860D03*
D153*
X949738Y244860D03*
D158*
X954564Y244860D03*
D153*
X958374Y244860D03*
X961930Y244860D03*
X967010Y244860D03*
X970566Y244860D03*
D158*
X974376Y244860D03*
D153*
X979202Y244860D03*
D193*
X987076Y244860D03*
D153*
X996474Y244860D03*
D158*
X1000284Y244860D03*
D160*
X1005364Y244860D03*
D157*
X1010698Y244860D03*
X1015778Y244860D03*
D164*
X1021366Y244860D03*
X1027970Y244860D03*
D157*
X1033558Y244860D03*
X1039146Y244860D03*
X1043718Y244860D03*
D155*
X1049306Y244860D03*
D167*
X1059720Y244860D03*
D155*
X1069626Y244860D03*
D153*
X1074706Y244860D03*
D158*
X1079532Y244860D03*
D162*
X1086390Y244860D03*
D206*
X898938Y244352D03*
D157*
X915702Y244352D03*
D155*
X921290Y244352D03*
X930942Y244352D03*
D158*
X936784Y244352D03*
D152*
X943642Y244352D03*
D153*
X949738Y244352D03*
D158*
X954564Y244352D03*
D153*
X958374Y244352D03*
D158*
X962184Y244352D03*
X966756Y244352D03*
D154*
X970820Y244352D03*
D158*
X974376Y244352D03*
X979456Y244352D03*
D193*
X987076Y244352D03*
D157*
X1000538Y244352D03*
X1010698Y244352D03*
D160*
X1020604Y244352D03*
D157*
X1028986Y244352D03*
D160*
X1033812Y244352D03*
D157*
X1043718Y244352D03*
D163*
X1058704Y244352D03*
D153*
X1070642Y244352D03*
X1074706Y244352D03*
D158*
X1079532Y244352D03*
D162*
X1086390Y244352D03*
D206*
X898938Y243844D03*
D157*
X915194Y243844D03*
D160*
X921036Y243844D03*
D155*
X930942Y243844D03*
D158*
X936784Y243844D03*
D152*
X943642Y243844D03*
D157*
X949738Y243844D03*
D158*
X954564Y243844D03*
D154*
X958120Y243844D03*
D158*
X962184Y243844D03*
D157*
X967010Y243844D03*
D154*
X970820Y243844D03*
D158*
X974376Y243844D03*
X979456Y243844D03*
D193*
X987076Y243844D03*
D157*
X1000538Y243844D03*
D160*
X1010952Y243844D03*
D153*
X1020350Y243844D03*
D158*
X1029240Y243844D03*
D155*
X1034066Y243844D03*
D157*
X1043718Y243844D03*
D185*
X1057942Y243844D03*
D154*
X1070896Y243844D03*
D158*
X1074960Y243844D03*
X1079532Y243844D03*
D146*
X1086644Y243844D03*
D206*
X898938Y243336D03*
D157*
X915194Y243336D03*
D155*
X920782Y243336D03*
X931450Y243336D03*
D158*
X936784Y243336D03*
D152*
X943642Y243336D03*
D157*
X949738Y243336D03*
D158*
X954564Y243336D03*
X962184Y243336D03*
D157*
X967010Y243336D03*
D154*
X970820Y243336D03*
D157*
X974630Y243336D03*
X979202Y243336D03*
D193*
X987076Y243336D03*
D155*
X1000538Y243336D03*
D161*
X1010952Y243336D03*
D158*
X1020096Y243336D03*
D153*
X1029494Y243336D03*
D155*
X1034066Y243336D03*
D157*
X1043718Y243336D03*
D188*
X1057688Y243336D03*
D157*
X1074706Y243336D03*
X1079786Y243336D03*
D146*
X1086644Y243336D03*
D206*
X898938Y242828D03*
D157*
X915194Y242828D03*
D155*
X920782Y242828D03*
X931450Y242828D03*
D158*
X936784Y242828D03*
D152*
X943642Y242828D03*
D157*
X949738Y242828D03*
D160*
X954564Y242828D03*
X962184Y242828D03*
D157*
X967010Y242828D03*
D154*
X970820Y242828D03*
D157*
X974630Y242828D03*
X979202Y242828D03*
D168*
X987330Y242828D03*
D161*
X1000792Y242828D03*
D166*
X1010952Y242828D03*
D158*
X1020096Y242828D03*
D153*
X1029494Y242828D03*
D164*
X1034574Y242828D03*
D160*
X1043464Y242828D03*
D185*
X1057434Y242828D03*
D154*
X1070896Y242828D03*
D157*
X1074706Y242828D03*
D160*
X1079532Y242828D03*
D146*
X1086644Y242828D03*
D206*
X898938Y242320D03*
D157*
X915194Y242320D03*
D155*
X920782Y242320D03*
X931450Y242320D03*
D158*
X936784Y242320D03*
D150*
X943896Y242320D03*
D160*
X949992Y242320D03*
X954564Y242320D03*
D153*
X958374Y242320D03*
D160*
X962184Y242320D03*
D155*
X967010Y242320D03*
D154*
X970820Y242320D03*
D155*
X974630Y242320D03*
X979202Y242320D03*
D191*
X987330Y242320D03*
D158*
X994696Y242320D03*
D152*
X1001046Y242320D03*
D148*
X1011206Y242320D03*
D160*
X1019588Y242320D03*
D158*
X1029240Y242320D03*
D152*
X1035082Y242320D03*
D155*
X1043210Y242320D03*
D154*
X1047020Y242320D03*
D167*
X1057180Y242320D03*
D153*
X1071150Y242320D03*
D160*
X1074960Y242320D03*
X1079532Y242320D03*
D162*
X1086390Y242320D03*
D206*
X898938Y241812D03*
D157*
X915194Y241812D03*
D155*
X920782Y241812D03*
D160*
X931196Y241812D03*
D158*
X936784Y241812D03*
D232*
X966502Y241812D03*
D180*
X1008666Y241812D03*
D164*
X1027970Y241812D03*
D159*
X1038638Y241812D03*
D220*
X1055910Y241812D03*
D203*
X1079024Y241812D03*
D206*
X898938Y241304D03*
D157*
X915194Y241304D03*
D155*
X920782Y241304D03*
D160*
X931196Y241304D03*
D158*
X936784Y241304D03*
D233*
X981996Y241304D03*
D164*
X1027970Y241304D03*
D159*
X1038638Y241304D03*
D220*
X1055910Y241304D03*
D203*
X1079024Y241304D03*
D206*
X898938Y240796D03*
D157*
X915194Y240796D03*
D155*
X920782Y240796D03*
X930942Y240796D03*
D157*
X936530Y240796D03*
D233*
X981996Y240796D03*
D164*
X1027970Y240796D03*
D159*
X1038638Y240796D03*
D220*
X1055910Y240796D03*
D203*
X1079024Y240796D03*
D206*
X898938Y240288D03*
D158*
X915448Y240288D03*
D155*
X921290Y240288D03*
X930942Y240288D03*
D157*
X936530Y240288D03*
D233*
X981996Y240288D03*
D164*
X1027970Y240288D03*
D159*
X1038638Y240288D03*
D220*
X1055910Y240288D03*
D203*
X1079024Y240288D03*
D204*
X899192Y239780D03*
D157*
X915702Y239780D03*
D161*
X921544Y239780D03*
X930688Y239780D03*
D157*
X936022Y239780D03*
D233*
X981996Y239780D03*
D164*
X1027970Y239780D03*
D159*
X1038638Y239780D03*
D220*
X1055910Y239780D03*
D209*
X1078770Y239780D03*
D204*
X899192Y239272D03*
D157*
X915702Y239272D03*
D161*
X922052Y239272D03*
D166*
X930688Y239272D03*
D160*
X935768Y239272D03*
D233*
X981996Y239272D03*
D166*
X1027716Y239272D03*
D159*
X1038638Y239272D03*
D199*
X1056164Y239272D03*
D209*
X1078770Y239272D03*
D204*
X899192Y238764D03*
D158*
X915956Y238764D03*
D164*
X922814Y238764D03*
D188*
X932212Y238764D03*
D234*
X985044Y238764D03*
D159*
X1038638Y238764D03*
D235*
X1068356Y238764D03*
D204*
X899192Y238256D03*
D157*
X916210Y238256D03*
D147*
X929164Y238256D03*
D234*
X985044Y238256D03*
D159*
X1038638Y238256D03*
D235*
X1068356Y238256D03*
D201*
X899446Y237748D03*
D160*
X916464Y237748D03*
D151*
X929672Y237748D03*
D236*
X984790Y237748D03*
D159*
X1038638Y237748D03*
D235*
X1068356Y237748D03*
D201*
X899446Y237240D03*
D157*
X916718Y237240D03*
D151*
X930180Y237240D03*
D237*
X984790Y237240D03*
D219*
X1038638Y237240D03*
D235*
X1068356Y237240D03*
D201*
X899446Y236732D03*
D157*
X917226Y236732D03*
D238*
X1006634Y236732D03*
D198*
X899700Y236224D03*
D160*
X917480Y236224D03*
D238*
X1006634Y236224D03*
D194*
X899954Y235716D03*
D160*
X917988Y235716D03*
D239*
X1006380Y235716D03*
D194*
X899954Y235208D03*
D155*
X918750Y235208D03*
D240*
X1006126Y235208D03*
D190*
X900208Y234700D03*
D241*
X1003840Y234700D03*
D187*
X900462Y234192D03*
D174*
X1004094Y234192D03*
D187*
X900462Y233684D03*
D176*
X1004602Y233684D03*
D184*
X900716Y233176D03*
D178*
X1005110Y233176D03*
D182*
X900970Y232668D03*
D242*
X1005364Y232668D03*
D243*
X901224Y232160D03*
D244*
X1005618Y232160D03*
D245*
X901732Y231652D03*
D244*
X1005618Y231652D03*
D246*
X901986Y231144D03*
D242*
X1005364Y231144D03*
D247*
X902494Y230636D03*
D178*
X1005110Y230636D03*
D143*
X988346Y230128D03*
M02*
