G04 EAGLE Gerber RS-274X export*
G75*
%MOMM*%
%FSLAX34Y34*%
%LPD*%
%INSilkscreen Top*%
%IPPOS*%
%AMOC8*
5,1,8,0,0,1.08239X$1,22.5*%
G01*
%ADD10C,0.050800*%
%ADD11C,0.025400*%
%ADD12C,0.152400*%
%ADD13R,0.080000X0.020000*%
%ADD14R,0.120000X0.020000*%
%ADD15R,0.340000X0.020000*%
%ADD16R,0.100000X0.020000*%
%ADD17R,0.140000X0.020000*%
%ADD18R,0.240000X0.020000*%
%ADD19R,0.440000X0.020000*%
%ADD20R,0.180000X0.020000*%
%ADD21R,0.480000X0.020000*%
%ADD22R,0.320000X0.020000*%
%ADD23R,0.220000X0.020000*%
%ADD24R,0.280000X0.020000*%
%ADD25R,0.360000X0.020000*%
%ADD26R,0.060000X0.020000*%
%ADD27R,0.400000X0.020000*%
%ADD28R,0.260000X0.020000*%
%ADD29R,0.200000X0.020000*%
%ADD30R,0.300000X0.020000*%
%ADD31R,0.160000X0.020000*%
%ADD32R,0.020000X0.020000*%
%ADD33R,0.560000X0.020000*%
%ADD34R,0.040000X0.020000*%
%ADD35R,0.580000X0.020000*%
%ADD36R,0.380000X0.020000*%
%ADD37R,0.460000X0.020000*%
%ADD38R,0.760000X0.020000*%
%ADD39R,0.660000X0.020000*%
%ADD40R,0.620000X0.020000*%
%ADD41R,0.420000X0.020000*%
%ADD42R,0.920000X0.020000*%
%ADD43R,0.600000X0.020000*%
%ADD44R,0.520000X0.020000*%
%ADD45R,1.160000X0.020000*%
%ADD46R,1.420000X0.020000*%
%ADD47R,0.680000X0.020000*%
%ADD48R,0.540000X0.020000*%
%ADD49R,1.020000X0.020000*%
%ADD50R,1.080000X0.020000*%
%ADD51R,0.880000X0.020000*%
%ADD52C,0.150000*%
%ADD53C,0.250000*%
%ADD54C,0.600000*%
%ADD55C,0.203200*%

G36*
X952615Y273001D02*
X952615Y273001D01*
X952715Y273008D01*
X952755Y273023D01*
X952798Y273029D01*
X952888Y273072D01*
X952981Y273106D01*
X953016Y273132D01*
X953055Y273150D01*
X953130Y273216D01*
X953210Y273275D01*
X953233Y273306D01*
X953269Y273337D01*
X953366Y273489D01*
X953408Y273546D01*
X955408Y277546D01*
X955411Y277554D01*
X955416Y277561D01*
X955456Y277689D01*
X955498Y277816D01*
X955499Y277824D01*
X955501Y277832D01*
X955505Y277967D01*
X955510Y278100D01*
X955508Y278108D01*
X955509Y278116D01*
X955475Y278246D01*
X955443Y278376D01*
X955439Y278383D01*
X955437Y278391D01*
X955369Y278506D01*
X955302Y278623D01*
X955296Y278629D01*
X955292Y278636D01*
X955194Y278728D01*
X955098Y278821D01*
X955090Y278824D01*
X955084Y278830D01*
X954965Y278891D01*
X954847Y278954D01*
X954839Y278956D01*
X954831Y278960D01*
X954779Y278968D01*
X954569Y279013D01*
X954531Y279010D01*
X954500Y279015D01*
X950500Y279015D01*
X950492Y279014D01*
X950483Y279015D01*
X950351Y278994D01*
X950219Y278975D01*
X950211Y278972D01*
X950202Y278971D01*
X950081Y278914D01*
X949959Y278859D01*
X949953Y278854D01*
X949945Y278850D01*
X949844Y278762D01*
X949742Y278676D01*
X949737Y278668D01*
X949731Y278663D01*
X949659Y278550D01*
X949585Y278439D01*
X949582Y278431D01*
X949577Y278424D01*
X949539Y278295D01*
X949499Y278168D01*
X949499Y278159D01*
X949496Y278151D01*
X949495Y278017D01*
X949491Y277884D01*
X949494Y277875D01*
X949494Y277867D01*
X949509Y277816D01*
X949563Y277609D01*
X949583Y277576D01*
X949592Y277546D01*
X951592Y273546D01*
X951649Y273464D01*
X951698Y273377D01*
X951729Y273347D01*
X951753Y273312D01*
X951831Y273249D01*
X951902Y273180D01*
X951940Y273159D01*
X951973Y273132D01*
X952065Y273093D01*
X952153Y273046D01*
X952195Y273037D01*
X952235Y273020D01*
X952334Y273008D01*
X952431Y272987D01*
X952474Y272990D01*
X952517Y272985D01*
X952615Y273001D01*
G37*
G36*
X652615Y273001D02*
X652615Y273001D01*
X652715Y273008D01*
X652755Y273023D01*
X652798Y273029D01*
X652888Y273072D01*
X652981Y273106D01*
X653016Y273132D01*
X653055Y273150D01*
X653130Y273216D01*
X653210Y273275D01*
X653233Y273306D01*
X653269Y273337D01*
X653366Y273489D01*
X653408Y273546D01*
X655408Y277546D01*
X655411Y277554D01*
X655416Y277561D01*
X655456Y277689D01*
X655498Y277816D01*
X655499Y277824D01*
X655501Y277832D01*
X655505Y277967D01*
X655510Y278100D01*
X655508Y278108D01*
X655509Y278116D01*
X655475Y278246D01*
X655443Y278376D01*
X655439Y278383D01*
X655437Y278391D01*
X655369Y278506D01*
X655302Y278623D01*
X655296Y278629D01*
X655292Y278636D01*
X655194Y278728D01*
X655098Y278821D01*
X655090Y278824D01*
X655084Y278830D01*
X654965Y278891D01*
X654847Y278954D01*
X654839Y278956D01*
X654831Y278960D01*
X654779Y278968D01*
X654569Y279013D01*
X654531Y279010D01*
X654500Y279015D01*
X650500Y279015D01*
X650492Y279014D01*
X650483Y279015D01*
X650351Y278994D01*
X650219Y278975D01*
X650211Y278972D01*
X650202Y278971D01*
X650081Y278914D01*
X649959Y278859D01*
X649953Y278854D01*
X649945Y278850D01*
X649844Y278762D01*
X649742Y278676D01*
X649737Y278668D01*
X649731Y278663D01*
X649659Y278550D01*
X649585Y278439D01*
X649582Y278431D01*
X649577Y278424D01*
X649539Y278295D01*
X649499Y278168D01*
X649499Y278159D01*
X649496Y278151D01*
X649495Y278017D01*
X649491Y277884D01*
X649494Y277875D01*
X649494Y277867D01*
X649509Y277816D01*
X649563Y277609D01*
X649583Y277576D01*
X649592Y277546D01*
X651592Y273546D01*
X651649Y273464D01*
X651698Y273377D01*
X651729Y273347D01*
X651753Y273312D01*
X651831Y273249D01*
X651902Y273180D01*
X651940Y273159D01*
X651973Y273132D01*
X652065Y273093D01*
X652153Y273046D01*
X652195Y273037D01*
X652235Y273020D01*
X652334Y273008D01*
X652431Y272987D01*
X652474Y272990D01*
X652517Y272985D01*
X652615Y273001D01*
G37*
G36*
X352615Y273001D02*
X352615Y273001D01*
X352715Y273008D01*
X352755Y273023D01*
X352798Y273029D01*
X352888Y273072D01*
X352981Y273106D01*
X353016Y273132D01*
X353055Y273150D01*
X353130Y273216D01*
X353210Y273275D01*
X353233Y273306D01*
X353269Y273337D01*
X353366Y273489D01*
X353408Y273546D01*
X355408Y277546D01*
X355411Y277554D01*
X355416Y277561D01*
X355456Y277689D01*
X355498Y277816D01*
X355499Y277824D01*
X355501Y277832D01*
X355505Y277967D01*
X355510Y278100D01*
X355508Y278108D01*
X355509Y278116D01*
X355475Y278246D01*
X355443Y278376D01*
X355439Y278383D01*
X355437Y278391D01*
X355369Y278506D01*
X355302Y278623D01*
X355296Y278629D01*
X355292Y278636D01*
X355194Y278728D01*
X355098Y278821D01*
X355090Y278824D01*
X355084Y278830D01*
X354965Y278891D01*
X354847Y278954D01*
X354839Y278956D01*
X354831Y278960D01*
X354779Y278968D01*
X354569Y279013D01*
X354531Y279010D01*
X354500Y279015D01*
X350500Y279015D01*
X350492Y279014D01*
X350483Y279015D01*
X350351Y278994D01*
X350219Y278975D01*
X350211Y278972D01*
X350202Y278971D01*
X350081Y278914D01*
X349959Y278859D01*
X349953Y278854D01*
X349945Y278850D01*
X349844Y278762D01*
X349742Y278676D01*
X349737Y278668D01*
X349731Y278663D01*
X349659Y278550D01*
X349585Y278439D01*
X349582Y278431D01*
X349577Y278424D01*
X349539Y278295D01*
X349499Y278168D01*
X349499Y278159D01*
X349496Y278151D01*
X349495Y278017D01*
X349491Y277884D01*
X349494Y277875D01*
X349494Y277867D01*
X349509Y277816D01*
X349563Y277609D01*
X349583Y277576D01*
X349592Y277546D01*
X351592Y273546D01*
X351649Y273464D01*
X351698Y273377D01*
X351729Y273347D01*
X351753Y273312D01*
X351831Y273249D01*
X351902Y273180D01*
X351940Y273159D01*
X351973Y273132D01*
X352065Y273093D01*
X352153Y273046D01*
X352195Y273037D01*
X352235Y273020D01*
X352334Y273008D01*
X352431Y272987D01*
X352474Y272990D01*
X352517Y272985D01*
X352615Y273001D01*
G37*
G36*
X52615Y273001D02*
X52615Y273001D01*
X52715Y273008D01*
X52755Y273023D01*
X52798Y273029D01*
X52888Y273072D01*
X52981Y273106D01*
X53016Y273132D01*
X53055Y273150D01*
X53130Y273216D01*
X53210Y273275D01*
X53233Y273306D01*
X53269Y273337D01*
X53366Y273489D01*
X53408Y273546D01*
X55408Y277546D01*
X55411Y277554D01*
X55416Y277561D01*
X55456Y277689D01*
X55498Y277816D01*
X55499Y277824D01*
X55501Y277832D01*
X55505Y277967D01*
X55510Y278100D01*
X55508Y278108D01*
X55509Y278116D01*
X55475Y278246D01*
X55443Y278376D01*
X55439Y278383D01*
X55437Y278391D01*
X55369Y278506D01*
X55302Y278623D01*
X55296Y278629D01*
X55292Y278636D01*
X55194Y278728D01*
X55098Y278821D01*
X55090Y278824D01*
X55084Y278830D01*
X54965Y278891D01*
X54847Y278954D01*
X54839Y278956D01*
X54831Y278960D01*
X54779Y278968D01*
X54569Y279013D01*
X54531Y279010D01*
X54500Y279015D01*
X50500Y279015D01*
X50492Y279014D01*
X50483Y279015D01*
X50351Y278994D01*
X50219Y278975D01*
X50211Y278972D01*
X50202Y278971D01*
X50081Y278914D01*
X49959Y278859D01*
X49953Y278854D01*
X49945Y278850D01*
X49844Y278762D01*
X49742Y278676D01*
X49737Y278668D01*
X49731Y278663D01*
X49659Y278550D01*
X49585Y278439D01*
X49582Y278431D01*
X49577Y278424D01*
X49539Y278295D01*
X49499Y278168D01*
X49499Y278159D01*
X49496Y278151D01*
X49495Y278017D01*
X49491Y277884D01*
X49494Y277875D01*
X49494Y277867D01*
X49509Y277816D01*
X49563Y277609D01*
X49583Y277576D01*
X49592Y277546D01*
X51592Y273546D01*
X51649Y273464D01*
X51698Y273377D01*
X51729Y273347D01*
X51753Y273312D01*
X51831Y273249D01*
X51902Y273180D01*
X51940Y273159D01*
X51973Y273132D01*
X52065Y273093D01*
X52153Y273046D01*
X52195Y273037D01*
X52235Y273020D01*
X52334Y273008D01*
X52431Y272987D01*
X52474Y272990D01*
X52517Y272985D01*
X52615Y273001D01*
G37*
D10*
X45254Y80254D02*
X49746Y80254D01*
X49746Y82250D01*
X47999Y84791D02*
X47999Y85914D01*
X48000Y84791D02*
X48002Y84733D01*
X48008Y84675D01*
X48017Y84617D01*
X48031Y84560D01*
X48048Y84505D01*
X48069Y84450D01*
X48094Y84397D01*
X48122Y84346D01*
X48153Y84297D01*
X48188Y84250D01*
X48226Y84205D01*
X48266Y84163D01*
X48309Y84124D01*
X48355Y84088D01*
X48403Y84055D01*
X48453Y84025D01*
X48506Y83999D01*
X48559Y83976D01*
X48614Y83957D01*
X48671Y83942D01*
X48728Y83930D01*
X48786Y83922D01*
X48844Y83918D01*
X48902Y83918D01*
X48960Y83922D01*
X49018Y83930D01*
X49075Y83942D01*
X49132Y83957D01*
X49187Y83976D01*
X49240Y83999D01*
X49293Y84025D01*
X49343Y84055D01*
X49391Y84088D01*
X49437Y84124D01*
X49480Y84163D01*
X49520Y84205D01*
X49558Y84250D01*
X49593Y84297D01*
X49624Y84346D01*
X49652Y84397D01*
X49677Y84450D01*
X49698Y84505D01*
X49715Y84560D01*
X49729Y84617D01*
X49738Y84675D01*
X49744Y84733D01*
X49746Y84791D01*
X49746Y85914D01*
X47500Y85914D01*
X47447Y85912D01*
X47393Y85906D01*
X47341Y85897D01*
X47289Y85884D01*
X47238Y85867D01*
X47189Y85846D01*
X47141Y85822D01*
X47095Y85795D01*
X47051Y85765D01*
X47010Y85731D01*
X46970Y85695D01*
X46934Y85655D01*
X46900Y85614D01*
X46870Y85570D01*
X46843Y85524D01*
X46819Y85476D01*
X46798Y85427D01*
X46781Y85376D01*
X46768Y85324D01*
X46759Y85272D01*
X46753Y85218D01*
X46751Y85165D01*
X46751Y84167D01*
X46751Y87602D02*
X46751Y89099D01*
X45254Y88101D02*
X48997Y88101D01*
X48997Y88100D02*
X49050Y88102D01*
X49104Y88108D01*
X49156Y88117D01*
X49208Y88130D01*
X49259Y88147D01*
X49308Y88168D01*
X49356Y88192D01*
X49402Y88219D01*
X49446Y88249D01*
X49488Y88283D01*
X49527Y88319D01*
X49563Y88359D01*
X49597Y88400D01*
X49627Y88444D01*
X49654Y88490D01*
X49678Y88538D01*
X49699Y88587D01*
X49716Y88638D01*
X49729Y88690D01*
X49738Y88742D01*
X49744Y88796D01*
X49746Y88849D01*
X49746Y89099D01*
X49746Y91598D02*
X49746Y92596D01*
X49746Y91598D02*
X49744Y91545D01*
X49738Y91491D01*
X49729Y91439D01*
X49716Y91387D01*
X49699Y91336D01*
X49678Y91287D01*
X49654Y91239D01*
X49627Y91193D01*
X49597Y91149D01*
X49563Y91108D01*
X49527Y91068D01*
X49488Y91032D01*
X49446Y90998D01*
X49402Y90968D01*
X49356Y90941D01*
X49308Y90917D01*
X49259Y90896D01*
X49208Y90879D01*
X49156Y90866D01*
X49104Y90857D01*
X49050Y90851D01*
X48997Y90849D01*
X47500Y90849D01*
X47447Y90851D01*
X47393Y90857D01*
X47341Y90866D01*
X47289Y90879D01*
X47238Y90896D01*
X47189Y90917D01*
X47141Y90941D01*
X47095Y90968D01*
X47051Y90998D01*
X47010Y91032D01*
X46970Y91068D01*
X46934Y91108D01*
X46900Y91149D01*
X46870Y91193D01*
X46843Y91239D01*
X46819Y91287D01*
X46798Y91336D01*
X46781Y91387D01*
X46768Y91439D01*
X46759Y91491D01*
X46753Y91545D01*
X46751Y91598D01*
X46751Y92596D01*
X45254Y94443D02*
X49746Y94443D01*
X46751Y94443D02*
X46751Y95691D01*
X46753Y95744D01*
X46759Y95798D01*
X46768Y95850D01*
X46781Y95902D01*
X46798Y95953D01*
X46819Y96002D01*
X46843Y96050D01*
X46870Y96096D01*
X46900Y96140D01*
X46934Y96181D01*
X46970Y96221D01*
X47009Y96257D01*
X47051Y96291D01*
X47095Y96321D01*
X47141Y96348D01*
X47189Y96372D01*
X47238Y96393D01*
X47289Y96410D01*
X47341Y96423D01*
X47393Y96432D01*
X47447Y96438D01*
X47500Y96440D01*
X49746Y96440D01*
X74746Y82250D02*
X74746Y81252D01*
X74744Y81189D01*
X74738Y81127D01*
X74728Y81065D01*
X74715Y81004D01*
X74697Y80944D01*
X74676Y80885D01*
X74651Y80827D01*
X74623Y80771D01*
X74591Y80717D01*
X74555Y80665D01*
X74517Y80616D01*
X74476Y80569D01*
X74431Y80525D01*
X74384Y80483D01*
X74335Y80445D01*
X74283Y80409D01*
X74229Y80377D01*
X74173Y80349D01*
X74115Y80324D01*
X74056Y80303D01*
X73996Y80285D01*
X73935Y80272D01*
X73873Y80262D01*
X73811Y80256D01*
X73748Y80254D01*
X71252Y80254D01*
X71189Y80256D01*
X71127Y80262D01*
X71065Y80272D01*
X71004Y80285D01*
X70944Y80303D01*
X70885Y80324D01*
X70827Y80349D01*
X70771Y80377D01*
X70717Y80409D01*
X70665Y80445D01*
X70616Y80483D01*
X70569Y80524D01*
X70525Y80569D01*
X70483Y80616D01*
X70445Y80665D01*
X70409Y80717D01*
X70377Y80771D01*
X70349Y80827D01*
X70324Y80885D01*
X70303Y80944D01*
X70285Y81004D01*
X70272Y81065D01*
X70262Y81127D01*
X70256Y81189D01*
X70254Y81252D01*
X70254Y82250D01*
X70254Y84179D02*
X74746Y84179D01*
X74746Y86175D01*
X74746Y88144D02*
X70254Y88144D01*
X70254Y90640D02*
X72999Y88144D01*
X72001Y89143D02*
X74746Y90640D01*
X105254Y80254D02*
X109746Y80254D01*
X105254Y80254D02*
X105254Y81502D01*
X105256Y81570D01*
X105261Y81637D01*
X105270Y81704D01*
X105283Y81770D01*
X105299Y81836D01*
X105319Y81900D01*
X105343Y81964D01*
X105369Y82026D01*
X105399Y82087D01*
X105433Y82145D01*
X105469Y82202D01*
X105508Y82257D01*
X105551Y82310D01*
X105596Y82360D01*
X105644Y82408D01*
X105694Y82453D01*
X105747Y82496D01*
X105802Y82535D01*
X105859Y82571D01*
X105917Y82605D01*
X105978Y82635D01*
X106040Y82661D01*
X106104Y82685D01*
X106168Y82705D01*
X106234Y82721D01*
X106300Y82734D01*
X106367Y82743D01*
X106434Y82748D01*
X106502Y82750D01*
X108498Y82750D01*
X108566Y82748D01*
X108633Y82743D01*
X108700Y82734D01*
X108766Y82721D01*
X108832Y82705D01*
X108896Y82685D01*
X108960Y82661D01*
X109022Y82635D01*
X109083Y82605D01*
X109141Y82571D01*
X109198Y82535D01*
X109253Y82496D01*
X109306Y82453D01*
X109356Y82408D01*
X109404Y82360D01*
X109449Y82310D01*
X109492Y82257D01*
X109531Y82202D01*
X109567Y82145D01*
X109601Y82087D01*
X109631Y82026D01*
X109657Y81964D01*
X109681Y81900D01*
X109701Y81836D01*
X109717Y81770D01*
X109730Y81704D01*
X109739Y81637D01*
X109744Y81570D01*
X109746Y81502D01*
X109746Y80254D01*
X107999Y85701D02*
X107999Y86824D01*
X108000Y85701D02*
X108002Y85643D01*
X108008Y85585D01*
X108017Y85527D01*
X108031Y85470D01*
X108048Y85415D01*
X108069Y85360D01*
X108094Y85307D01*
X108122Y85256D01*
X108153Y85207D01*
X108188Y85160D01*
X108226Y85115D01*
X108266Y85073D01*
X108309Y85034D01*
X108355Y84998D01*
X108403Y84965D01*
X108453Y84935D01*
X108506Y84909D01*
X108559Y84886D01*
X108614Y84867D01*
X108671Y84852D01*
X108728Y84840D01*
X108786Y84832D01*
X108844Y84828D01*
X108902Y84828D01*
X108960Y84832D01*
X109018Y84840D01*
X109075Y84852D01*
X109132Y84867D01*
X109187Y84886D01*
X109240Y84909D01*
X109293Y84935D01*
X109343Y84965D01*
X109391Y84998D01*
X109437Y85034D01*
X109480Y85073D01*
X109520Y85115D01*
X109558Y85160D01*
X109593Y85207D01*
X109624Y85256D01*
X109652Y85307D01*
X109677Y85360D01*
X109698Y85415D01*
X109715Y85470D01*
X109729Y85527D01*
X109738Y85585D01*
X109744Y85643D01*
X109746Y85701D01*
X109746Y86824D01*
X107500Y86824D01*
X107447Y86822D01*
X107393Y86816D01*
X107341Y86807D01*
X107289Y86794D01*
X107238Y86777D01*
X107189Y86756D01*
X107141Y86732D01*
X107095Y86705D01*
X107051Y86675D01*
X107010Y86641D01*
X106970Y86605D01*
X106934Y86565D01*
X106900Y86524D01*
X106870Y86480D01*
X106843Y86434D01*
X106819Y86386D01*
X106798Y86337D01*
X106781Y86286D01*
X106768Y86234D01*
X106759Y86182D01*
X106753Y86128D01*
X106751Y86075D01*
X106751Y85077D01*
X106751Y88512D02*
X106751Y90009D01*
X105254Y89011D02*
X108997Y89011D01*
X109050Y89013D01*
X109104Y89019D01*
X109156Y89028D01*
X109208Y89041D01*
X109259Y89058D01*
X109308Y89079D01*
X109356Y89103D01*
X109402Y89130D01*
X109446Y89160D01*
X109488Y89194D01*
X109527Y89230D01*
X109563Y89270D01*
X109597Y89311D01*
X109627Y89355D01*
X109654Y89401D01*
X109678Y89449D01*
X109699Y89498D01*
X109716Y89549D01*
X109729Y89601D01*
X109738Y89653D01*
X109744Y89707D01*
X109746Y89760D01*
X109746Y90009D01*
X107999Y92601D02*
X107999Y93724D01*
X108000Y92601D02*
X108002Y92543D01*
X108008Y92485D01*
X108017Y92427D01*
X108031Y92370D01*
X108048Y92315D01*
X108069Y92260D01*
X108094Y92207D01*
X108122Y92156D01*
X108153Y92107D01*
X108188Y92060D01*
X108226Y92015D01*
X108266Y91973D01*
X108309Y91934D01*
X108355Y91898D01*
X108403Y91865D01*
X108453Y91835D01*
X108506Y91809D01*
X108559Y91786D01*
X108614Y91767D01*
X108671Y91752D01*
X108728Y91740D01*
X108786Y91732D01*
X108844Y91728D01*
X108902Y91728D01*
X108960Y91732D01*
X109018Y91740D01*
X109075Y91752D01*
X109132Y91767D01*
X109187Y91786D01*
X109240Y91809D01*
X109293Y91835D01*
X109343Y91865D01*
X109391Y91898D01*
X109437Y91934D01*
X109480Y91973D01*
X109520Y92015D01*
X109558Y92060D01*
X109593Y92107D01*
X109624Y92156D01*
X109652Y92207D01*
X109677Y92260D01*
X109698Y92315D01*
X109715Y92370D01*
X109729Y92427D01*
X109738Y92485D01*
X109744Y92543D01*
X109746Y92601D01*
X109746Y93724D01*
X107500Y93724D01*
X107447Y93722D01*
X107393Y93716D01*
X107341Y93707D01*
X107289Y93694D01*
X107238Y93677D01*
X107189Y93656D01*
X107141Y93632D01*
X107095Y93605D01*
X107051Y93575D01*
X107010Y93541D01*
X106970Y93505D01*
X106934Y93465D01*
X106900Y93424D01*
X106870Y93380D01*
X106843Y93334D01*
X106819Y93286D01*
X106798Y93237D01*
X106781Y93186D01*
X106768Y93134D01*
X106759Y93082D01*
X106753Y93028D01*
X106751Y92975D01*
X106751Y91977D01*
X105254Y96202D02*
X109746Y96202D01*
X109746Y95703D02*
X109746Y96701D01*
X105254Y96701D02*
X105254Y95703D01*
X106751Y98653D02*
X109746Y98653D01*
X106751Y98653D02*
X106751Y99901D01*
X106753Y99954D01*
X106759Y100008D01*
X106768Y100060D01*
X106781Y100112D01*
X106798Y100163D01*
X106819Y100212D01*
X106843Y100260D01*
X106870Y100306D01*
X106900Y100350D01*
X106934Y100391D01*
X106970Y100431D01*
X107009Y100467D01*
X107051Y100501D01*
X107095Y100531D01*
X107141Y100558D01*
X107189Y100582D01*
X107238Y100603D01*
X107289Y100620D01*
X107341Y100633D01*
X107393Y100642D01*
X107447Y100648D01*
X107500Y100650D01*
X109746Y100650D01*
X125250Y82750D02*
X125250Y82001D01*
X125250Y82750D02*
X127746Y82750D01*
X127746Y81252D01*
X127744Y81189D01*
X127738Y81127D01*
X127728Y81065D01*
X127715Y81004D01*
X127697Y80944D01*
X127676Y80885D01*
X127651Y80827D01*
X127623Y80771D01*
X127591Y80717D01*
X127555Y80665D01*
X127517Y80616D01*
X127476Y80569D01*
X127431Y80525D01*
X127384Y80483D01*
X127335Y80445D01*
X127283Y80409D01*
X127229Y80377D01*
X127173Y80349D01*
X127115Y80324D01*
X127056Y80303D01*
X126996Y80285D01*
X126935Y80272D01*
X126873Y80262D01*
X126811Y80256D01*
X126748Y80254D01*
X124252Y80254D01*
X124189Y80256D01*
X124127Y80262D01*
X124065Y80272D01*
X124004Y80285D01*
X123944Y80303D01*
X123885Y80324D01*
X123827Y80349D01*
X123771Y80377D01*
X123717Y80409D01*
X123665Y80445D01*
X123616Y80483D01*
X123569Y80524D01*
X123525Y80569D01*
X123483Y80616D01*
X123445Y80665D01*
X123409Y80717D01*
X123377Y80771D01*
X123349Y80827D01*
X123324Y80885D01*
X123303Y80944D01*
X123285Y81004D01*
X123272Y81065D01*
X123262Y81127D01*
X123256Y81189D01*
X123254Y81252D01*
X123254Y82750D01*
X123254Y85054D02*
X127746Y85054D01*
X127746Y87550D02*
X123254Y85054D01*
X123254Y87550D02*
X127746Y87550D01*
X127746Y89854D02*
X123254Y89854D01*
X123254Y91102D01*
X123256Y91170D01*
X123261Y91237D01*
X123270Y91304D01*
X123283Y91370D01*
X123299Y91436D01*
X123319Y91500D01*
X123343Y91564D01*
X123369Y91626D01*
X123399Y91687D01*
X123433Y91745D01*
X123469Y91802D01*
X123508Y91857D01*
X123551Y91910D01*
X123596Y91960D01*
X123644Y92008D01*
X123694Y92053D01*
X123747Y92096D01*
X123802Y92135D01*
X123859Y92171D01*
X123917Y92205D01*
X123978Y92235D01*
X124040Y92261D01*
X124104Y92285D01*
X124168Y92305D01*
X124234Y92321D01*
X124300Y92334D01*
X124367Y92343D01*
X124434Y92348D01*
X124502Y92350D01*
X124502Y92349D02*
X126498Y92349D01*
X126498Y92350D02*
X126566Y92348D01*
X126633Y92343D01*
X126700Y92334D01*
X126766Y92321D01*
X126832Y92305D01*
X126896Y92285D01*
X126960Y92261D01*
X127022Y92235D01*
X127083Y92205D01*
X127141Y92171D01*
X127198Y92135D01*
X127253Y92096D01*
X127306Y92053D01*
X127356Y92008D01*
X127404Y91960D01*
X127449Y91910D01*
X127492Y91857D01*
X127531Y91802D01*
X127567Y91745D01*
X127601Y91687D01*
X127631Y91626D01*
X127657Y91564D01*
X127681Y91500D01*
X127701Y91436D01*
X127717Y91370D01*
X127730Y91304D01*
X127739Y91237D01*
X127744Y91170D01*
X127746Y91102D01*
X127746Y89854D01*
X150254Y80254D02*
X154746Y81751D01*
X150254Y83249D01*
X150254Y85154D02*
X154746Y85154D01*
X150254Y85154D02*
X150254Y86401D01*
X150256Y86469D01*
X150261Y86536D01*
X150270Y86603D01*
X150283Y86669D01*
X150299Y86735D01*
X150319Y86799D01*
X150343Y86863D01*
X150369Y86925D01*
X150399Y86986D01*
X150433Y87044D01*
X150469Y87101D01*
X150508Y87156D01*
X150551Y87209D01*
X150596Y87259D01*
X150644Y87307D01*
X150694Y87352D01*
X150747Y87395D01*
X150802Y87434D01*
X150859Y87470D01*
X150917Y87504D01*
X150978Y87534D01*
X151040Y87560D01*
X151104Y87584D01*
X151168Y87604D01*
X151234Y87620D01*
X151300Y87633D01*
X151367Y87642D01*
X151434Y87647D01*
X151502Y87649D01*
X153498Y87649D01*
X153566Y87647D01*
X153633Y87642D01*
X153700Y87633D01*
X153766Y87620D01*
X153832Y87604D01*
X153896Y87584D01*
X153960Y87560D01*
X154022Y87534D01*
X154083Y87504D01*
X154141Y87470D01*
X154198Y87434D01*
X154253Y87395D01*
X154306Y87352D01*
X154356Y87307D01*
X154404Y87259D01*
X154449Y87209D01*
X154492Y87156D01*
X154531Y87101D01*
X154567Y87044D01*
X154601Y86986D01*
X154631Y86925D01*
X154657Y86863D01*
X154681Y86799D01*
X154701Y86735D01*
X154717Y86669D01*
X154730Y86603D01*
X154739Y86536D01*
X154744Y86469D01*
X154746Y86401D01*
X154746Y85154D01*
X154746Y89954D02*
X150254Y89954D01*
X150254Y91201D01*
X150256Y91269D01*
X150261Y91336D01*
X150270Y91403D01*
X150283Y91469D01*
X150299Y91535D01*
X150319Y91599D01*
X150343Y91663D01*
X150369Y91725D01*
X150399Y91786D01*
X150433Y91844D01*
X150469Y91901D01*
X150508Y91956D01*
X150551Y92009D01*
X150596Y92059D01*
X150644Y92107D01*
X150694Y92152D01*
X150747Y92195D01*
X150802Y92234D01*
X150859Y92270D01*
X150917Y92304D01*
X150978Y92334D01*
X151040Y92360D01*
X151104Y92384D01*
X151168Y92404D01*
X151234Y92420D01*
X151300Y92433D01*
X151367Y92442D01*
X151434Y92447D01*
X151502Y92449D01*
X153498Y92449D01*
X153566Y92447D01*
X153633Y92442D01*
X153700Y92433D01*
X153766Y92420D01*
X153832Y92404D01*
X153896Y92384D01*
X153960Y92360D01*
X154022Y92334D01*
X154083Y92304D01*
X154141Y92270D01*
X154198Y92234D01*
X154253Y92195D01*
X154306Y92152D01*
X154356Y92107D01*
X154404Y92059D01*
X154449Y92009D01*
X154492Y91956D01*
X154531Y91901D01*
X154567Y91844D01*
X154601Y91786D01*
X154631Y91725D01*
X154657Y91663D01*
X154681Y91599D01*
X154701Y91535D01*
X154717Y91469D01*
X154730Y91403D01*
X154739Y91336D01*
X154744Y91269D01*
X154746Y91201D01*
X154746Y89954D01*
X270254Y81254D02*
X274746Y82751D01*
X270254Y84249D01*
X270254Y86154D02*
X274746Y86154D01*
X270254Y86154D02*
X270254Y87401D01*
X270256Y87469D01*
X270261Y87536D01*
X270270Y87603D01*
X270283Y87669D01*
X270299Y87735D01*
X270319Y87799D01*
X270343Y87863D01*
X270369Y87925D01*
X270399Y87986D01*
X270433Y88044D01*
X270469Y88101D01*
X270508Y88156D01*
X270551Y88209D01*
X270596Y88259D01*
X270644Y88307D01*
X270694Y88352D01*
X270747Y88395D01*
X270802Y88434D01*
X270859Y88470D01*
X270917Y88504D01*
X270978Y88534D01*
X271040Y88560D01*
X271104Y88584D01*
X271168Y88604D01*
X271234Y88620D01*
X271300Y88633D01*
X271367Y88642D01*
X271434Y88647D01*
X271502Y88649D01*
X273498Y88649D01*
X273566Y88647D01*
X273633Y88642D01*
X273700Y88633D01*
X273766Y88620D01*
X273832Y88604D01*
X273896Y88584D01*
X273960Y88560D01*
X274022Y88534D01*
X274083Y88504D01*
X274141Y88470D01*
X274198Y88434D01*
X274253Y88395D01*
X274306Y88352D01*
X274356Y88307D01*
X274404Y88259D01*
X274449Y88209D01*
X274492Y88156D01*
X274531Y88101D01*
X274567Y88044D01*
X274601Y87986D01*
X274631Y87925D01*
X274657Y87863D01*
X274681Y87799D01*
X274701Y87735D01*
X274717Y87669D01*
X274730Y87603D01*
X274739Y87536D01*
X274744Y87469D01*
X274746Y87401D01*
X274746Y86154D01*
X274746Y90954D02*
X270254Y90954D01*
X270254Y92201D01*
X270256Y92269D01*
X270261Y92336D01*
X270270Y92403D01*
X270283Y92469D01*
X270299Y92535D01*
X270319Y92599D01*
X270343Y92663D01*
X270369Y92725D01*
X270399Y92786D01*
X270433Y92844D01*
X270469Y92901D01*
X270508Y92956D01*
X270551Y93009D01*
X270596Y93059D01*
X270644Y93107D01*
X270694Y93152D01*
X270747Y93195D01*
X270802Y93234D01*
X270859Y93270D01*
X270917Y93304D01*
X270978Y93334D01*
X271040Y93360D01*
X271104Y93384D01*
X271168Y93404D01*
X271234Y93420D01*
X271300Y93433D01*
X271367Y93442D01*
X271434Y93447D01*
X271502Y93449D01*
X273498Y93449D01*
X273566Y93447D01*
X273633Y93442D01*
X273700Y93433D01*
X273766Y93420D01*
X273832Y93404D01*
X273896Y93384D01*
X273960Y93360D01*
X274022Y93334D01*
X274083Y93304D01*
X274141Y93270D01*
X274198Y93234D01*
X274253Y93195D01*
X274306Y93152D01*
X274356Y93107D01*
X274404Y93059D01*
X274449Y93009D01*
X274492Y92956D01*
X274531Y92901D01*
X274567Y92844D01*
X274601Y92786D01*
X274631Y92725D01*
X274657Y92663D01*
X274681Y92599D01*
X274701Y92535D01*
X274717Y92469D01*
X274730Y92403D01*
X274739Y92336D01*
X274744Y92269D01*
X274746Y92201D01*
X274746Y90954D01*
X300250Y82750D02*
X300250Y82001D01*
X300250Y82750D02*
X302746Y82750D01*
X302746Y81252D01*
X302744Y81189D01*
X302738Y81127D01*
X302728Y81065D01*
X302715Y81004D01*
X302697Y80944D01*
X302676Y80885D01*
X302651Y80827D01*
X302623Y80771D01*
X302591Y80717D01*
X302555Y80665D01*
X302517Y80616D01*
X302476Y80569D01*
X302431Y80525D01*
X302384Y80483D01*
X302335Y80445D01*
X302283Y80409D01*
X302229Y80377D01*
X302173Y80349D01*
X302115Y80324D01*
X302056Y80303D01*
X301996Y80285D01*
X301935Y80272D01*
X301873Y80262D01*
X301811Y80256D01*
X301748Y80254D01*
X299252Y80254D01*
X299189Y80256D01*
X299127Y80262D01*
X299065Y80272D01*
X299004Y80285D01*
X298944Y80303D01*
X298885Y80324D01*
X298827Y80349D01*
X298771Y80377D01*
X298717Y80409D01*
X298665Y80445D01*
X298616Y80483D01*
X298569Y80524D01*
X298525Y80569D01*
X298483Y80616D01*
X298445Y80665D01*
X298409Y80717D01*
X298377Y80771D01*
X298349Y80827D01*
X298324Y80885D01*
X298303Y80944D01*
X298285Y81004D01*
X298272Y81065D01*
X298262Y81127D01*
X298256Y81189D01*
X298254Y81252D01*
X298254Y82750D01*
X298254Y85054D02*
X302746Y85054D01*
X302746Y87550D02*
X298254Y85054D01*
X298254Y87550D02*
X302746Y87550D01*
X302746Y89854D02*
X298254Y89854D01*
X298254Y91102D01*
X298256Y91170D01*
X298261Y91237D01*
X298270Y91304D01*
X298283Y91370D01*
X298299Y91436D01*
X298319Y91500D01*
X298343Y91564D01*
X298369Y91626D01*
X298399Y91687D01*
X298433Y91745D01*
X298469Y91802D01*
X298508Y91857D01*
X298551Y91910D01*
X298596Y91960D01*
X298644Y92008D01*
X298694Y92053D01*
X298747Y92096D01*
X298802Y92135D01*
X298859Y92171D01*
X298917Y92205D01*
X298978Y92235D01*
X299040Y92261D01*
X299104Y92285D01*
X299168Y92305D01*
X299234Y92321D01*
X299300Y92334D01*
X299367Y92343D01*
X299434Y92348D01*
X299502Y92350D01*
X299502Y92349D02*
X301498Y92349D01*
X301498Y92350D02*
X301566Y92348D01*
X301633Y92343D01*
X301700Y92334D01*
X301766Y92321D01*
X301832Y92305D01*
X301896Y92285D01*
X301960Y92261D01*
X302022Y92235D01*
X302083Y92205D01*
X302141Y92171D01*
X302198Y92135D01*
X302253Y92096D01*
X302306Y92053D01*
X302356Y92008D01*
X302404Y91960D01*
X302449Y91910D01*
X302492Y91857D01*
X302531Y91802D01*
X302567Y91745D01*
X302601Y91687D01*
X302631Y91626D01*
X302657Y91564D01*
X302681Y91500D01*
X302701Y91436D01*
X302717Y91370D01*
X302730Y91304D01*
X302739Y91237D01*
X302744Y91170D01*
X302746Y91102D01*
X302746Y89854D01*
X323254Y79254D02*
X327746Y79254D01*
X323254Y79254D02*
X323254Y80502D01*
X323256Y80570D01*
X323261Y80637D01*
X323270Y80704D01*
X323283Y80770D01*
X323299Y80836D01*
X323319Y80900D01*
X323343Y80964D01*
X323369Y81026D01*
X323399Y81087D01*
X323433Y81145D01*
X323469Y81202D01*
X323508Y81257D01*
X323551Y81310D01*
X323596Y81360D01*
X323644Y81408D01*
X323694Y81453D01*
X323747Y81496D01*
X323802Y81535D01*
X323859Y81571D01*
X323917Y81605D01*
X323978Y81635D01*
X324040Y81661D01*
X324104Y81685D01*
X324168Y81705D01*
X324234Y81721D01*
X324300Y81734D01*
X324367Y81743D01*
X324434Y81748D01*
X324502Y81750D01*
X326498Y81750D01*
X326566Y81748D01*
X326633Y81743D01*
X326700Y81734D01*
X326766Y81721D01*
X326832Y81705D01*
X326896Y81685D01*
X326960Y81661D01*
X327022Y81635D01*
X327083Y81605D01*
X327141Y81571D01*
X327198Y81535D01*
X327253Y81496D01*
X327306Y81453D01*
X327356Y81408D01*
X327404Y81360D01*
X327449Y81310D01*
X327492Y81257D01*
X327531Y81202D01*
X327567Y81145D01*
X327601Y81087D01*
X327631Y81026D01*
X327657Y80964D01*
X327681Y80900D01*
X327701Y80836D01*
X327717Y80770D01*
X327730Y80704D01*
X327739Y80637D01*
X327744Y80570D01*
X327746Y80502D01*
X327746Y79254D01*
X325999Y84701D02*
X325999Y85824D01*
X326000Y84701D02*
X326002Y84643D01*
X326008Y84585D01*
X326017Y84527D01*
X326031Y84470D01*
X326048Y84415D01*
X326069Y84360D01*
X326094Y84307D01*
X326122Y84256D01*
X326153Y84207D01*
X326188Y84160D01*
X326226Y84115D01*
X326266Y84073D01*
X326309Y84034D01*
X326355Y83998D01*
X326403Y83965D01*
X326453Y83935D01*
X326506Y83909D01*
X326559Y83886D01*
X326614Y83867D01*
X326671Y83852D01*
X326728Y83840D01*
X326786Y83832D01*
X326844Y83828D01*
X326902Y83828D01*
X326960Y83832D01*
X327018Y83840D01*
X327075Y83852D01*
X327132Y83867D01*
X327187Y83886D01*
X327240Y83909D01*
X327293Y83935D01*
X327343Y83965D01*
X327391Y83998D01*
X327437Y84034D01*
X327480Y84073D01*
X327520Y84115D01*
X327558Y84160D01*
X327593Y84207D01*
X327624Y84256D01*
X327652Y84307D01*
X327677Y84360D01*
X327698Y84415D01*
X327715Y84470D01*
X327729Y84527D01*
X327738Y84585D01*
X327744Y84643D01*
X327746Y84701D01*
X327746Y85824D01*
X325500Y85824D01*
X325447Y85822D01*
X325393Y85816D01*
X325341Y85807D01*
X325289Y85794D01*
X325238Y85777D01*
X325189Y85756D01*
X325141Y85732D01*
X325095Y85705D01*
X325051Y85675D01*
X325010Y85641D01*
X324970Y85605D01*
X324934Y85565D01*
X324900Y85524D01*
X324870Y85480D01*
X324843Y85434D01*
X324819Y85386D01*
X324798Y85337D01*
X324781Y85286D01*
X324768Y85234D01*
X324759Y85182D01*
X324753Y85128D01*
X324751Y85075D01*
X324751Y84077D01*
X324751Y87512D02*
X324751Y89009D01*
X323254Y88011D02*
X326997Y88011D01*
X327050Y88013D01*
X327104Y88019D01*
X327156Y88028D01*
X327208Y88041D01*
X327259Y88058D01*
X327308Y88079D01*
X327356Y88103D01*
X327402Y88130D01*
X327446Y88160D01*
X327488Y88194D01*
X327527Y88230D01*
X327563Y88270D01*
X327597Y88311D01*
X327627Y88355D01*
X327654Y88401D01*
X327678Y88449D01*
X327699Y88498D01*
X327716Y88549D01*
X327729Y88601D01*
X327738Y88653D01*
X327744Y88707D01*
X327746Y88760D01*
X327746Y89009D01*
X325999Y91601D02*
X325999Y92724D01*
X326000Y91601D02*
X326002Y91543D01*
X326008Y91485D01*
X326017Y91427D01*
X326031Y91370D01*
X326048Y91315D01*
X326069Y91260D01*
X326094Y91207D01*
X326122Y91156D01*
X326153Y91107D01*
X326188Y91060D01*
X326226Y91015D01*
X326266Y90973D01*
X326309Y90934D01*
X326355Y90898D01*
X326403Y90865D01*
X326453Y90835D01*
X326506Y90809D01*
X326559Y90786D01*
X326614Y90767D01*
X326671Y90752D01*
X326728Y90740D01*
X326786Y90732D01*
X326844Y90728D01*
X326902Y90728D01*
X326960Y90732D01*
X327018Y90740D01*
X327075Y90752D01*
X327132Y90767D01*
X327187Y90786D01*
X327240Y90809D01*
X327293Y90835D01*
X327343Y90865D01*
X327391Y90898D01*
X327437Y90934D01*
X327480Y90973D01*
X327520Y91015D01*
X327558Y91060D01*
X327593Y91107D01*
X327624Y91156D01*
X327652Y91207D01*
X327677Y91260D01*
X327698Y91315D01*
X327715Y91370D01*
X327729Y91427D01*
X327738Y91485D01*
X327744Y91543D01*
X327746Y91601D01*
X327746Y92724D01*
X325500Y92724D01*
X325447Y92722D01*
X325393Y92716D01*
X325341Y92707D01*
X325289Y92694D01*
X325238Y92677D01*
X325189Y92656D01*
X325141Y92632D01*
X325095Y92605D01*
X325051Y92575D01*
X325010Y92541D01*
X324970Y92505D01*
X324934Y92465D01*
X324900Y92424D01*
X324870Y92380D01*
X324843Y92334D01*
X324819Y92286D01*
X324798Y92237D01*
X324781Y92186D01*
X324768Y92134D01*
X324759Y92082D01*
X324753Y92028D01*
X324751Y91975D01*
X324751Y90977D01*
X323254Y95202D02*
X327746Y95202D01*
X327746Y94703D02*
X327746Y95701D01*
X323254Y95701D02*
X323254Y94703D01*
X324751Y97653D02*
X327746Y97653D01*
X324751Y97653D02*
X324751Y98901D01*
X324753Y98954D01*
X324759Y99008D01*
X324768Y99060D01*
X324781Y99112D01*
X324798Y99163D01*
X324819Y99212D01*
X324843Y99260D01*
X324870Y99306D01*
X324900Y99350D01*
X324934Y99391D01*
X324970Y99431D01*
X325009Y99467D01*
X325051Y99501D01*
X325095Y99531D01*
X325141Y99558D01*
X325189Y99582D01*
X325238Y99603D01*
X325289Y99620D01*
X325341Y99633D01*
X325393Y99642D01*
X325447Y99648D01*
X325500Y99650D01*
X327746Y99650D01*
X350746Y82250D02*
X350746Y81252D01*
X350744Y81189D01*
X350738Y81127D01*
X350728Y81065D01*
X350715Y81004D01*
X350697Y80944D01*
X350676Y80885D01*
X350651Y80827D01*
X350623Y80771D01*
X350591Y80717D01*
X350555Y80665D01*
X350517Y80616D01*
X350476Y80569D01*
X350431Y80525D01*
X350384Y80483D01*
X350335Y80445D01*
X350283Y80409D01*
X350229Y80377D01*
X350173Y80349D01*
X350115Y80324D01*
X350056Y80303D01*
X349996Y80285D01*
X349935Y80272D01*
X349873Y80262D01*
X349811Y80256D01*
X349748Y80254D01*
X347252Y80254D01*
X347189Y80256D01*
X347127Y80262D01*
X347065Y80272D01*
X347004Y80285D01*
X346944Y80303D01*
X346885Y80324D01*
X346827Y80349D01*
X346771Y80377D01*
X346717Y80409D01*
X346665Y80445D01*
X346616Y80483D01*
X346569Y80524D01*
X346525Y80569D01*
X346483Y80616D01*
X346445Y80665D01*
X346409Y80717D01*
X346377Y80771D01*
X346349Y80827D01*
X346324Y80885D01*
X346303Y80944D01*
X346285Y81004D01*
X346272Y81065D01*
X346262Y81127D01*
X346256Y81189D01*
X346254Y81252D01*
X346254Y82250D01*
X346254Y84179D02*
X350746Y84179D01*
X350746Y86175D01*
X350746Y88144D02*
X346254Y88144D01*
X346254Y90640D02*
X348999Y88144D01*
X348001Y89143D02*
X350746Y90640D01*
X371254Y80254D02*
X375746Y80254D01*
X375746Y82250D01*
X373999Y84791D02*
X373999Y85914D01*
X374000Y84791D02*
X374002Y84733D01*
X374008Y84675D01*
X374017Y84617D01*
X374031Y84560D01*
X374048Y84505D01*
X374069Y84450D01*
X374094Y84397D01*
X374122Y84346D01*
X374153Y84297D01*
X374188Y84250D01*
X374226Y84205D01*
X374266Y84163D01*
X374309Y84124D01*
X374355Y84088D01*
X374403Y84055D01*
X374453Y84025D01*
X374506Y83999D01*
X374559Y83976D01*
X374614Y83957D01*
X374671Y83942D01*
X374728Y83930D01*
X374786Y83922D01*
X374844Y83918D01*
X374902Y83918D01*
X374960Y83922D01*
X375018Y83930D01*
X375075Y83942D01*
X375132Y83957D01*
X375187Y83976D01*
X375240Y83999D01*
X375293Y84025D01*
X375343Y84055D01*
X375391Y84088D01*
X375437Y84124D01*
X375480Y84163D01*
X375520Y84205D01*
X375558Y84250D01*
X375593Y84297D01*
X375624Y84346D01*
X375652Y84397D01*
X375677Y84450D01*
X375698Y84505D01*
X375715Y84560D01*
X375729Y84617D01*
X375738Y84675D01*
X375744Y84733D01*
X375746Y84791D01*
X375746Y85914D01*
X373500Y85914D01*
X373447Y85912D01*
X373393Y85906D01*
X373341Y85897D01*
X373289Y85884D01*
X373238Y85867D01*
X373189Y85846D01*
X373141Y85822D01*
X373095Y85795D01*
X373051Y85765D01*
X373010Y85731D01*
X372970Y85695D01*
X372934Y85655D01*
X372900Y85614D01*
X372870Y85570D01*
X372843Y85524D01*
X372819Y85476D01*
X372798Y85427D01*
X372781Y85376D01*
X372768Y85324D01*
X372759Y85272D01*
X372753Y85218D01*
X372751Y85165D01*
X372751Y84167D01*
X372751Y87602D02*
X372751Y89099D01*
X371254Y88101D02*
X374997Y88101D01*
X374997Y88100D02*
X375050Y88102D01*
X375104Y88108D01*
X375156Y88117D01*
X375208Y88130D01*
X375259Y88147D01*
X375308Y88168D01*
X375356Y88192D01*
X375402Y88219D01*
X375446Y88249D01*
X375488Y88283D01*
X375527Y88319D01*
X375563Y88359D01*
X375597Y88400D01*
X375627Y88444D01*
X375654Y88490D01*
X375678Y88538D01*
X375699Y88587D01*
X375716Y88638D01*
X375729Y88690D01*
X375738Y88742D01*
X375744Y88796D01*
X375746Y88849D01*
X375746Y89099D01*
X375746Y91598D02*
X375746Y92596D01*
X375746Y91598D02*
X375744Y91545D01*
X375738Y91491D01*
X375729Y91439D01*
X375716Y91387D01*
X375699Y91336D01*
X375678Y91287D01*
X375654Y91239D01*
X375627Y91193D01*
X375597Y91149D01*
X375563Y91108D01*
X375527Y91068D01*
X375488Y91032D01*
X375446Y90998D01*
X375402Y90968D01*
X375356Y90941D01*
X375308Y90917D01*
X375259Y90896D01*
X375208Y90879D01*
X375156Y90866D01*
X375104Y90857D01*
X375050Y90851D01*
X374997Y90849D01*
X373500Y90849D01*
X373447Y90851D01*
X373393Y90857D01*
X373341Y90866D01*
X373289Y90879D01*
X373238Y90896D01*
X373189Y90917D01*
X373141Y90941D01*
X373095Y90968D01*
X373051Y90998D01*
X373010Y91032D01*
X372970Y91068D01*
X372934Y91108D01*
X372900Y91149D01*
X372870Y91193D01*
X372843Y91239D01*
X372819Y91287D01*
X372798Y91336D01*
X372781Y91387D01*
X372768Y91439D01*
X372759Y91491D01*
X372753Y91545D01*
X372751Y91598D01*
X372751Y92596D01*
X371254Y94443D02*
X375746Y94443D01*
X372751Y94443D02*
X372751Y95691D01*
X372753Y95744D01*
X372759Y95798D01*
X372768Y95850D01*
X372781Y95902D01*
X372798Y95953D01*
X372819Y96002D01*
X372843Y96050D01*
X372870Y96096D01*
X372900Y96140D01*
X372934Y96181D01*
X372970Y96221D01*
X373009Y96257D01*
X373051Y96291D01*
X373095Y96321D01*
X373141Y96348D01*
X373189Y96372D01*
X373238Y96393D01*
X373289Y96410D01*
X373341Y96423D01*
X373393Y96432D01*
X373447Y96438D01*
X373500Y96440D01*
X375746Y96440D01*
X823254Y80254D02*
X827746Y80254D01*
X827746Y82250D01*
X825999Y84791D02*
X825999Y85914D01*
X826000Y84791D02*
X826002Y84733D01*
X826008Y84675D01*
X826017Y84617D01*
X826031Y84560D01*
X826048Y84505D01*
X826069Y84450D01*
X826094Y84397D01*
X826122Y84346D01*
X826153Y84297D01*
X826188Y84250D01*
X826226Y84205D01*
X826266Y84163D01*
X826309Y84124D01*
X826355Y84088D01*
X826403Y84055D01*
X826453Y84025D01*
X826506Y83999D01*
X826559Y83976D01*
X826614Y83957D01*
X826671Y83942D01*
X826728Y83930D01*
X826786Y83922D01*
X826844Y83918D01*
X826902Y83918D01*
X826960Y83922D01*
X827018Y83930D01*
X827075Y83942D01*
X827132Y83957D01*
X827187Y83976D01*
X827240Y83999D01*
X827293Y84025D01*
X827343Y84055D01*
X827391Y84088D01*
X827437Y84124D01*
X827480Y84163D01*
X827520Y84205D01*
X827558Y84250D01*
X827593Y84297D01*
X827624Y84346D01*
X827652Y84397D01*
X827677Y84450D01*
X827698Y84505D01*
X827715Y84560D01*
X827729Y84617D01*
X827738Y84675D01*
X827744Y84733D01*
X827746Y84791D01*
X827746Y85914D01*
X825500Y85914D01*
X825447Y85912D01*
X825393Y85906D01*
X825341Y85897D01*
X825289Y85884D01*
X825238Y85867D01*
X825189Y85846D01*
X825141Y85822D01*
X825095Y85795D01*
X825051Y85765D01*
X825010Y85731D01*
X824970Y85695D01*
X824934Y85655D01*
X824900Y85614D01*
X824870Y85570D01*
X824843Y85524D01*
X824819Y85476D01*
X824798Y85427D01*
X824781Y85376D01*
X824768Y85324D01*
X824759Y85272D01*
X824753Y85218D01*
X824751Y85165D01*
X824751Y84167D01*
X824751Y87602D02*
X824751Y89099D01*
X823254Y88101D02*
X826997Y88101D01*
X826997Y88100D02*
X827050Y88102D01*
X827104Y88108D01*
X827156Y88117D01*
X827208Y88130D01*
X827259Y88147D01*
X827308Y88168D01*
X827356Y88192D01*
X827402Y88219D01*
X827446Y88249D01*
X827488Y88283D01*
X827527Y88319D01*
X827563Y88359D01*
X827597Y88400D01*
X827627Y88444D01*
X827654Y88490D01*
X827678Y88538D01*
X827699Y88587D01*
X827716Y88638D01*
X827729Y88690D01*
X827738Y88742D01*
X827744Y88796D01*
X827746Y88849D01*
X827746Y89099D01*
X827746Y91598D02*
X827746Y92596D01*
X827746Y91598D02*
X827744Y91545D01*
X827738Y91491D01*
X827729Y91439D01*
X827716Y91387D01*
X827699Y91336D01*
X827678Y91287D01*
X827654Y91239D01*
X827627Y91193D01*
X827597Y91149D01*
X827563Y91108D01*
X827527Y91068D01*
X827488Y91032D01*
X827446Y90998D01*
X827402Y90968D01*
X827356Y90941D01*
X827308Y90917D01*
X827259Y90896D01*
X827208Y90879D01*
X827156Y90866D01*
X827104Y90857D01*
X827050Y90851D01*
X826997Y90849D01*
X825500Y90849D01*
X825447Y90851D01*
X825393Y90857D01*
X825341Y90866D01*
X825289Y90879D01*
X825238Y90896D01*
X825189Y90917D01*
X825141Y90941D01*
X825095Y90968D01*
X825051Y90998D01*
X825010Y91032D01*
X824970Y91068D01*
X824934Y91108D01*
X824900Y91149D01*
X824870Y91193D01*
X824843Y91239D01*
X824819Y91287D01*
X824798Y91336D01*
X824781Y91387D01*
X824768Y91439D01*
X824759Y91491D01*
X824753Y91545D01*
X824751Y91598D01*
X824751Y92596D01*
X823254Y94443D02*
X827746Y94443D01*
X824751Y94443D02*
X824751Y95691D01*
X824753Y95744D01*
X824759Y95798D01*
X824768Y95850D01*
X824781Y95902D01*
X824798Y95953D01*
X824819Y96002D01*
X824843Y96050D01*
X824870Y96096D01*
X824900Y96140D01*
X824934Y96181D01*
X824970Y96221D01*
X825009Y96257D01*
X825051Y96291D01*
X825095Y96321D01*
X825141Y96348D01*
X825189Y96372D01*
X825238Y96393D01*
X825289Y96410D01*
X825341Y96423D01*
X825393Y96432D01*
X825447Y96438D01*
X825500Y96440D01*
X827746Y96440D01*
X801746Y82250D02*
X801746Y81252D01*
X801744Y81189D01*
X801738Y81127D01*
X801728Y81065D01*
X801715Y81004D01*
X801697Y80944D01*
X801676Y80885D01*
X801651Y80827D01*
X801623Y80771D01*
X801591Y80717D01*
X801555Y80665D01*
X801517Y80616D01*
X801476Y80569D01*
X801431Y80525D01*
X801384Y80483D01*
X801335Y80445D01*
X801283Y80409D01*
X801229Y80377D01*
X801173Y80349D01*
X801115Y80324D01*
X801056Y80303D01*
X800996Y80285D01*
X800935Y80272D01*
X800873Y80262D01*
X800811Y80256D01*
X800748Y80254D01*
X798252Y80254D01*
X798189Y80256D01*
X798127Y80262D01*
X798065Y80272D01*
X798004Y80285D01*
X797944Y80303D01*
X797885Y80324D01*
X797827Y80349D01*
X797771Y80377D01*
X797717Y80409D01*
X797665Y80445D01*
X797616Y80483D01*
X797569Y80524D01*
X797525Y80569D01*
X797483Y80616D01*
X797445Y80665D01*
X797409Y80717D01*
X797377Y80771D01*
X797349Y80827D01*
X797324Y80885D01*
X797303Y80944D01*
X797285Y81004D01*
X797272Y81065D01*
X797262Y81127D01*
X797256Y81189D01*
X797254Y81252D01*
X797254Y82250D01*
X797254Y84179D02*
X801746Y84179D01*
X801746Y86175D01*
X801746Y88144D02*
X797254Y88144D01*
X797254Y90640D02*
X799999Y88144D01*
X799001Y89143D02*
X801746Y90640D01*
D11*
X776873Y80127D02*
X773127Y80127D01*
X773127Y81168D01*
X773129Y81231D01*
X773135Y81293D01*
X773144Y81356D01*
X773157Y81417D01*
X773174Y81478D01*
X773195Y81537D01*
X773219Y81595D01*
X773246Y81652D01*
X773277Y81707D01*
X773311Y81759D01*
X773349Y81810D01*
X773389Y81858D01*
X773432Y81904D01*
X773478Y81947D01*
X773526Y81987D01*
X773577Y82025D01*
X773629Y82059D01*
X773684Y82090D01*
X773741Y82117D01*
X773799Y82141D01*
X773858Y82162D01*
X773919Y82179D01*
X773980Y82192D01*
X774043Y82201D01*
X774105Y82207D01*
X774168Y82209D01*
X774168Y82208D02*
X775832Y82208D01*
X775832Y82209D02*
X775895Y82207D01*
X775957Y82201D01*
X776020Y82192D01*
X776081Y82179D01*
X776142Y82162D01*
X776201Y82141D01*
X776259Y82117D01*
X776316Y82090D01*
X776371Y82059D01*
X776423Y82025D01*
X776474Y81987D01*
X776522Y81947D01*
X776568Y81904D01*
X776611Y81858D01*
X776651Y81810D01*
X776689Y81759D01*
X776723Y81707D01*
X776754Y81652D01*
X776781Y81595D01*
X776805Y81537D01*
X776826Y81478D01*
X776843Y81417D01*
X776856Y81356D01*
X776865Y81293D01*
X776871Y81231D01*
X776873Y81168D01*
X776873Y80127D01*
X775416Y84527D02*
X775416Y85463D01*
X775417Y84527D02*
X775419Y84474D01*
X775425Y84421D01*
X775434Y84369D01*
X775448Y84317D01*
X775465Y84267D01*
X775486Y84218D01*
X775510Y84171D01*
X775538Y84125D01*
X775569Y84082D01*
X775603Y84041D01*
X775640Y84003D01*
X775679Y83967D01*
X775721Y83935D01*
X775766Y83906D01*
X775812Y83880D01*
X775860Y83857D01*
X775910Y83838D01*
X775961Y83823D01*
X776013Y83811D01*
X776065Y83803D01*
X776118Y83799D01*
X776172Y83799D01*
X776225Y83803D01*
X776277Y83811D01*
X776329Y83823D01*
X776380Y83838D01*
X776430Y83857D01*
X776478Y83880D01*
X776524Y83906D01*
X776569Y83935D01*
X776611Y83967D01*
X776650Y84003D01*
X776687Y84041D01*
X776721Y84082D01*
X776752Y84125D01*
X776780Y84171D01*
X776804Y84218D01*
X776825Y84267D01*
X776842Y84317D01*
X776856Y84369D01*
X776865Y84421D01*
X776871Y84474D01*
X776873Y84527D01*
X776873Y85463D01*
X775000Y85463D01*
X774951Y85461D01*
X774902Y85455D01*
X774854Y85446D01*
X774807Y85432D01*
X774761Y85416D01*
X774717Y85395D01*
X774674Y85371D01*
X774633Y85344D01*
X774595Y85313D01*
X774559Y85280D01*
X774526Y85244D01*
X774495Y85206D01*
X774468Y85165D01*
X774444Y85122D01*
X774423Y85078D01*
X774407Y85032D01*
X774393Y84985D01*
X774384Y84937D01*
X774378Y84888D01*
X774376Y84839D01*
X774376Y84007D01*
X774376Y86757D02*
X774376Y88006D01*
X773127Y87173D02*
X776249Y87173D01*
X776249Y87174D02*
X776298Y87176D01*
X776347Y87182D01*
X776395Y87191D01*
X776442Y87205D01*
X776488Y87221D01*
X776532Y87242D01*
X776575Y87266D01*
X776616Y87293D01*
X776654Y87324D01*
X776690Y87357D01*
X776723Y87393D01*
X776754Y87431D01*
X776781Y87472D01*
X776805Y87515D01*
X776826Y87559D01*
X776842Y87605D01*
X776856Y87652D01*
X776865Y87700D01*
X776871Y87749D01*
X776873Y87798D01*
X776873Y88006D01*
X775416Y90047D02*
X775416Y90983D01*
X775417Y90047D02*
X775419Y89994D01*
X775425Y89941D01*
X775434Y89889D01*
X775448Y89837D01*
X775465Y89787D01*
X775486Y89738D01*
X775510Y89691D01*
X775538Y89645D01*
X775569Y89602D01*
X775603Y89561D01*
X775640Y89523D01*
X775679Y89487D01*
X775721Y89455D01*
X775766Y89426D01*
X775812Y89400D01*
X775860Y89377D01*
X775910Y89358D01*
X775961Y89343D01*
X776013Y89331D01*
X776065Y89323D01*
X776118Y89319D01*
X776172Y89319D01*
X776225Y89323D01*
X776277Y89331D01*
X776329Y89343D01*
X776380Y89358D01*
X776430Y89377D01*
X776478Y89400D01*
X776524Y89426D01*
X776569Y89455D01*
X776611Y89487D01*
X776650Y89523D01*
X776687Y89561D01*
X776721Y89602D01*
X776752Y89645D01*
X776780Y89691D01*
X776804Y89738D01*
X776825Y89787D01*
X776842Y89837D01*
X776856Y89889D01*
X776865Y89941D01*
X776871Y89994D01*
X776873Y90047D01*
X776873Y90983D01*
X775000Y90983D01*
X774951Y90981D01*
X774902Y90975D01*
X774854Y90966D01*
X774807Y90952D01*
X774761Y90936D01*
X774717Y90915D01*
X774674Y90891D01*
X774633Y90864D01*
X774595Y90833D01*
X774559Y90800D01*
X774526Y90764D01*
X774495Y90726D01*
X774468Y90685D01*
X774444Y90642D01*
X774423Y90598D01*
X774407Y90552D01*
X774393Y90505D01*
X774384Y90457D01*
X774378Y90408D01*
X774376Y90359D01*
X774376Y89526D01*
X774168Y92607D02*
X775832Y92607D01*
X774168Y92606D02*
X774105Y92608D01*
X774043Y92614D01*
X773980Y92623D01*
X773919Y92636D01*
X773858Y92653D01*
X773799Y92674D01*
X773741Y92698D01*
X773684Y92725D01*
X773629Y92756D01*
X773577Y92790D01*
X773526Y92828D01*
X773478Y92868D01*
X773432Y92911D01*
X773389Y92957D01*
X773349Y93005D01*
X773311Y93056D01*
X773277Y93108D01*
X773246Y93163D01*
X773219Y93220D01*
X773195Y93278D01*
X773174Y93337D01*
X773157Y93398D01*
X773144Y93459D01*
X773135Y93522D01*
X773129Y93584D01*
X773127Y93647D01*
X773129Y93710D01*
X773135Y93772D01*
X773144Y93835D01*
X773157Y93896D01*
X773174Y93957D01*
X773195Y94016D01*
X773219Y94074D01*
X773246Y94131D01*
X773277Y94186D01*
X773311Y94238D01*
X773349Y94289D01*
X773389Y94337D01*
X773432Y94383D01*
X773478Y94426D01*
X773526Y94466D01*
X773577Y94504D01*
X773629Y94538D01*
X773684Y94569D01*
X773741Y94596D01*
X773799Y94620D01*
X773858Y94641D01*
X773919Y94658D01*
X773980Y94671D01*
X774043Y94680D01*
X774105Y94686D01*
X774168Y94688D01*
X775832Y94688D01*
X775895Y94686D01*
X775957Y94680D01*
X776020Y94671D01*
X776081Y94658D01*
X776142Y94641D01*
X776201Y94620D01*
X776259Y94596D01*
X776316Y94569D01*
X776371Y94538D01*
X776423Y94504D01*
X776474Y94466D01*
X776522Y94426D01*
X776568Y94383D01*
X776611Y94337D01*
X776651Y94289D01*
X776689Y94238D01*
X776723Y94186D01*
X776754Y94131D01*
X776781Y94074D01*
X776805Y94016D01*
X776826Y93957D01*
X776843Y93896D01*
X776856Y93835D01*
X776865Y93772D01*
X776871Y93710D01*
X776873Y93647D01*
X776871Y93584D01*
X776865Y93522D01*
X776856Y93459D01*
X776843Y93398D01*
X776826Y93337D01*
X776805Y93278D01*
X776781Y93220D01*
X776754Y93163D01*
X776723Y93108D01*
X776689Y93056D01*
X776651Y93005D01*
X776611Y92957D01*
X776568Y92911D01*
X776522Y92868D01*
X776474Y92828D01*
X776423Y92790D01*
X776371Y92756D01*
X776316Y92725D01*
X776259Y92698D01*
X776201Y92674D01*
X776142Y92653D01*
X776081Y92636D01*
X776020Y92623D01*
X775957Y92614D01*
X775895Y92608D01*
X775832Y92606D01*
X776249Y96295D02*
X774376Y96295D01*
X776249Y96295D02*
X776298Y96297D01*
X776347Y96303D01*
X776395Y96312D01*
X776442Y96326D01*
X776488Y96342D01*
X776532Y96363D01*
X776575Y96387D01*
X776616Y96414D01*
X776654Y96445D01*
X776690Y96478D01*
X776723Y96514D01*
X776754Y96552D01*
X776781Y96593D01*
X776805Y96636D01*
X776826Y96680D01*
X776842Y96726D01*
X776856Y96773D01*
X776865Y96821D01*
X776871Y96870D01*
X776873Y96919D01*
X776873Y97960D01*
X774376Y97960D01*
X774376Y99237D02*
X774376Y100486D01*
X773127Y99653D02*
X776249Y99653D01*
X776249Y99654D02*
X776298Y99656D01*
X776347Y99662D01*
X776395Y99671D01*
X776442Y99685D01*
X776488Y99701D01*
X776532Y99722D01*
X776575Y99746D01*
X776616Y99773D01*
X776654Y99804D01*
X776690Y99837D01*
X776723Y99873D01*
X776754Y99911D01*
X776781Y99952D01*
X776805Y99995D01*
X776826Y100039D01*
X776842Y100085D01*
X776856Y100132D01*
X776865Y100180D01*
X776871Y100229D01*
X776873Y100278D01*
X776873Y100486D01*
D10*
X750250Y82750D02*
X750250Y82001D01*
X750250Y82750D02*
X752746Y82750D01*
X752746Y81252D01*
X752744Y81189D01*
X752738Y81127D01*
X752728Y81065D01*
X752715Y81004D01*
X752697Y80944D01*
X752676Y80885D01*
X752651Y80827D01*
X752623Y80771D01*
X752591Y80717D01*
X752555Y80665D01*
X752517Y80616D01*
X752476Y80569D01*
X752431Y80525D01*
X752384Y80483D01*
X752335Y80445D01*
X752283Y80409D01*
X752229Y80377D01*
X752173Y80349D01*
X752115Y80324D01*
X752056Y80303D01*
X751996Y80285D01*
X751935Y80272D01*
X751873Y80262D01*
X751811Y80256D01*
X751748Y80254D01*
X749252Y80254D01*
X749189Y80256D01*
X749127Y80262D01*
X749065Y80272D01*
X749004Y80285D01*
X748944Y80303D01*
X748885Y80324D01*
X748827Y80349D01*
X748771Y80377D01*
X748717Y80409D01*
X748665Y80445D01*
X748616Y80483D01*
X748569Y80524D01*
X748525Y80569D01*
X748483Y80616D01*
X748445Y80665D01*
X748409Y80717D01*
X748377Y80771D01*
X748349Y80827D01*
X748324Y80885D01*
X748303Y80944D01*
X748285Y81004D01*
X748272Y81065D01*
X748262Y81127D01*
X748256Y81189D01*
X748254Y81252D01*
X748254Y82750D01*
X748254Y85054D02*
X752746Y85054D01*
X752746Y87550D02*
X748254Y85054D01*
X748254Y87550D02*
X752746Y87550D01*
X752746Y89854D02*
X748254Y89854D01*
X748254Y91102D01*
X748256Y91170D01*
X748261Y91237D01*
X748270Y91304D01*
X748283Y91370D01*
X748299Y91436D01*
X748319Y91500D01*
X748343Y91564D01*
X748369Y91626D01*
X748399Y91687D01*
X748433Y91745D01*
X748469Y91802D01*
X748508Y91857D01*
X748551Y91910D01*
X748596Y91960D01*
X748644Y92008D01*
X748694Y92053D01*
X748747Y92096D01*
X748802Y92135D01*
X748859Y92171D01*
X748917Y92205D01*
X748978Y92235D01*
X749040Y92261D01*
X749104Y92285D01*
X749168Y92305D01*
X749234Y92321D01*
X749300Y92334D01*
X749367Y92343D01*
X749434Y92348D01*
X749502Y92350D01*
X749502Y92349D02*
X751498Y92349D01*
X751498Y92350D02*
X751566Y92348D01*
X751633Y92343D01*
X751700Y92334D01*
X751766Y92321D01*
X751832Y92305D01*
X751896Y92285D01*
X751960Y92261D01*
X752022Y92235D01*
X752083Y92205D01*
X752141Y92171D01*
X752198Y92135D01*
X752253Y92096D01*
X752306Y92053D01*
X752356Y92008D01*
X752404Y91960D01*
X752449Y91910D01*
X752492Y91857D01*
X752531Y91802D01*
X752567Y91745D01*
X752601Y91687D01*
X752631Y91626D01*
X752657Y91564D01*
X752681Y91500D01*
X752701Y91436D01*
X752717Y91370D01*
X752730Y91304D01*
X752739Y91237D01*
X752744Y91170D01*
X752746Y91102D01*
X752746Y89854D01*
X726746Y81751D02*
X722254Y80254D01*
X722254Y83249D02*
X726746Y81751D01*
X726746Y85154D02*
X722254Y85154D01*
X722254Y86401D01*
X722256Y86469D01*
X722261Y86536D01*
X722270Y86603D01*
X722283Y86669D01*
X722299Y86735D01*
X722319Y86799D01*
X722343Y86863D01*
X722369Y86925D01*
X722399Y86986D01*
X722433Y87044D01*
X722469Y87101D01*
X722508Y87156D01*
X722551Y87209D01*
X722596Y87259D01*
X722644Y87307D01*
X722694Y87352D01*
X722747Y87395D01*
X722802Y87434D01*
X722859Y87470D01*
X722917Y87504D01*
X722978Y87534D01*
X723040Y87560D01*
X723104Y87584D01*
X723168Y87604D01*
X723234Y87620D01*
X723300Y87633D01*
X723367Y87642D01*
X723434Y87647D01*
X723502Y87649D01*
X725498Y87649D01*
X725566Y87647D01*
X725633Y87642D01*
X725700Y87633D01*
X725766Y87620D01*
X725832Y87604D01*
X725896Y87584D01*
X725960Y87560D01*
X726022Y87534D01*
X726083Y87504D01*
X726141Y87470D01*
X726198Y87434D01*
X726253Y87395D01*
X726306Y87352D01*
X726356Y87307D01*
X726404Y87259D01*
X726449Y87209D01*
X726492Y87156D01*
X726531Y87101D01*
X726567Y87044D01*
X726601Y86986D01*
X726631Y86925D01*
X726657Y86863D01*
X726681Y86799D01*
X726701Y86735D01*
X726717Y86669D01*
X726730Y86603D01*
X726739Y86536D01*
X726744Y86469D01*
X726746Y86401D01*
X726746Y85154D01*
X726746Y89954D02*
X722254Y89954D01*
X722254Y91201D01*
X722256Y91269D01*
X722261Y91336D01*
X722270Y91403D01*
X722283Y91469D01*
X722299Y91535D01*
X722319Y91599D01*
X722343Y91663D01*
X722369Y91725D01*
X722399Y91786D01*
X722433Y91844D01*
X722469Y91901D01*
X722508Y91956D01*
X722551Y92009D01*
X722596Y92059D01*
X722644Y92107D01*
X722694Y92152D01*
X722747Y92195D01*
X722802Y92234D01*
X722859Y92270D01*
X722917Y92304D01*
X722978Y92334D01*
X723040Y92360D01*
X723104Y92384D01*
X723168Y92404D01*
X723234Y92420D01*
X723300Y92433D01*
X723367Y92442D01*
X723434Y92447D01*
X723502Y92449D01*
X725498Y92449D01*
X725566Y92447D01*
X725633Y92442D01*
X725700Y92433D01*
X725766Y92420D01*
X725832Y92404D01*
X725896Y92384D01*
X725960Y92360D01*
X726022Y92334D01*
X726083Y92304D01*
X726141Y92270D01*
X726198Y92234D01*
X726253Y92195D01*
X726306Y92152D01*
X726356Y92107D01*
X726404Y92059D01*
X726449Y92009D01*
X726492Y91956D01*
X726531Y91901D01*
X726567Y91844D01*
X726601Y91786D01*
X726631Y91725D01*
X726657Y91663D01*
X726681Y91599D01*
X726701Y91535D01*
X726717Y91469D01*
X726730Y91403D01*
X726739Y91336D01*
X726744Y91269D01*
X726746Y91201D01*
X726746Y89954D01*
X946254Y80254D02*
X950746Y81751D01*
X946254Y83249D01*
X946254Y85154D02*
X950746Y85154D01*
X946254Y85154D02*
X946254Y86401D01*
X946256Y86469D01*
X946261Y86536D01*
X946270Y86603D01*
X946283Y86669D01*
X946299Y86735D01*
X946319Y86799D01*
X946343Y86863D01*
X946369Y86925D01*
X946399Y86986D01*
X946433Y87044D01*
X946469Y87101D01*
X946508Y87156D01*
X946551Y87209D01*
X946596Y87259D01*
X946644Y87307D01*
X946694Y87352D01*
X946747Y87395D01*
X946802Y87434D01*
X946859Y87470D01*
X946917Y87504D01*
X946978Y87534D01*
X947040Y87560D01*
X947104Y87584D01*
X947168Y87604D01*
X947234Y87620D01*
X947300Y87633D01*
X947367Y87642D01*
X947434Y87647D01*
X947502Y87649D01*
X949498Y87649D01*
X949566Y87647D01*
X949633Y87642D01*
X949700Y87633D01*
X949766Y87620D01*
X949832Y87604D01*
X949896Y87584D01*
X949960Y87560D01*
X950022Y87534D01*
X950083Y87504D01*
X950141Y87470D01*
X950198Y87434D01*
X950253Y87395D01*
X950306Y87352D01*
X950356Y87307D01*
X950404Y87259D01*
X950449Y87209D01*
X950492Y87156D01*
X950531Y87101D01*
X950567Y87044D01*
X950601Y86986D01*
X950631Y86925D01*
X950657Y86863D01*
X950681Y86799D01*
X950701Y86735D01*
X950717Y86669D01*
X950730Y86603D01*
X950739Y86536D01*
X950744Y86469D01*
X950746Y86401D01*
X950746Y85154D01*
X950746Y89954D02*
X946254Y89954D01*
X946254Y91201D01*
X946256Y91269D01*
X946261Y91336D01*
X946270Y91403D01*
X946283Y91469D01*
X946299Y91535D01*
X946319Y91599D01*
X946343Y91663D01*
X946369Y91725D01*
X946399Y91786D01*
X946433Y91844D01*
X946469Y91901D01*
X946508Y91956D01*
X946551Y92009D01*
X946596Y92059D01*
X946644Y92107D01*
X946694Y92152D01*
X946747Y92195D01*
X946802Y92234D01*
X946859Y92270D01*
X946917Y92304D01*
X946978Y92334D01*
X947040Y92360D01*
X947104Y92384D01*
X947168Y92404D01*
X947234Y92420D01*
X947300Y92433D01*
X947367Y92442D01*
X947434Y92447D01*
X947502Y92449D01*
X949498Y92449D01*
X949566Y92447D01*
X949633Y92442D01*
X949700Y92433D01*
X949766Y92420D01*
X949832Y92404D01*
X949896Y92384D01*
X949960Y92360D01*
X950022Y92334D01*
X950083Y92304D01*
X950141Y92270D01*
X950198Y92234D01*
X950253Y92195D01*
X950306Y92152D01*
X950356Y92107D01*
X950404Y92059D01*
X950449Y92009D01*
X950492Y91956D01*
X950531Y91901D01*
X950567Y91844D01*
X950601Y91786D01*
X950631Y91725D01*
X950657Y91663D01*
X950681Y91599D01*
X950701Y91535D01*
X950717Y91469D01*
X950730Y91403D01*
X950739Y91336D01*
X950744Y91269D01*
X950746Y91201D01*
X950746Y89954D01*
X973250Y82750D02*
X973250Y82001D01*
X973250Y82750D02*
X975746Y82750D01*
X975746Y81252D01*
X975744Y81189D01*
X975738Y81127D01*
X975728Y81065D01*
X975715Y81004D01*
X975697Y80944D01*
X975676Y80885D01*
X975651Y80827D01*
X975623Y80771D01*
X975591Y80717D01*
X975555Y80665D01*
X975517Y80616D01*
X975476Y80569D01*
X975431Y80525D01*
X975384Y80483D01*
X975335Y80445D01*
X975283Y80409D01*
X975229Y80377D01*
X975173Y80349D01*
X975115Y80324D01*
X975056Y80303D01*
X974996Y80285D01*
X974935Y80272D01*
X974873Y80262D01*
X974811Y80256D01*
X974748Y80254D01*
X972252Y80254D01*
X972189Y80256D01*
X972127Y80262D01*
X972065Y80272D01*
X972004Y80285D01*
X971944Y80303D01*
X971885Y80324D01*
X971827Y80349D01*
X971771Y80377D01*
X971717Y80409D01*
X971665Y80445D01*
X971616Y80483D01*
X971569Y80524D01*
X971525Y80569D01*
X971483Y80616D01*
X971445Y80665D01*
X971409Y80717D01*
X971377Y80771D01*
X971349Y80827D01*
X971324Y80885D01*
X971303Y80944D01*
X971285Y81004D01*
X971272Y81065D01*
X971262Y81127D01*
X971256Y81189D01*
X971254Y81252D01*
X971254Y82750D01*
X971254Y85054D02*
X975746Y85054D01*
X975746Y87550D02*
X971254Y85054D01*
X971254Y87550D02*
X975746Y87550D01*
X975746Y89854D02*
X971254Y89854D01*
X971254Y91102D01*
X971256Y91170D01*
X971261Y91237D01*
X971270Y91304D01*
X971283Y91370D01*
X971299Y91436D01*
X971319Y91500D01*
X971343Y91564D01*
X971369Y91626D01*
X971399Y91687D01*
X971433Y91745D01*
X971469Y91802D01*
X971508Y91857D01*
X971551Y91910D01*
X971596Y91960D01*
X971644Y92008D01*
X971694Y92053D01*
X971747Y92096D01*
X971802Y92135D01*
X971859Y92171D01*
X971917Y92205D01*
X971978Y92235D01*
X972040Y92261D01*
X972104Y92285D01*
X972168Y92305D01*
X972234Y92321D01*
X972300Y92334D01*
X972367Y92343D01*
X972434Y92348D01*
X972502Y92350D01*
X972502Y92349D02*
X974498Y92349D01*
X974498Y92350D02*
X974566Y92348D01*
X974633Y92343D01*
X974700Y92334D01*
X974766Y92321D01*
X974832Y92305D01*
X974896Y92285D01*
X974960Y92261D01*
X975022Y92235D01*
X975083Y92205D01*
X975141Y92171D01*
X975198Y92135D01*
X975253Y92096D01*
X975306Y92053D01*
X975356Y92008D01*
X975404Y91960D01*
X975449Y91910D01*
X975492Y91857D01*
X975531Y91802D01*
X975567Y91745D01*
X975601Y91687D01*
X975631Y91626D01*
X975657Y91564D01*
X975681Y91500D01*
X975701Y91436D01*
X975717Y91370D01*
X975730Y91304D01*
X975739Y91237D01*
X975744Y91170D01*
X975746Y91102D01*
X975746Y89854D01*
D11*
X998127Y80127D02*
X1001873Y80127D01*
X998127Y80127D02*
X998127Y81168D01*
X998129Y81231D01*
X998135Y81293D01*
X998144Y81356D01*
X998157Y81417D01*
X998174Y81478D01*
X998195Y81537D01*
X998219Y81595D01*
X998246Y81652D01*
X998277Y81707D01*
X998311Y81759D01*
X998349Y81810D01*
X998389Y81858D01*
X998432Y81904D01*
X998478Y81947D01*
X998526Y81987D01*
X998577Y82025D01*
X998629Y82059D01*
X998684Y82090D01*
X998741Y82117D01*
X998799Y82141D01*
X998858Y82162D01*
X998919Y82179D01*
X998980Y82192D01*
X999043Y82201D01*
X999105Y82207D01*
X999168Y82209D01*
X999168Y82208D02*
X1000832Y82208D01*
X1000832Y82209D02*
X1000895Y82207D01*
X1000957Y82201D01*
X1001020Y82192D01*
X1001081Y82179D01*
X1001142Y82162D01*
X1001201Y82141D01*
X1001259Y82117D01*
X1001316Y82090D01*
X1001371Y82059D01*
X1001423Y82025D01*
X1001474Y81987D01*
X1001522Y81947D01*
X1001568Y81904D01*
X1001611Y81858D01*
X1001651Y81810D01*
X1001689Y81759D01*
X1001723Y81707D01*
X1001754Y81652D01*
X1001781Y81595D01*
X1001805Y81537D01*
X1001826Y81478D01*
X1001843Y81417D01*
X1001856Y81356D01*
X1001865Y81293D01*
X1001871Y81231D01*
X1001873Y81168D01*
X1001873Y80127D01*
X1000416Y84527D02*
X1000416Y85463D01*
X1000417Y84527D02*
X1000419Y84474D01*
X1000425Y84421D01*
X1000434Y84369D01*
X1000448Y84317D01*
X1000465Y84267D01*
X1000486Y84218D01*
X1000510Y84171D01*
X1000538Y84125D01*
X1000569Y84082D01*
X1000603Y84041D01*
X1000640Y84003D01*
X1000679Y83967D01*
X1000721Y83935D01*
X1000766Y83906D01*
X1000812Y83880D01*
X1000860Y83857D01*
X1000910Y83838D01*
X1000961Y83823D01*
X1001013Y83811D01*
X1001065Y83803D01*
X1001118Y83799D01*
X1001172Y83799D01*
X1001225Y83803D01*
X1001277Y83811D01*
X1001329Y83823D01*
X1001380Y83838D01*
X1001430Y83857D01*
X1001478Y83880D01*
X1001524Y83906D01*
X1001569Y83935D01*
X1001611Y83967D01*
X1001650Y84003D01*
X1001687Y84041D01*
X1001721Y84082D01*
X1001752Y84125D01*
X1001780Y84171D01*
X1001804Y84218D01*
X1001825Y84267D01*
X1001842Y84317D01*
X1001856Y84369D01*
X1001865Y84421D01*
X1001871Y84474D01*
X1001873Y84527D01*
X1001873Y85463D01*
X1000000Y85463D01*
X999951Y85461D01*
X999902Y85455D01*
X999854Y85446D01*
X999807Y85432D01*
X999761Y85416D01*
X999717Y85395D01*
X999674Y85371D01*
X999633Y85344D01*
X999595Y85313D01*
X999559Y85280D01*
X999526Y85244D01*
X999495Y85206D01*
X999468Y85165D01*
X999444Y85122D01*
X999423Y85078D01*
X999407Y85032D01*
X999393Y84985D01*
X999384Y84937D01*
X999378Y84888D01*
X999376Y84839D01*
X999376Y84007D01*
X999376Y86757D02*
X999376Y88006D01*
X998127Y87173D02*
X1001249Y87173D01*
X1001249Y87174D02*
X1001298Y87176D01*
X1001347Y87182D01*
X1001395Y87191D01*
X1001442Y87205D01*
X1001488Y87221D01*
X1001532Y87242D01*
X1001575Y87266D01*
X1001616Y87293D01*
X1001654Y87324D01*
X1001690Y87357D01*
X1001723Y87393D01*
X1001754Y87431D01*
X1001781Y87472D01*
X1001805Y87515D01*
X1001826Y87559D01*
X1001842Y87605D01*
X1001856Y87652D01*
X1001865Y87700D01*
X1001871Y87749D01*
X1001873Y87798D01*
X1001873Y88006D01*
X1000416Y90047D02*
X1000416Y90983D01*
X1000417Y90047D02*
X1000419Y89994D01*
X1000425Y89941D01*
X1000434Y89889D01*
X1000448Y89837D01*
X1000465Y89787D01*
X1000486Y89738D01*
X1000510Y89691D01*
X1000538Y89645D01*
X1000569Y89602D01*
X1000603Y89561D01*
X1000640Y89523D01*
X1000679Y89487D01*
X1000721Y89455D01*
X1000766Y89426D01*
X1000812Y89400D01*
X1000860Y89377D01*
X1000910Y89358D01*
X1000961Y89343D01*
X1001013Y89331D01*
X1001065Y89323D01*
X1001118Y89319D01*
X1001172Y89319D01*
X1001225Y89323D01*
X1001277Y89331D01*
X1001329Y89343D01*
X1001380Y89358D01*
X1001430Y89377D01*
X1001478Y89400D01*
X1001524Y89426D01*
X1001569Y89455D01*
X1001611Y89487D01*
X1001650Y89523D01*
X1001687Y89561D01*
X1001721Y89602D01*
X1001752Y89645D01*
X1001780Y89691D01*
X1001804Y89738D01*
X1001825Y89787D01*
X1001842Y89837D01*
X1001856Y89889D01*
X1001865Y89941D01*
X1001871Y89994D01*
X1001873Y90047D01*
X1001873Y90983D01*
X1000000Y90983D01*
X999951Y90981D01*
X999902Y90975D01*
X999854Y90966D01*
X999807Y90952D01*
X999761Y90936D01*
X999717Y90915D01*
X999674Y90891D01*
X999633Y90864D01*
X999595Y90833D01*
X999559Y90800D01*
X999526Y90764D01*
X999495Y90726D01*
X999468Y90685D01*
X999444Y90642D01*
X999423Y90598D01*
X999407Y90552D01*
X999393Y90505D01*
X999384Y90457D01*
X999378Y90408D01*
X999376Y90359D01*
X999376Y89526D01*
X999168Y92607D02*
X1000832Y92607D01*
X999168Y92606D02*
X999105Y92608D01*
X999043Y92614D01*
X998980Y92623D01*
X998919Y92636D01*
X998858Y92653D01*
X998799Y92674D01*
X998741Y92698D01*
X998684Y92725D01*
X998629Y92756D01*
X998577Y92790D01*
X998526Y92828D01*
X998478Y92868D01*
X998432Y92911D01*
X998389Y92957D01*
X998349Y93005D01*
X998311Y93056D01*
X998277Y93108D01*
X998246Y93163D01*
X998219Y93220D01*
X998195Y93278D01*
X998174Y93337D01*
X998157Y93398D01*
X998144Y93459D01*
X998135Y93522D01*
X998129Y93584D01*
X998127Y93647D01*
X998129Y93710D01*
X998135Y93772D01*
X998144Y93835D01*
X998157Y93896D01*
X998174Y93957D01*
X998195Y94016D01*
X998219Y94074D01*
X998246Y94131D01*
X998277Y94186D01*
X998311Y94238D01*
X998349Y94289D01*
X998389Y94337D01*
X998432Y94383D01*
X998478Y94426D01*
X998526Y94466D01*
X998577Y94504D01*
X998629Y94538D01*
X998684Y94569D01*
X998741Y94596D01*
X998799Y94620D01*
X998858Y94641D01*
X998919Y94658D01*
X998980Y94671D01*
X999043Y94680D01*
X999105Y94686D01*
X999168Y94688D01*
X1000832Y94688D01*
X1000895Y94686D01*
X1000957Y94680D01*
X1001020Y94671D01*
X1001081Y94658D01*
X1001142Y94641D01*
X1001201Y94620D01*
X1001259Y94596D01*
X1001316Y94569D01*
X1001371Y94538D01*
X1001423Y94504D01*
X1001474Y94466D01*
X1001522Y94426D01*
X1001568Y94383D01*
X1001611Y94337D01*
X1001651Y94289D01*
X1001689Y94238D01*
X1001723Y94186D01*
X1001754Y94131D01*
X1001781Y94074D01*
X1001805Y94016D01*
X1001826Y93957D01*
X1001843Y93896D01*
X1001856Y93835D01*
X1001865Y93772D01*
X1001871Y93710D01*
X1001873Y93647D01*
X1001871Y93584D01*
X1001865Y93522D01*
X1001856Y93459D01*
X1001843Y93398D01*
X1001826Y93337D01*
X1001805Y93278D01*
X1001781Y93220D01*
X1001754Y93163D01*
X1001723Y93108D01*
X1001689Y93056D01*
X1001651Y93005D01*
X1001611Y92957D01*
X1001568Y92911D01*
X1001522Y92868D01*
X1001474Y92828D01*
X1001423Y92790D01*
X1001371Y92756D01*
X1001316Y92725D01*
X1001259Y92698D01*
X1001201Y92674D01*
X1001142Y92653D01*
X1001081Y92636D01*
X1001020Y92623D01*
X1000957Y92614D01*
X1000895Y92608D01*
X1000832Y92606D01*
X1001249Y96295D02*
X999376Y96295D01*
X1001249Y96295D02*
X1001298Y96297D01*
X1001347Y96303D01*
X1001395Y96312D01*
X1001442Y96326D01*
X1001488Y96342D01*
X1001532Y96363D01*
X1001575Y96387D01*
X1001616Y96414D01*
X1001654Y96445D01*
X1001690Y96478D01*
X1001723Y96514D01*
X1001754Y96552D01*
X1001781Y96593D01*
X1001805Y96636D01*
X1001826Y96680D01*
X1001842Y96726D01*
X1001856Y96773D01*
X1001865Y96821D01*
X1001871Y96870D01*
X1001873Y96919D01*
X1001873Y97960D01*
X999376Y97960D01*
X999376Y99237D02*
X999376Y100486D01*
X998127Y99653D02*
X1001249Y99653D01*
X1001249Y99654D02*
X1001298Y99656D01*
X1001347Y99662D01*
X1001395Y99671D01*
X1001442Y99685D01*
X1001488Y99701D01*
X1001532Y99722D01*
X1001575Y99746D01*
X1001616Y99773D01*
X1001654Y99804D01*
X1001690Y99837D01*
X1001723Y99873D01*
X1001754Y99911D01*
X1001781Y99952D01*
X1001805Y99995D01*
X1001826Y100039D01*
X1001842Y100085D01*
X1001856Y100132D01*
X1001865Y100180D01*
X1001871Y100229D01*
X1001873Y100278D01*
X1001873Y100486D01*
D10*
X1026746Y82250D02*
X1026746Y81252D01*
X1026744Y81189D01*
X1026738Y81127D01*
X1026728Y81065D01*
X1026715Y81004D01*
X1026697Y80944D01*
X1026676Y80885D01*
X1026651Y80827D01*
X1026623Y80771D01*
X1026591Y80717D01*
X1026555Y80665D01*
X1026517Y80616D01*
X1026476Y80569D01*
X1026431Y80525D01*
X1026384Y80483D01*
X1026335Y80445D01*
X1026283Y80409D01*
X1026229Y80377D01*
X1026173Y80349D01*
X1026115Y80324D01*
X1026056Y80303D01*
X1025996Y80285D01*
X1025935Y80272D01*
X1025873Y80262D01*
X1025811Y80256D01*
X1025748Y80254D01*
X1023252Y80254D01*
X1023189Y80256D01*
X1023127Y80262D01*
X1023065Y80272D01*
X1023004Y80285D01*
X1022944Y80303D01*
X1022885Y80324D01*
X1022827Y80349D01*
X1022771Y80377D01*
X1022717Y80409D01*
X1022665Y80445D01*
X1022616Y80483D01*
X1022569Y80524D01*
X1022525Y80569D01*
X1022483Y80616D01*
X1022445Y80665D01*
X1022409Y80717D01*
X1022377Y80771D01*
X1022349Y80827D01*
X1022324Y80885D01*
X1022303Y80944D01*
X1022285Y81004D01*
X1022272Y81065D01*
X1022262Y81127D01*
X1022256Y81189D01*
X1022254Y81252D01*
X1022254Y82250D01*
X1022254Y84179D02*
X1026746Y84179D01*
X1026746Y86175D01*
X1026746Y88144D02*
X1022254Y88144D01*
X1022254Y90640D02*
X1024999Y88144D01*
X1024001Y89143D02*
X1026746Y90640D01*
X1048254Y80254D02*
X1052746Y80254D01*
X1052746Y82250D01*
X1050999Y84791D02*
X1050999Y85914D01*
X1051000Y84791D02*
X1051002Y84733D01*
X1051008Y84675D01*
X1051017Y84617D01*
X1051031Y84560D01*
X1051048Y84505D01*
X1051069Y84450D01*
X1051094Y84397D01*
X1051122Y84346D01*
X1051153Y84297D01*
X1051188Y84250D01*
X1051226Y84205D01*
X1051266Y84163D01*
X1051309Y84124D01*
X1051355Y84088D01*
X1051403Y84055D01*
X1051453Y84025D01*
X1051506Y83999D01*
X1051559Y83976D01*
X1051614Y83957D01*
X1051671Y83942D01*
X1051728Y83930D01*
X1051786Y83922D01*
X1051844Y83918D01*
X1051902Y83918D01*
X1051960Y83922D01*
X1052018Y83930D01*
X1052075Y83942D01*
X1052132Y83957D01*
X1052187Y83976D01*
X1052240Y83999D01*
X1052293Y84025D01*
X1052343Y84055D01*
X1052391Y84088D01*
X1052437Y84124D01*
X1052480Y84163D01*
X1052520Y84205D01*
X1052558Y84250D01*
X1052593Y84297D01*
X1052624Y84346D01*
X1052652Y84397D01*
X1052677Y84450D01*
X1052698Y84505D01*
X1052715Y84560D01*
X1052729Y84617D01*
X1052738Y84675D01*
X1052744Y84733D01*
X1052746Y84791D01*
X1052746Y85914D01*
X1050500Y85914D01*
X1050447Y85912D01*
X1050393Y85906D01*
X1050341Y85897D01*
X1050289Y85884D01*
X1050238Y85867D01*
X1050189Y85846D01*
X1050141Y85822D01*
X1050095Y85795D01*
X1050051Y85765D01*
X1050010Y85731D01*
X1049970Y85695D01*
X1049934Y85655D01*
X1049900Y85614D01*
X1049870Y85570D01*
X1049843Y85524D01*
X1049819Y85476D01*
X1049798Y85427D01*
X1049781Y85376D01*
X1049768Y85324D01*
X1049759Y85272D01*
X1049753Y85218D01*
X1049751Y85165D01*
X1049751Y84167D01*
X1049751Y87602D02*
X1049751Y89099D01*
X1048254Y88101D02*
X1051997Y88101D01*
X1051997Y88100D02*
X1052050Y88102D01*
X1052104Y88108D01*
X1052156Y88117D01*
X1052208Y88130D01*
X1052259Y88147D01*
X1052308Y88168D01*
X1052356Y88192D01*
X1052402Y88219D01*
X1052446Y88249D01*
X1052488Y88283D01*
X1052527Y88319D01*
X1052563Y88359D01*
X1052597Y88400D01*
X1052627Y88444D01*
X1052654Y88490D01*
X1052678Y88538D01*
X1052699Y88587D01*
X1052716Y88638D01*
X1052729Y88690D01*
X1052738Y88742D01*
X1052744Y88796D01*
X1052746Y88849D01*
X1052746Y89099D01*
X1052746Y91598D02*
X1052746Y92596D01*
X1052746Y91598D02*
X1052744Y91545D01*
X1052738Y91491D01*
X1052729Y91439D01*
X1052716Y91387D01*
X1052699Y91336D01*
X1052678Y91287D01*
X1052654Y91239D01*
X1052627Y91193D01*
X1052597Y91149D01*
X1052563Y91108D01*
X1052527Y91068D01*
X1052488Y91032D01*
X1052446Y90998D01*
X1052402Y90968D01*
X1052356Y90941D01*
X1052308Y90917D01*
X1052259Y90896D01*
X1052208Y90879D01*
X1052156Y90866D01*
X1052104Y90857D01*
X1052050Y90851D01*
X1051997Y90849D01*
X1050500Y90849D01*
X1050447Y90851D01*
X1050393Y90857D01*
X1050341Y90866D01*
X1050289Y90879D01*
X1050238Y90896D01*
X1050189Y90917D01*
X1050141Y90941D01*
X1050095Y90968D01*
X1050051Y90998D01*
X1050010Y91032D01*
X1049970Y91068D01*
X1049934Y91108D01*
X1049900Y91149D01*
X1049870Y91193D01*
X1049843Y91239D01*
X1049819Y91287D01*
X1049798Y91336D01*
X1049781Y91387D01*
X1049768Y91439D01*
X1049759Y91491D01*
X1049753Y91545D01*
X1049751Y91598D01*
X1049751Y92596D01*
X1048254Y94443D02*
X1052746Y94443D01*
X1049751Y94443D02*
X1049751Y95691D01*
X1049753Y95744D01*
X1049759Y95798D01*
X1049768Y95850D01*
X1049781Y95902D01*
X1049798Y95953D01*
X1049819Y96002D01*
X1049843Y96050D01*
X1049870Y96096D01*
X1049900Y96140D01*
X1049934Y96181D01*
X1049970Y96221D01*
X1050009Y96257D01*
X1050051Y96291D01*
X1050095Y96321D01*
X1050141Y96348D01*
X1050189Y96372D01*
X1050238Y96393D01*
X1050289Y96410D01*
X1050341Y96423D01*
X1050393Y96432D01*
X1050447Y96438D01*
X1050500Y96440D01*
X1052746Y96440D01*
X604746Y82250D02*
X604746Y80254D01*
X600254Y80254D01*
X600254Y82250D01*
X602250Y81751D02*
X602250Y80254D01*
X600254Y84144D02*
X604746Y84144D01*
X604746Y86639D02*
X600254Y84144D01*
X600254Y86639D02*
X604746Y86639D01*
X600254Y90166D02*
X600256Y90231D01*
X600262Y90296D01*
X600271Y90361D01*
X600284Y90425D01*
X600301Y90488D01*
X600322Y90550D01*
X600346Y90611D01*
X600373Y90670D01*
X600404Y90728D01*
X600439Y90783D01*
X600476Y90837D01*
X600517Y90888D01*
X600560Y90937D01*
X600606Y90983D01*
X600655Y91026D01*
X600706Y91067D01*
X600760Y91104D01*
X600816Y91139D01*
X600873Y91170D01*
X600932Y91197D01*
X600993Y91221D01*
X601055Y91242D01*
X601118Y91259D01*
X601182Y91272D01*
X601247Y91281D01*
X601312Y91287D01*
X601377Y91289D01*
X600254Y90166D02*
X600256Y90093D01*
X600261Y90021D01*
X600270Y89949D01*
X600283Y89878D01*
X600299Y89807D01*
X600319Y89737D01*
X600343Y89668D01*
X600369Y89601D01*
X600399Y89535D01*
X600433Y89470D01*
X600469Y89408D01*
X600509Y89347D01*
X600552Y89288D01*
X600597Y89232D01*
X600646Y89178D01*
X600697Y89126D01*
X600750Y89077D01*
X600806Y89031D01*
X600864Y88987D01*
X600925Y88947D01*
X600987Y88910D01*
X601051Y88876D01*
X601117Y88845D01*
X601184Y88817D01*
X601252Y88793D01*
X602250Y90915D02*
X602204Y90961D01*
X602156Y91004D01*
X602105Y91045D01*
X602052Y91083D01*
X601997Y91118D01*
X601940Y91149D01*
X601882Y91178D01*
X601822Y91204D01*
X601761Y91226D01*
X601699Y91245D01*
X601635Y91261D01*
X601571Y91273D01*
X601507Y91282D01*
X601442Y91287D01*
X601377Y91289D01*
X602250Y90915D02*
X604746Y88794D01*
X604746Y91289D01*
X523746Y82250D02*
X523746Y80254D01*
X519254Y80254D01*
X519254Y82250D01*
X521250Y81751D02*
X521250Y80254D01*
X519254Y84144D02*
X523746Y84144D01*
X523746Y86639D02*
X519254Y84144D01*
X519254Y86639D02*
X523746Y86639D01*
X519254Y90166D02*
X519256Y90231D01*
X519262Y90296D01*
X519271Y90361D01*
X519284Y90425D01*
X519301Y90488D01*
X519322Y90550D01*
X519346Y90611D01*
X519373Y90670D01*
X519404Y90728D01*
X519439Y90783D01*
X519476Y90837D01*
X519517Y90888D01*
X519560Y90937D01*
X519606Y90983D01*
X519655Y91026D01*
X519706Y91067D01*
X519760Y91104D01*
X519816Y91139D01*
X519873Y91170D01*
X519932Y91197D01*
X519993Y91221D01*
X520055Y91242D01*
X520118Y91259D01*
X520182Y91272D01*
X520247Y91281D01*
X520312Y91287D01*
X520377Y91289D01*
X519254Y90166D02*
X519256Y90093D01*
X519261Y90021D01*
X519270Y89949D01*
X519283Y89878D01*
X519299Y89807D01*
X519319Y89737D01*
X519343Y89668D01*
X519369Y89601D01*
X519399Y89535D01*
X519433Y89470D01*
X519469Y89408D01*
X519509Y89347D01*
X519552Y89288D01*
X519597Y89232D01*
X519646Y89178D01*
X519697Y89126D01*
X519750Y89077D01*
X519806Y89031D01*
X519864Y88987D01*
X519925Y88947D01*
X519987Y88910D01*
X520051Y88876D01*
X520117Y88845D01*
X520184Y88817D01*
X520252Y88793D01*
X521250Y90915D02*
X521204Y90961D01*
X521156Y91004D01*
X521105Y91045D01*
X521052Y91083D01*
X520997Y91118D01*
X520940Y91149D01*
X520882Y91178D01*
X520822Y91204D01*
X520761Y91226D01*
X520699Y91245D01*
X520635Y91261D01*
X520571Y91273D01*
X520507Y91282D01*
X520442Y91287D01*
X520377Y91289D01*
X521250Y90915D02*
X523746Y88794D01*
X523746Y91289D01*
X577746Y82250D02*
X577746Y80254D01*
X573254Y80254D01*
X573254Y82250D01*
X575250Y81751D02*
X575250Y80254D01*
X573254Y84144D02*
X577746Y84144D01*
X577746Y86639D02*
X573254Y84144D01*
X573254Y86639D02*
X577746Y86639D01*
X574252Y88794D02*
X573254Y90042D01*
X577746Y90042D01*
X577746Y91289D02*
X577746Y88794D01*
X505746Y82250D02*
X505746Y80254D01*
X501254Y80254D01*
X501254Y82250D01*
X503250Y81751D02*
X503250Y80254D01*
X501254Y84144D02*
X505746Y84144D01*
X505746Y86639D02*
X501254Y84144D01*
X501254Y86639D02*
X505746Y86639D01*
X502252Y88794D02*
X501254Y90042D01*
X505746Y90042D01*
X505746Y91289D02*
X505746Y88794D01*
D12*
X12894Y259238D02*
X7762Y255132D01*
X12894Y259238D02*
X12894Y240762D01*
X7762Y240762D02*
X18026Y240762D01*
X247407Y265238D02*
X247541Y265236D01*
X247676Y265230D01*
X247810Y265220D01*
X247943Y265207D01*
X248076Y265189D01*
X248209Y265168D01*
X248341Y265143D01*
X248472Y265113D01*
X248602Y265081D01*
X248732Y265044D01*
X248860Y265004D01*
X248987Y264959D01*
X249112Y264912D01*
X249236Y264860D01*
X249359Y264805D01*
X249480Y264747D01*
X249599Y264685D01*
X249717Y264619D01*
X249832Y264550D01*
X249945Y264478D01*
X250056Y264403D01*
X250165Y264324D01*
X250272Y264242D01*
X250376Y264157D01*
X250478Y264070D01*
X250577Y263979D01*
X250673Y263885D01*
X250767Y263789D01*
X250858Y263690D01*
X250945Y263588D01*
X251030Y263484D01*
X251112Y263377D01*
X251191Y263268D01*
X251266Y263157D01*
X251338Y263044D01*
X251407Y262929D01*
X251473Y262811D01*
X251535Y262692D01*
X251593Y262571D01*
X251648Y262448D01*
X251700Y262324D01*
X251747Y262199D01*
X251792Y262072D01*
X251832Y261944D01*
X251869Y261814D01*
X251901Y261684D01*
X251931Y261553D01*
X251956Y261421D01*
X251977Y261288D01*
X251995Y261155D01*
X252008Y261022D01*
X252018Y260888D01*
X252024Y260753D01*
X252026Y260619D01*
X247407Y265238D02*
X247255Y265236D01*
X247103Y265230D01*
X246951Y265220D01*
X246799Y265207D01*
X246648Y265189D01*
X246497Y265168D01*
X246347Y265142D01*
X246197Y265113D01*
X246048Y265080D01*
X245901Y265044D01*
X245754Y265003D01*
X245608Y264959D01*
X245464Y264911D01*
X245320Y264859D01*
X245179Y264804D01*
X245038Y264745D01*
X244899Y264682D01*
X244762Y264616D01*
X244627Y264546D01*
X244493Y264473D01*
X244361Y264397D01*
X244232Y264317D01*
X244104Y264234D01*
X243979Y264147D01*
X243855Y264058D01*
X243735Y263965D01*
X243616Y263869D01*
X243500Y263771D01*
X243387Y263669D01*
X243276Y263564D01*
X243168Y263457D01*
X243063Y263347D01*
X242961Y263234D01*
X242861Y263119D01*
X242765Y263001D01*
X242672Y262880D01*
X242582Y262758D01*
X242494Y262633D01*
X242411Y262505D01*
X242330Y262376D01*
X242253Y262245D01*
X242179Y262112D01*
X242109Y261977D01*
X242042Y261840D01*
X241979Y261701D01*
X241919Y261561D01*
X241863Y261420D01*
X241810Y261277D01*
X241762Y261132D01*
X250486Y257027D02*
X250585Y257123D01*
X250682Y257223D01*
X250775Y257325D01*
X250865Y257430D01*
X250953Y257538D01*
X251038Y257647D01*
X251119Y257759D01*
X251197Y257874D01*
X251272Y257990D01*
X251344Y258109D01*
X251412Y258229D01*
X251477Y258351D01*
X251539Y258476D01*
X251597Y258601D01*
X251652Y258729D01*
X251703Y258857D01*
X251750Y258988D01*
X251794Y259119D01*
X251834Y259252D01*
X251870Y259385D01*
X251903Y259520D01*
X251932Y259655D01*
X251957Y259792D01*
X251978Y259929D01*
X251995Y260066D01*
X252009Y260204D01*
X252018Y260342D01*
X252024Y260480D01*
X252026Y260619D01*
X250487Y257026D02*
X241762Y246762D01*
X252026Y246762D01*
X466762Y236762D02*
X471894Y236762D01*
X472035Y236764D01*
X472177Y236770D01*
X472318Y236780D01*
X472459Y236793D01*
X472599Y236811D01*
X472739Y236832D01*
X472878Y236857D01*
X473016Y236886D01*
X473154Y236919D01*
X473290Y236956D01*
X473426Y236996D01*
X473560Y237040D01*
X473693Y237088D01*
X473825Y237139D01*
X473956Y237194D01*
X474084Y237253D01*
X474211Y237315D01*
X474337Y237381D01*
X474460Y237450D01*
X474581Y237522D01*
X474701Y237598D01*
X474818Y237677D01*
X474933Y237759D01*
X475046Y237844D01*
X475157Y237933D01*
X475264Y238024D01*
X475370Y238118D01*
X475473Y238215D01*
X475573Y238315D01*
X475670Y238418D01*
X475764Y238524D01*
X475855Y238631D01*
X475944Y238742D01*
X476029Y238855D01*
X476111Y238970D01*
X476190Y239087D01*
X476266Y239207D01*
X476338Y239328D01*
X476407Y239451D01*
X476473Y239577D01*
X476535Y239704D01*
X476594Y239832D01*
X476649Y239963D01*
X476700Y240095D01*
X476748Y240228D01*
X476792Y240362D01*
X476832Y240498D01*
X476869Y240634D01*
X476902Y240772D01*
X476931Y240910D01*
X476956Y241049D01*
X476977Y241189D01*
X476995Y241329D01*
X477008Y241470D01*
X477018Y241611D01*
X477024Y241753D01*
X477026Y241894D01*
X477024Y242035D01*
X477018Y242177D01*
X477008Y242318D01*
X476995Y242459D01*
X476977Y242599D01*
X476956Y242739D01*
X476931Y242878D01*
X476902Y243016D01*
X476869Y243154D01*
X476832Y243290D01*
X476792Y243426D01*
X476748Y243560D01*
X476700Y243693D01*
X476649Y243825D01*
X476594Y243956D01*
X476535Y244084D01*
X476473Y244211D01*
X476407Y244337D01*
X476338Y244460D01*
X476266Y244581D01*
X476190Y244701D01*
X476111Y244818D01*
X476029Y244933D01*
X475944Y245046D01*
X475855Y245157D01*
X475764Y245264D01*
X475670Y245370D01*
X475573Y245473D01*
X475473Y245573D01*
X475370Y245670D01*
X475264Y245764D01*
X475157Y245855D01*
X475046Y245944D01*
X474933Y246029D01*
X474818Y246111D01*
X474701Y246190D01*
X474581Y246266D01*
X474460Y246338D01*
X474337Y246407D01*
X474211Y246473D01*
X474084Y246535D01*
X473956Y246594D01*
X473825Y246649D01*
X473693Y246700D01*
X473560Y246748D01*
X473426Y246792D01*
X473290Y246832D01*
X473154Y246869D01*
X473016Y246902D01*
X472878Y246931D01*
X472739Y246956D01*
X472599Y246977D01*
X472459Y246995D01*
X472318Y247008D01*
X472177Y247018D01*
X472035Y247024D01*
X471894Y247026D01*
X472921Y255238D02*
X466762Y255238D01*
X472921Y255238D02*
X473047Y255236D01*
X473174Y255230D01*
X473300Y255220D01*
X473426Y255207D01*
X473551Y255189D01*
X473675Y255168D01*
X473799Y255143D01*
X473923Y255114D01*
X474045Y255081D01*
X474166Y255045D01*
X474286Y255005D01*
X474404Y254961D01*
X474521Y254913D01*
X474637Y254862D01*
X474751Y254808D01*
X474864Y254749D01*
X474974Y254688D01*
X475083Y254623D01*
X475189Y254555D01*
X475293Y254483D01*
X475395Y254409D01*
X475495Y254331D01*
X475592Y254250D01*
X475687Y254166D01*
X475779Y254080D01*
X475869Y253990D01*
X475955Y253898D01*
X476039Y253803D01*
X476120Y253706D01*
X476198Y253606D01*
X476272Y253504D01*
X476344Y253400D01*
X476412Y253294D01*
X476477Y253185D01*
X476538Y253075D01*
X476597Y252962D01*
X476651Y252848D01*
X476702Y252732D01*
X476750Y252615D01*
X476794Y252497D01*
X476834Y252377D01*
X476870Y252256D01*
X476903Y252134D01*
X476932Y252010D01*
X476957Y251886D01*
X476978Y251762D01*
X476996Y251637D01*
X477009Y251511D01*
X477019Y251385D01*
X477025Y251258D01*
X477027Y251132D01*
X477025Y251006D01*
X477019Y250879D01*
X477009Y250753D01*
X476996Y250627D01*
X476978Y250502D01*
X476957Y250378D01*
X476932Y250254D01*
X476903Y250130D01*
X476870Y250008D01*
X476834Y249887D01*
X476794Y249767D01*
X476750Y249649D01*
X476702Y249532D01*
X476651Y249416D01*
X476597Y249302D01*
X476538Y249189D01*
X476477Y249079D01*
X476412Y248970D01*
X476344Y248864D01*
X476272Y248760D01*
X476198Y248658D01*
X476120Y248558D01*
X476039Y248461D01*
X475955Y248366D01*
X475869Y248274D01*
X475779Y248184D01*
X475687Y248098D01*
X475592Y248014D01*
X475495Y247933D01*
X475395Y247855D01*
X475293Y247781D01*
X475189Y247709D01*
X475083Y247641D01*
X474974Y247576D01*
X474864Y247515D01*
X474751Y247456D01*
X474637Y247402D01*
X474521Y247351D01*
X474404Y247303D01*
X474286Y247259D01*
X474166Y247219D01*
X474045Y247183D01*
X473923Y247150D01*
X473799Y247121D01*
X473675Y247096D01*
X473551Y247075D01*
X473426Y247057D01*
X473300Y247044D01*
X473174Y247034D01*
X473047Y247028D01*
X472921Y247026D01*
X468815Y247026D01*
X686762Y235868D02*
X690868Y250238D01*
X686762Y235868D02*
X697026Y235868D01*
X693947Y239974D02*
X693947Y231762D01*
X892762Y208762D02*
X898921Y208762D01*
X899047Y208764D01*
X899174Y208770D01*
X899300Y208780D01*
X899426Y208793D01*
X899551Y208811D01*
X899675Y208832D01*
X899799Y208857D01*
X899923Y208886D01*
X900045Y208919D01*
X900166Y208955D01*
X900286Y208995D01*
X900404Y209039D01*
X900521Y209087D01*
X900637Y209138D01*
X900751Y209192D01*
X900864Y209251D01*
X900974Y209312D01*
X901083Y209377D01*
X901189Y209445D01*
X901293Y209517D01*
X901395Y209591D01*
X901495Y209669D01*
X901592Y209750D01*
X901687Y209834D01*
X901779Y209920D01*
X901869Y210010D01*
X901955Y210102D01*
X902039Y210197D01*
X902120Y210294D01*
X902198Y210394D01*
X902272Y210496D01*
X902344Y210600D01*
X902412Y210706D01*
X902477Y210815D01*
X902538Y210925D01*
X902597Y211038D01*
X902651Y211152D01*
X902702Y211268D01*
X902750Y211385D01*
X902794Y211503D01*
X902834Y211623D01*
X902870Y211744D01*
X902903Y211866D01*
X902932Y211990D01*
X902957Y212113D01*
X902978Y212238D01*
X902996Y212363D01*
X903009Y212489D01*
X903019Y212615D01*
X903025Y212742D01*
X903027Y212868D01*
X903026Y212868D02*
X903026Y214921D01*
X903027Y214921D02*
X903025Y215047D01*
X903019Y215174D01*
X903009Y215300D01*
X902996Y215426D01*
X902978Y215551D01*
X902957Y215675D01*
X902932Y215799D01*
X902903Y215923D01*
X902870Y216045D01*
X902834Y216166D01*
X902794Y216286D01*
X902750Y216404D01*
X902702Y216521D01*
X902651Y216637D01*
X902597Y216751D01*
X902538Y216864D01*
X902477Y216974D01*
X902412Y217083D01*
X902344Y217189D01*
X902272Y217293D01*
X902198Y217395D01*
X902120Y217495D01*
X902039Y217592D01*
X901955Y217687D01*
X901869Y217779D01*
X901779Y217869D01*
X901687Y217955D01*
X901592Y218039D01*
X901495Y218120D01*
X901395Y218198D01*
X901293Y218272D01*
X901189Y218344D01*
X901083Y218412D01*
X900974Y218477D01*
X900864Y218538D01*
X900751Y218597D01*
X900637Y218651D01*
X900521Y218702D01*
X900404Y218750D01*
X900286Y218794D01*
X900166Y218834D01*
X900045Y218870D01*
X899923Y218903D01*
X899799Y218932D01*
X899675Y218957D01*
X899551Y218978D01*
X899426Y218996D01*
X899300Y219009D01*
X899174Y219019D01*
X899047Y219025D01*
X898921Y219027D01*
X898921Y219026D02*
X892762Y219026D01*
X892762Y227238D01*
X903026Y227238D01*
D13*
X889900Y300400D03*
D14*
X902700Y300400D03*
D13*
X906900Y300400D03*
D15*
X909200Y300400D03*
D16*
X912400Y300400D03*
X914800Y300400D03*
D13*
X916700Y300400D03*
D17*
X919000Y300400D03*
X920800Y300400D03*
D13*
X890100Y300600D03*
D16*
X903000Y300600D03*
D15*
X908400Y300600D03*
D16*
X912600Y300600D03*
X915000Y300600D03*
X917000Y300600D03*
D17*
X919200Y300600D03*
D14*
X920900Y300600D03*
D13*
X890100Y300800D03*
D14*
X903100Y300800D03*
D16*
X907400Y300800D03*
D13*
X909900Y300800D03*
D16*
X912800Y300800D03*
X915200Y300800D03*
X917200Y300800D03*
D14*
X919500Y300800D03*
X921100Y300800D03*
D13*
X890100Y301000D03*
D17*
X903400Y301000D03*
D13*
X907500Y301000D03*
D16*
X910000Y301000D03*
X913000Y301000D03*
D14*
X915500Y301000D03*
D16*
X917400Y301000D03*
X919600Y301000D03*
D14*
X921300Y301000D03*
D13*
X890100Y301200D03*
D14*
X903700Y301200D03*
D13*
X907700Y301200D03*
X910100Y301200D03*
D16*
X913200Y301200D03*
D13*
X915700Y301200D03*
X917500Y301200D03*
D16*
X919800Y301200D03*
X921600Y301200D03*
D13*
X890100Y301400D03*
D14*
X903900Y301400D03*
D13*
X907900Y301400D03*
X910300Y301400D03*
D16*
X913400Y301400D03*
D13*
X915900Y301400D03*
D16*
X917800Y301400D03*
D14*
X919900Y301400D03*
D16*
X921800Y301400D03*
D18*
X926500Y301400D03*
D13*
X890100Y301600D03*
D14*
X904100Y301600D03*
D17*
X908400Y301600D03*
D13*
X910500Y301600D03*
D16*
X913600Y301600D03*
X916200Y301600D03*
D13*
X918100Y301600D03*
D14*
X920100Y301600D03*
D16*
X922000Y301600D03*
D19*
X926500Y301600D03*
D13*
X890100Y301800D03*
D14*
X904300Y301800D03*
D20*
X908800Y301800D03*
D13*
X910700Y301800D03*
D16*
X913800Y301800D03*
D18*
X917300Y301800D03*
D16*
X920400Y301800D03*
D13*
X922100Y301800D03*
D21*
X926500Y301800D03*
D13*
X890100Y302000D03*
D14*
X904700Y302000D03*
D18*
X908700Y302000D03*
D13*
X910900Y302000D03*
D16*
X914000Y302000D03*
D22*
X917300Y302000D03*
D16*
X920600Y302000D03*
X922400Y302000D03*
D20*
X924600Y302000D03*
D23*
X928200Y302000D03*
D13*
X890100Y302200D03*
D14*
X904900Y302200D03*
D24*
X908700Y302200D03*
D13*
X911100Y302200D03*
X914300Y302200D03*
D25*
X917100Y302200D03*
D14*
X920700Y302200D03*
D13*
X922500Y302200D03*
D16*
X924000Y302200D03*
D20*
X928800Y302200D03*
D26*
X890200Y302400D03*
D14*
X905100Y302400D03*
D13*
X907500Y302400D03*
D14*
X909700Y302400D03*
D13*
X911300Y302400D03*
D27*
X915500Y302400D03*
D13*
X918700Y302400D03*
D16*
X920800Y302400D03*
D20*
X923200Y302400D03*
X929400Y302400D03*
D26*
X890200Y302600D03*
D14*
X905300Y302600D03*
D13*
X907300Y302600D03*
D16*
X909800Y302600D03*
D13*
X911500Y302600D03*
D28*
X914200Y302600D03*
D13*
X917300Y302600D03*
X918900Y302600D03*
D16*
X921000Y302600D03*
D17*
X923000Y302600D03*
D29*
X929700Y302600D03*
D26*
X890200Y302800D03*
D14*
X905500Y302800D03*
D26*
X907200Y302800D03*
D16*
X910000Y302800D03*
D26*
X911800Y302800D03*
D30*
X913800Y302800D03*
D13*
X917500Y302800D03*
D26*
X919000Y302800D03*
D16*
X921200Y302800D03*
D17*
X922800Y302800D03*
D20*
X930000Y302800D03*
D26*
X890200Y303000D03*
D14*
X905700Y303000D03*
D26*
X907200Y303000D03*
D13*
X910100Y303000D03*
D23*
X912200Y303000D03*
D13*
X915100Y303000D03*
D16*
X917600Y303000D03*
D26*
X919200Y303000D03*
D24*
X922300Y303000D03*
D31*
X930300Y303000D03*
D13*
X890300Y303200D03*
D32*
X903600Y303200D03*
D13*
X904300Y303200D03*
D16*
X906000Y303200D03*
D13*
X907100Y303200D03*
D28*
X911200Y303200D03*
D13*
X915300Y303200D03*
D26*
X917800Y303200D03*
X919400Y303200D03*
D17*
X921800Y303200D03*
D14*
X923300Y303200D03*
D31*
X930700Y303200D03*
D26*
X890200Y303400D03*
D28*
X904000Y303400D03*
D31*
X906500Y303400D03*
X910700Y303400D03*
D26*
X912400Y303400D03*
D13*
X915500Y303400D03*
X917900Y303400D03*
X919500Y303400D03*
D14*
X921900Y303400D03*
D16*
X923600Y303400D03*
D17*
X931000Y303400D03*
D13*
X890300Y303600D03*
D33*
X904700Y303600D03*
D13*
X910300Y303600D03*
X912500Y303600D03*
X915700Y303600D03*
X918100Y303600D03*
X919700Y303600D03*
D14*
X922100Y303600D03*
D16*
X923800Y303600D03*
D14*
X931300Y303600D03*
D13*
X890300Y303800D03*
D23*
X902600Y303800D03*
D25*
X905700Y303800D03*
D26*
X910400Y303800D03*
X912600Y303800D03*
D13*
X915900Y303800D03*
D29*
X918100Y303800D03*
D16*
X919800Y303800D03*
D14*
X922300Y303800D03*
D13*
X923900Y303800D03*
D14*
X931500Y303800D03*
D13*
X890300Y304000D03*
D14*
X901900Y304000D03*
D28*
X906200Y304000D03*
D13*
X910300Y304000D03*
D34*
X912900Y304000D03*
D21*
X918100Y304000D03*
D16*
X922400Y304000D03*
D13*
X924100Y304000D03*
D17*
X931800Y304000D03*
D26*
X890400Y304200D03*
D16*
X901600Y304200D03*
D29*
X906500Y304200D03*
D14*
X910300Y304200D03*
D34*
X913100Y304200D03*
D35*
X917600Y304200D03*
D16*
X922600Y304200D03*
D13*
X924300Y304200D03*
D17*
X932200Y304200D03*
D13*
X890500Y304400D03*
X901100Y304400D03*
D17*
X906800Y304400D03*
D31*
X910300Y304400D03*
D34*
X912500Y304400D03*
D27*
X914900Y304400D03*
D26*
X918800Y304400D03*
X920400Y304400D03*
D16*
X922800Y304400D03*
D13*
X924500Y304400D03*
D31*
X932500Y304400D03*
D13*
X890500Y304600D03*
X900900Y304600D03*
D35*
X912400Y304600D03*
D26*
X916600Y304600D03*
X919000Y304600D03*
X920600Y304600D03*
D16*
X923000Y304600D03*
D13*
X924700Y304600D03*
D31*
X932700Y304600D03*
D13*
X890500Y304800D03*
D26*
X900600Y304800D03*
D32*
X909800Y304800D03*
D27*
X912300Y304800D03*
D26*
X916800Y304800D03*
X919000Y304800D03*
D13*
X920700Y304800D03*
D16*
X923200Y304800D03*
D13*
X924900Y304800D03*
D20*
X933000Y304800D03*
D13*
X890700Y305000D03*
D26*
X900400Y305000D03*
D20*
X911400Y305000D03*
D26*
X913800Y305000D03*
D13*
X916900Y305000D03*
D26*
X919200Y305000D03*
D13*
X920900Y305000D03*
D16*
X923400Y305000D03*
D13*
X925100Y305000D03*
D20*
X933600Y305000D03*
D13*
X890700Y305200D03*
D34*
X900300Y305200D03*
D14*
X911300Y305200D03*
D26*
X914000Y305200D03*
D13*
X917100Y305200D03*
D26*
X919400Y305200D03*
D13*
X921100Y305200D03*
D14*
X923500Y305200D03*
D13*
X925300Y305200D03*
D23*
X934000Y305200D03*
D26*
X890800Y305400D03*
X900200Y305400D03*
D16*
X911400Y305400D03*
D26*
X914200Y305400D03*
D13*
X917300Y305400D03*
D26*
X919600Y305400D03*
D13*
X921100Y305400D03*
D14*
X923700Y305400D03*
D13*
X925500Y305400D03*
D29*
X934500Y305400D03*
D13*
X890900Y305600D03*
D26*
X900000Y305600D03*
D13*
X911500Y305600D03*
D26*
X914400Y305600D03*
X917400Y305600D03*
D28*
X920600Y305600D03*
D17*
X924000Y305600D03*
D13*
X925700Y305600D03*
D22*
X935300Y305600D03*
D13*
X890900Y305800D03*
D26*
X899800Y305800D03*
D13*
X911700Y305800D03*
D26*
X914600Y305800D03*
X917600Y305800D03*
D25*
X920100Y305800D03*
D16*
X924200Y305800D03*
D13*
X925900Y305800D03*
D28*
X935600Y305800D03*
D13*
X890900Y306000D03*
D26*
X899800Y306000D03*
D34*
X905300Y306000D03*
D13*
X906300Y306000D03*
D26*
X907400Y306000D03*
D16*
X911800Y306000D03*
D26*
X914800Y306000D03*
D22*
X918900Y306000D03*
D13*
X921900Y306000D03*
D16*
X924400Y306000D03*
D13*
X926100Y306000D03*
D29*
X935900Y306000D03*
D26*
X891000Y306200D03*
X899600Y306200D03*
D15*
X906000Y306200D03*
D14*
X911900Y306200D03*
D26*
X915000Y306200D03*
D25*
X917500Y306200D03*
D26*
X920200Y306200D03*
D13*
X922100Y306200D03*
D16*
X924600Y306200D03*
X926200Y306200D03*
D14*
X936300Y306200D03*
D26*
X891000Y306400D03*
D34*
X899500Y306400D03*
D27*
X905700Y306400D03*
D17*
X912000Y306400D03*
D36*
X916600Y306400D03*
D13*
X920300Y306400D03*
X922300Y306400D03*
D16*
X924800Y306400D03*
X926400Y306400D03*
D13*
X891100Y306600D03*
D26*
X899400Y306600D03*
D16*
X904000Y306600D03*
D34*
X904900Y306600D03*
D18*
X906500Y306600D03*
D32*
X909800Y306600D03*
D26*
X911600Y306600D03*
D13*
X912500Y306600D03*
D22*
X914900Y306600D03*
D34*
X916900Y306600D03*
D13*
X918300Y306600D03*
X920500Y306600D03*
D26*
X922400Y306600D03*
D13*
X924900Y306600D03*
X926500Y306600D03*
X891100Y306800D03*
D26*
X899400Y306800D03*
D16*
X903600Y306800D03*
D13*
X907300Y306800D03*
X909700Y306800D03*
X911500Y306800D03*
D23*
X913400Y306800D03*
D26*
X915600Y306800D03*
D14*
X918300Y306800D03*
D13*
X920700Y306800D03*
X922700Y306800D03*
D14*
X925100Y306800D03*
D13*
X926700Y306800D03*
X891300Y307000D03*
X899300Y307000D03*
X903300Y307000D03*
D26*
X907400Y307000D03*
D17*
X909800Y307000D03*
D16*
X911200Y307000D03*
X913000Y307000D03*
D13*
X915700Y307000D03*
D29*
X918100Y307000D03*
D26*
X920800Y307000D03*
D13*
X922900Y307000D03*
D16*
X925200Y307000D03*
X927000Y307000D03*
D13*
X891300Y307200D03*
D26*
X899200Y307200D03*
X903000Y307200D03*
X907400Y307200D03*
D18*
X910300Y307200D03*
D16*
X913200Y307200D03*
D13*
X915900Y307200D03*
D18*
X918100Y307200D03*
D13*
X921100Y307200D03*
D31*
X923500Y307200D03*
D16*
X925400Y307200D03*
D13*
X927100Y307200D03*
X891300Y307400D03*
D26*
X899200Y307400D03*
D13*
X902700Y307400D03*
D26*
X907400Y307400D03*
D23*
X910200Y307400D03*
D16*
X913400Y307400D03*
D13*
X916100Y307400D03*
X917300Y307400D03*
D31*
X918700Y307400D03*
D26*
X921400Y307400D03*
D14*
X923500Y307400D03*
D16*
X925600Y307400D03*
D13*
X927300Y307400D03*
X891300Y307600D03*
D34*
X899100Y307600D03*
D26*
X902400Y307600D03*
D13*
X907500Y307600D03*
D23*
X910400Y307600D03*
D16*
X913800Y307600D03*
D26*
X914800Y307600D03*
D29*
X916300Y307600D03*
D16*
X919200Y307600D03*
D36*
X922400Y307600D03*
D16*
X925800Y307600D03*
D13*
X927300Y307600D03*
X891500Y307800D03*
D26*
X902200Y307800D03*
D13*
X907700Y307800D03*
D23*
X910600Y307800D03*
D37*
X915000Y307800D03*
D27*
X920900Y307800D03*
D16*
X924000Y307800D03*
D14*
X926100Y307800D03*
D26*
X927400Y307800D03*
D13*
X891500Y308000D03*
D26*
X902000Y308000D03*
D14*
X907900Y308000D03*
D38*
X913300Y308000D03*
D29*
X920100Y308000D03*
D13*
X921900Y308000D03*
D16*
X924400Y308000D03*
D14*
X926300Y308000D03*
D26*
X927600Y308000D03*
X891600Y308200D03*
D13*
X901900Y308200D03*
D39*
X910800Y308200D03*
D26*
X914600Y308200D03*
D17*
X916000Y308200D03*
D26*
X919600Y308200D03*
X922200Y308200D03*
D17*
X924600Y308200D03*
D16*
X926400Y308200D03*
D26*
X927600Y308200D03*
D13*
X891700Y308400D03*
X901700Y308400D03*
D33*
X910300Y308400D03*
D26*
X919400Y308400D03*
D34*
X920500Y308400D03*
X921300Y308400D03*
D36*
X923600Y308400D03*
D20*
X927000Y308400D03*
D13*
X891700Y308600D03*
D26*
X901600Y308600D03*
D19*
X910100Y308600D03*
D40*
X922200Y308600D03*
D20*
X927000Y308600D03*
D13*
X891900Y308800D03*
D26*
X901400Y308800D03*
D30*
X910000Y308800D03*
D41*
X921000Y308800D03*
D26*
X923600Y308800D03*
D34*
X924300Y308800D03*
D17*
X927200Y308800D03*
D13*
X891900Y309000D03*
D26*
X901200Y309000D03*
D31*
X909500Y309000D03*
D16*
X919600Y309000D03*
D14*
X927300Y309000D03*
D16*
X892000Y309200D03*
D26*
X901000Y309200D03*
D17*
X909400Y309200D03*
D16*
X919800Y309200D03*
D14*
X927500Y309200D03*
D13*
X892100Y309400D03*
D26*
X901000Y309400D03*
D16*
X909400Y309400D03*
D13*
X919900Y309400D03*
D15*
X926600Y309400D03*
D16*
X892200Y309600D03*
D13*
X900900Y309600D03*
D32*
X909200Y309600D03*
D26*
X920000Y309600D03*
X923200Y309600D03*
D19*
X926100Y309600D03*
D13*
X892300Y309800D03*
D26*
X900800Y309800D03*
D42*
X923700Y309800D03*
D13*
X892300Y310000D03*
D26*
X900800Y310000D03*
D42*
X923500Y310000D03*
D13*
X892500Y310200D03*
D34*
X900700Y310200D03*
D43*
X921700Y310200D03*
D13*
X892500Y310400D03*
D16*
X919200Y310400D03*
D13*
X892700Y310600D03*
D14*
X914100Y310600D03*
D26*
X919200Y310600D03*
D13*
X892700Y310800D03*
D27*
X914500Y310800D03*
D34*
X919300Y310800D03*
D13*
X892700Y311000D03*
D44*
X914100Y311000D03*
D34*
X919300Y311000D03*
D13*
X892900Y311200D03*
D23*
X911800Y311200D03*
D24*
X915500Y311200D03*
D26*
X919200Y311200D03*
X893000Y311400D03*
D29*
X910900Y311400D03*
D13*
X916500Y311400D03*
D26*
X919200Y311400D03*
X893000Y311600D03*
D20*
X910400Y311600D03*
D26*
X916600Y311600D03*
X919200Y311600D03*
D13*
X893100Y311800D03*
D17*
X909800Y311800D03*
D13*
X916700Y311800D03*
D26*
X919000Y311800D03*
X893200Y312000D03*
D16*
X909200Y312000D03*
D14*
X917100Y312000D03*
D16*
X918800Y312000D03*
D13*
X893300Y312200D03*
D16*
X908800Y312200D03*
D18*
X917700Y312200D03*
D13*
X893300Y312400D03*
X908500Y312400D03*
D23*
X917600Y312400D03*
D26*
X893400Y312600D03*
D13*
X908100Y312600D03*
D17*
X917600Y312600D03*
D13*
X893500Y312800D03*
X907900Y312800D03*
D26*
X893600Y313000D03*
X907600Y313000D03*
X893600Y313200D03*
D34*
X907500Y313200D03*
D26*
X893800Y313400D03*
D34*
X907300Y313400D03*
D26*
X893800Y313600D03*
X907200Y313600D03*
X894000Y313800D03*
X907000Y313800D03*
X894000Y314000D03*
D34*
X906900Y314000D03*
D26*
X894200Y314200D03*
D34*
X906700Y314200D03*
D26*
X894200Y314400D03*
D34*
X906700Y314400D03*
D13*
X894300Y314600D03*
D34*
X906700Y314600D03*
D13*
X894500Y314800D03*
D34*
X906500Y314800D03*
D13*
X894500Y315000D03*
D34*
X906300Y315000D03*
D26*
X894600Y315200D03*
D34*
X906300Y315200D03*
D13*
X894700Y315400D03*
D26*
X906200Y315400D03*
D13*
X894900Y315600D03*
D26*
X906200Y315600D03*
D13*
X894900Y315800D03*
X906100Y315800D03*
X895100Y316000D03*
D26*
X906000Y316000D03*
D17*
X914400Y316000D03*
D13*
X895100Y316200D03*
D26*
X906000Y316200D03*
D29*
X914500Y316200D03*
D14*
X895500Y316400D03*
D26*
X906000Y316400D03*
D28*
X914400Y316400D03*
D16*
X895600Y316600D03*
D26*
X906000Y316600D03*
D16*
X913400Y316600D03*
D14*
X915300Y316600D03*
D16*
X895600Y316800D03*
D26*
X906000Y316800D03*
X913200Y316800D03*
D16*
X915400Y316800D03*
D14*
X895700Y317000D03*
D26*
X906000Y317000D03*
X913000Y317000D03*
D16*
X915600Y317000D03*
X895800Y317200D03*
D26*
X906000Y317200D03*
X913000Y317200D03*
D16*
X915800Y317200D03*
X896000Y317400D03*
D26*
X906000Y317400D03*
D34*
X912900Y317400D03*
D16*
X916000Y317400D03*
D13*
X896100Y317600D03*
D26*
X906000Y317600D03*
D34*
X912900Y317600D03*
D13*
X916100Y317600D03*
D16*
X896200Y317800D03*
D26*
X906000Y317800D03*
D34*
X912900Y317800D03*
D13*
X916300Y317800D03*
X896300Y318000D03*
X906100Y318000D03*
D26*
X912800Y318000D03*
D32*
X914400Y318000D03*
D16*
X916400Y318000D03*
D13*
X896300Y318200D03*
D26*
X906000Y318200D03*
D13*
X912900Y318200D03*
D26*
X914400Y318200D03*
D16*
X916600Y318200D03*
D13*
X896500Y318400D03*
D26*
X906200Y318400D03*
D13*
X912900Y318400D03*
D26*
X914400Y318400D03*
D16*
X916800Y318400D03*
D13*
X896500Y318600D03*
D26*
X906200Y318600D03*
X913000Y318600D03*
D34*
X914500Y318600D03*
D13*
X916900Y318600D03*
D26*
X896600Y318800D03*
X906200Y318800D03*
X913000Y318800D03*
X914600Y318800D03*
D16*
X917000Y318800D03*
D26*
X896800Y319000D03*
D13*
X906300Y319000D03*
D26*
X913000Y319000D03*
X914800Y319000D03*
D13*
X917100Y319000D03*
X896900Y319200D03*
D26*
X906400Y319200D03*
X913000Y319200D03*
X914800Y319200D03*
D16*
X917200Y319200D03*
D26*
X897000Y319400D03*
X906400Y319400D03*
D13*
X913100Y319400D03*
D26*
X915000Y319400D03*
D16*
X917400Y319400D03*
D13*
X897100Y319600D03*
D26*
X906600Y319600D03*
D13*
X913100Y319600D03*
D26*
X915200Y319600D03*
D13*
X917500Y319600D03*
D26*
X897200Y319800D03*
D13*
X906700Y319800D03*
D26*
X913200Y319800D03*
X915400Y319800D03*
D13*
X917500Y319800D03*
X897300Y320000D03*
D26*
X906800Y320000D03*
D13*
X913300Y320000D03*
D34*
X915500Y320000D03*
D13*
X917700Y320000D03*
X897300Y320200D03*
D14*
X901300Y320200D03*
D13*
X906900Y320200D03*
D26*
X913400Y320200D03*
X915600Y320200D03*
D13*
X917700Y320200D03*
X897500Y320400D03*
D20*
X901200Y320400D03*
D13*
X907100Y320400D03*
X913500Y320400D03*
X915900Y320400D03*
D24*
X917900Y320400D03*
D26*
X897600Y320600D03*
D23*
X901200Y320600D03*
D13*
X907100Y320600D03*
D45*
X917500Y320600D03*
D26*
X897600Y320800D03*
D16*
X900400Y320800D03*
D14*
X901700Y320800D03*
D13*
X907300Y320800D03*
D46*
X917400Y320800D03*
D26*
X897800Y321000D03*
D13*
X900300Y321000D03*
D16*
X902000Y321000D03*
D13*
X907500Y321000D03*
D47*
X912300Y321000D03*
D34*
X916100Y321000D03*
D32*
X919200Y321000D03*
D43*
X922500Y321000D03*
D26*
X897800Y321200D03*
D13*
X900100Y321200D03*
D16*
X902200Y321200D03*
D13*
X907700Y321200D03*
D25*
X910100Y321200D03*
D28*
X925000Y321200D03*
D13*
X897900Y321400D03*
D26*
X900000Y321400D03*
D16*
X902400Y321400D03*
D15*
X909000Y321400D03*
D29*
X925700Y321400D03*
D26*
X898000Y321600D03*
X899800Y321600D03*
D13*
X902500Y321600D03*
D29*
X908300Y321600D03*
X926500Y321600D03*
D13*
X898100Y321800D03*
D26*
X899800Y321800D03*
D13*
X902700Y321800D03*
D17*
X907800Y321800D03*
D20*
X927000Y321800D03*
D26*
X898200Y322000D03*
X899800Y322000D03*
D13*
X902900Y322000D03*
D14*
X907300Y322000D03*
D17*
X927400Y322000D03*
D26*
X898200Y322200D03*
D34*
X899700Y322200D03*
D13*
X903100Y322200D03*
D17*
X907000Y322200D03*
D31*
X927700Y322200D03*
D26*
X898400Y322400D03*
X899600Y322400D03*
D13*
X903100Y322400D03*
D16*
X906600Y322400D03*
D14*
X928100Y322400D03*
D26*
X898400Y322600D03*
X899600Y322600D03*
X903400Y322600D03*
D16*
X906400Y322600D03*
D14*
X928300Y322600D03*
D13*
X898500Y322800D03*
D34*
X899500Y322800D03*
D26*
X903600Y322800D03*
X906400Y322800D03*
D16*
X928600Y322800D03*
D26*
X898600Y323000D03*
D34*
X899500Y323000D03*
D13*
X903700Y323000D03*
D16*
X928800Y323000D03*
D26*
X898600Y323200D03*
D34*
X899500Y323200D03*
D13*
X903900Y323200D03*
D16*
X929000Y323200D03*
D14*
X899100Y323400D03*
D13*
X904100Y323400D03*
X929100Y323400D03*
D14*
X899100Y323600D03*
D26*
X904200Y323600D03*
D13*
X929300Y323600D03*
D14*
X899100Y323800D03*
D16*
X904400Y323800D03*
D13*
X929500Y323800D03*
D16*
X899200Y324000D03*
D26*
X904600Y324000D03*
D16*
X929600Y324000D03*
D13*
X899300Y324200D03*
X904700Y324200D03*
D31*
X929500Y324200D03*
D13*
X899300Y324400D03*
X904900Y324400D03*
D29*
X929500Y324400D03*
D13*
X899300Y324600D03*
D26*
X905000Y324600D03*
D18*
X929500Y324600D03*
D13*
X899300Y324800D03*
D26*
X905200Y324800D03*
D28*
X929600Y324800D03*
D26*
X899400Y325000D03*
X905400Y325000D03*
D30*
X929600Y325000D03*
D13*
X899300Y325200D03*
X905500Y325200D03*
D22*
X929700Y325200D03*
D26*
X899200Y325400D03*
D13*
X905700Y325400D03*
D22*
X929700Y325400D03*
D26*
X899200Y325600D03*
X905800Y325600D03*
D30*
X929800Y325600D03*
D26*
X899200Y325800D03*
D13*
X905900Y325800D03*
D30*
X929800Y325800D03*
D26*
X899200Y326000D03*
D13*
X906100Y326000D03*
D24*
X929900Y326000D03*
D34*
X899100Y326200D03*
D26*
X906200Y326200D03*
D32*
X926600Y326200D03*
D34*
X927700Y326200D03*
D28*
X929600Y326200D03*
D34*
X899100Y326400D03*
D13*
X906300Y326400D03*
D32*
X922200Y326400D03*
D13*
X924100Y326400D03*
D48*
X927600Y326400D03*
D34*
X899100Y326600D03*
D13*
X906500Y326600D03*
D49*
X925000Y326600D03*
D34*
X899100Y326800D03*
D26*
X906600Y326800D03*
D50*
X924700Y326800D03*
D26*
X899000Y327000D03*
X906800Y327000D03*
D13*
X914900Y327000D03*
D36*
X920800Y327000D03*
D14*
X923700Y327000D03*
D13*
X924900Y327000D03*
D32*
X927400Y327000D03*
X928000Y327000D03*
D26*
X899000Y327200D03*
X906800Y327200D03*
D16*
X914800Y327200D03*
D31*
X919500Y327200D03*
D26*
X899000Y327400D03*
X907000Y327400D03*
D14*
X914900Y327400D03*
D34*
X916900Y327400D03*
D16*
X919000Y327400D03*
D34*
X899100Y327600D03*
D13*
X907100Y327600D03*
D14*
X914900Y327600D03*
D13*
X916900Y327600D03*
X918700Y327600D03*
D26*
X899000Y327800D03*
X907200Y327800D03*
D17*
X915000Y327800D03*
D14*
X916900Y327800D03*
D13*
X918700Y327800D03*
D26*
X899000Y328000D03*
D13*
X907300Y328000D03*
D34*
X911700Y328000D03*
D17*
X915000Y328000D03*
D16*
X917000Y328000D03*
D13*
X918700Y328000D03*
D26*
X899000Y328200D03*
D13*
X907500Y328200D03*
X911700Y328200D03*
D17*
X915200Y328200D03*
D14*
X917100Y328200D03*
D13*
X918700Y328200D03*
D26*
X899000Y328400D03*
X907600Y328400D03*
D17*
X911800Y328400D03*
X915200Y328400D03*
D14*
X917100Y328400D03*
D13*
X918700Y328400D03*
D26*
X899000Y328600D03*
D13*
X907700Y328600D03*
D17*
X912000Y328600D03*
D31*
X915300Y328600D03*
D14*
X917100Y328600D03*
D26*
X918800Y328600D03*
X899000Y328800D03*
D13*
X907900Y328800D03*
D17*
X912400Y328800D03*
X915400Y328800D03*
X917200Y328800D03*
D13*
X918900Y328800D03*
D34*
X899100Y329000D03*
D13*
X908100Y329000D03*
D17*
X912800Y329000D03*
D14*
X915500Y329000D03*
D17*
X917200Y329000D03*
D13*
X918900Y329000D03*
D26*
X899000Y329200D03*
D13*
X908100Y329200D03*
D14*
X913100Y329200D03*
D16*
X915600Y329200D03*
D14*
X917300Y329200D03*
D13*
X918900Y329200D03*
D34*
X899100Y329400D03*
D13*
X908300Y329400D03*
D17*
X913600Y329400D03*
D13*
X915700Y329400D03*
D16*
X917400Y329400D03*
D13*
X919100Y329400D03*
D34*
X899100Y329600D03*
D16*
X908400Y329600D03*
D14*
X913900Y329600D03*
D32*
X915600Y329600D03*
D16*
X917400Y329600D03*
D13*
X919100Y329600D03*
D34*
X899100Y329800D03*
D13*
X908500Y329800D03*
X914300Y329800D03*
X917500Y329800D03*
X919300Y329800D03*
D26*
X899200Y330000D03*
D16*
X908600Y330000D03*
X914600Y330000D03*
D32*
X917400Y330000D03*
D16*
X919400Y330000D03*
D26*
X899200Y330200D03*
D13*
X908700Y330200D03*
D16*
X915000Y330200D03*
D13*
X919500Y330200D03*
D26*
X899200Y330400D03*
D13*
X908900Y330400D03*
X915300Y330400D03*
X919500Y330400D03*
D26*
X899200Y330600D03*
D13*
X909100Y330600D03*
X915700Y330600D03*
D26*
X919600Y330600D03*
X899200Y330800D03*
D16*
X909200Y330800D03*
D26*
X916000Y330800D03*
X919600Y330800D03*
X899200Y331000D03*
D13*
X909300Y331000D03*
X916100Y331000D03*
D26*
X919600Y331000D03*
X899200Y331200D03*
D16*
X909400Y331200D03*
D13*
X916500Y331200D03*
D26*
X919600Y331200D03*
D34*
X899300Y331400D03*
D16*
X909600Y331400D03*
D34*
X916700Y331400D03*
D26*
X919600Y331400D03*
D34*
X899300Y331600D03*
D13*
X909700Y331600D03*
D32*
X916800Y331600D03*
D26*
X919600Y331600D03*
X899400Y331800D03*
D16*
X909800Y331800D03*
D26*
X919600Y331800D03*
X899400Y332000D03*
D13*
X909900Y332000D03*
D26*
X919600Y332000D03*
X899400Y332200D03*
D13*
X909900Y332200D03*
D26*
X919400Y332200D03*
X899400Y332400D03*
D13*
X910100Y332400D03*
D26*
X919400Y332400D03*
D34*
X899500Y332600D03*
D13*
X910100Y332600D03*
D26*
X919400Y332600D03*
X899600Y332800D03*
D13*
X910100Y332800D03*
D26*
X919200Y332800D03*
X899600Y333000D03*
D16*
X910200Y333000D03*
D13*
X919100Y333000D03*
D26*
X899600Y333200D03*
D13*
X910300Y333200D03*
D26*
X919000Y333200D03*
D34*
X899700Y333400D03*
D16*
X910400Y333400D03*
D13*
X918700Y333400D03*
D26*
X899800Y333600D03*
D16*
X910600Y333600D03*
D13*
X918500Y333600D03*
D26*
X899800Y333800D03*
D16*
X910600Y333800D03*
X918200Y333800D03*
D13*
X899900Y334000D03*
X910700Y334000D03*
D16*
X917800Y334000D03*
D13*
X900100Y334200D03*
D16*
X910800Y334200D03*
D14*
X917500Y334200D03*
D16*
X900200Y334400D03*
D13*
X910900Y334400D03*
D16*
X917000Y334400D03*
D13*
X900300Y334600D03*
X910900Y334600D03*
D16*
X916600Y334600D03*
X900400Y334800D03*
D13*
X910900Y334800D03*
D14*
X916300Y334800D03*
D16*
X900600Y335000D03*
D13*
X911100Y335000D03*
D16*
X915800Y335000D03*
X900800Y335200D03*
D13*
X911100Y335200D03*
D14*
X915100Y335200D03*
D13*
X900900Y335400D03*
X911100Y335400D03*
D20*
X914400Y335400D03*
D16*
X901200Y335600D03*
D13*
X911100Y335600D03*
D29*
X913500Y335600D03*
D13*
X901500Y335800D03*
D30*
X912000Y335800D03*
D17*
X901800Y336000D03*
D27*
X910500Y336000D03*
D30*
X903200Y336200D03*
D15*
X909800Y336200D03*
D51*
X906300Y336400D03*
D32*
X903400Y336600D03*
X904400Y336600D03*
D41*
X907200Y336600D03*
D31*
X907500Y336800D03*
D12*
X80950Y107300D02*
X68250Y107300D01*
X61900Y113650D01*
X61900Y126350D01*
X68250Y132700D01*
X106350Y107300D02*
X112700Y113650D01*
X106350Y107300D02*
X93650Y107300D01*
X87300Y113650D01*
X87300Y126350D01*
X93650Y132700D01*
X106350Y132700D01*
X112700Y126350D01*
X87300Y113650D02*
X80950Y107300D01*
X87300Y126350D02*
X80950Y132700D01*
X68250Y132700D01*
X144450Y107300D02*
X157150Y107300D01*
X144450Y107300D02*
X138100Y113650D01*
X138100Y126350D01*
X144450Y132700D01*
X138100Y113650D02*
X131750Y107300D01*
X119050Y107300D01*
X112700Y113650D01*
X112700Y126350D01*
X119050Y132700D01*
X131750Y132700D01*
X138100Y126350D01*
X163500Y126350D02*
X163500Y113650D01*
X157150Y107300D01*
X163500Y126350D02*
X157150Y132700D01*
X144450Y132700D01*
X55550Y107300D02*
X42850Y107300D01*
X36500Y113650D01*
X36500Y126350D01*
X42850Y132700D01*
X61900Y113650D02*
X55550Y107300D01*
X61900Y126350D02*
X55550Y132700D01*
X42850Y132700D01*
X344050Y132700D02*
X356750Y132700D01*
X363100Y126350D01*
X363100Y113650D01*
X356750Y107300D01*
X318650Y132700D02*
X312300Y126350D01*
X318650Y132700D02*
X331350Y132700D01*
X337700Y126350D01*
X337700Y113650D01*
X331350Y107300D01*
X318650Y107300D01*
X312300Y113650D01*
X337700Y126350D02*
X344050Y132700D01*
X337700Y113650D02*
X344050Y107300D01*
X356750Y107300D01*
X280550Y132700D02*
X267850Y132700D01*
X280550Y132700D02*
X286900Y126350D01*
X286900Y113650D01*
X280550Y107300D01*
X286900Y126350D02*
X293250Y132700D01*
X305950Y132700D01*
X312300Y126350D01*
X312300Y113650D01*
X305950Y107300D01*
X293250Y107300D01*
X286900Y113650D01*
X261500Y113650D02*
X261500Y126350D01*
X267850Y132700D01*
X261500Y113650D02*
X267850Y107300D01*
X280550Y107300D01*
X369450Y132700D02*
X382150Y132700D01*
X388500Y126350D01*
X388500Y113650D01*
X382150Y107300D01*
X363100Y126350D02*
X369450Y132700D01*
X363100Y113650D02*
X369450Y107300D01*
X382150Y107300D01*
X794050Y132700D02*
X806750Y132700D01*
X813100Y126350D01*
X813100Y113650D01*
X806750Y107300D01*
X768650Y132700D02*
X762300Y126350D01*
X768650Y132700D02*
X781350Y132700D01*
X787700Y126350D01*
X787700Y113650D01*
X781350Y107300D01*
X768650Y107300D01*
X762300Y113650D01*
X787700Y126350D02*
X794050Y132700D01*
X787700Y113650D02*
X794050Y107300D01*
X806750Y107300D01*
X730550Y132700D02*
X717850Y132700D01*
X730550Y132700D02*
X736900Y126350D01*
X736900Y113650D01*
X730550Y107300D01*
X736900Y126350D02*
X743250Y132700D01*
X755950Y132700D01*
X762300Y126350D01*
X762300Y113650D01*
X755950Y107300D01*
X743250Y107300D01*
X736900Y113650D01*
X711500Y113650D02*
X711500Y126350D01*
X717850Y132700D01*
X711500Y113650D02*
X717850Y107300D01*
X730550Y107300D01*
X819450Y132700D02*
X832150Y132700D01*
X838500Y126350D01*
X838500Y113650D01*
X832150Y107300D01*
X813100Y126350D02*
X819450Y132700D01*
X813100Y113650D02*
X819450Y107300D01*
X832150Y107300D01*
X1019050Y132700D02*
X1031750Y132700D01*
X1038100Y126350D01*
X1038100Y113650D01*
X1031750Y107300D01*
X993650Y132700D02*
X987300Y126350D01*
X993650Y132700D02*
X1006350Y132700D01*
X1012700Y126350D01*
X1012700Y113650D01*
X1006350Y107300D01*
X993650Y107300D01*
X987300Y113650D01*
X1012700Y126350D02*
X1019050Y132700D01*
X1012700Y113650D02*
X1019050Y107300D01*
X1031750Y107300D01*
X955550Y132700D02*
X942850Y132700D01*
X955550Y132700D02*
X961900Y126350D01*
X961900Y113650D01*
X955550Y107300D01*
X961900Y126350D02*
X968250Y132700D01*
X980950Y132700D01*
X987300Y126350D01*
X987300Y113650D01*
X980950Y107300D01*
X968250Y107300D01*
X961900Y113650D01*
X936500Y113650D02*
X936500Y126350D01*
X942850Y132700D01*
X936500Y113650D02*
X942850Y107300D01*
X955550Y107300D01*
X1044450Y132700D02*
X1057150Y132700D01*
X1063500Y126350D01*
X1063500Y113650D01*
X1057150Y107300D01*
X1038100Y126350D02*
X1044450Y132700D01*
X1038100Y113650D02*
X1044450Y107300D01*
X1057150Y107300D01*
X583650Y132700D02*
X570950Y132700D01*
X583650Y132700D02*
X590000Y126350D01*
X590000Y113650D01*
X583650Y107300D01*
X564600Y113650D02*
X564600Y126350D01*
X570950Y132700D01*
X564600Y113650D02*
X570950Y107300D01*
X583650Y107300D01*
X590000Y126350D02*
X596350Y132700D01*
X609050Y132700D01*
X615400Y126350D01*
X615400Y113650D01*
X609050Y107300D01*
X596350Y107300D01*
X590000Y113650D01*
X503650Y132700D02*
X490950Y132700D01*
X503650Y132700D02*
X510000Y126350D01*
X510000Y113650D01*
X503650Y107300D01*
X484600Y113650D02*
X484600Y126350D01*
X490950Y132700D01*
X484600Y113650D02*
X490950Y107300D01*
X503650Y107300D01*
X510000Y126350D02*
X516350Y132700D01*
X529050Y132700D01*
X535400Y126350D01*
X535400Y113650D01*
X529050Y107300D01*
X516350Y107300D01*
X510000Y113650D01*
D52*
X163000Y173000D02*
X37000Y173000D01*
X37000Y227000D02*
X163000Y227000D01*
X37000Y227000D02*
X37000Y173000D01*
X163000Y173000D02*
X163000Y227000D01*
D53*
X34000Y161000D02*
X34002Y161070D01*
X34008Y161140D01*
X34018Y161209D01*
X34031Y161278D01*
X34049Y161346D01*
X34070Y161413D01*
X34095Y161478D01*
X34124Y161542D01*
X34156Y161605D01*
X34192Y161665D01*
X34231Y161723D01*
X34273Y161779D01*
X34318Y161833D01*
X34366Y161884D01*
X34417Y161932D01*
X34471Y161977D01*
X34527Y162019D01*
X34585Y162058D01*
X34645Y162094D01*
X34708Y162126D01*
X34772Y162155D01*
X34837Y162180D01*
X34904Y162201D01*
X34972Y162219D01*
X35041Y162232D01*
X35110Y162242D01*
X35180Y162248D01*
X35250Y162250D01*
X35320Y162248D01*
X35390Y162242D01*
X35459Y162232D01*
X35528Y162219D01*
X35596Y162201D01*
X35663Y162180D01*
X35728Y162155D01*
X35792Y162126D01*
X35855Y162094D01*
X35915Y162058D01*
X35973Y162019D01*
X36029Y161977D01*
X36083Y161932D01*
X36134Y161884D01*
X36182Y161833D01*
X36227Y161779D01*
X36269Y161723D01*
X36308Y161665D01*
X36344Y161605D01*
X36376Y161542D01*
X36405Y161478D01*
X36430Y161413D01*
X36451Y161346D01*
X36469Y161278D01*
X36482Y161209D01*
X36492Y161140D01*
X36498Y161070D01*
X36500Y161000D01*
X36498Y160930D01*
X36492Y160860D01*
X36482Y160791D01*
X36469Y160722D01*
X36451Y160654D01*
X36430Y160587D01*
X36405Y160522D01*
X36376Y160458D01*
X36344Y160395D01*
X36308Y160335D01*
X36269Y160277D01*
X36227Y160221D01*
X36182Y160167D01*
X36134Y160116D01*
X36083Y160068D01*
X36029Y160023D01*
X35973Y159981D01*
X35915Y159942D01*
X35855Y159906D01*
X35792Y159874D01*
X35728Y159845D01*
X35663Y159820D01*
X35596Y159799D01*
X35528Y159781D01*
X35459Y159768D01*
X35390Y159758D01*
X35320Y159752D01*
X35250Y159750D01*
X35180Y159752D01*
X35110Y159758D01*
X35041Y159768D01*
X34972Y159781D01*
X34904Y159799D01*
X34837Y159820D01*
X34772Y159845D01*
X34708Y159874D01*
X34645Y159906D01*
X34585Y159942D01*
X34527Y159981D01*
X34471Y160023D01*
X34417Y160068D01*
X34366Y160116D01*
X34318Y160167D01*
X34273Y160221D01*
X34231Y160277D01*
X34192Y160335D01*
X34156Y160395D01*
X34124Y160458D01*
X34095Y160522D01*
X34070Y160587D01*
X34049Y160654D01*
X34031Y160722D01*
X34018Y160791D01*
X34008Y160860D01*
X34002Y160930D01*
X34000Y161000D01*
D54*
X44000Y183000D02*
X44002Y183109D01*
X44008Y183218D01*
X44018Y183326D01*
X44032Y183434D01*
X44049Y183542D01*
X44071Y183649D01*
X44096Y183755D01*
X44126Y183859D01*
X44159Y183963D01*
X44196Y184066D01*
X44236Y184167D01*
X44280Y184266D01*
X44328Y184364D01*
X44380Y184461D01*
X44434Y184555D01*
X44492Y184647D01*
X44554Y184737D01*
X44619Y184824D01*
X44686Y184910D01*
X44757Y184993D01*
X44831Y185073D01*
X44908Y185150D01*
X44987Y185225D01*
X45069Y185296D01*
X45154Y185365D01*
X45241Y185430D01*
X45330Y185493D01*
X45422Y185551D01*
X45516Y185607D01*
X45611Y185659D01*
X45709Y185708D01*
X45808Y185753D01*
X45909Y185795D01*
X46011Y185832D01*
X46114Y185866D01*
X46219Y185897D01*
X46325Y185923D01*
X46431Y185946D01*
X46539Y185964D01*
X46647Y185979D01*
X46755Y185990D01*
X46864Y185997D01*
X46973Y186000D01*
X47082Y185999D01*
X47191Y185994D01*
X47299Y185985D01*
X47407Y185972D01*
X47515Y185955D01*
X47622Y185935D01*
X47728Y185910D01*
X47833Y185882D01*
X47937Y185850D01*
X48040Y185814D01*
X48142Y185774D01*
X48242Y185731D01*
X48340Y185684D01*
X48437Y185634D01*
X48531Y185580D01*
X48624Y185522D01*
X48715Y185462D01*
X48803Y185398D01*
X48889Y185331D01*
X48972Y185261D01*
X49053Y185188D01*
X49131Y185112D01*
X49206Y185033D01*
X49279Y184951D01*
X49348Y184867D01*
X49414Y184781D01*
X49477Y184692D01*
X49537Y184601D01*
X49594Y184508D01*
X49647Y184413D01*
X49696Y184316D01*
X49742Y184217D01*
X49784Y184117D01*
X49823Y184015D01*
X49858Y183911D01*
X49889Y183807D01*
X49917Y183702D01*
X49940Y183595D01*
X49960Y183488D01*
X49976Y183380D01*
X49988Y183272D01*
X49996Y183163D01*
X50000Y183054D01*
X50000Y182946D01*
X49996Y182837D01*
X49988Y182728D01*
X49976Y182620D01*
X49960Y182512D01*
X49940Y182405D01*
X49917Y182298D01*
X49889Y182193D01*
X49858Y182089D01*
X49823Y181985D01*
X49784Y181883D01*
X49742Y181783D01*
X49696Y181684D01*
X49647Y181587D01*
X49594Y181492D01*
X49537Y181399D01*
X49477Y181308D01*
X49414Y181219D01*
X49348Y181133D01*
X49279Y181049D01*
X49206Y180967D01*
X49131Y180888D01*
X49053Y180812D01*
X48972Y180739D01*
X48889Y180669D01*
X48803Y180602D01*
X48715Y180538D01*
X48624Y180478D01*
X48531Y180420D01*
X48437Y180366D01*
X48340Y180316D01*
X48242Y180269D01*
X48142Y180226D01*
X48040Y180186D01*
X47937Y180150D01*
X47833Y180118D01*
X47728Y180090D01*
X47622Y180065D01*
X47515Y180045D01*
X47407Y180028D01*
X47299Y180015D01*
X47191Y180006D01*
X47082Y180001D01*
X46973Y180000D01*
X46864Y180003D01*
X46755Y180010D01*
X46647Y180021D01*
X46539Y180036D01*
X46431Y180054D01*
X46325Y180077D01*
X46219Y180103D01*
X46114Y180134D01*
X46011Y180168D01*
X45909Y180205D01*
X45808Y180247D01*
X45709Y180292D01*
X45611Y180341D01*
X45516Y180393D01*
X45422Y180449D01*
X45330Y180507D01*
X45241Y180570D01*
X45154Y180635D01*
X45069Y180704D01*
X44987Y180775D01*
X44908Y180850D01*
X44831Y180927D01*
X44757Y181007D01*
X44686Y181090D01*
X44619Y181176D01*
X44554Y181263D01*
X44492Y181353D01*
X44434Y181445D01*
X44380Y181539D01*
X44328Y181636D01*
X44280Y181734D01*
X44236Y181833D01*
X44196Y181934D01*
X44159Y182037D01*
X44126Y182141D01*
X44096Y182245D01*
X44071Y182351D01*
X44049Y182458D01*
X44032Y182566D01*
X44018Y182674D01*
X44008Y182782D01*
X44002Y182891D01*
X44000Y183000D01*
D52*
X262000Y173000D02*
X388000Y173000D01*
X388000Y227000D02*
X262000Y227000D01*
X262000Y173000D01*
X388000Y173000D02*
X388000Y227000D01*
D53*
X259000Y161000D02*
X259002Y161070D01*
X259008Y161140D01*
X259018Y161209D01*
X259031Y161278D01*
X259049Y161346D01*
X259070Y161413D01*
X259095Y161478D01*
X259124Y161542D01*
X259156Y161605D01*
X259192Y161665D01*
X259231Y161723D01*
X259273Y161779D01*
X259318Y161833D01*
X259366Y161884D01*
X259417Y161932D01*
X259471Y161977D01*
X259527Y162019D01*
X259585Y162058D01*
X259645Y162094D01*
X259708Y162126D01*
X259772Y162155D01*
X259837Y162180D01*
X259904Y162201D01*
X259972Y162219D01*
X260041Y162232D01*
X260110Y162242D01*
X260180Y162248D01*
X260250Y162250D01*
X260320Y162248D01*
X260390Y162242D01*
X260459Y162232D01*
X260528Y162219D01*
X260596Y162201D01*
X260663Y162180D01*
X260728Y162155D01*
X260792Y162126D01*
X260855Y162094D01*
X260915Y162058D01*
X260973Y162019D01*
X261029Y161977D01*
X261083Y161932D01*
X261134Y161884D01*
X261182Y161833D01*
X261227Y161779D01*
X261269Y161723D01*
X261308Y161665D01*
X261344Y161605D01*
X261376Y161542D01*
X261405Y161478D01*
X261430Y161413D01*
X261451Y161346D01*
X261469Y161278D01*
X261482Y161209D01*
X261492Y161140D01*
X261498Y161070D01*
X261500Y161000D01*
X261498Y160930D01*
X261492Y160860D01*
X261482Y160791D01*
X261469Y160722D01*
X261451Y160654D01*
X261430Y160587D01*
X261405Y160522D01*
X261376Y160458D01*
X261344Y160395D01*
X261308Y160335D01*
X261269Y160277D01*
X261227Y160221D01*
X261182Y160167D01*
X261134Y160116D01*
X261083Y160068D01*
X261029Y160023D01*
X260973Y159981D01*
X260915Y159942D01*
X260855Y159906D01*
X260792Y159874D01*
X260728Y159845D01*
X260663Y159820D01*
X260596Y159799D01*
X260528Y159781D01*
X260459Y159768D01*
X260390Y159758D01*
X260320Y159752D01*
X260250Y159750D01*
X260180Y159752D01*
X260110Y159758D01*
X260041Y159768D01*
X259972Y159781D01*
X259904Y159799D01*
X259837Y159820D01*
X259772Y159845D01*
X259708Y159874D01*
X259645Y159906D01*
X259585Y159942D01*
X259527Y159981D01*
X259471Y160023D01*
X259417Y160068D01*
X259366Y160116D01*
X259318Y160167D01*
X259273Y160221D01*
X259231Y160277D01*
X259192Y160335D01*
X259156Y160395D01*
X259124Y160458D01*
X259095Y160522D01*
X259070Y160587D01*
X259049Y160654D01*
X259031Y160722D01*
X259018Y160791D01*
X259008Y160860D01*
X259002Y160930D01*
X259000Y161000D01*
D54*
X269000Y183000D02*
X269002Y183109D01*
X269008Y183218D01*
X269018Y183326D01*
X269032Y183434D01*
X269049Y183542D01*
X269071Y183649D01*
X269096Y183755D01*
X269126Y183859D01*
X269159Y183963D01*
X269196Y184066D01*
X269236Y184167D01*
X269280Y184266D01*
X269328Y184364D01*
X269380Y184461D01*
X269434Y184555D01*
X269492Y184647D01*
X269554Y184737D01*
X269619Y184824D01*
X269686Y184910D01*
X269757Y184993D01*
X269831Y185073D01*
X269908Y185150D01*
X269987Y185225D01*
X270069Y185296D01*
X270154Y185365D01*
X270241Y185430D01*
X270330Y185493D01*
X270422Y185551D01*
X270516Y185607D01*
X270611Y185659D01*
X270709Y185708D01*
X270808Y185753D01*
X270909Y185795D01*
X271011Y185832D01*
X271114Y185866D01*
X271219Y185897D01*
X271325Y185923D01*
X271431Y185946D01*
X271539Y185964D01*
X271647Y185979D01*
X271755Y185990D01*
X271864Y185997D01*
X271973Y186000D01*
X272082Y185999D01*
X272191Y185994D01*
X272299Y185985D01*
X272407Y185972D01*
X272515Y185955D01*
X272622Y185935D01*
X272728Y185910D01*
X272833Y185882D01*
X272937Y185850D01*
X273040Y185814D01*
X273142Y185774D01*
X273242Y185731D01*
X273340Y185684D01*
X273437Y185634D01*
X273531Y185580D01*
X273624Y185522D01*
X273715Y185462D01*
X273803Y185398D01*
X273889Y185331D01*
X273972Y185261D01*
X274053Y185188D01*
X274131Y185112D01*
X274206Y185033D01*
X274279Y184951D01*
X274348Y184867D01*
X274414Y184781D01*
X274477Y184692D01*
X274537Y184601D01*
X274594Y184508D01*
X274647Y184413D01*
X274696Y184316D01*
X274742Y184217D01*
X274784Y184117D01*
X274823Y184015D01*
X274858Y183911D01*
X274889Y183807D01*
X274917Y183702D01*
X274940Y183595D01*
X274960Y183488D01*
X274976Y183380D01*
X274988Y183272D01*
X274996Y183163D01*
X275000Y183054D01*
X275000Y182946D01*
X274996Y182837D01*
X274988Y182728D01*
X274976Y182620D01*
X274960Y182512D01*
X274940Y182405D01*
X274917Y182298D01*
X274889Y182193D01*
X274858Y182089D01*
X274823Y181985D01*
X274784Y181883D01*
X274742Y181783D01*
X274696Y181684D01*
X274647Y181587D01*
X274594Y181492D01*
X274537Y181399D01*
X274477Y181308D01*
X274414Y181219D01*
X274348Y181133D01*
X274279Y181049D01*
X274206Y180967D01*
X274131Y180888D01*
X274053Y180812D01*
X273972Y180739D01*
X273889Y180669D01*
X273803Y180602D01*
X273715Y180538D01*
X273624Y180478D01*
X273531Y180420D01*
X273437Y180366D01*
X273340Y180316D01*
X273242Y180269D01*
X273142Y180226D01*
X273040Y180186D01*
X272937Y180150D01*
X272833Y180118D01*
X272728Y180090D01*
X272622Y180065D01*
X272515Y180045D01*
X272407Y180028D01*
X272299Y180015D01*
X272191Y180006D01*
X272082Y180001D01*
X271973Y180000D01*
X271864Y180003D01*
X271755Y180010D01*
X271647Y180021D01*
X271539Y180036D01*
X271431Y180054D01*
X271325Y180077D01*
X271219Y180103D01*
X271114Y180134D01*
X271011Y180168D01*
X270909Y180205D01*
X270808Y180247D01*
X270709Y180292D01*
X270611Y180341D01*
X270516Y180393D01*
X270422Y180449D01*
X270330Y180507D01*
X270241Y180570D01*
X270154Y180635D01*
X270069Y180704D01*
X269987Y180775D01*
X269908Y180850D01*
X269831Y180927D01*
X269757Y181007D01*
X269686Y181090D01*
X269619Y181176D01*
X269554Y181263D01*
X269492Y181353D01*
X269434Y181445D01*
X269380Y181539D01*
X269328Y181636D01*
X269280Y181734D01*
X269236Y181833D01*
X269196Y181934D01*
X269159Y182037D01*
X269126Y182141D01*
X269096Y182245D01*
X269071Y182351D01*
X269049Y182458D01*
X269032Y182566D01*
X269018Y182674D01*
X269008Y182782D01*
X269002Y182891D01*
X269000Y183000D01*
D52*
X487000Y173000D02*
X613000Y173000D01*
X613000Y227000D02*
X487000Y227000D01*
X487000Y173000D01*
X613000Y173000D02*
X613000Y227000D01*
D53*
X484000Y161000D02*
X484002Y161070D01*
X484008Y161140D01*
X484018Y161209D01*
X484031Y161278D01*
X484049Y161346D01*
X484070Y161413D01*
X484095Y161478D01*
X484124Y161542D01*
X484156Y161605D01*
X484192Y161665D01*
X484231Y161723D01*
X484273Y161779D01*
X484318Y161833D01*
X484366Y161884D01*
X484417Y161932D01*
X484471Y161977D01*
X484527Y162019D01*
X484585Y162058D01*
X484645Y162094D01*
X484708Y162126D01*
X484772Y162155D01*
X484837Y162180D01*
X484904Y162201D01*
X484972Y162219D01*
X485041Y162232D01*
X485110Y162242D01*
X485180Y162248D01*
X485250Y162250D01*
X485320Y162248D01*
X485390Y162242D01*
X485459Y162232D01*
X485528Y162219D01*
X485596Y162201D01*
X485663Y162180D01*
X485728Y162155D01*
X485792Y162126D01*
X485855Y162094D01*
X485915Y162058D01*
X485973Y162019D01*
X486029Y161977D01*
X486083Y161932D01*
X486134Y161884D01*
X486182Y161833D01*
X486227Y161779D01*
X486269Y161723D01*
X486308Y161665D01*
X486344Y161605D01*
X486376Y161542D01*
X486405Y161478D01*
X486430Y161413D01*
X486451Y161346D01*
X486469Y161278D01*
X486482Y161209D01*
X486492Y161140D01*
X486498Y161070D01*
X486500Y161000D01*
X486498Y160930D01*
X486492Y160860D01*
X486482Y160791D01*
X486469Y160722D01*
X486451Y160654D01*
X486430Y160587D01*
X486405Y160522D01*
X486376Y160458D01*
X486344Y160395D01*
X486308Y160335D01*
X486269Y160277D01*
X486227Y160221D01*
X486182Y160167D01*
X486134Y160116D01*
X486083Y160068D01*
X486029Y160023D01*
X485973Y159981D01*
X485915Y159942D01*
X485855Y159906D01*
X485792Y159874D01*
X485728Y159845D01*
X485663Y159820D01*
X485596Y159799D01*
X485528Y159781D01*
X485459Y159768D01*
X485390Y159758D01*
X485320Y159752D01*
X485250Y159750D01*
X485180Y159752D01*
X485110Y159758D01*
X485041Y159768D01*
X484972Y159781D01*
X484904Y159799D01*
X484837Y159820D01*
X484772Y159845D01*
X484708Y159874D01*
X484645Y159906D01*
X484585Y159942D01*
X484527Y159981D01*
X484471Y160023D01*
X484417Y160068D01*
X484366Y160116D01*
X484318Y160167D01*
X484273Y160221D01*
X484231Y160277D01*
X484192Y160335D01*
X484156Y160395D01*
X484124Y160458D01*
X484095Y160522D01*
X484070Y160587D01*
X484049Y160654D01*
X484031Y160722D01*
X484018Y160791D01*
X484008Y160860D01*
X484002Y160930D01*
X484000Y161000D01*
D54*
X494000Y183000D02*
X494002Y183109D01*
X494008Y183218D01*
X494018Y183326D01*
X494032Y183434D01*
X494049Y183542D01*
X494071Y183649D01*
X494096Y183755D01*
X494126Y183859D01*
X494159Y183963D01*
X494196Y184066D01*
X494236Y184167D01*
X494280Y184266D01*
X494328Y184364D01*
X494380Y184461D01*
X494434Y184555D01*
X494492Y184647D01*
X494554Y184737D01*
X494619Y184824D01*
X494686Y184910D01*
X494757Y184993D01*
X494831Y185073D01*
X494908Y185150D01*
X494987Y185225D01*
X495069Y185296D01*
X495154Y185365D01*
X495241Y185430D01*
X495330Y185493D01*
X495422Y185551D01*
X495516Y185607D01*
X495611Y185659D01*
X495709Y185708D01*
X495808Y185753D01*
X495909Y185795D01*
X496011Y185832D01*
X496114Y185866D01*
X496219Y185897D01*
X496325Y185923D01*
X496431Y185946D01*
X496539Y185964D01*
X496647Y185979D01*
X496755Y185990D01*
X496864Y185997D01*
X496973Y186000D01*
X497082Y185999D01*
X497191Y185994D01*
X497299Y185985D01*
X497407Y185972D01*
X497515Y185955D01*
X497622Y185935D01*
X497728Y185910D01*
X497833Y185882D01*
X497937Y185850D01*
X498040Y185814D01*
X498142Y185774D01*
X498242Y185731D01*
X498340Y185684D01*
X498437Y185634D01*
X498531Y185580D01*
X498624Y185522D01*
X498715Y185462D01*
X498803Y185398D01*
X498889Y185331D01*
X498972Y185261D01*
X499053Y185188D01*
X499131Y185112D01*
X499206Y185033D01*
X499279Y184951D01*
X499348Y184867D01*
X499414Y184781D01*
X499477Y184692D01*
X499537Y184601D01*
X499594Y184508D01*
X499647Y184413D01*
X499696Y184316D01*
X499742Y184217D01*
X499784Y184117D01*
X499823Y184015D01*
X499858Y183911D01*
X499889Y183807D01*
X499917Y183702D01*
X499940Y183595D01*
X499960Y183488D01*
X499976Y183380D01*
X499988Y183272D01*
X499996Y183163D01*
X500000Y183054D01*
X500000Y182946D01*
X499996Y182837D01*
X499988Y182728D01*
X499976Y182620D01*
X499960Y182512D01*
X499940Y182405D01*
X499917Y182298D01*
X499889Y182193D01*
X499858Y182089D01*
X499823Y181985D01*
X499784Y181883D01*
X499742Y181783D01*
X499696Y181684D01*
X499647Y181587D01*
X499594Y181492D01*
X499537Y181399D01*
X499477Y181308D01*
X499414Y181219D01*
X499348Y181133D01*
X499279Y181049D01*
X499206Y180967D01*
X499131Y180888D01*
X499053Y180812D01*
X498972Y180739D01*
X498889Y180669D01*
X498803Y180602D01*
X498715Y180538D01*
X498624Y180478D01*
X498531Y180420D01*
X498437Y180366D01*
X498340Y180316D01*
X498242Y180269D01*
X498142Y180226D01*
X498040Y180186D01*
X497937Y180150D01*
X497833Y180118D01*
X497728Y180090D01*
X497622Y180065D01*
X497515Y180045D01*
X497407Y180028D01*
X497299Y180015D01*
X497191Y180006D01*
X497082Y180001D01*
X496973Y180000D01*
X496864Y180003D01*
X496755Y180010D01*
X496647Y180021D01*
X496539Y180036D01*
X496431Y180054D01*
X496325Y180077D01*
X496219Y180103D01*
X496114Y180134D01*
X496011Y180168D01*
X495909Y180205D01*
X495808Y180247D01*
X495709Y180292D01*
X495611Y180341D01*
X495516Y180393D01*
X495422Y180449D01*
X495330Y180507D01*
X495241Y180570D01*
X495154Y180635D01*
X495069Y180704D01*
X494987Y180775D01*
X494908Y180850D01*
X494831Y180927D01*
X494757Y181007D01*
X494686Y181090D01*
X494619Y181176D01*
X494554Y181263D01*
X494492Y181353D01*
X494434Y181445D01*
X494380Y181539D01*
X494328Y181636D01*
X494280Y181734D01*
X494236Y181833D01*
X494196Y181934D01*
X494159Y182037D01*
X494126Y182141D01*
X494096Y182245D01*
X494071Y182351D01*
X494049Y182458D01*
X494032Y182566D01*
X494018Y182674D01*
X494008Y182782D01*
X494002Y182891D01*
X494000Y183000D01*
D52*
X712000Y173000D02*
X838000Y173000D01*
X838000Y227000D02*
X712000Y227000D01*
X712000Y173000D01*
X838000Y173000D02*
X838000Y227000D01*
D53*
X709000Y161000D02*
X709002Y161070D01*
X709008Y161140D01*
X709018Y161209D01*
X709031Y161278D01*
X709049Y161346D01*
X709070Y161413D01*
X709095Y161478D01*
X709124Y161542D01*
X709156Y161605D01*
X709192Y161665D01*
X709231Y161723D01*
X709273Y161779D01*
X709318Y161833D01*
X709366Y161884D01*
X709417Y161932D01*
X709471Y161977D01*
X709527Y162019D01*
X709585Y162058D01*
X709645Y162094D01*
X709708Y162126D01*
X709772Y162155D01*
X709837Y162180D01*
X709904Y162201D01*
X709972Y162219D01*
X710041Y162232D01*
X710110Y162242D01*
X710180Y162248D01*
X710250Y162250D01*
X710320Y162248D01*
X710390Y162242D01*
X710459Y162232D01*
X710528Y162219D01*
X710596Y162201D01*
X710663Y162180D01*
X710728Y162155D01*
X710792Y162126D01*
X710855Y162094D01*
X710915Y162058D01*
X710973Y162019D01*
X711029Y161977D01*
X711083Y161932D01*
X711134Y161884D01*
X711182Y161833D01*
X711227Y161779D01*
X711269Y161723D01*
X711308Y161665D01*
X711344Y161605D01*
X711376Y161542D01*
X711405Y161478D01*
X711430Y161413D01*
X711451Y161346D01*
X711469Y161278D01*
X711482Y161209D01*
X711492Y161140D01*
X711498Y161070D01*
X711500Y161000D01*
X711498Y160930D01*
X711492Y160860D01*
X711482Y160791D01*
X711469Y160722D01*
X711451Y160654D01*
X711430Y160587D01*
X711405Y160522D01*
X711376Y160458D01*
X711344Y160395D01*
X711308Y160335D01*
X711269Y160277D01*
X711227Y160221D01*
X711182Y160167D01*
X711134Y160116D01*
X711083Y160068D01*
X711029Y160023D01*
X710973Y159981D01*
X710915Y159942D01*
X710855Y159906D01*
X710792Y159874D01*
X710728Y159845D01*
X710663Y159820D01*
X710596Y159799D01*
X710528Y159781D01*
X710459Y159768D01*
X710390Y159758D01*
X710320Y159752D01*
X710250Y159750D01*
X710180Y159752D01*
X710110Y159758D01*
X710041Y159768D01*
X709972Y159781D01*
X709904Y159799D01*
X709837Y159820D01*
X709772Y159845D01*
X709708Y159874D01*
X709645Y159906D01*
X709585Y159942D01*
X709527Y159981D01*
X709471Y160023D01*
X709417Y160068D01*
X709366Y160116D01*
X709318Y160167D01*
X709273Y160221D01*
X709231Y160277D01*
X709192Y160335D01*
X709156Y160395D01*
X709124Y160458D01*
X709095Y160522D01*
X709070Y160587D01*
X709049Y160654D01*
X709031Y160722D01*
X709018Y160791D01*
X709008Y160860D01*
X709002Y160930D01*
X709000Y161000D01*
D54*
X719000Y183000D02*
X719002Y183109D01*
X719008Y183218D01*
X719018Y183326D01*
X719032Y183434D01*
X719049Y183542D01*
X719071Y183649D01*
X719096Y183755D01*
X719126Y183859D01*
X719159Y183963D01*
X719196Y184066D01*
X719236Y184167D01*
X719280Y184266D01*
X719328Y184364D01*
X719380Y184461D01*
X719434Y184555D01*
X719492Y184647D01*
X719554Y184737D01*
X719619Y184824D01*
X719686Y184910D01*
X719757Y184993D01*
X719831Y185073D01*
X719908Y185150D01*
X719987Y185225D01*
X720069Y185296D01*
X720154Y185365D01*
X720241Y185430D01*
X720330Y185493D01*
X720422Y185551D01*
X720516Y185607D01*
X720611Y185659D01*
X720709Y185708D01*
X720808Y185753D01*
X720909Y185795D01*
X721011Y185832D01*
X721114Y185866D01*
X721219Y185897D01*
X721325Y185923D01*
X721431Y185946D01*
X721539Y185964D01*
X721647Y185979D01*
X721755Y185990D01*
X721864Y185997D01*
X721973Y186000D01*
X722082Y185999D01*
X722191Y185994D01*
X722299Y185985D01*
X722407Y185972D01*
X722515Y185955D01*
X722622Y185935D01*
X722728Y185910D01*
X722833Y185882D01*
X722937Y185850D01*
X723040Y185814D01*
X723142Y185774D01*
X723242Y185731D01*
X723340Y185684D01*
X723437Y185634D01*
X723531Y185580D01*
X723624Y185522D01*
X723715Y185462D01*
X723803Y185398D01*
X723889Y185331D01*
X723972Y185261D01*
X724053Y185188D01*
X724131Y185112D01*
X724206Y185033D01*
X724279Y184951D01*
X724348Y184867D01*
X724414Y184781D01*
X724477Y184692D01*
X724537Y184601D01*
X724594Y184508D01*
X724647Y184413D01*
X724696Y184316D01*
X724742Y184217D01*
X724784Y184117D01*
X724823Y184015D01*
X724858Y183911D01*
X724889Y183807D01*
X724917Y183702D01*
X724940Y183595D01*
X724960Y183488D01*
X724976Y183380D01*
X724988Y183272D01*
X724996Y183163D01*
X725000Y183054D01*
X725000Y182946D01*
X724996Y182837D01*
X724988Y182728D01*
X724976Y182620D01*
X724960Y182512D01*
X724940Y182405D01*
X724917Y182298D01*
X724889Y182193D01*
X724858Y182089D01*
X724823Y181985D01*
X724784Y181883D01*
X724742Y181783D01*
X724696Y181684D01*
X724647Y181587D01*
X724594Y181492D01*
X724537Y181399D01*
X724477Y181308D01*
X724414Y181219D01*
X724348Y181133D01*
X724279Y181049D01*
X724206Y180967D01*
X724131Y180888D01*
X724053Y180812D01*
X723972Y180739D01*
X723889Y180669D01*
X723803Y180602D01*
X723715Y180538D01*
X723624Y180478D01*
X723531Y180420D01*
X723437Y180366D01*
X723340Y180316D01*
X723242Y180269D01*
X723142Y180226D01*
X723040Y180186D01*
X722937Y180150D01*
X722833Y180118D01*
X722728Y180090D01*
X722622Y180065D01*
X722515Y180045D01*
X722407Y180028D01*
X722299Y180015D01*
X722191Y180006D01*
X722082Y180001D01*
X721973Y180000D01*
X721864Y180003D01*
X721755Y180010D01*
X721647Y180021D01*
X721539Y180036D01*
X721431Y180054D01*
X721325Y180077D01*
X721219Y180103D01*
X721114Y180134D01*
X721011Y180168D01*
X720909Y180205D01*
X720808Y180247D01*
X720709Y180292D01*
X720611Y180341D01*
X720516Y180393D01*
X720422Y180449D01*
X720330Y180507D01*
X720241Y180570D01*
X720154Y180635D01*
X720069Y180704D01*
X719987Y180775D01*
X719908Y180850D01*
X719831Y180927D01*
X719757Y181007D01*
X719686Y181090D01*
X719619Y181176D01*
X719554Y181263D01*
X719492Y181353D01*
X719434Y181445D01*
X719380Y181539D01*
X719328Y181636D01*
X719280Y181734D01*
X719236Y181833D01*
X719196Y181934D01*
X719159Y182037D01*
X719126Y182141D01*
X719096Y182245D01*
X719071Y182351D01*
X719049Y182458D01*
X719032Y182566D01*
X719018Y182674D01*
X719008Y182782D01*
X719002Y182891D01*
X719000Y183000D01*
D52*
X937000Y173000D02*
X1063000Y173000D01*
X1063000Y227000D02*
X937000Y227000D01*
X937000Y173000D01*
X1063000Y173000D02*
X1063000Y227000D01*
D53*
X934000Y161000D02*
X934002Y161070D01*
X934008Y161140D01*
X934018Y161209D01*
X934031Y161278D01*
X934049Y161346D01*
X934070Y161413D01*
X934095Y161478D01*
X934124Y161542D01*
X934156Y161605D01*
X934192Y161665D01*
X934231Y161723D01*
X934273Y161779D01*
X934318Y161833D01*
X934366Y161884D01*
X934417Y161932D01*
X934471Y161977D01*
X934527Y162019D01*
X934585Y162058D01*
X934645Y162094D01*
X934708Y162126D01*
X934772Y162155D01*
X934837Y162180D01*
X934904Y162201D01*
X934972Y162219D01*
X935041Y162232D01*
X935110Y162242D01*
X935180Y162248D01*
X935250Y162250D01*
X935320Y162248D01*
X935390Y162242D01*
X935459Y162232D01*
X935528Y162219D01*
X935596Y162201D01*
X935663Y162180D01*
X935728Y162155D01*
X935792Y162126D01*
X935855Y162094D01*
X935915Y162058D01*
X935973Y162019D01*
X936029Y161977D01*
X936083Y161932D01*
X936134Y161884D01*
X936182Y161833D01*
X936227Y161779D01*
X936269Y161723D01*
X936308Y161665D01*
X936344Y161605D01*
X936376Y161542D01*
X936405Y161478D01*
X936430Y161413D01*
X936451Y161346D01*
X936469Y161278D01*
X936482Y161209D01*
X936492Y161140D01*
X936498Y161070D01*
X936500Y161000D01*
X936498Y160930D01*
X936492Y160860D01*
X936482Y160791D01*
X936469Y160722D01*
X936451Y160654D01*
X936430Y160587D01*
X936405Y160522D01*
X936376Y160458D01*
X936344Y160395D01*
X936308Y160335D01*
X936269Y160277D01*
X936227Y160221D01*
X936182Y160167D01*
X936134Y160116D01*
X936083Y160068D01*
X936029Y160023D01*
X935973Y159981D01*
X935915Y159942D01*
X935855Y159906D01*
X935792Y159874D01*
X935728Y159845D01*
X935663Y159820D01*
X935596Y159799D01*
X935528Y159781D01*
X935459Y159768D01*
X935390Y159758D01*
X935320Y159752D01*
X935250Y159750D01*
X935180Y159752D01*
X935110Y159758D01*
X935041Y159768D01*
X934972Y159781D01*
X934904Y159799D01*
X934837Y159820D01*
X934772Y159845D01*
X934708Y159874D01*
X934645Y159906D01*
X934585Y159942D01*
X934527Y159981D01*
X934471Y160023D01*
X934417Y160068D01*
X934366Y160116D01*
X934318Y160167D01*
X934273Y160221D01*
X934231Y160277D01*
X934192Y160335D01*
X934156Y160395D01*
X934124Y160458D01*
X934095Y160522D01*
X934070Y160587D01*
X934049Y160654D01*
X934031Y160722D01*
X934018Y160791D01*
X934008Y160860D01*
X934002Y160930D01*
X934000Y161000D01*
D54*
X944000Y183000D02*
X944002Y183109D01*
X944008Y183218D01*
X944018Y183326D01*
X944032Y183434D01*
X944049Y183542D01*
X944071Y183649D01*
X944096Y183755D01*
X944126Y183859D01*
X944159Y183963D01*
X944196Y184066D01*
X944236Y184167D01*
X944280Y184266D01*
X944328Y184364D01*
X944380Y184461D01*
X944434Y184555D01*
X944492Y184647D01*
X944554Y184737D01*
X944619Y184824D01*
X944686Y184910D01*
X944757Y184993D01*
X944831Y185073D01*
X944908Y185150D01*
X944987Y185225D01*
X945069Y185296D01*
X945154Y185365D01*
X945241Y185430D01*
X945330Y185493D01*
X945422Y185551D01*
X945516Y185607D01*
X945611Y185659D01*
X945709Y185708D01*
X945808Y185753D01*
X945909Y185795D01*
X946011Y185832D01*
X946114Y185866D01*
X946219Y185897D01*
X946325Y185923D01*
X946431Y185946D01*
X946539Y185964D01*
X946647Y185979D01*
X946755Y185990D01*
X946864Y185997D01*
X946973Y186000D01*
X947082Y185999D01*
X947191Y185994D01*
X947299Y185985D01*
X947407Y185972D01*
X947515Y185955D01*
X947622Y185935D01*
X947728Y185910D01*
X947833Y185882D01*
X947937Y185850D01*
X948040Y185814D01*
X948142Y185774D01*
X948242Y185731D01*
X948340Y185684D01*
X948437Y185634D01*
X948531Y185580D01*
X948624Y185522D01*
X948715Y185462D01*
X948803Y185398D01*
X948889Y185331D01*
X948972Y185261D01*
X949053Y185188D01*
X949131Y185112D01*
X949206Y185033D01*
X949279Y184951D01*
X949348Y184867D01*
X949414Y184781D01*
X949477Y184692D01*
X949537Y184601D01*
X949594Y184508D01*
X949647Y184413D01*
X949696Y184316D01*
X949742Y184217D01*
X949784Y184117D01*
X949823Y184015D01*
X949858Y183911D01*
X949889Y183807D01*
X949917Y183702D01*
X949940Y183595D01*
X949960Y183488D01*
X949976Y183380D01*
X949988Y183272D01*
X949996Y183163D01*
X950000Y183054D01*
X950000Y182946D01*
X949996Y182837D01*
X949988Y182728D01*
X949976Y182620D01*
X949960Y182512D01*
X949940Y182405D01*
X949917Y182298D01*
X949889Y182193D01*
X949858Y182089D01*
X949823Y181985D01*
X949784Y181883D01*
X949742Y181783D01*
X949696Y181684D01*
X949647Y181587D01*
X949594Y181492D01*
X949537Y181399D01*
X949477Y181308D01*
X949414Y181219D01*
X949348Y181133D01*
X949279Y181049D01*
X949206Y180967D01*
X949131Y180888D01*
X949053Y180812D01*
X948972Y180739D01*
X948889Y180669D01*
X948803Y180602D01*
X948715Y180538D01*
X948624Y180478D01*
X948531Y180420D01*
X948437Y180366D01*
X948340Y180316D01*
X948242Y180269D01*
X948142Y180226D01*
X948040Y180186D01*
X947937Y180150D01*
X947833Y180118D01*
X947728Y180090D01*
X947622Y180065D01*
X947515Y180045D01*
X947407Y180028D01*
X947299Y180015D01*
X947191Y180006D01*
X947082Y180001D01*
X946973Y180000D01*
X946864Y180003D01*
X946755Y180010D01*
X946647Y180021D01*
X946539Y180036D01*
X946431Y180054D01*
X946325Y180077D01*
X946219Y180103D01*
X946114Y180134D01*
X946011Y180168D01*
X945909Y180205D01*
X945808Y180247D01*
X945709Y180292D01*
X945611Y180341D01*
X945516Y180393D01*
X945422Y180449D01*
X945330Y180507D01*
X945241Y180570D01*
X945154Y180635D01*
X945069Y180704D01*
X944987Y180775D01*
X944908Y180850D01*
X944831Y180927D01*
X944757Y181007D01*
X944686Y181090D01*
X944619Y181176D01*
X944554Y181263D01*
X944492Y181353D01*
X944434Y181445D01*
X944380Y181539D01*
X944328Y181636D01*
X944280Y181734D01*
X944236Y181833D01*
X944196Y181934D01*
X944159Y182037D01*
X944126Y182141D01*
X944096Y182245D01*
X944071Y182351D01*
X944049Y182458D01*
X944032Y182566D01*
X944018Y182674D01*
X944008Y182782D01*
X944002Y182891D01*
X944000Y183000D01*
D55*
X38500Y281000D02*
X35500Y281000D01*
X38500Y281000D02*
X38500Y278000D01*
X35500Y278000D01*
X35500Y271000D01*
X164500Y271000D02*
X164500Y278000D01*
X161500Y278000D01*
X161500Y281000D01*
X164500Y281000D01*
X161500Y281000D02*
X38500Y281000D01*
X35500Y271000D02*
X164500Y271000D01*
X35500Y315000D02*
X35500Y325000D01*
X47500Y325000D01*
X164500Y325000D02*
X164500Y315000D01*
X164500Y325000D02*
X152500Y325000D01*
X35500Y285000D02*
X35500Y281000D01*
X164500Y281000D02*
X164500Y285000D01*
X335500Y281000D02*
X338500Y281000D01*
X338500Y278000D01*
X335500Y278000D01*
X335500Y271000D01*
X464500Y271000D02*
X464500Y278000D01*
X461500Y278000D01*
X461500Y281000D01*
X464500Y281000D01*
X461500Y281000D02*
X338500Y281000D01*
X335500Y271000D02*
X464500Y271000D01*
X335500Y315000D02*
X335500Y325000D01*
X347500Y325000D01*
X464500Y325000D02*
X464500Y315000D01*
X464500Y325000D02*
X452500Y325000D01*
X335500Y285000D02*
X335500Y281000D01*
X464500Y281000D02*
X464500Y285000D01*
X635500Y281000D02*
X638500Y281000D01*
X638500Y278000D01*
X635500Y278000D01*
X635500Y271000D01*
X764500Y271000D02*
X764500Y278000D01*
X761500Y278000D01*
X761500Y281000D01*
X764500Y281000D01*
X761500Y281000D02*
X638500Y281000D01*
X635500Y271000D02*
X764500Y271000D01*
X635500Y315000D02*
X635500Y325000D01*
X647500Y325000D01*
X764500Y325000D02*
X764500Y315000D01*
X764500Y325000D02*
X752500Y325000D01*
X635500Y285000D02*
X635500Y281000D01*
X764500Y281000D02*
X764500Y285000D01*
X935500Y281000D02*
X938500Y281000D01*
X938500Y278000D01*
X935500Y278000D01*
X935500Y271000D01*
X1064500Y271000D02*
X1064500Y278000D01*
X1061500Y278000D01*
X1061500Y281000D01*
X1064500Y281000D01*
X1061500Y281000D02*
X938500Y281000D01*
X935500Y271000D02*
X1064500Y271000D01*
X935500Y315000D02*
X935500Y325000D01*
X947500Y325000D01*
X1064500Y325000D02*
X1064500Y315000D01*
X1064500Y325000D02*
X1052500Y325000D01*
X935500Y285000D02*
X935500Y281000D01*
X1064500Y281000D02*
X1064500Y285000D01*
M02*
