G04 EAGLE Gerber RS-274X export*
G75*
%MOMM*%
%FSLAX34Y34*%
%LPD*%
%INSolderpaste Bottom*%
%IPPOS*%
%AMOC8*
5,1,8,0,0,1.08239X$1,22.5*%
G01*
%ADD10R,0.600000X1.200000*%


D10*
X55550Y228000D03*
X68250Y228000D03*
X80950Y228000D03*
X93650Y228000D03*
X106350Y228000D03*
X119050Y228000D03*
X131750Y228000D03*
X144450Y228000D03*
X144450Y172000D03*
X131750Y172000D03*
X119050Y172000D03*
X106350Y172000D03*
X93650Y172000D03*
X80950Y172000D03*
X68250Y172000D03*
X55550Y172000D03*
X280550Y228000D03*
X293250Y228000D03*
X305950Y228000D03*
X318650Y228000D03*
X331350Y228000D03*
X344050Y228000D03*
X356750Y228000D03*
X369450Y228000D03*
X369450Y172000D03*
X356750Y172000D03*
X344050Y172000D03*
X331350Y172000D03*
X318650Y172000D03*
X305950Y172000D03*
X293250Y172000D03*
X280550Y172000D03*
X505550Y228000D03*
X518250Y228000D03*
X530950Y228000D03*
X543650Y228000D03*
X556350Y228000D03*
X569050Y228000D03*
X581750Y228000D03*
X594450Y228000D03*
X594450Y172000D03*
X581750Y172000D03*
X569050Y172000D03*
X556350Y172000D03*
X543650Y172000D03*
X530950Y172000D03*
X518250Y172000D03*
X505550Y172000D03*
X730550Y228000D03*
X743250Y228000D03*
X755950Y228000D03*
X768650Y228000D03*
X781350Y228000D03*
X794050Y228000D03*
X806750Y228000D03*
X819450Y228000D03*
X819450Y172000D03*
X806750Y172000D03*
X794050Y172000D03*
X781350Y172000D03*
X768650Y172000D03*
X755950Y172000D03*
X743250Y172000D03*
X730550Y172000D03*
X955550Y228000D03*
X968250Y228000D03*
X980950Y228000D03*
X993650Y228000D03*
X1006350Y228000D03*
X1019050Y228000D03*
X1031750Y228000D03*
X1044450Y228000D03*
X1044450Y172000D03*
X1031750Y172000D03*
X1019050Y172000D03*
X1006350Y172000D03*
X993650Y172000D03*
X980950Y172000D03*
X968250Y172000D03*
X955550Y172000D03*
M02*
