M48
;GenerationSoftware,Autodesk,EAGLE,9.6.2*%
;CreationDate,2023-07-14T08:34:15Z*%
FMAT,2
ICI,OFF
METRIC,TZ,000.000
T2C0.350
T1C1.016
%
G90
M71
T1
X52270Y12000
X15080Y12000
X12540Y12000
X10000Y12000
X7460Y12000
X4920Y12000
X27420Y12000
X29960Y12000
X32500Y12000
X35040Y12000
X37580Y12000
X72420Y12000
X74960Y12000
X77500Y12000
X80040Y12000
X82580Y12000
X94920Y12000
X97460Y12000
X100000Y12000
X102540Y12000
X105080Y12000
X57730Y12000
X60270Y12000
X49730Y12000
T2
X50750Y20000
X31250Y18500
X60875Y14750
X102625Y19625
X91375Y17375
X80375Y18375
X93500Y16000
X7250Y14750
X29750Y14500
X30000Y25250
X4625Y18250
X5250Y27625
X12750Y14500
X57750Y14750
X57750Y20125
X35250Y18375
X52375Y19375
X74750Y18750
X4000Y17500
X10375Y26875
X4625Y26875
X5875Y26250
X12000Y25875
X5750Y25250
X12750Y25250
X4500Y21625
X6750Y25250
X12875Y21625
X8750Y28750
X12625Y26750
X14625Y26250
X8750Y27500
X12000Y28250
X10375Y21625
X14250Y21625
X15625Y25250
X9750Y27625
X26000Y16500
X26000Y20000
X31875Y20500
X27750Y25250
X30125Y27250
X28750Y25250
X30625Y26000
X34375Y27125
X31250Y25250
X35125Y25500
X36125Y25250
X30625Y21000
X37125Y25250
X32000Y25875
X38125Y25250
X32625Y26750
X50125Y18750
X54375Y20375
X50250Y25250
X55000Y21750
X51250Y25250
X56500Y27375
X52500Y25250
X57250Y26750
X54000Y25250
X57625Y25500
X58625Y25250
X53125Y21250
X59625Y25250
X55125Y25875
X60625Y25250
X71500Y18625
X77625Y19500
X72750Y25250
X78125Y20375
X73750Y25250
X79000Y27000
X75500Y25250
X79875Y26500
X80375Y25250
X75625Y21625
X76625Y21625
X81250Y21625
X81875Y25250
X77125Y25375
X83125Y25250
X9625Y9500
X105250Y18125
X105125Y27125
X100000Y25250
X104625Y25250
X99625Y19000
X98000Y21250
X103375Y21625
X98500Y25250
X103250Y25875
X96750Y21625
X101875Y26500
X95375Y26250
X101250Y27250
X95250Y25250
X101250Y21750
X92000Y15375
X100250Y19750
X92000Y19750
X2000Y11375
X3375Y12625
X4875Y29625
X5250Y21000
X6125Y31375
X5875Y19750
X6250Y27625
X7375Y20375
X6875Y29375
X6625Y21000
X8000Y30000
X9375Y19750
X8625Y32000
X3000Y28250
X9000Y30125
X10250Y19125
X9750Y29500
X10625Y20375
X7500Y27500
X11750Y14500
X11625Y26875
X12250Y20500
X11125Y32000
X15875Y22500
X11875Y29250
X13750Y19375
X12125Y31250
X16750Y28250
X13500Y30625
X19875Y24250
X13875Y32000
X22125Y22875
X19875Y28750
X28625Y20375
X34875Y31125
X29375Y21625
X33875Y28000
X29875Y20375
X35125Y28625
X32000Y14750
X35750Y27875
X32500Y21750
X36750Y29000
X32750Y14125
X37875Y27875
X37375Y14750
X38000Y29250
X34500Y21625
X38625Y26250
X34000Y14750
X38875Y21750
X36375Y14750
X38625Y19625
X36125Y18875
X45875Y14875
X50000Y14125
X42750Y19625
X49625Y17500
X43750Y19625
X50750Y14750
X42750Y21750
X51500Y20625
X43750Y21625
X53250Y14750
X43750Y22625
X53125Y20000
X47625Y14000
X53125Y13750
X62125Y20250
X55125Y13250
X65625Y32000
X68750Y29000
X66000Y26750
X56875Y20625
X65250Y25125
X57625Y18375
X66250Y25250
X59000Y20375
X66500Y23750
X58875Y19375
X62125Y17625
X59250Y14750
X69125Y30250
X70375Y29000
X69375Y17500
X72125Y17500
X70750Y26375
X73875Y21500
X71125Y25375
X75375Y19875
X70750Y20875
X68375Y16750
X74375Y26375
X76375Y14750
X72750Y27125
X77500Y14625
X73375Y31000
X77500Y18250
X80000Y14750
X78875Y13750
X74875Y32000
X85750Y29125
X77750Y27250
X79875Y20000
X91875Y29125
X81500Y18750
X86875Y19375
X84375Y16875
X96000Y31125
X84500Y28500
X95125Y29375
X93250Y21125
X95000Y28375
X94000Y21750
X97625Y31000
X96000Y14750
X96375Y27000
X97750Y14750
X99750Y28375
X98875Y14750
X100375Y30125
X99875Y14750
X97375Y26000
X97375Y20500
X104250Y31125
X107125Y28250
X104000Y26500
X105000Y21000
X103125Y28500
X104250Y10125
X102500Y27250
X103250Y18375
X101625Y28500
X100875Y20500
X101750Y30750
X75125Y27000
X101375Y32000
X98625Y20500
X16500Y23875
X37625Y19625
X83750Y27875
X64000Y25625
X105750Y27875
X7000Y19125
X22250Y24000
X71500Y22500
X67625Y18625
X93375Y24000
X45375Y27250
X104250Y14500
X49250Y9375
X17125Y15500
X16750Y11375
X38375Y14000
X73125Y14750
X78750Y14750
X83625Y18625
X100500Y18375
X82750Y21875
X94000Y18625
X97625Y18500
X104000Y20875
X79750Y21000
X14500Y25250
X59375Y21625
X54250Y18375
X56250Y21625
X37000Y21625
X3500Y16000
X5750Y14750
X33375Y18500
X28000Y18750
X101375Y14750
M30